<?xml version="1.0" encoding="utf-8"?>
<!-- Generator: Adobe Illustrator 17.1.0, SVG Export Plug-In . SVG Version: 6.00 Build 0)  -->
<!DOCTYPE svg PUBLIC "-//W3C//DTD SVG 1.1//EN" "http://www.w3.org/Graphics/SVG/1.1/DTD/svg11.dtd">
<svg version="1.1" id="Layer_1" xmlns="http://www.w3.org/2000/svg" xmlns:xlink="http://www.w3.org/1999/xlink" x="0px" y="0px"
	 viewBox="30 -25 60 60" enable-background="new 30 -25 60 60" xml:space="preserve">
<path fill="#2D2D2D" d="M76.3-21.4H43.7c-5.6,0-10.1,4.5-10.1,10.1l0,0v32.7c0,5.6,4.5,10.1,10.1,10.1h32.7
	c5.6,0,10.1-4.5,10.1-10.1v-32.7C86.4-16.9,81.9-21.4,76.3-21.4z M43.7-19.8h15.6V4.2H35.2v-15.6C35.2-16,39-19.8,43.7-19.8z
	 M35.2,21.3V5.8h24.1v24.1H43.7C39,29.8,35.2,26,35.2,21.3z M76.3,29.8H60.8V5.8h24.1v15.6C84.8,26,81,29.8,76.3,29.8z M84.8,4.2
	H60.8v-24.1h15.6c4.7,0,8.5,3.8,8.5,8.5V4.2z"/>
<path fill="#2D2D2D" d="M77.3-7.7h-4.6v-4.6c0-0.4-0.3-0.8-0.8-0.8s-0.8,0.3-0.8,0.8v4.6h-4.6c-0.4,0-0.8,0.3-0.8,0.8
	c0,0.4,0.3,0.8,0.8,0.8h4.6v4.6c0,0.4,0.3,0.8,0.8,0.8s0.8-0.3,0.8-0.8v-4.6h4.6C77.7-6.2,78-6.5,78-7C78-7.4,77.7-7.7,77.3-7.7z"/>
<path fill="#2D2D2D" d="M77.3,16.2H67.1c-0.4,0-0.8,0.3-0.8,0.8c0,0.4,0.3,0.8,0.8,0.8h10.1c0.4,0,0.8-0.3,0.8-0.8
	C78,16.6,77.7,16.2,77.3,16.2z"/>
<path fill="#2D2D2D" d="M41.8-9.8h10.9c0.4,0,0.8-0.3,0.8-0.8s-0.3-0.8-0.8-0.8H41.8c-0.4,0-0.8,0.3-0.8,0.8S41.3-9.8,41.8-9.8z"/>
<path fill="#2D2D2D" d="M41.8-3.7h10.9c0.4,0,0.8-0.3,0.8-0.8s-0.3-0.8-0.8-0.8H41.8c-0.4,0-0.8,0.3-0.8,0.8S41.3-3.7,41.8-3.7z"/>
<path fill="#2D2D2D" d="M47.5,17l3.9-3.9c0.3-0.3,0.2-0.8-0.1-1.1c-0.3-0.2-0.7-0.2-1,0l-3.9,3.9l-3.9-3.9c-0.3-0.3-0.8-0.2-1.1,0.1
	c-0.2,0.3-0.2,0.7,0,1l3.9,3.9l-3.9,3.9c-0.3,0.3-0.4,0.8-0.1,1.1c0.3,0.3,0.8,0.4,1.1,0.1c0,0,0.1-0.1,0.1-0.1l3.9-3.9l3.9,3.9
	c0.3,0.3,0.8,0.2,1.1-0.1c0.2-0.3,0.2-0.7,0-1L47.5,17z"/>
</svg>
