<?xml version="1.0" encoding="utf-8"?>
<!-- Generator: Adobe Illustrator 17.1.0, SVG Export Plug-In . SVG Version: 6.00 Build 0)  -->
<!DOCTYPE svg PUBLIC "-//W3C//DTD SVG 1.1//EN" "http://www.w3.org/Graphics/SVG/1.1/DTD/svg11.dtd">
<svg version="1.1" id="Layer_1" xmlns="http://www.w3.org/2000/svg" xmlns:xlink="http://www.w3.org/1999/xlink" x="0px" y="0px"
	 viewBox="-24.5 -25 60 60" enable-background="new -24.5 -25 60 60" xml:space="preserve">
<g display="none">
	<path display="inline" d="M65.2,74.2H-40.1c-0.1,0-0.2-0.1-0.2-0.2V-31.2c0-0.1,0.1-0.2,0.2-0.2H65.2c0.1,0,0.2,0.1,0.2,0.2V74
		C65.4,74.1,65.3,74.2,65.2,74.2z"/>
</g>
<g>
	<path fill="#FCFCFC" d="M5.9,31.4c14.9,0,27-12.1,27-27s-12.1-27-27-27s-27,12.1-27,27S-9,31.4,5.9,31.4z M5.9-20.9
		c13.9,0,25.3,11.3,25.3,25.3S19.8,29.6,5.9,29.6S-19.4,18.3-19.4,4.4S-8.1-20.9,5.9-20.9z"/>
	<path fill="#FCFCFC" d="M-8.6,19.8c0.9,0.9,2.1,1.4,3.3,1.4c1.3,0,2.4-0.5,3.3-1.4L9.7,8.1C13.3,9,17,8,19.6,5.3
		c3.1-3.1,3.9-7.6,2.2-11.6l-0.5-1.2L16-2c-0.2,0.2-0.7,0.2-0.9,0l-2.8-2.8c-0.3-0.3-0.3-0.7,0-0.9l5.3-5.3l-1.2-0.5
		c-4-1.7-8.5-0.9-11.6,2.2C2.2-6.8,1.2-3.1,2.1,0.5L-9.6,12.2c-0.9,0.9-1.4,2.1-1.4,3.3s0.5,2.4,1.4,3.3L-8.6,19.8z M-8.4,13.5
		L4.1,1L3.9,0.5C3-2.6,3.8-5.9,6.1-8.2c1.7-1.7,3.9-2.6,6.1-2.6c0.8,0,1.5,0.1,2.3,0.3L11-7c-0.9,0.9-0.9,2.5,0,3.4l2.8,2.8
		c0.5,0.5,1.1,0.7,1.7,0.7c0.6,0,1.2-0.2,1.7-0.7l3.5-3.5c0.8,3,0,6.2-2.3,8.4c-2.3,2.3-5.6,3.1-8.7,2.2L9.2,6.1L-3.3,18.6
		c-0.6,0.6-1.3,0.9-2.1,0.9s-1.5-0.3-2.1-0.9l-1-1c-0.6-0.6-0.9-1.3-0.9-2.1C-9.2,14.8-8.9,14-8.4,13.5z"/>
</g>
</svg>
