<?xml version="1.0" encoding="utf-8"?>
<!-- Generator: Adobe Illustrator 21.0.0, SVG Export Plug-In . SVG Version: 6.00 Build 0)  -->
<svg version="1.1" id="Слой_1" xmlns="http://www.w3.org/2000/svg" xmlns:xlink="http://www.w3.org/1999/xlink" x="0px" y="0px"
	 viewBox="0 0 24 24" style="enable-background:new 0 0 24 24;" xml:space="preserve">
<path d="M23,10h-8.5C14.2,10,14,9.8,14,9.5V1c0-0.6-0.4-1-1-1h-2c-0.6,0-1,0.4-1,1v8.5C10,9.8,9.8,10,9.5,10H1c-0.6,0-1,0.4-1,1v2
	c0,0.6,0.4,1,1,1h8.5c0.3,0,0.5,0.2,0.5,0.5V23c0,0.6,0.4,1,1,1h2c0.6,0,1-0.4,1-1v-8.5c0-0.3,0.2-0.5,0.5-0.5H23c0.6,0,1-0.4,1-1
	v-2C24,10.4,23.6,10,23,10z"/>
</svg>
