<?xml version="1.0" encoding="utf-8"?>
<!-- Generator: Adobe Illustrator 22.1.0, SVG Export Plug-In . SVG Version: 6.00 Build 0)  -->
<svg version="1.1" id="Слой_1" xmlns="http://www.w3.org/2000/svg" xmlns:xlink="http://www.w3.org/1999/xlink" x="0px" y="0px"
	 viewBox="0 0 200 200" style="enable-background:new 0 0 200 200;" xml:space="preserve">
<style type="text/css">
	.st0{fill:#F8DC2F;}
	.st1{fill:#262424;}
	.st2{fill:#F0DB3B;}
</style>
<g>
	<circle class="st0" cx="100" cy="100" r="99"/>
	<g>
		<path class="st1" d="M120.6,107.5H79.3v-9c1.3-0.1,10.3-2.8,10.3-2.8V58l-10.1,3.9l-5.7-11.5c0,0,26-11.6,26.7-12.6h9.9v57.9
			c0,0,9.1,2.8,10.3,2.9V107.5z"/>
	</g>
	<g>
		<path class="st1" d="M47.9,115.7h6.4l5.4,14.6l5.4-14.6h6.4v20.7h-4.8V123l-4.8,13.5h-4.3L52.7,123v13.5h-4.8V115.7z"/>
		<path class="st1" d="M75.4,115.7h14.9v4.1H80.2v4.1h8.7v4.1h-8.7v4.3h10.2v4.1H75.4V115.7z"/>
		<path class="st1" d="M91.9,126.1c0-6.3,4.5-10.8,10.7-10.8c4.4,0,7.5,1.9,9.4,4.9l-3.5,2.7c-1.3-2-2.9-3.2-5.8-3.2
			c-3.6,0-5.9,2.8-5.9,6.4c0,3.7,2.2,6.4,5.9,6.4c2.9,0,4.5-1.2,5.8-3.2l3.5,2.7c-1.9,3-5,4.9-9.4,4.9
			C96.4,136.9,91.9,132.4,91.9,126.1z"/>
		<path class="st1" d="M118.9,119.8h-6.1v-4.1h17v4.1h-6.1v16.6h-4.8V119.8z"/>
		<path class="st1" d="M130.2,126.1c0-6.3,4.5-10.8,10.7-10.8c6.2,0,10.7,4.5,10.7,10.8s-4.5,10.8-10.7,10.8
			C134.6,136.9,130.2,132.4,130.2,126.1z M146.6,126.1c0-3.7-2.1-6.4-5.8-6.4c-3.6,0-5.8,2.8-5.8,6.4c0,3.7,2.1,6.4,5.8,6.4
			C144.5,132.5,146.6,129.8,146.6,126.1z"/>
	</g>
	<g>
		<path class="st1" d="M106.4,149.3c0,4.2-3.4,7.6-7.6,7.6c-4.2,0-7.6-3.4-7.6-7.6c0-4.2,3.4-7.6,7.6-7.6
			C103,141.7,106.4,145.1,106.4,149.3z"/>
	</g>
	<path class="st2" d="M98.7,155.5L98.7,155.5c-3.4,0-6.2-2.8-6.2-6.2c0,0,0,0,0,0c0-3.4,2.8-6.2,6.2-6.2c3.4,0,6.2,2.8,6.2,6.2
		C104.9,152.7,102.1,155.5,98.7,155.5z M98.7,154.3C98.7,154.3,98.7,154.3,98.7,154.3c2.8,0,5-2.2,5-5c0-2.7-2.2-5-5-5
		c-2.7,0-5,2.2-5,5c0,0,0,0,0,0C93.7,152,95.9,154.2,98.7,154.3C98.6,154.3,98.6,154.3,98.7,154.3z"/>
	<g>
		<g>
			<g>
				<path class="st1" d="M98.7,143.7c-3.1,0-5.6,2.5-5.6,5.6h5.6V143.7z"/>
			</g>
		</g>
		<g>
			<path class="st1" d="M98.7,143.7c-3.1,0-5.6,2.5-5.6,5.6h5.6V143.7z"/>
		</g>
		<g>
			<path class="st1" d="M98.7,154.9c3.1,0,5.6-2.5,5.6-5.6h-5.6V154.9z"/>
		</g>
	</g>
	<g>
		<g>
			<g>
				<path class="st2" d="M93,149.3c0,3.1,2.5,5.6,5.6,5.6v-5.6H93z"/>
			</g>
		</g>
		<g>
			<path class="st2" d="M93,149.3c0,3.1,2.5,5.6,5.6,5.6v-5.6H93z"/>
		</g>
		<g>
			<path class="st2" d="M104.3,149.3c0-3.1-2.5-5.6-5.6-5.6v5.6H104.3z"/>
		</g>
	</g>
	<polygon class="st1" points="53.2,146.1 55.4,141.5 57.7,146.1 62.7,146.8 59.1,150.3 60,155.3 55.5,153 51,155.4 51.8,150.4 
		48.2,146.8 	"/>
	<polygon class="st1" points="74.9,146.1 77.1,141.5 79.3,146.1 84.4,146.8 80.7,150.3 81.6,155.3 77.1,153 72.7,155.4 73.5,150.4 
		69.8,146.8 	"/>
	<polygon class="st1" points="118.2,146.5 120.4,142 122.6,146.5 127.7,147.2 124.1,150.8 124.9,155.8 120.4,153.4 116,155.8 
		116.8,150.8 113.2,147.3 	"/>
	<polygon class="st1" points="139.8,146.5 142,142 144.3,146.5 149.3,147.2 145.7,150.8 146.6,155.8 142.1,153.4 137.6,155.8 
		138.5,150.8 134.8,147.3 	"/>
</g>
</svg>
