<?xml version="1.0" standalone="no"?>
<!DOCTYPE svg PUBLIC "-//W3C//DTD SVG 1.1//EN" "http://www.w3.org/Graphics/SVG/1.1/DTD/svg11.dtd" >
<svg xmlns="http://www.w3.org/2000/svg">
<metadata>
Generated by SVGconv.
</metadata>
<defs>
<font id="RUSModernH-EcoLightCond" horiz-adv-x="446" >
<font-face units-per-em="1000" ascent="1050" descent="350" />
<missing-glyph horiz-adv-x="750" />
<glyph unicode="&#13;" horiz-adv-x="300" />
<glyph unicode="&#32;" horiz-adv-x="300" />
<glyph unicode="&#33;" horiz-adv-x="273" d="M119 223l-13 547h61l-13 -547zM163 0h-55v81l55 0z" />
<glyph unicode="&#34;" horiz-adv-x="327" d="M122 781l-10 -271h-15q-9 0 -11.5 8.5q-2.5 8.5 -3.5 19.5l-10 243zM241 781l-10 -271h-15q-9 0 -11.5 8.5q-2.5 8.5 -3.5 19.5l-10 243z" />
<glyph unicode="&#35;" horiz-adv-x="492" d="M344 227l-22 -197q-2 -14 -6 -22q-4 -8 -17 -8h-19l25 227h-153l-22 -197q-2 -14 -6 -22q-4 -8 -17 -8h-19l25 227h-85v34h89l27 237h-77v34h81l24 214h38l-24 -214h154l24 214h38l-24 -214h85v-11q0 -15 -3.5 -19q-3.5 -4 -14.5 -4h-71l-26 -237h76v-11q0 -15 -3.5 -19q-3.5 -4 -14.5 -4zM156 261h153l27 237l-154 0z" />
<glyph unicode="&#36;" horiz-adv-x="373" d="M203 716h108v-9q0 -20 -7.5 -24.5q-7.5 -4.5 -21.5 -4.5h-79v-291l44 -34q48 -36 68 -73.5q20 -37.5 20 -89.5q0 -69 -29.5 -112q-29.5 -43 -102.5 -48l0 -73h-20q-16 0 -16 27v46h-127v9q0 20 7.5 24.5q7.5 4.5 21.5 4.5h98v294l-38 30q-48 36 -68 74q-20 38 -20 90q0 68 28 110.5q28 42.5 98 48.5l0 75h36zM203 333v-265q49 2 69.5 36q20.5 34 20.5 83q0 42 -14.5 70.5q-14.5 28.5 -50.5 56.5zM167 416v261q-47 -4 -65.5 -37q-18.5 -33 -18.5 -81q0 -42 14.5 -71q14.5 -29 50.5 -57z" />
<glyph unicode="&#38;" horiz-adv-x="482" d="M376 69q-28 -43 -68 -63q-40 -20 -94 -20q-45 0 -78 17.5q-33 17.5 -55 45.5q-22 28 -33 63q-11 35 -11 69q0 34 6.5 60q6.5 26 18.5 47.5q12 21.5 28.5 40.5q16.5 19 36.5 39l43 42l-47 77q-16 26 -28.5 58.5q-12.5 32.5 -12.5 70.5q0 66 32.5 105.5q32.5 39.5 100.5 39.5q66 0 99.5 -38q33.5 -38 33.5 -103q0 -42 -13 -77q-13 -35 -44 -68l-72 -69l154 -256q14 39 20.5 83.5q6.5 44.5 8.5 88.5l37 -7q-9 -129 -42 -206l66 -109h-44zM214 27q51 0 84.5 22q33.5 22 54.5 59l-163 269l-39 -37q-45 -44 -59 -79.5q-14 -35.5 -14 -72.5q0 -35 10.5 -64.5q10.5 -29.5 28.5 -51q18 -21.5 43 -33.5q25 -12 54 -12zt0 0zM122 619q0 -28 8.5 -54.5q8.5 -26.5 21.5 -46.5l47 -79l62 60q29 32 38 60.5q9 28.5 9 59.5q0 19 -5.5 37.5q-5.5 18.5 -16.5 32.5q-11 14 -28.5 23q-17.5 9 -42.5 9q-25 0 -42.5 -9q-17.5 -9 -29 -23q-11.5 -14 -16.5 -32.5t-5 -37.5z" />
<glyph unicode="&#8217;" horiz-adv-x="262" d="M103 698v106h54v-120q0 -47 -13.5 -72.5q-13.5 -25.5 -38.5 -42.5l-10 16q17 17 25 36q8 19 8 47l0 30z" />
<glyph unicode="&#40;" horiz-adv-x="290" d="M135 219q5 -66 25 -125.5q20 -59.5 57 -93.5l-22 -31q-43 38 -70.5 106q-27.5 68 -33.5 147q-6 76 -6 162q0 44 1 83q1 39 5 77q8 81 32.5 142.5q24.5 61.5 73.5 105.5l20 -27q-35 -33 -55 -91q-20 -58 -27 -126q-4 -36 -5 -78q-1 -42 -1 -86q0 -48 1 -88.5t5 -76.5z" />
<glyph unicode="&#41;" horiz-adv-x="294" d="M156 219q4 36 5 76.5q1 40.5 1 88.5q0 44 -1 86q-1 42 -5 78q-7 68 -27 126q-20 58 -55 91l20 27q49 -44 73.5 -105.5q24.5 -61.5 32.5 -142.5q4 -38 5 -77q1 -39 1 -83q0 -86 -6 -162q-6 -79 -33.5 -147q-27.5 -68 -70.5 -106l-22 31q37 34 57 93.5t25 125.5z" />
<glyph unicode="&#42;" horiz-adv-x="430" d="M231 582l112 126l33 -47l-135 -97l134 -83l-30 -51l-114 116l13 -199h-49l13 199l-114 -116l-30 51l134 83l-135 97l33 47l112 -126l-13 199l49 0z" />
<glyph unicode="&#44;" horiz-adv-x="122" d="M38 0v106h54v-120q0 -47 -13.5 -72.5q-13.5 -25.5 -38.5 -42.5l-10 16q17 17 25 36q8 19 8 47l0 30z" />
<glyph unicode="&#45;" horiz-adv-x="396" d="M66 322h264v-45l-264 0z" />
<glyph unicode="&#46;" horiz-adv-x="114" d="M84 0h-54v106l54 0z" />
<glyph unicode="&#47;" horiz-adv-x="355" d="M305 781l-202 -803h-46l201 803z" />
<glyph unicode="&#48;" horiz-adv-x="426" d="M213 28q37 0 59 24.5q22 24.5 33.5 69.5q11.5 45 15 107.5q3.5 62.5 3.5 139.5q0 79 -3.5 143.5q-3.5 64.5 -15 110.5q-11.5 46 -33.5 70.5q-22 24.5 -59 24.5q-37 0 -59 -24.5q-22 -24.5 -33.5 -69.5q-11.5 -45 -15 -108q-3.5 -63 -3.5 -139q0 -80 3.5 -144q3.5 -64 15 -110q11.5 -46 33.5 -70.5q22 -24.5 59 -24.5zt0 0zM213 -14q-47 0 -77.5 24q-30.5 24 -48.5 73q-18 49 -25 122q-7 73 -7 172q0 93 6.5 164q6.5 71 24 120q17.5 49 48 74q30.5 25 79.5 25q47 0 77.5 -24q30.5 -24 48.5 -73q18 -49 25 -122q7 -73 7 -172q0 -93 -6.5 -164q-6.5 -71 -24 -120q-17.5 -49 -48 -74t-79.5 -25z" />
<glyph unicode="&#49;" horiz-adv-x="259" d="M169 0h-19q-14 0 -20 9.5q-6 9.5 -6 32.5v660h-89v44h118q16 0 16 -19z" />
<glyph unicode="&#50;" horiz-adv-x="381" d="M81 0q-19 0 -28 8.5q-9 8.5 -9 36.5v94q0 41 11 70q11 29 31 52l138 149q37 41 48.5 84q11.5 43 11.5 75q0 74 -36 108q-36 34 -87 34q-52 0 -109 -27l0 48q23 11 52 17q29 6 57 6q78 0 123.5 -46.5q45.5 -46.5 45.5 -132.5q0 -64 -19 -111q-19 -47 -58 -90l-135 -144q-19 -21 -24.5 -45q-5.5 -24 -5.5 -53v-90h249v-12q0 -13 -6 -22q-6 -9 -22 -9z" />
<glyph unicode="&#51;" horiz-adv-x="357" d="M139 755q74 0 117.5 -47.5q43.5 -47.5 42.5 -146.5q-1 -65 -23.5 -112.5q-22.5 -47.5 -60.5 -62.5q50 -16 73.5 -67q23.5 -51 23.5 -115q0 -60 -12.5 -101q-12.5 -41 -35.5 -65.5q-23 -24.5 -57.5 -34.5q-34.5 -10 -77.5 -9q-26 1 -47.5 3q-21.5 2 -56.5 10l0 19q0 12 5.5 18.5q5.5 6.5 18.5 4.5q20 -5 37.5 -7.5q17.5 -2.5 43.5 -2.5q31 0 56 5.5q25 5.5 43 22q18 16.5 27.5 48q9.5 31.5 9.5 83.5q0 91 -30 128q-30 37 -90 37h-68q-15 0 -18 2.5q-3 2.5 -3 16.5v21h89q59 0 83 44q24 44 24 116q0 72 -27 110q-27 38 -87 38q-55 0 -103 -18l0 44q27 9 54.5 13.5t48.5 4.5z" />
<glyph unicode="&#52;" horiz-adv-x="368" d="M305 149v-149h-20q-13 0 -18 9.5q-5 9.5 -5 32.5v107h-246v38l201 522q8 19 16.5 28q8.5 9 25.5 9h46v-557h47v-16q0 -24 -18 -24zM62 189h200l0 521z" />
<glyph unicode="&#53;" horiz-adv-x="380" d="M61 394v352h262v-15q0 -15 -5 -19.5q-5 -4.5 -16 -4.5h-196v-274h60q88 0 128.5 -51.5q40.5 -51.5 40.5 -170.5q0 -116 -44 -166.5q-44 -50.5 -128 -50.5q-21 0 -50.5 4q-29.5 4 -59.5 9l0 20q0 17 10.5 19q10.5 2 17.5 0q22 -3 40 -5.5q18 -2.5 40 -3.5q67 -2 98 41q31 43 31 135q0 55 -8.5 90q-8.5 35 -24.5 55.5q-16 20.5 -38.5 28q-22.5 7.5 -50.5 7.5z" />
<glyph unicode="&#54;" horiz-adv-x="389" d="M315 724q0 -11 -6.5 -15q-6.5 -4 -14.5 -2q-17 2 -33.5 3.5q-16.5 1.5 -31.5 1.5q-52 0 -81.5 -21q-29.5 -21 -43.5 -53q-14 -32 -17.5 -70.5q-3.5 -38.5 -3.5 -72.5v-87q17 38 44 56.5q27 18.5 69 18.5q36 0 63 -14.5q27 -14.5 45 -41q18 -26.5 26.5 -63q8.5 -36.5 8.5 -81.5v-83q0 -100 -38 -153q-38 -53 -109 -53q-72 0 -112 53.5q-40 53.5 -40 152.5v283q0 67 9 117.5q9 50.5 29 85q20 34.5 53.5 52q33.5 17.5 83.5 17.5q26 0 50 -1.5q24 -1.5 50 -4.5zM296 268q0 92 -26 130.5q-26 38.5 -75 38.5q-54 0 -83 -38q-29 -38 -29 -125v-67q0 -88 24.5 -129q24.5 -41 84.5 -41q51 0 77.5 41.5q26.5 41.5 26.5 129.5z" />
<glyph unicode="&#55;" horiz-adv-x="298" d="M283 708q0 -14 -2 -26q-2 -12 -5 -23l-163 -637q-2 -9 -7.5 -15.5q-5.5 -6.5 -13.5 -6.5h-28l179 702h-258v44h285q7 0 10 -2q3 -2 3 -10z" />
<glyph unicode="&#56;" horiz-adv-x="432" d="M215 413q109 0 109 150q0 78 -27.5 114q-27.5 36 -80.5 36q-53 0 -80.5 -36q-27.5 -36 -27.5 -114q0 -150 107 -150zt0 0zM215 36q61 0 91 43.5q30 43.5 30 125.5q0 85 -27.5 128.5q-27.5 43.5 -92.5 43.5q-65 0 -92.5 -43.5q-27.5 -43.5 -27.5 -128.5q0 -81 29.5 -124.5q29.5 -43.5 89.5 -44.5zt0 0zM215 -6q-36 0 -66 12q-30 12 -52 36.5q-22 24.5 -34.5 62q-12.5 37.5 -12.5 89.5q0 79 17.5 127q17.5 48 64.5 76q-20 13 -33.5 32q-13.5 19 -21.5 41.5q-8 22.5 -11 46q-3 23.5 -3 45.5q0 54 12 91q12 37 32.5 59.5q20.5 22.5 48.5 32.5q28 10 60 10q32 0 60 -10q28 -10 48.5 -32.5q20.5 -22.5 32.5 -59.5q12 -37 12 -91q0 -22 -3 -45.5q-3 -23.5 -11 -46q-8 -22.5 -21.5 -41.5q-13.5 -19 -33.5 -32q47 -28 64.5 -76q17.5 -48 17.5 -127q0 -52 -12.5 -90q-12.5 -38 -35 -62.5q-22.5 -24.5 -53 -36t-66.5 -11.5z" />
<glyph unicode="&#57;" horiz-adv-x="389" d="M64 25q0 14 8 16.5q8 2.5 19 1.5q18 -2 37 -3q19 -1 36 -2q48 0 74.5 23q26.5 23 39 56q12.5 33 15.5 70q3 37 3 64v99q-14 -33 -42.5 -52.5q-28.5 -19.5 -70.5 -19.5q-36 0 -63 14.5q-27 14.5 -45 41q-18 26.5 -26.5 63q-8.5 36.5 -8.5 81.5v70q0 100 38 153q38 53 109 53q72 0 112 -53.5q40 -53.5 40 -152.5v-284q0 -67 -9 -117.5q-9 -50.5 -29 -84.5q-20 -34 -54 -51q-34 -17 -83 -17q-26 0 -50 1.5q-24 1.5 -50 4.5zM83 493q0 -92 26 -130.5q26 -38.5 75 -38.5q54 0 83 38q29 38 29 125v55q0 88 -24.5 129q-24.5 41 -84.5 41q-51 0 -77.5 -41.5q-26.5 -41.5 -26.5 -129.5z" />
<glyph unicode="&#58;" horiz-adv-x="114" d="M84 0h-54v106h54zM84 402h-54v106l54 0z" />
<glyph unicode="&#59;" horiz-adv-x="122" d="M38 0v106h54v-120q0 -47 -13.5 -72.5q-13.5 -25.5 -38.5 -42.5l-10 16q17 17 25 36q8 19 8 47v30zM92 402h-54v106l54 0z" />
<glyph unicode="&#60;" horiz-adv-x="367" d="M260 51l-199 318l199 317l30 -35l-175 -284l174 -282z" />
<glyph unicode="&#61;" horiz-adv-x="610" d="M79 508h452v-42h-452zM79 307h452v-42l-452 0z" />
<glyph unicode="&#62;" horiz-adv-x="350" d="M90 87l176 282l-175 284l30 33l199 -317l-199 -318z" />
<glyph unicode="&#63;" horiz-adv-x="336" d="M124 204v49q0 43 7 73q7 30 28 50l60 57q32 31 41.5 70q9.5 39 9.5 74q0 82 -36 116q-36 34 -92 34q-27 0 -56.5 -6.5q-29.5 -6.5 -61.5 -18.5l-4 42q28 11 61 18.5q33 7.5 66 7.5q37 0 68 -11.5q31 -11.5 53.5 -35.5q22.5 -24 35 -60.5q12.5 -36.5 12.5 -85.5q0 -57 -15 -96.5q-15 -39.5 -39 -62.5l-69 -66q-20 -20 -23 -43.5q-3 -23.5 -3 -60.5v-44zM174 0h-54v81l54 0z" />
<glyph unicode="&#64;" horiz-adv-x="646" d="M337 793q69 0 120 -28q51 -28 84.5 -76.5q33.5 -48.5 50 -113.5q16.5 -65 16.5 -139q0 -51 -10.5 -103.5q-10.5 -52.5 -31 -95q-20.5 -42.5 -50.5 -69.5q-30 -27 -69 -27h-150q-46 0 -74 33.5q-28 33.5 -28 88.5v52q0 64 28 93.5q28 29.5 78 29.5q15 0 27 -0.5q12 -0.5 23 -1.5q11 -1 23.5 -2.5q12.5 -1.5 27.5 -3.5l0 65q0 38 -11.5 58.5q-11.5 20.5 -48.5 20.5h-101q-12 0 -16 4.5q-4 4.5 -4 17.5v22h131q52 0 71 -36.5q19 -36.5 19 -97.5v-301q34 0 58.5 24q24.5 24 40.5 60.5q16 36.5 23 81.5q7 45 7 87q0 64 -13 121q-13 57 -41.5 100q-28.5 43 -72.5 68.5q-44 25.5 -107 25.5q-65 0 -114 -25.5q-49 -25.5 -82.5 -74q-33.5 -48.5 -50.5 -118q-17 -69.5 -17 -157.5q0 -95 20.5 -162.5q20.5 -67.5 55 -111q34.5 -43.5 80.5 -64q46 -20.5 97 -20.5q34 0 68 7q34 7 66 20l12 -42q-32 -15 -72 -23.5q-40 -8.5 -76 -8.5q-58 0 -110.5 22.5q-52.5 22.5 -92 71.5q-39.5 49 -62.5 126q-23 77 -23 185q0 91 19 167.5q19 76.5 57 132q38 55.5 94.5 86.5q56.5 31 130.5 31zt0 0zM311 395q-37 0 -55.5 -17q-18.5 -17 -18.5 -66v-41q0 -48 18 -68q18 -20 56 -20h91v204q-15 3 -26.5 4.5q-11.5 1.5 -21.5 2q-10 0.5 -20 1t-23 0.5z" />
<glyph unicode="&#67;" horiz-adv-x="402" d="M209 0q-72 0 -110 45.5q-38 45.5 -38 132.5v390q0 87 38 132.5q38 45.5 110 45.5h166v-8q0 -14 -6 -23.5q-6 -9.5 -28 -9.5h-128q-106 0 -106 -152v-360q0 -152 106 -152h169v-8q0 -14 -6 -23.5q-6 -9.5 -28 -9.5z" />
<glyph unicode="&#68;" horiz-adv-x="479" d="M74 0v746h177q43 0 74.5 -14.5q31.5 -14.5 52 -41.5q20.5 -27 30.5 -64.5q10 -37.5 10 -82.5v-340q0 -45 -10 -82.5q-10 -37.5 -30.5 -64.5q-20.5 -27 -52 -41.5q-31.5 -14.5 -74.5 -14.5zM373 545q0 162 -129 162h-126v-668h126q129 0 129 162z" />
<glyph unicode="&#69;" horiz-adv-x="429" d="M385 32q0 -17 -5 -24.5q-5 -7.5 -21 -7.5h-285v746h311v-7q0 -17 -5 -24.5q-5 -7.5 -21 -7.5h-240v-287h243v-9q0 -14 -4.5 -21.5q-4.5 -7.5 -21.5 -7.5h-217v-343l266 0z" />
<glyph unicode="&#70;" horiz-adv-x="417" d="M100 0q-26 0 -26 36v710h320v-7q0 -14 -5.5 -23q-5.5 -9 -24.5 -9h-245v-287h251v-10q0 -14 -4.5 -21.5q-4.5 -7.5 -21.5 -7.5h-225l0 -381z" />
<glyph unicode="&#71;" horiz-adv-x="453" d="M209 0q-72 0 -110 45.5q-38 45.5 -38 132.5v390q0 87 38 132.5q38 45.5 110 45.5h192v-8q0 -14 -6 -23.5q-6 -9.5 -28 -9.5h-154q-107 0 -107 -152v-360q0 -152 107 -152h55q102 3 102 152v134q0 27 -7.5 32q-7.5 5 -24.5 5h-77q-15 0 -22.5 3q-7.5 3 -7.5 20v16h121q38 0 49 -17q11 -17 11 -57v-151h1q0 -87 -37 -132.5q-37 -45.5 -109 -45.5z" />
<glyph unicode="&#72;" horiz-adv-x="505" d="M428 0h-19q-26 0 -26 36v369q-8 -14 -22.5 -21.5q-14.5 -7.5 -30.5 -7.5h-211v-376h-19q-26 0 -26 36v710h45v-329h264v329l45 0z" />
<glyph unicode="&#73;" horiz-adv-x="209" d="M129 0h-19q-26 0 -26 36v710l45 0z" />
<glyph unicode="&#74;" horiz-adv-x="294" d="M84 43q46 0 68 30q22 30 22 107v566h45v-566q0 -91 -32.5 -135.5q-32.5 -44.5 -102.5 -44.5h-75v13q0 17 6.5 23.5q6.5 6.5 23.5 6.5z" />
<glyph unicode="&#75;" horiz-adv-x="444" d="M159 387l208 359h50l-208 -356l219 -390h-30q-5 0 -15.5 4.5q-10.5 4.5 -19.5 20.5zM119 0h-19q-26 0 -26 36v710l45 0z" />
<glyph unicode="&#76;" horiz-adv-x="388" d="M119 40h255v-7q0 -17 -5.5 -25q-5.5 -8 -19.5 -8h-275v746l45 0z" />
<glyph unicode="&#77;" horiz-adv-x="660" d="M562 0q-26 0 -26 36v618l-151 -401q-13 -34 -26 -42.5q-13 -8.5 -29 -9.5q-16 1 -29 9.5q-13 8.5 -26 42.5l-151 401v-654h-18q-26 0 -26 36v710h52l180 -478q7 -18 10 -24.5q3 -6.5 8 -6.5q5 0 8 6.5q3 6.5 10 24.5l180 478h52l0 -746z" />
<glyph unicode="&#78;" horiz-adv-x="503" d="M74 746h213q35 0 61.5 -8q26.5 -8 44 -29q17.5 -21 26.5 -56.5q9 -35.5 9 -90.5v-562h-19q-26 0 -26 36v529q0 41 -5 68q-5 27 -16.5 43.5q-11.5 16.5 -30 23.5q-18.5 7 -44.5 7h-168v-707h-19q-26 0 -26 36z" />
<glyph unicode="&#79;" horiz-adv-x="496" d="M247 28q44 0 72 16.5q28 16.5 43.5 48.5q15.5 32 21.5 78q6 46 6 106v192q0 60 -6 106q-6 46 -21.5 78q-15.5 32 -43.5 48.5q-28 16.5 -72 16.5q-44 0 -72 -16.5q-28 -16.5 -44 -48.5q-16 -32 -21.5 -78q-5.5 -46 -5.5 -106v-192q0 -60 5.5 -106q5.5 -46 21.5 -78q16 -32 44 -48.5q28 -16.5 72 -16.5zt0 0zM247 -14q-50 0 -86 15.5q-36 15.5 -58.5 50q-22.5 34.5 -33 89.5q-10.5 55 -10.5 134v196q0 79 10.5 134q10.5 55 33 89.5q22.5 34.5 58.5 50q36 15.5 86 15.5q50 0 86 -15.5q36 -15.5 58.5 -50q22.5 -34.5 33 -89.5q10.5 -55 10.5 -134v-196q0 -79 -10.5 -134q-10.5 -55 -33 -89.5q-22.5 -34.5 -58.5 -50t-86 -15.5z" />
<glyph unicode="&#80;" horiz-adv-x="460" d="M251 334q61 0 84 34.5q23 34.5 23 95.5v113q0 61 -23 95.5q-23 34.5 -84 34.5h-132v-373zM119 295v-295h-18q-27 0 -27 36v710h186q69 0 106 -39.5q37 -39.5 37 -133.5v-105q0 -94 -37 -133.5q-37 -39.5 -106 -39.5z" />
<glyph unicode="&#81;" horiz-adv-x="502" d="M247 -14q-50 0 -86 15.5q-36 15.5 -58.5 50q-22.5 34.5 -33 89.5q-10.5 55 -10.5 134v196q0 79 10.5 134q10.5 55 33 89.5q22.5 34.5 58.5 50q36 15.5 86 15.5q50 0 86 -15.5q36 -15.5 58.5 -50q22.5 -34.5 33 -89.5q10.5 -55 10.5 -134v-196q0 -91 -14 -150q-14 -59 -44 -92l65 -118h-23q-14 0 -22.5 6.5q-8.5 6.5 -14.5 17.5l-37 68q-39 -21 -98 -21zt0 0zM247 28q44 0 72 16.5q28 16.5 43.5 48.5q15.5 32 21.5 78q6 46 6 106v192q0 60 -6 106q-6 46 -21.5 78q-15.5 32 -43.5 48.5q-28 16.5 -72 16.5q-44 0 -72 -16.5q-28 -16.5 -44 -48.5q-16 -32 -21.5 -78q-5.5 -46 -5.5 -106v-192q0 -60 5.5 -106q5.5 -46 21.5 -78q16 -32 44 -48.5t72 -16.5z" />
<glyph unicode="&#82;" horiz-adv-x="455" d="M118 0h-18q-27 0 -27 36v710h194q69 0 106 -39.5q37 -39.5 37 -133.5v-58q0 -75 -24 -114.5q-24 -39.5 -72 -52.5l113 -348h-48l-109 342h-152zM258 381q61 0 84 34.5q23 34.5 23 95.5v66q0 61 -23 95.5q-23 34.5 -84 34.5h-140l0 -326z" />
<glyph unicode="&#83;" horiz-adv-x="388" d="M358 168q0 -79 -40 -123.5q-40 -44.5 -118 -44.5h-170v14q0 18 7 23q7 5 24 5h139q21 0 41 6.5q20 6.5 35.5 21.5q15.5 15 25 39q9.5 24 9.5 60v11q0 45 -19 84q-19 39 -71 73l-95 61q-48 30 -70 74q-22 44 -22 105q0 81 38.5 125q38.5 44 119.5 44h146v-14q0 -18 -7 -23q-7 -5 -24 -5h-115q-22 0 -42 -6q-20 -6 -35.5 -20.5q-15.5 -14.5 -24.5 -39q-9 -24.5 -9 -61.5q0 -54 18.5 -87.5q18.5 -33.5 58.5 -59.5l91 -58q31 -20 52 -39.5q21 -19.5 33.5 -42q12.5 -22.5 18 -49q5.5 -26.5 5.5 -60.5z" />
<glyph unicode="&#84;" horiz-adv-x="407" d="M396 739q0 -20 -4.5 -27q-4.5 -7 -23.5 -7h-142v-705h-19q-26 0 -26 36v669h-170v41l385 0z" />
<glyph unicode="&#85;" horiz-adv-x="501" d="M424 0h-208q-35 0 -61.5 8q-26.5 8 -44 29q-17.5 21 -26.5 57q-9 36 -9 92v560h45v-565q0 -41 5 -68.5q5 -27.5 17.5 -44q12.5 -16.5 33 -23q20.5 -6.5 50.5 -6.5h153v707l45 0z" />
<glyph unicode="&#86;" horiz-adv-x="446" d="M13 746h47l163 -699l163 699h47l-181 -746h-37q-14 0 -19.5 7q-5.5 7 -7.5 16z" />
<glyph unicode="&#87;" horiz-adv-x="658" d="M476 0q-14 0 -23 8.5q-9 8.5 -15 35.5l-109 574l-117 -618h-32q-14 0 -23 8.5q-9 8.5 -15 35.5l-122 702h46l117 -698l120 631h52l120 -631l117 698h46l-129 -746z" />
<glyph unicode="&#88;" horiz-adv-x="440" d="M215 336l-150 -336h-47l173 376l-172 370h50l149 -332l149 332h47l-171 -372l174 -374l-50 0z" />
<glyph unicode="&#89;" horiz-adv-x="451" d="M244 0h-18q-27 0 -27 36v264l-183 446h47l160 -397l161 397h49l-189 -449z" />
<glyph unicode="&#90;" horiz-adv-x="444" d="M394 746v-48l-319 -655h331v-15q0 -20 -6 -24q-6 -4 -18 -4h-349v54l317 651h-309l0 41z" />
<glyph unicode="&#91;" horiz-adv-x="391" d="M298 -46h-144v866h144v-43h-101v-779l101 0z" />
<glyph unicode="&#92;" horiz-adv-x="424" d="M127 781l202 -803h-48l-201 803z" />
<glyph unicode="&#93;" horiz-adv-x="392" d="M99 -2h101v779h-101v43h144v-866l-144 0z" />
<glyph unicode="&#94;" horiz-adv-x="513" d="M230 846h56l116 -237h-50l-94 204l-94 -204l-51 0z" />
<glyph unicode="&#95;" horiz-adv-x="516" d="M123 -32h274v-43l-274 0z" />
<glyph unicode="&#8216;" horiz-adv-x="262" d="M150 675v-106h-54v120q0 47 13.5 72.5q13.5 25.5 38.5 42.5l10 -16q-17 -17 -25 -36q-8 -19 -8 -47l0 -30z" />
<glyph unicode="&#97;" horiz-adv-x="397" d="M328 0h-162q-56 0 -88.5 35q-32.5 35 -32.5 102v64q0 42 9 71q9 29 25.5 46.5q16.5 17.5 39.5 25q23 7.5 52 7.5q27 0 55.5 -4.5q28.5 -4.5 55.5 -11.5l0 66q-1 32 -5.5 53q-4.5 21 -13.5 33q-9 12 -23.5 17q-14.5 5 -35.5 5h-94q-23 0 -29 6.5q-6 6.5 -6 20.5v14h129q35 0 59 -9q24 -9 38.5 -28.5q14.5 -19.5 20.5 -51.5q6 -32 6 -78zM168 311q-41 0 -59 -27q-18 -27 -18 -87v-55q0 -29 7 -49q7 -20 18.5 -32q11.5 -12 25 -17q13.5 -5 26.5 -5h114v258q-34 8 -61.5 11t-52.5 3z" />
<glyph unicode="&#98;" horiz-adv-x="397" d="M115 751v-201h96q69 0 104.5 -42.5q35.5 -42.5 35.5 -127.5v-211q0 -85 -35.5 -127q-35.5 -42 -104.5 -42h-142v751zM115 39h96q43 0 68.5 34q25.5 34 25.5 103v199q0 70 -25.5 103q-25.5 33 -67.5 33l-97 0z" />
<glyph unicode="&#99;" horiz-adv-x="347" d="M312 32q0 -14 -5.5 -23q-5.5 -9 -26.5 -9h-103q-62 0 -97 44q-35 44 -35 130v202q0 86 35 130q35 44 97 44h132v-9q0 -14 -5.5 -23q-5.5 -9 -26.5 -9h-80q-55 0 -80.5 -33.5q-25.5 -33.5 -25.5 -106.5v-188q0 -73 25.5 -106.5q25.5 -33.5 80.5 -33.5l115 0z" />
<glyph unicode="&#100;" horiz-adv-x="398" d="M328 751v-751h-142q-69 0 -104.5 42q-35.5 42 -35.5 127v211q0 85 35.5 127.5q35.5 42.5 104.5 42.5h96v201zM282 511h-97q-42 0 -67.5 -33q-25.5 -33 -25.5 -103v-199q0 -69 25.5 -103q25.5 -34 68.5 -34l96 0z" />
<glyph unicode="&#101;" horiz-adv-x="395" d="M335 43v-14q0 -14 -5.5 -21.5q-5.5 -7.5 -28.5 -7.5h-117q-58 0 -93.5 45.5q-35.5 45.5 -35.5 123.5v203q0 52 11.5 88.5q11.5 36.5 31.5 59.5q20 23 46.5 33.5q26.5 10.5 56.5 10.5q65 0 107 -44q42 -44 42 -126v-89q0 -29 -9.5 -40.5q-9.5 -11.5 -34.5 -11.5h-205v-84q0 -60 24.5 -93q24.5 -33 58.5 -33zM101 296h179q16 0 20 6q4 6 4 30v62q0 59 -26 93q-26 34 -77 34q-46 0 -73 -34q-27 -34 -27 -93z" />
<glyph unicode="&#102;" horiz-adv-x="285" d="M254 550v-12q0 -15 -10.5 -21q-10.5 -6 -21.5 -6h-79v-511h-19q-14 0 -20.5 9q-6.5 9 -6.5 30v472h-79v39h79v76q0 58 18 91.5q18 33.5 72 33.5h83v-6q0 -33 -35 -33h-44q-16 0 -25.5 -7q-9.5 -7 -14.5 -18q-5 -11 -6.5 -25q-1.5 -14 -1.5 -29l0 -83z" />
<glyph unicode="&#103;" horiz-adv-x="398" d="M328 550v-616q0 -28 -5 -53.5q-5 -25.5 -18 -45.5q-13 -20 -34 -32q-21 -12 -52 -12h-145v11q0 16 7.5 22q7.5 6 23.5 6h112q33 0 49 28q16 28 16 73v69h-96q-69 0 -104.5 42q-35.5 42 -35.5 127v211q0 85 35.5 127.5q35.5 42.5 104.5 42.5zM282 511h-97q-42 0 -67.5 -33q-25.5 -33 -25.5 -103v-199q0 -69 25.5 -103q25.5 -34 68.5 -34l96 0z" />
<glyph unicode="&#104;" horiz-adv-x="427" d="M115 751v-201h118q35 0 59 -9q24 -9 38.5 -28.5q14.5 -19.5 20.5 -51.5q6 -32 6 -78v-383h-18q-14 0 -21 9q-7 9 -7 30v364q-1 32 -5.5 53q-4.5 21 -13.5 33q-9 12 -23.5 17q-14.5 5 -35.5 5h-118v-511h-20q-14 0 -20 9q-6 9 -6 30l0 712z" />
<glyph unicode="&#105;" horiz-adv-x="188" d="M117 550v-550h-19q-15 0 -21.5 9q-6.5 9 -6.5 30v511zM69 745h49v-96h-12q-15 0 -26 12q-11 12 -11 33z" />
<glyph unicode="&#106;" horiz-adv-x="202" d="M84 745h48v-96h-12q-15 0 -25.5 12q-10.5 12 -10.5 33zM85 550h45v-609q0 -79 -22.5 -114.5q-22.5 -35.5 -73.5 -35.5h-63v13q0 15 7.5 20.5q7.5 5.5 18.5 5.5h37q18 0 28 7.5q10 7.5 15.5 21q5.5 13.5 6.5 33q1 19.5 1 44.5z" />
<glyph unicode="&#107;" horiz-adv-x="377" d="M304 550h52l-158 -253l171 -297h-30q-7 0 -17 3q-10 3 -20 19l-156 276zM97 0q-14 0 -21 9q-7 9 -7 30v712h46l0 -751z" />
<glyph unicode="&#108;" horiz-adv-x="185" d="M97 0q-14 0 -21 9q-7 9 -7 30v712h46l0 -751z" />
<glyph unicode="&#109;" horiz-adv-x="571" d="M501 0h-18q-14 0 -21 9q-7 9 -7 30v364q-1 32 -5.5 53q-4.5 21 -13.5 33q-9 12 -23.5 17q-14.5 5 -35.5 5h-69v-511h-18q-14 0 -21 9q-7 9 -7 30v472h-147v-511h-18q-14 0 -21 9q-7 9 -7 30v511h308q35 0 59 -9q24 -9 38.5 -28.5q14.5 -19.5 20.5 -51.5q6 -32 6 -78z" />
<glyph unicode="&#110;" horiz-adv-x="427" d="M233 550q35 0 59 -9q24 -9 38.5 -28.5q14.5 -19.5 20.5 -51.5q6 -32 6 -78v-383h-18q-14 0 -21 9q-7 9 -7 30v364q-1 32 -5.5 53q-4.5 21 -13.5 33q-9 12 -23.5 17q-14.5 5 -35.5 5h-118v-511h-18q-14 0 -21 9q-7 9 -7 30l0 511z" />
<glyph unicode="&#111;" horiz-adv-x="396" d="M198 564q37 0 65.5 -11.5q28.5 -11.5 47.5 -38q19 -26.5 29 -70q10 -43.5 10 -107.5v-121q0 -125 -38.5 -177.5q-38.5 -52.5 -113.5 -52.5q-37 0 -65.5 12.5q-28.5 12.5 -48 39.5q-19.5 27 -29.5 71q-10 44 -10 107v121q0 63 10.5 106q10.5 43 30 70q19.5 27 48 39q28.5 12 64.5 12zt0 0zM304 337q0 52 -6 87.5q-6 35.5 -18.5 57q-12.5 21.5 -33 30.5q-20.5 9 -48.5 9q-51 0 -79 -35.5q-28 -35.5 -28 -128.5v-141q0 -52 6.5 -87.5q6.5 -35.5 19.5 -57q13 -21.5 33 -31q20 -9.5 48 -9.5q27 0 47 9q20 9 33 30.5q13 21.5 19.5 57q6.5 35.5 6.5 88.5z" />
<glyph unicode="&#112;" horiz-adv-x="397" d="M211 550q69 0 104.5 -42.5q35.5 -42.5 35.5 -127.5v-211q0 -85 -35.5 -127q-35.5 -42 -104.5 -42h-96v-209h-19q-27 0 -27 38v721zM115 39h96q43 0 68.5 34q25.5 34 25.5 103v199q0 70 -25.5 103q-25.5 33 -67.5 33l-97 0z" />
<glyph unicode="&#113;" horiz-adv-x="398" d="M328 550v-721q0 -38 -27 -38h-19v209h-96q-69 0 -104.5 42q-35.5 42 -35.5 127v211q0 85 35.5 127.5q35.5 42.5 104.5 42.5zM282 511h-97q-42 0 -67.5 -33q-25.5 -33 -25.5 -103v-199q0 -69 25.5 -103q25.5 -34 68.5 -34l96 0z" />
<glyph unicode="&#114;" horiz-adv-x="299" d="M112 0h-19q-13 0 -19.5 9q-6.5 9 -6.5 30v383q0 60 21.5 94q21.5 34 72.5 34h119v-9q0 -23 -11.5 -29.5q-11.5 -6.5 -28.5 -6.5h-79q-29 0 -39 -24q-10 -24 -10 -59z" />
<glyph unicode="&#115;" horiz-adv-x="323" d="M269 550v-15q0 -17 -8.5 -23.5q-8.5 -6.5 -24.5 -6.5h-81q-40 0 -57 -26q-17 -26 -17 -64q0 -33 11 -58q11 -25 43 -39l63 -27q47 -20 68.5 -58.5q21.5 -38.5 21.5 -88.5q0 -69 -34 -106.5q-34 -37.5 -93 -37.5h-124v11q0 32 32 32h92q37 0 59 24.5q22 24.5 22 76.5q0 37 -11 60q-11 23 -40 37l-65 32q-45 22 -68 54q-23 32 -23 88q0 24 7 48q7 24 21.5 43.5q14.5 19.5 37 31.5q22.5 12 54.5 12z" />
<glyph unicode="&#116;" horiz-adv-x="247" d="M176 0q-53 0 -74 28q-21 28 -21 92v391h-67v39h67v182h46v-182h96v-7q0 -14 -7 -23q-7 -9 -29 -9h-60v-391q0 -33 7.5 -55q7.5 -22 37.5 -22h57v-12q0 -11 -7.5 -21q-7.5 -10 -27.5 -10z" />
<glyph unicode="&#117;" horiz-adv-x="418" d="M200 0q-39 0 -65 9q-26 9 -41.5 30.5q-15.5 21.5 -22 56.5q-6.5 35 -6.5 88v366h46v-378q1 -41 6 -67q5 -26 17.5 -40.5q12.5 -14.5 34 -20q21.5 -5.5 55.5 -5.5h78v511h46l0 -550z" />
<glyph unicode="&#118;" horiz-adv-x="344" d="M164 0q-24 0 -31 34l-126 516h46l121 -513l119 513h44l-133 -550z" />
<glyph unicode="&#119;" horiz-adv-x="557" d="M398 0q-18 0 -23.5 12q-5.5 12 -10.5 33l-86 395l-94 -440h-33q-18 0 -24 12q-6 12 -10 33l-92 505h44l87 -499l103 475h40l104 -475l84 499h45l-99 -550z" />
<glyph unicode="&#120;" horiz-adv-x="352" d="M9 0l140 276l-135 274h50l113 -241l113 241h47l-135 -274l141 -276h-51l-116 242l-119 -242z" />
<glyph unicode="&#121;" horiz-adv-x="420" d="M305 10q-24 -2 -38.5 -4q-14.5 -2 -26 -3.5q-11.5 -1.5 -22 -2q-10.5 -0.5 -26.5 -0.5q-36 1 -59.5 11q-23.5 10 -38 31.5q-14.5 21.5 -20 56q-5.5 34.5 -5.5 85.5v366h45v-377q0 -36 4 -61.5q4 -25.5 14 -41q10 -15.5 26.5 -22.5q16.5 -7 42.5 -7q8 0 21 1q13 1 27.5 2.5q14.5 1.5 29 4q14.5 2.5 26.5 4.5l0 497h45v-620q0 -27 -5.5 -52q-5.5 -25 -18 -44.5q-12.5 -19.5 -33 -31q-20.5 -11.5 -51.5 -11.5h-145v13q0 16 7.5 22q7.5 6 23.5 6h112q32 0 48 26.5q16 26.5 17 70.5z" />
<glyph unicode="&#122;" horiz-adv-x="335" d="M310 45v-29q0 -16 -14 -16h-271v60l235 445h-225v45h266v-58l-238 -447z" />
<glyph unicode="&#123;" horiz-adv-x="339" d="M99 406q26 5 44.5 28q18.5 23 18.5 66v203q0 116 76 116h36v-42h-12q-17 0 -28 -3.5q-11 -3.5 -17 -12.5q-6 -9 -8.5 -24q-2.5 -15 -2.5 -38v-193q0 -38 -14.5 -69q-14.5 -31 -42.5 -49q28 -18 42.5 -49q14.5 -31 14.5 -69v-193q0 -23 2.5 -38q2.5 -15 8.5 -24q6 -9 17 -12.5q11 -3.5 28 -3.5h12v-42h-36q-76 0 -76 116v203q0 43 -18.5 66q-18.5 23 -44.5 28z" />
<glyph unicode="&#124;" horiz-adv-x="282" d="M167 797v-819h-39l0 819z" />
<glyph unicode="&#125;" horiz-adv-x="339" d="M252 370q-26 -5 -44.5 -28q-18.5 -23 -18.5 -66v-203q0 -116 -76 -116h-36v42h12q34 0 45 16q11 16 11 62v193q0 38 14.5 69q14.5 31 42.5 49q-28 18 -42.5 49q-14.5 31 -14.5 69v193q0 46 -11 62q-11 16 -45 16h-12v42h36q76 0 76 -116v-203q0 -43 18.5 -66q18.5 -23 44.5 -28z" />
<glyph unicode="&#126;" horiz-adv-x="538" d="M294 377q23 -37 38.5 -53.5q15.5 -16.5 38.5 -16.5q35 0 54.5 36.5q19.5 36.5 21.5 95.5l39 0q-2 -81 -30.5 -128q-28.5 -47 -82.5 -47q-38 0 -62.5 23.5q-24.5 23.5 -50.5 68.5q-13 21 -23 36.5q-10 15.5 -19.5 25q-9.5 9.5 -19 14q-9.5 4.5 -21.5 4.5q-35 0 -54.5 -36.5q-19.5 -36.5 -21.5 -95.5l-39 0q2 81 30.5 128q28.5 47 82.5 47q20 0 35.5 -6.5q15.5 -6.5 29.5 -19.5q14 -13 27 -32t27 -44z" />
<glyph unicode="&#161;" horiz-adv-x="273" d="M119 523h35l13 -547h-61zM163 746v-83h-55l0 83z" />
<glyph unicode="&#162;" horiz-adv-x="367" d="M328 32q0 -14 -5.5 -23q-5.5 -9 -26.5 -9h-115l-22 -112h-38l24 120q-82 31 -82 166v202q0 86 34 130q34 44 96 44h59l24 121h38l-24 -121h35v-9q0 -14 -5.5 -23q-5.5 -9 -26.5 -9h-11l-92 -467q5 -1 11 -1q6 0 12 0h115zM107 181q0 -98 47 -126l90 454h-31q-55 0 -80.5 -33.5q-25.5 -33.5 -25.5 -106.5z" />
<glyph unicode="&#163;" horiz-adv-x="409" d="M378 32q0 -12 -6 -22q-6 -10 -28 -10h-306v53q26 20 41.5 64.5q15.5 44.5 15.5 101.5v128h-55v44h55v177q0 101 42 146.5q42 45.5 113 45.5q27 0 54.5 -5.5q27.5 -5.5 64.5 -21.5l-4 -42q-33 14 -58 19q-25 5 -59 5q-51 0 -81 -35q-30 -35 -30 -112v-177h114v-10q0 -14 -5.5 -24q-5.5 -10 -28.5 -10h-80v-130q0 -60 -16.5 -101.5q-16.5 -41.5 -51.5 -72.5l309 0z" />
<glyph unicode="&#165;" horiz-adv-x="465" d="M67 184h143v114h-143v42h121l-165 406h46l163 -411l163 411h48l-168 -406h120v-10q0 -12 -6 -22q-6 -10 -28 -10h-109v-114h143v-9q0 -12 -6 -22q-6 -10 -28 -10h-109v-143h-15q-14 0 -20.5 8.5q-6.5 8.5 -6.5 29.5v105l-143 0z" />
<glyph unicode="&#402;" horiz-adv-x="309" d="M151 -38q0 -72 -24.5 -114q-24.5 -42 -76.5 -42h-11v44q68 0 68 111v550h-79v39h79v76q0 58 17 91.5q17 33.5 71 33.5h83v-6q0 -33 -35 -33h-48q-15 0 -23.5 -7q-8.5 -7 -13 -17.5q-4.5 -10.5 -6 -24q-1.5 -13.5 -1.5 -25.5v-88h111v-12q0 -15 -10.5 -21q-10.5 -6 -21.5 -6l-79 0z" />
<glyph unicode="&#164;" horiz-adv-x="392" d="M199 539q31 0 54 -9.5q23 -9.5 42 -29.5l35 51l27 -34l-35 -49q23 -52 23 -135v-41q0 -85 -23 -137l36 -50l-28 -34l-34 50q-37 -40 -97 -40q-65 0 -103 45l-38 -55l-26 34l39 59q-8 24 -13 54.5q-5 30.5 -5 69.5v45q0 76 20 125l-41 61l26 34l40 -59q19 22 43.5 33.5q24.5 11.5 57.5 11.5zt0 0zM306 333q0 35 -6 65.5q-6 30.5 -18.5 53.5q-12.5 23 -33 36q-20.5 13 -49.5 13q-51 0 -79 -42.5q-28 -42.5 -28 -125.5v-45q0 -82 28 -125.5q28 -43.5 79 -43.5q51 0 79 42q28 42 28 127z" />
<glyph unicode="&#39;" horiz-adv-x="236" d="M144 781l-10 -271h-15q-9 0 -11.5 8.5q-2.5 8.5 -3.5 19.5l-10 243z" />
<glyph unicode="&#8220;" horiz-adv-x="347" d="M146 675v-106h-54v120q0 47 13.5 72.5q13.5 25.5 38.5 42.5l10 -16q-17 -17 -25 -36q-8 -19 -8 -47v-30zM250 675v-106h-54v120q0 47 13.5 72.5q13.5 25.5 38.5 42.5l10 -16q-17 -17 -25 -36q-8 -19 -8 -47l0 -30z" />
<glyph unicode="&#171;" horiz-adv-x="301" d="M170 31l-27 -25l-117 271l117 269l27 -24l-103 -247zM271 31l-27 -25l-118 271l118 269l27 -24l-103 -247z" />
<glyph unicode="&#183;" horiz-adv-x="279" d="M167 436v-81h-55l0 81z" />
<glyph unicode="&#182;" horiz-adv-x="392" d="M161 353q-22 2 -46 15.5q-24 13.5 -43.5 38.5q-19.5 25 -32 62q-12.5 37 -10.5 86q2 93 42 142q40 49 105 49h144v-874h-15q-26 0 -26 38v791h-76v-829h-14q-28 0 -28 38z" />
<glyph unicode="&#8226;" horiz-adv-x="826" d="M413 226q-30 0 -52 27q-22 27 -22 77q0 48 22 75q22 27 52 27q30 0 52 -27q22 -27 22 -77q0 -48 -22 -75t-52 -27z" />
<glyph unicode="&#8221;" horiz-adv-x="347" d="M205 698v106h54v-120q0 -47 -13.5 -72.5q-13.5 -25.5 -38.5 -42.5l-10 16q17 17 25 36q8 19 8 47v30zM101 698v106h54v-120q0 -47 -13.5 -72.5q-13.5 -25.5 -38.5 -42.5l-10 16q17 17 25 36q8 19 8 47l0 30z" />
<glyph unicode="&#187;" horiz-adv-x="301" d="M230 275l-104 247l28 24l117 -269l-117 -271l-28 25zM129 275l-103 247l27 24l117 -269l-117 -271l-27 25z" />
<glyph unicode="&#8230;" horiz-adv-x="388" d="M84 0h-54v106h54zM221 0h-54v106h54zM358 0h-54v106l54 0z" />
<glyph unicode="&#8240;" horiz-adv-x="621" d="M103 475q30 0 40.5 28q10.5 28 10.5 65q0 18 -2.5 34.5q-2.5 16.5 -8 29.5q-5.5 13 -15.5 21q-10 8 -25 8q-15 0 -25 -8q-10 -8 -15.5 -21q-5.5 -13 -8 -29.5q-2.5 -16.5 -2.5 -34.5q0 -37 10.5 -65q10.5 -28 40.5 -28zt0 0zM356 746l-252 -723q-5 -15 -10 -19q-5 -4 -14 -4h-25l259 746zM103 437q-44 0 -66 34q-22 34 -22 97q0 61 22 96q22 35 66 35q44 0 66 -35q22 -35 22 -96q0 -63 -22 -97q-22 -34 -66 -34zt0 0zM308 271q-30 0 -40.5 -28q-10.5 -28 -10.5 -65q0 -18 2.5 -34.5q2.5 -16.5 8 -29.5q5.5 -13 15.5 -21q10 -8 25 -8q15 0 25 8q10 8 15.5 21q5.5 13 8 29.5q2.5 16.5 2.5 34.5q0 37 -10.5 65q-10.5 28 -40.5 28zt0 0zM308 309q44 0 66 -34q22 -34 22 -97q0 -61 -22 -96q-22 -35 -66 -35q-44 0 -66 35q-22 35 -22 96q0 63 22 97q22 34 66 34zt0 0zM519 271q-30 0 -40.5 -28q-10.5 -28 -10.5 -65q0 -18 2.5 -34.5q2.5 -16.5 8 -29.5q5.5 -13 15.5 -21q10 -8 25 -8q15 0 25 8q10 8 15.5 21q5.5 13 8 29.5q2.5 16.5 2.5 34.5q0 37 -10.5 65q-10.5 28 -40.5 28zt0 0zM519 309q44 0 66 -34q22 -34 22 -97q0 -61 -22 -96q-22 -35 -66 -35q-44 0 -66 35q-22 35 -22 96q0 63 22 97t66 34z" />
<glyph unicode="&#191;" horiz-adv-x="394" d="M235 547v-49q0 -43 -7 -73q-7 -30 -28 -50l-60 -57q-32 -31 -41.5 -70q-9.5 -39 -9.5 -74q0 -82 36 -116q36 -34 92 -34q27 0 56.5 6.5q29.5 6.5 61.5 18.5l4 -42q-28 -11 -61 -18.5q-33 -7.5 -66 -7.5q-37 0 -68 11.5q-31 11.5 -53.5 35.5q-22.5 24 -35 60q-12.5 36 -12.5 86q0 57 15 96.5q15 39.5 39 62.5l69 66q20 20 23 43.5q3 23.5 3 60.5v44zM185 751h54v-81l-54 0z" />
<glyph unicode="&#96;" horiz-adv-x="276" d="M129 865l73 -235l-9 -5q-5 -3 -9 -3q-6 1 -10.5 5.5q-4.5 4.5 -7.5 10.5l-84 201z" />
<glyph unicode="&#180;" horiz-adv-x="188" d="M95 760h53l-66 -125q-7 -13 -13 -17q-6 -4 -18 -4l-12 0z" />
<glyph unicode="&#168;" horiz-adv-x="412" d="M165 706v-82h-55v82zM302 706v-82h-55l0 82z" />
<glyph unicode="&#170;" horiz-adv-x="291" d="M229 369h-105q-36 0 -57 22q-21 22 -21 65v53q0 52 21 73.5q21 21.5 57 21.5q14 0 32 -3.5q18 -3.5 38 -7.5l0 60q0 57 -44 57h-62q-15 0 -19 6q-4 6 -4 16v14h85q79 0 79 -91zM127 567q-23 0 -34 -13.5q-11 -13.5 -11 -48.5v-44q0 -17 4 -28q4 -11 11 -17q7 -6 14.5 -8.5q7.5 -2.5 15.5 -2.5h67v154q-21 4 -37 6t-30 2z" />
<glyph unicode="&#186;" horiz-adv-x="278" d="M76 502q0 -104 61 -104q61 0 61 104v110q0 104 -61 104q-61 0 -61 -104zM40 614q0 72 25 104.5q25 32.5 72 32.5q47 0 72 -32.5q25 -32.5 25 -104.5v-114q0 -72 -25 -104.5q-25 -32.5 -72 -32.5q-47 0 -72 32.5q-25 32.5 -25 104.5z" />
<glyph unicode="&#172;" horiz-adv-x="469" d="M410 182h-40v203h-330v43l370 0z" />
<glyph unicode="&#181;" horiz-adv-x="428" d="M207 0q-29 0 -53.5 8.5q-24.5 8.5 -38.5 31.5l0 -234h-18q-14 0 -20.5 8q-6.5 8 -6.5 28v708h45v-375q0 -40 5.5 -65.5q5.5 -25.5 16.5 -40.5q11 -15 28.5 -20.5q17.5 -5.5 41.5 -5.5h103v507h46l0 -550z" />
<glyph unicode="&#189;" horiz-adv-x="582" d="M382 0q-14 0 -20 5q-6 5 -6 25v38q0 28 9 47.5q9 19.5 23 31.5l66 56q18 17 24.5 35q6.5 18 6.5 41q0 36 -17.5 52q-17.5 16 -52.5 16q-26 0 -53 -10l0 37q11 3 24.5 5.5q13.5 2.5 29.5 2.5q56 0 81 -27q25 -27 25 -71q0 -30 -9.5 -58q-9.5 -28 -32.5 -47l-69 -59q-13 -13 -16.5 -25.5q-3.5 -12.5 -3.5 -26.5v-30h131v-14q0 -11 -3.5 -17.5q-3.5 -6.5 -15.5 -6.5zM156 369h-15q-12 0 -16 7q-4 7 -4 21v312h-47v37h68q7 0 10.5 -5q3.5 -5 3.5 -12zM418 746h40l-310 -746l-41 0z" />
<glyph unicode="&#177;" horiz-adv-x="469" d="M404 43v-43h-346v43zM252 401h152v-43h-152v-190h-42v190h-152v43h152v215l42 0z" />
<glyph unicode="&#188;" horiz-adv-x="588" d="M473 0q-12 0 -16 7q-4 7 -4 21v47h-144v38l111 239q6 14 12.5 19.5q6.5 5.5 17.5 5.5h36v-268h28v-17q0 -11 -2.5 -14q-2.5 -3 -10.5 -3h-15v-75zM453 349l-111 -240h111zM156 369h-15q-12 0 -16 7q-4 7 -4 21v312h-47v37h68q7 0 10.5 -5q3.5 -5 3.5 -12zM418 746h40l-310 -746l-41 0z" />
<glyph unicode="&#247;" horiz-adv-x="361" d="M29 350v46h302v-46zM205 214v-81h-54v81zM205 609v-83h-54l0 83z" />
<glyph unicode="&#166;" horiz-adv-x="199" d="M119 492h-39v254h39zM119 0h-39v254l39 0z" />
<glyph unicode="&#176;" horiz-adv-x="286" d="M143 542q28 0 44 21.5q16 21.5 16 66.5q0 45 -16 66.5q-16 21.5 -44 21.5q-28 0 -44 -21.5q-16 -21.5 -16 -66.5q0 -45 16 -66.5q16 -21.5 44 -21.5zt0 0zM143 508q-19 0 -36.5 6.5q-17.5 6.5 -30.5 21.5q-13 15 -20.5 38q-7.5 23 -7.5 56q0 33 7.5 56q7.5 23 20.5 38q13 15 30.5 21.5q17.5 6.5 36.5 6.5q19 0 36.5 -6.5q17.5 -6.5 30.5 -21.5q13 -15 20.5 -38q7.5 -23 7.5 -56q0 -33 -7.5 -56q-7.5 -23 -20.5 -38q-13 -15 -30.5 -21.5t-36.5 -6.5z" />
<glyph unicode="&#190;" horiz-adv-x="574" d="M43 743q24 8 55 8q18 0 34.5 -4.5q16.5 -4.5 30 -15.5q13.5 -11 21.5 -29q8 -18 8 -46q0 -32 -10.5 -57q-10.5 -25 -31.5 -36q24 -11 36.5 -34.5q12.5 -23.5 12.5 -54.5q0 -56 -25.5 -83.5q-25.5 -27.5 -72.5 -27.5q-13 0 -29.5 2q-16.5 2 -32.5 7l0 34q15 -5 29 -8q14 -3 29 -3q14 0 26 3q12 3 21 11q9 8 14.5 22.5q5.5 14.5 5.5 37.5q0 45 -17 61.5q-17 16.5 -48 16.5h-33q-10 0 -10 13v17h43q30 0 44 18.5q14 18.5 14 61.5q0 63 -60 63q-15 0 -27.5 -2q-12.5 -2 -26.5 -7zM459 0q-12 0 -16 7q-4 7 -4 21v47h-144v38l111 239q6 14 12.5 19.5q6.5 5.5 17.5 5.5h36v-268h28v-17q0 -11 -2.5 -14q-2.5 -3 -10.5 -3h-15v-75zM439 349l-111 -240h111zM404 746h40l-310 -746l-41 0z" />
<glyph unicode="&#215;" horiz-adv-x="441" d="M106 166l-27 30l114 167l-113 164l27 35l113 -167l114 167l27 -33l-114 -166l114 -166l-27 -31l-114 164z" />
<glyph unicode="&#169;" horiz-adv-x="629" d="M428 163v-10q0 -14 -5.5 -24q-5.5 -10 -28.5 -10h-65q-30 0 -55 13q-25 13 -43 36q-18 23 -28 56q-10 33 -10 74v141q0 84 37.5 132q37.5 48 98.5 48h96v-7q0 -14 -5 -25q-5 -11 -27 -11h-64q-45 0 -68.5 -34q-23.5 -34 -23.5 -103v-140q0 -61 23.5 -98.5q23.5 -37.5 68.5 -37.5zM316 28q55 0 98.5 23.5q43.5 23.5 74.5 68.5q31 45 47.5 110q16.5 65 16.5 148q0 82 -16.5 147q-16.5 65 -47.5 110q-31 45 -74.5 69q-43.5 24 -98.5 24q-55 0 -99 -24q-44 -24 -74.5 -69q-30.5 -45 -47 -110q-16.5 -65 -16.5 -147q0 -83 16.5 -148q16.5 -65 47 -110q30.5 -45 74.5 -68.5q44 -23.5 99 -23.5zt0 0zM316 -14q-64 0 -115.5 26q-51.5 26 -87.5 76q-36 50 -55.5 123q-19.5 73 -19.5 167q0 94 19.5 167q19.5 73 55.5 123q36 50 87.5 76q51.5 26 115.5 26q64 0 115.5 -26q51.5 -26 87.5 -76q36 -50 55.5 -123q19.5 -73 19.5 -167q0 -94 -19.5 -167q-19.5 -73 -55.5 -123q-36 -50 -87.5 -76t-115.5 -26z" />
<glyph unicode="&#8539;" horiz-adv-x="591" d="M443 19q29 0 48.5 20q19.5 20 19.5 60q0 39 -16.5 61q-16.5 22 -51.5 22q-35 0 -51.5 -22q-16.5 -22 -16.5 -61q0 -40 19.5 -60q19.5 -20 48.5 -20zt0 0zM443 213q31 0 44.5 21q13.5 21 13.5 47q0 27 -13 45.5q-13 18.5 -45 18.5q-32 0 -45 -18.5q-13 -18.5 -13 -45.5q0 -26 13.5 -47q13.5 -21 44.5 -21zt0 0zM148 369h-15q-12 0 -16 7q-4 7 -4 21v312h-47v37h68q7 0 10.5 -5q3.5 -5 3.5 -12zM410 746h40l-310 -746h-41zM443 -13q-27 0 -46.5 9q-19.5 9 -32.5 24.5q-13 15.5 -19 35.5q-6 20 -6 42q0 32 13.5 60.5q13.5 28.5 45.5 41.5q-29 15 -38.5 38q-9.5 23 -9.5 50q0 16 5 31.5q5 15.5 16.5 28q11.5 12.5 29 20q17.5 7.5 42.5 7.5q25 0 42.5 -7.5q17.5 -7.5 29 -20q11.5 -12.5 16.5 -28q5 -15.5 5 -31.5q0 -27 -9.5 -50q-9.5 -23 -38.5 -38q32 -13 45.5 -41.5q13.5 -28.5 13.5 -60.5q0 -22 -6 -42q-6 -20 -19 -35.5q-13 -15.5 -32.5 -24.5t-46.5 -9z" />
<glyph unicode="&#8540;" horiz-adv-x="587" d="M447 19q29 0 48.5 20q19.5 20 19.5 60q0 39 -16.5 61q-16.5 22 -51.5 22q-35 0 -51.5 -22q-16.5 -22 -16.5 -61q0 -40 19.5 -60q19.5 -20 48.5 -20zt0 0zM447 213q31 0 44.5 21q13.5 21 13.5 47q0 27 -13 45.5q-13 18.5 -45 18.5q-32 0 -45 -18.5q-13 -18.5 -13 -45.5q0 -26 13.5 -47q13.5 -21 44.5 -21zt0 0zM447 -13q-27 0 -46.5 9q-19.5 9 -32.5 24.5q-13 15.5 -19 35.5q-6 20 -6 42q0 32 13.5 60.5q13.5 28.5 45.5 41.5q-29 15 -38.5 38q-9.5 23 -9.5 50q0 16 5 31.5q5 15.5 16.5 28q11.5 12.5 29 20q17.5 7.5 42.5 7.5q25 0 42.5 -7.5q17.5 -7.5 29 -20q11.5 -12.5 16.5 -28q5 -15.5 5 -31.5q0 -27 -9.5 -50q-9.5 -23 -38.5 -38q32 -13 45.5 -41.5q13.5 -28.5 13.5 -60.5q0 -22 -6 -42q-6 -20 -19 -35.5q-13 -15.5 -32.5 -24.5q-19.5 -9 -46.5 -9zt0 0zM53 743q24 8 55 8q18 0 34.5 -4.5q16.5 -4.5 30 -15.5q13.5 -11 21.5 -29q8 -18 8 -46q0 -32 -10.5 -57q-10.5 -25 -31.5 -36q24 -11 36.5 -34.5q12.5 -23.5 12.5 -54.5q0 -56 -25.5 -83.5q-25.5 -27.5 -72.5 -27.5q-13 0 -29.5 2q-16.5 2 -32.5 7l0 34q15 -5 29 -8q14 -3 29 -3q14 0 26 3q12 3 21 11q9 8 14.5 22.5q5.5 14.5 5.5 37.5q0 45 -17 61.5q-17 16.5 -48 16.5h-33q-10 0 -10 13v17h43q30 0 44 18.5q14 18.5 14 61.5q0 63 -60 63q-15 0 -27.5 -2q-12.5 -2 -26.5 -7zM414 746h40l-310 -746l-41 0z" />
<glyph unicode="&#8541;" horiz-adv-x="584" d="M54 587v159h148v-14q0 -11 -5 -14q-5 -3 -10 -3h-103v-96h30q31 0 50.5 -8.5q19.5 -8.5 31 -22.5q11.5 -14 15.5 -33.5q4 -19.5 4 -41.5v-55q-2 -30 -8.5 -48.5q-6.5 -18.5 -18 -29q-11.5 -10.5 -27.5 -14q-16 -3.5 -35 -3.5q-20 0 -40 4q-20 4 -39 11l0 33q16 -5 37 -10q21 -5 41 -5q27 0 42 11q15 11 15 52v54q0 14 -2 27q-2 13 -9 23.5q-7 10.5 -21.5 17q-14.5 6.5 -39.5 6.5zM454 19q29 0 48.5 20q19.5 20 19.5 60q0 39 -16.5 61q-16.5 22 -51.5 22q-35 0 -51.5 -22q-16.5 -22 -16.5 -61q0 -40 19.5 -60q19.5 -20 48.5 -20zt0 0zM454 213q31 0 44.5 21q13.5 21 13.5 47q0 27 -13 45.5q-13 18.5 -45 18.5q-32 0 -45 -18.5q-13 -18.5 -13 -45.5q0 -26 13.5 -47q13.5 -21 44.5 -21zt0 0zM454 -13q-27 0 -46.5 9q-19.5 9 -32.5 24.5q-13 15.5 -19 35.5q-6 20 -6 42q0 32 13.5 60.5q13.5 28.5 45.5 41.5q-29 15 -38.5 38q-9.5 23 -9.5 50q0 16 5 31.5q5 15.5 16.5 28q11.5 12.5 29 20q17.5 7.5 42.5 7.5q25 0 42.5 -7.5q17.5 -7.5 29 -20q11.5 -12.5 16.5 -28q5 -15.5 5 -31.5q0 -27 -9.5 -50q-9.5 -23 -38.5 -38q32 -13 45.5 -41.5q13.5 -28.5 13.5 -60.5q0 -22 -6 -42q-6 -20 -19 -35.5q-13 -15.5 -32.5 -24.5q-19.5 -9 -46.5 -9zt0 0zM421 746h40l-310 -746l-41 0z" />
<glyph unicode="&#8542;" horiz-adv-x="591" d="M256 712l-106 -318q-3 -10 -7 -17.5q-4 -7.5 -13 -7.5h-22l114 343h-177v34h201q5 0 7.5 -2q2.5 -2 2.5 -10zM441 19q29 0 48.5 20q19.5 20 19.5 60q0 39 -16.5 61q-16.5 22 -51.5 22q-35 0 -51.5 -22q-16.5 -22 -16.5 -61q0 -40 19.5 -60q19.5 -20 48.5 -20zt0 0zM441 213q31 0 44.5 21q13.5 21 13.5 47q0 27 -13 45.5q-13 18.5 -45 18.5q-32 0 -45 -18.5q-13 -18.5 -13 -45.5q0 -26 13.5 -47q13.5 -21 44.5 -21zt0 0zM441 -13q-27 0 -46.5 9q-19.5 9 -32.5 24.5q-13 15.5 -19 35.5q-6 20 -6 42q0 32 13.5 60.5q13.5 28.5 45.5 41.5q-29 15 -38.5 38q-9.5 23 -9.5 50q0 16 5 31.5q5 15.5 16.5 28q11.5 12.5 29 20q17.5 7.5 42.5 7.5q25 0 42.5 -7.5q17.5 -7.5 29 -20q11.5 -12.5 16.5 -28q5 -15.5 5 -31.5q0 -27 -9.5 -50q-9.5 -23 -38.5 -38q32 -13 45.5 -41.5q13.5 -28.5 13.5 -60.5q0 -22 -6 -42q-6 -20 -19 -35.5q-13 -15.5 -32.5 -24.5q-19.5 -9 -46.5 -9zt0 0zM408 746h40l-310 -746l-41 0z" />
<glyph unicode="&#8531;" horiz-adv-x="567" d="M156 369h-15q-12 0 -16 7q-4 7 -4 21v312h-47v37h68q7 0 10.5 -5q3.5 -5 3.5 -12zM418 746h40l-310 -746h-41zM354 367q24 8 55 8q18 0 34.5 -4.5q16.5 -4.5 30 -15.5q13.5 -11 21.5 -29q8 -18 8 -46q0 -32 -10.5 -57q-10.5 -25 -31.5 -36q24 -11 36.5 -34.5q12.5 -23.5 12.5 -54.5q0 -56 -25.5 -83.5q-25.5 -27.5 -72.5 -27.5q-13 0 -29.5 2q-16.5 2 -32.5 7l0 34q15 -5 29 -8q14 -3 29 -3q14 0 26 3q12 3 21 11q9 8 14.5 22.5q5.5 14.5 5.5 37.5q0 45 -17 61.5q-17 16.5 -48 16.5h-33q-10 0 -10 13v17h43q30 0 44 18.5q14 18.5 14 61.5q0 63 -60 63q-15 0 -27.5 -2q-12.5 -2 -26.5 -7z" />
<glyph unicode="&#8532;" horiz-adv-x="559" d="M430 746h40l-310 -746h-41zM366 367q24 8 55 8q18 0 34.5 -4.5q16.5 -4.5 30 -15.5q13.5 -11 21.5 -29q8 -18 8 -46q0 -32 -10.5 -57q-10.5 -25 -31.5 -36q24 -11 36.5 -34.5q12.5 -23.5 12.5 -54.5q0 -56 -25.5 -83.5q-25.5 -27.5 -72.5 -27.5q-13 0 -29.5 2q-16.5 2 -32.5 7l0 34q15 -5 29 -8q14 -3 29 -3q14 0 26 3q12 3 21 11q9 8 14.5 22.5q5.5 14.5 5.5 37.5q0 45 -17 61.5q-17 16.5 -48 16.5h-33q-10 0 -10 13v17h43q30 0 44 18.5q14 18.5 14 61.5q0 63 -60 63q-15 0 -27.5 -2q-12.5 -2 -26.5 -7zM87 369q-14 0 -20 5q-6 5 -6 25v38q0 28 9 47.5q9 19.5 23 31.5l66 56q18 17 24.5 35q6.5 18 6.5 41q0 36 -17.5 52q-17.5 16 -52.5 16q-26 0 -53 -10l0 37q11 3 24.5 5.5q13.5 2.5 29.5 2.5q56 0 81 -27q25 -27 25 -71q0 -30 -9.5 -58q-9.5 -28 -32.5 -47l-69 -59q-13 -13 -16.5 -25.5q-3.5 -12.5 -3.5 -26.5v-30h131v-14q0 -11 -3.5 -17.5q-3.5 -6.5 -15.5 -6.5z" />
<glyph unicode="&#160;" horiz-adv-x="300" />
<glyph unicode="&#173;" horiz-adv-x="233" d="M210 419v-44h-188l0 44z" />
<glyph unicode="&#178;" horiz-adv-x="250" d="M68 369q-14 0 -20 5q-6 5 -6 25v38q0 28 9 47.5q9 19.5 23 31.5l66 56q18 17 24.5 35q6.5 18 6.5 41q0 36 -17.5 52q-17.5 16 -52.5 16q-26 0 -53 -10l0 37q11 3 24.5 5.5q13.5 2.5 29.5 2.5q56 0 81 -27q25 -27 25 -71q0 -30 -9.5 -58q-9.5 -28 -32.5 -47l-69 -59q-13 -13 -16.5 -25.5q-3.5 -12.5 -3.5 -26.5v-30h131v-14q0 -11 -3.5 -17.5q-3.5 -6.5 -15.5 -6.5z" />
<glyph unicode="&#179;" horiz-adv-x="239" d="M43 743q24 8 55 8q18 0 34.5 -4.5q16.5 -4.5 30 -15.5q13.5 -11 21.5 -29q8 -18 8 -46q0 -32 -10.5 -57q-10.5 -25 -31.5 -36q24 -11 36.5 -34.5q12.5 -23.5 12.5 -54.5q0 -56 -25.5 -83.5q-25.5 -27.5 -72.5 -27.5q-13 0 -29.5 2q-16.5 2 -32.5 7l0 34q15 -5 29 -8q14 -3 29 -3q14 0 26 3q12 3 21 11q9 8 14.5 22.5q5.5 14.5 5.5 37.5q0 45 -17 61.5q-17 16.5 -48 16.5h-33q-10 0 -10 13v17h43q30 0 44 18.5q14 18.5 14 61.5q0 63 -60 63q-15 0 -27.5 -2q-12.5 -2 -26.5 -7l0 32z" />
<glyph unicode="&#185;" horiz-adv-x="279" d="M160 369h-15q-12 0 -16 7q-4 7 -4 21v312h-47v37h68q7 0 10.5 -5q3.5 -5 3.5 -12z" />
<glyph unicode="&#960;" horiz-adv-x="404" d="M132 0h-12q-15 0 -22 9q-7 9 -7 30v472h-63v39h344v-9q0 -15 -5.5 -22.5q-5.5 -7.5 -23.5 -7.5h-34v-390q0 -33 8.5 -56.5q8.5 -23.5 38.5 -23.5h27v-12q0 -11 -7 -21q-7 -10 -27 -10q-26 0 -42 9q-16 9 -24.5 27q-8.5 18 -11.5 43.5q-3 25.5 -3 58.5v375l-136 0z" />
<glyph unicode="&#1025;" horiz-adv-x="429" d="M186 905v-74h-24q-28 0 -28 34v40zM315 905v-74h-24q-28 0 -28 34v40zM385 32q0 -17 -5 -24.5q-5 -7.5 -21 -7.5h-285v746h311v-7q0 -17 -5 -24.5q-5 -7.5 -21 -7.5h-240v-287h243v-9q0 -14 -4.5 -21.5q-4.5 -7.5 -21.5 -7.5h-217v-343l266 0z" />
<glyph unicode="&#1040;" horiz-adv-x="463" d="M447 0h-47l-62 259q-8 -14 -22.5 -21.5q-14.5 -7.5 -30.5 -7.5h-166l-55 -230h-47l187 746h35q14 0 19.5 -7q5.5 -7 7.5 -16zM129 271h206l-103 428z" />
<glyph unicode="&#1041;" horiz-adv-x="461" d="M369 282q0 28 -6 53.5q-6 25.5 -19 45q-13 19.5 -32.5 30.5q-19.5 11 -46.5 11h-147v-383h147q27 0 46.5 11q19.5 11 32.5 30.5q13 19.5 19 44.5q6 25 6 54zM414 172q0 -46 -12 -78.5q-12 -32.5 -32.5 -53.5q-20.5 -21 -47 -30.5q-26.5 -9.5 -55.5 -9.5h-194v746h314v-8q0 -13 -4.5 -22q-4.5 -9 -20.5 -9h-244v-246h149q29 0 55.5 -9.5q26.5 -9.5 47 -30.5q20.5 -21 32.5 -53.5q12 -32.5 12 -78.5z" />
<glyph unicode="&#1042;" horiz-adv-x="452" d="M266 746q33 0 56.5 -12q23.5 -12 39 -33.5q15.5 -21.5 23 -51.5q7.5 -30 7.5 -65v-45q0 -54 -19.5 -95.5q-19.5 -41.5 -51.5 -56.5q21 -6 37.5 -20.5q16.5 -14.5 27 -34q10.5 -19.5 16 -43.5q5.5 -24 5.5 -49v-66q0 -47 -11.5 -80q-11.5 -33 -30.5 -54q-19 -21 -45 -30.5q-26 -9.5 -54 -9.5h-193v746zM116 707v-300h146q26 0 43 12q17 12 26.5 31q9.5 19 13 42.5q3.5 23.5 3.5 45.5v43q0 26 -5.5 49q-5.5 23 -16 40q-10.5 17 -27 27q-16.5 10 -37.5 10zM116 368v-329h144q26 0 45.5 10.5q19.5 10.5 32.5 29q13 18.5 19.5 43q6.5 24.5 6.5 52.5v56q0 28 -5.5 53.5q-5.5 25.5 -18 44q-12.5 18.5 -32 29.5q-19.5 11 -47.5 11z" />
<glyph unicode="&#1043;" horiz-adv-x="376" d="M119 703v-703h-19q-26 0 -26 38v708h282v-10q0 -14 -6 -23.5q-6 -9.5 -24 -9.5z" />
<glyph unicode="&#1044;" horiz-adv-x="510" d="M455 0h-400v-167h-14q-17 0 -23 9q-6 9 -6 38v159h54l160 707h37q14 0 19.5 -7q5.5 -7 7.5 -16l154 -684h54v-206h-14q-17 0 -23 9q-6 9 -6 38zM114 39h281l-140 658z" />
<glyph unicode="&#1045;" horiz-adv-x="429" d="M385 32q0 -17 -5 -24.5q-5 -7.5 -21 -7.5h-285v746h311v-7q0 -17 -5 -24.5q-5 -7.5 -21 -7.5h-240v-287h243v-9q0 -14 -4.5 -21.5q-4.5 -7.5 -21.5 -7.5h-217v-343l266 0z" />
<glyph unicode="&#1046;" horiz-adv-x="636" d="M388 387l188 359h48l-188 -356l200 -390h-26q-5 0 -15.5 3.5q-10.5 3.5 -19.5 21.5zM348 0h-18q-26 0 -26 36v710h44zM77 25q-9 -18 -19.5 -21.5q-10.5 -3.5 -15.5 -3.5h-26l200 390l-188 356h48l188 -359z" />
<glyph unicode="&#1047;" horiz-adv-x="407" d="M301 262q-2 61 -31 83.5q-29 22.5 -77 24.5l-111 0q-11 0 -15 4.5q-4 4.5 -4 16.5v16h131q48 0 70.5 21q22.5 21 22.5 81v90q0 40 -8 62q-8 22 -22.5 32.5q-14.5 10.5 -33 12q-18.5 1.5 -39.5 1.5h-119q-23 0 -29 9q-6 9 -6 23v7h150q49 0 79 -9q30 -9 47 -27q17 -18 23 -45q6 -27 6 -64v-64q0 -72 -19.5 -106q-19.5 -34 -48.5 -43q33 -9 56.5 -40.5q23.5 -31.5 23.5 -98.5v-104q0 -37 -6 -64q-6 -27 -23 -45q-17 -18 -47 -27q-30 -9 -79 -9h-131q-23 0 -29.5 8.5q-6.5 8.5 -6.5 20.5v10h173q21 0 39.5 1.5q18.5 1.5 33 12q14.5 10.5 22.5 32q8 21.5 8 62.5z" />
<glyph unicode="&#1048;" horiz-adv-x="509" d="M115 746v-642l287 642h30v-746h-18q-11 0 -17 10.5q-6 10.5 -6 27.5v596l-285 -634h-13q-11 0 -15 5.5q-4 5.5 -4 26.5l0 714z" />
<glyph unicode="&#1049;" horiz-adv-x="509" d="M190 783q-11 0 -19 4.5q-8 4.5 -8 27.5v11h182v-43zM115 746v-642l287 642h30v-746h-18q-11 0 -17 10.5q-6 10.5 -6 27.5v596l-285 -634h-13q-11 0 -15 5.5q-4 5.5 -4 26.5l0 714z" />
<glyph unicode="&#1050;" horiz-adv-x="444" d="M159 387l208 359h50l-208 -356l219 -390h-30q-5 0 -15.5 4.5q-10.5 4.5 -19.5 20.5zM119 0h-19q-26 0 -26 36v710l45 0z" />
<glyph unicode="&#1051;" horiz-adv-x="439" d="M423 0h-24q-13 0 -21 6q-8 6 -13 31l-145 660l-145 -660q-5 -25 -13 -31q-8 -6 -21 -6h-24l174 746h36q14 0 19.5 -7q5.5 -7 7.5 -16z" />
<glyph unicode="&#1052;" horiz-adv-x="660" d="M562 0q-26 0 -26 36v618l-151 -401q-13 -34 -26 -42.5q-13 -8.5 -29 -9.5q-16 1 -29 9.5q-13 8.5 -26 42.5l-151 401v-654h-18q-26 0 -26 36v710h52l180 -478q7 -18 10 -24.5q3 -6.5 8 -6.5q5 0 8 6.5q3 6.5 10 24.5l180 478h52l0 -746z" />
<glyph unicode="&#1053;" horiz-adv-x="505" d="M428 0h-19q-26 0 -26 36v369q-8 -14 -22.5 -21.5q-14.5 -7.5 -30.5 -7.5h-211v-376h-19q-26 0 -26 36v710h45v-329h264v329l45 0z" />
<glyph unicode="&#1054;" horiz-adv-x="496" d="M247 28q44 0 72 16.5q28 16.5 43.5 48.5q15.5 32 21.5 78q6 46 6 106v192q0 60 -6 106q-6 46 -21.5 78q-15.5 32 -43.5 48.5q-28 16.5 -72 16.5q-44 0 -72 -16.5q-28 -16.5 -44 -48.5q-16 -32 -21.5 -78q-5.5 -46 -5.5 -106v-192q0 -60 5.5 -106q5.5 -46 21.5 -78q16 -32 44 -48.5q28 -16.5 72 -16.5zt0 0zM247 -14q-50 0 -86 15.5q-36 15.5 -58.5 50q-22.5 34.5 -33 89.5q-10.5 55 -10.5 134v196q0 79 10.5 134q10.5 55 33 89.5q22.5 34.5 58.5 50q36 15.5 86 15.5q50 0 86 -15.5q36 -15.5 58.5 -50q22.5 -34.5 33 -89.5q10.5 -55 10.5 -134v-196q0 -79 -10.5 -134q-10.5 -55 -33 -89.5q-22.5 -34.5 -58.5 -50t-86 -15.5z" />
<glyph unicode="&#1055;" horiz-adv-x="499" d="M422 0h-19q-26 0 -26 36v669h-258v-705h-19q-26 0 -26 36v710l348 0z" />
<glyph unicode="&#1056;" horiz-adv-x="460" d="M251 334q61 0 84 34.5q23 34.5 23 95.5v113q0 61 -23 95.5q-23 34.5 -84 34.5h-132v-373zM119 295v-295h-18q-27 0 -27 36v710h186q69 0 106 -39.5q37 -39.5 37 -133.5v-105q0 -94 -37 -133.5q-37 -39.5 -106 -39.5z" />
<glyph unicode="&#1057;" horiz-adv-x="402" d="M209 0q-72 0 -110 45.5q-38 45.5 -38 132.5v390q0 87 38 132.5q38 45.5 110 45.5h166v-8q0 -14 -6 -23.5q-6 -9.5 -28 -9.5h-128q-106 0 -106 -152v-360q0 -152 106 -152h169v-8q0 -14 -6 -23.5q-6 -9.5 -28 -9.5z" />
<glyph unicode="&#1058;" horiz-adv-x="407" d="M396 739q0 -20 -4.5 -27q-4.5 -7 -23.5 -7h-142v-705h-19q-26 0 -26 36v669h-170v41l385 0z" />
<glyph unicode="&#1059;" horiz-adv-x="420" d="M196 145l-188 601h53l156 -529l147 529h46l-202 -705q-5 -17 -10.5 -28.5q-5.5 -11.5 -14.5 -12.5l-30 0z" />
<glyph unicode="&#1060;" horiz-adv-x="577" d="M516 346q0 -87 -15 -138.5q-15 -51.5 -41.5 -78.5q-26.5 -27 -62 -35q-35.5 -8 -76.5 -8h-11v-86h-21q-24 0 -24 34v52h-11q-41 0 -76.5 8q-35.5 8 -62 35q-26.5 27 -41.5 78.5q-15 51.5 -15 138.5v98q0 87 15 138.5q15 51.5 41.5 78.5q26.5 27 62 35q35.5 8 76.5 8h11v72h45v-72h11q41 0 76.5 -8q35.5 -8 62 -35q26.5 -27 41.5 -78.5q15 -51.5 15 -138.5zM470 465q0 62 -11 101q-11 39 -31 61q-20 22 -47.5 30q-27.5 8 -59.5 8h-11v-540h11q32 0 59.5 8q27.5 8 47.5 30q20 22 31 61q11 39 11 101zM105 325q0 -62 11 -101q11 -39 31 -61q20 -22 47.5 -30q27.5 -8 59.5 -8h11v540h-11q-32 0 -59.5 -8q-27.5 -8 -47.5 -30q-20 -22 -31 -61q-11 -39 -11 -101z" />
<glyph unicode="&#1061;" horiz-adv-x="440" d="M215 336l-150 -336h-47l173 376l-172 370h50l149 -332l149 332h47l-171 -372l174 -374l-50 0z" />
<glyph unicode="&#1062;" horiz-adv-x="491" d="M416 42h47v-209h-18q-24 0 -24 35v132h-208q-35 0 -61.5 8q-26.5 8 -44 29q-17.5 21 -26.5 57q-9 36 -9 92v560h45v-561q0 -81 23.5 -112q23.5 -31 72.5 -31h159v704l44 0z" />
<glyph unicode="&#1063;" horiz-adv-x="430" d="M319 309v437h42v-746h-17q-25 0 -25 35v232h-142q-39 0 -66.5 7.5q-27.5 7.5 -45 28.5q-17.5 21 -26 58q-8.5 37 -8.5 96v289h43v-296q0 -79 20 -110q20 -31 72 -31z" />
<glyph unicode="&#1064;" horiz-adv-x="655" d="M117 188q0 -80 24 -113q24 -33 72 -33h89v704h46v-704h185v704h45v-746h-365q-35 0 -61.5 8q-26.5 8 -44 29q-17.5 21 -26.5 57q-9 36 -9 92v560l45 0z" />
<glyph unicode="&#1065;" horiz-adv-x="652" d="M213 0q-35 0 -61.5 8q-26.5 8 -44 29q-17.5 21 -26.5 57q-9 36 -9 92v560h45v-558q0 -80 24 -113q24 -33 72 -33h89v704h46v-704h185v704h45v-704h48v-209h-18q-24 0 -24 35v132l-371 0z" />
<glyph unicode="&#1066;" horiz-adv-x="521" d="M326 440q29 0 55.5 -9.5q26.5 -9.5 47 -30.5q20.5 -21 32.5 -53.5q12 -32.5 12 -78.5v-96q0 -46 -12 -78.5q-12 -32.5 -32.5 -53.5q-20.5 -21 -47 -30.5q-26.5 -9.5 -55.5 -9.5h-189v706h-88q-9 0 -14.5 3.5q-5.5 3.5 -8 8.5q-2.5 5 -3 10q-0.5 5 -0.5 8v10h159v-306zM182 399v-357h142q52 0 77.5 39.5q25.5 39.5 25.5 96.5v85q0 57 -25.5 96.5q-25.5 39.5 -77.5 39.5z" />
<glyph unicode="&#1067;" horiz-adv-x="614" d="M492 754h45v-754h-19q-26 0 -26 37zM256 440q29 0 55.5 -9.5q26.5 -9.5 47 -30.5q20.5 -21 32.5 -53.5q12 -32.5 12 -78.5v-96q0 -46 -12 -78.5q-12 -32.5 -32.5 -53.5q-20.5 -21 -47 -30.5q-26.5 -9.5 -55.5 -9.5h-182v746h45v-306zM119 399v-357h135q52 0 77.5 39.5q25.5 39.5 25.5 96.5v85q0 57 -25.5 96.5q-25.5 39.5 -77.5 39.5z" />
<glyph unicode="&#1068;" horiz-adv-x="459" d="M263 440q29 0 55.5 -9.5q26.5 -9.5 47 -30.5q20.5 -21 32.5 -53.5q12 -32.5 12 -78.5v-96q0 -46 -12 -78.5q-12 -32.5 -32.5 -53.5q-20.5 -21 -47 -30.5q-26.5 -9.5 -55.5 -9.5h-189v746h45v-306zM119 399v-357h142q52 0 77.5 39.5q25.5 39.5 25.5 96.5v85q0 57 -25.5 96.5q-25.5 39.5 -77.5 39.5z" />
<glyph unicode="&#1069;" horiz-adv-x="413" d="M30 43h185q23 0 40 12q17 12 28.5 32q11.5 20 17.5 46.5q6 26.5 6 56.5v164h-207q-17 0 -21.5 10q-4.5 10 -4.5 23v10h233v156q0 152 -108 152h-128q-23 0 -28.5 9.5q-5.5 9.5 -5.5 23.5v8h164q72 0 111.5 -48q39.5 -48 39.5 -130v-385q0 -41 -10 -74.5q-10 -33.5 -28 -57.5q-18 -24 -42.5 -37.5q-24.5 -13.5 -53.5 -13.5h-153q-23 0 -29 10.5q-6 10.5 -6 21.5z" />
<glyph unicode="&#1070;" horiz-adv-x="596" d="M118 417h78v54q0 79 9.5 134q9.5 55 30 89.5q20.5 34.5 52.5 50q32 15.5 77 15.5q45 0 77.5 -15.5q32.5 -15.5 53 -50q20.5 -34.5 30 -89.5q9.5 -55 9.5 -134v-196q0 -79 -9.5 -134q-9.5 -55 -30 -89.5q-20.5 -34.5 -53 -50q-32.5 -15.5 -77.5 -15.5q-45 0 -77 15.5q-32 15.5 -52.5 50q-20.5 34.5 -30 89.5q-9.5 55 -9.5 134v101h-78v-376h-18q-26 0 -26 36v710h44zM365 28q40 0 65 16.5q25 16.5 38.5 48.5q13.5 32 18 78q4.5 46 4.5 106v192q0 60 -4.5 106q-4.5 46 -18 78q-13.5 32 -38.5 48.5q-25 16.5 -65 16.5q-40 0 -64.5 -16.5q-24.5 -16.5 -38 -48.5q-13.5 -32 -18 -78q-4.5 -46 -4.5 -106v-192q0 -60 4.5 -106q4.5 -46 18 -78q13.5 -32 38 -48.5t64.5 -16.5z" />
<glyph unicode="&#1071;" horiz-adv-x="449" d="M372 746v-746h-19q-26 0 -26 35v299h-97l-142 -299q-11 -22 -19.5 -28.5q-8.5 -6.5 -23.5 -6.5h-25l162 334q-23 0 -49 6q-26 6 -48.5 25q-22.5 19 -37.5 54.5q-15 35.5 -15 95.5v59q0 46 12 78.5q12 32.5 32.5 53.5q20.5 21 47 30.5q26.5 9.5 55.5 9.5zM327 373v334h-146q-26 0 -45.5 -10.5q-19.5 -10.5 -32.5 -29q-13 -18.5 -19.5 -43.5q-6.5 -25 -6.5 -53v-62q0 -29 6.5 -53.5q6.5 -24.5 19.5 -43q13 -18.5 32.5 -29q19.5 -10.5 45.5 -10.5z" />
<glyph unicode="&#1072;" horiz-adv-x="397" d="M328 0h-162q-56 0 -88.5 35q-32.5 35 -32.5 102v64q0 42 9 71q9 29 25.5 46.5q16.5 17.5 39.5 25q23 7.5 52 7.5q27 0 55.5 -4.5q28.5 -4.5 55.5 -11.5l0 66q-1 32 -5.5 53q-4.5 21 -13.5 33q-9 12 -23.5 17q-14.5 5 -35.5 5h-94q-23 0 -29 6.5q-6 6.5 -6 20.5v14h129q35 0 59 -9q24 -9 38.5 -28.5q14.5 -19.5 20.5 -51.5q6 -32 6 -78zM168 311q-41 0 -59 -27q-18 -27 -18 -87v-55q0 -29 7 -49q7 -20 18.5 -32q11.5 -12 25 -17q13.5 -5 26.5 -5h114v258q-34 8 -61.5 11t-52.5 3z" />
<glyph unicode="&#1073;" horiz-adv-x="396" d="M45 433q0 61 4 109q4 48 19 84q15 36 44 59.5q29 23.5 80 34.5l150 33v-25q0 -12 -5.5 -18.5q-5.5 -6.5 -29.5 -11.5l-114 -26q-53 -12 -81.5 -52.5q-28.5 -40.5 -28.5 -125.5v-31q10 27 25 44.5q15 17.5 32 27.5q17 10 35 14q18 4 36 4q70 0 104.5 -55q34.5 -55 34.5 -149v-133q0 -125 -38.5 -177.5q-38.5 -52.5 -113.5 -52.5q-37 0 -65.5 12.5q-28.5 12.5 -48 39.5q-19.5 27 -29.5 71q-10 44 -10 107zM91 216q0 -52 6.5 -87.5q6.5 -35.5 19.5 -57q13 -21.5 33 -31q20 -9.5 48 -9.5q27 0 47 9q20 9 33 30.5q13 21.5 19.5 57q6.5 35.5 6.5 88.5v117q0 37 -6 69.5q-6 32.5 -19 56.5q-13 24 -33.5 38q-20.5 14 -49.5 14q-48 0 -76.5 -48q-28.5 -48 -28.5 -134z" />
<glyph unicode="&#1074;" horiz-adv-x="405" d="M69 0v550h142q37 0 62.5 -6q25.5 -6 42 -21.5q16.5 -15.5 24 -42q7.5 -26.5 7.5 -67.5v-29q0 -42 -17 -61.5q-17 -19.5 -40 -27.5q38 -12 55.5 -40.5q17.5 -28.5 17.5 -82.5v-35q0 -41 -7.5 -67.5q-7.5 -26.5 -24 -42q-16.5 -15.5 -42 -21.5q-25.5 -6 -62.5 -6zM197 310q26 0 45.5 2.5q19.5 2.5 32 11.5q12.5 9 19 25.5q6.5 16.5 6.5 44.5v27q0 31 -6.5 49q-6.5 18 -19.5 27q-13 9 -32.5 11.5q-19.5 2.5 -45.5 2.5h-81v-201zM212 39q26 0 45.5 2q19.5 2 32.5 11q13 9 19.5 27q6.5 18 6.5 50v52q0 31 -6.5 49q-6.5 18 -19.5 27q-13 9 -32.5 11.5q-19.5 2.5 -45.5 2.5h-97l0 -232z" />
<glyph unicode="&#1075;" horiz-adv-x="332" d="M313 550v-10q0 -15 -6 -23q-6 -8 -24 -8h-168v-509h-18q-14 0 -21 9q-7 9 -7 30l0 511z" />
<glyph unicode="&#1076;" horiz-adv-x="426" d="M182 550h42q13 0 18 -5.5q5 -5.5 7 -13.5l118 -492h48v-206h-14q-16 0 -21.5 7q-5.5 7 -5.5 29v131h-322v-167h-14q-17 0 -22 7q-5 7 -5 29v170h47zM107 39h212l-106 472z" />
<glyph unicode="&#1077;" horiz-adv-x="395" d="M335 43v-14q0 -14 -5.5 -21.5q-5.5 -7.5 -28.5 -7.5h-117q-58 0 -93.5 45.5q-35.5 45.5 -35.5 123.5v203q0 52 11.5 88.5q11.5 36.5 31.5 59.5q20 23 46.5 33.5q26.5 10.5 56.5 10.5q65 0 107 -44q42 -44 42 -126v-89q0 -29 -9.5 -40.5q-9.5 -11.5 -34.5 -11.5h-205v-84q0 -60 24.5 -93q24.5 -33 58.5 -33zM101 296h179q16 0 20 6q4 6 4 30v62q0 59 -26 93q-26 34 -77 34q-46 0 -73 -34q-27 -34 -27 -93z" />
<glyph unicode="&#1078;" horiz-adv-x="496" d="M428 550h48l-128 -253l140 -297h-22q-7 0 -18 3.5q-11 3.5 -20 21.5l-127 273zM254 0q-14 0 -21 9q-7 9 -7 30v511h44v-550zM195 298l-127 -273q-9 -18 -20 -21.5q-11 -3.5 -18 -3.5h-22l140 297l-128 253l48 0z" />
<glyph unicode="&#1079;" horiz-adv-x="339" d="M176 39q13 0 25 1.5q12 1.5 21.5 9q9.5 7.5 15 22q5.5 14.5 5.5 40.5v90q0 36 -15.5 52q-15.5 16 -43.5 16h-100q-15 0 -20 4q-5 4 -5 22v13h125q27 0 38.5 14.5q11.5 14.5 11.5 47.5v67q0 26 -5.5 40.5q-5.5 14.5 -15 22q-9.5 7.5 -21.5 9q-12 1.5 -25 1.5h-98q-21 0 -26.5 10q-5.5 10 -5.5 24v5h136q24 0 44 -3.5q20 -3.5 34 -15.5q14 -12 21.5 -35.5q7.5 -23.5 7.5 -62.5v-48q0 -36 -11 -58.5q-11 -22.5 -28 -31.5q16 -7 26 -19.5q10 -12.5 14.5 -28.5q4.5 -16 6 -33.5q1.5 -17.5 1.5 -34.5v-62q0 -39 -7.5 -62.5q-7.5 -23.5 -21.5 -35.5q-14 -12 -34 -15.5q-20 -3.5 -44 -3.5h-113q-21 0 -28 9q-7 9 -7 21l0 9z" />
<glyph unicode="&#1080;" horiz-adv-x="443" d="M113 550v-448l230 448h30v-550h-16q-14 0 -21 9q-7 9 -7 30v403l-230 -442v4l-2 -4q-14 0 -21 9q-7 9 -7 30l0 511z" />
<glyph unicode="&#1081;" horiz-adv-x="443" d="M113 550v-448l230 448h30v-550h-16q-14 0 -21 9q-7 9 -7 30v403l-230 -442v4l-2 -4q-14 0 -21 9q-7 9 -7 30v511zM172 593q-12 0 -20 6.5q-8 6.5 -8 27.5v9h167l0 -43z" />
<glyph unicode="&#1082;" horiz-adv-x="377" d="M304 550h52l-158 -253l171 -297h-30q-7 0 -17 3q-10 3 -20 19l-156 276zM97 0q-14 0 -21 9q-7 9 -7 30v511h46l0 -550z" />
<glyph unicode="&#1083;" horiz-adv-x="359" d="M346 0h-26q-13 0 -20 6q-7 6 -13 30l-106 475l-106 -475q-6 -24 -13 -30q-7 -6 -20 -6h-26l135 550h40q13 0 18 -5.5q5 -5.5 7 -13.5z" />
<glyph unicode="&#1084;" horiz-adv-x="517" d="M432 0q-17 0 -24 10.5q-7 10.5 -7 27.5v383l-94 -245q-9 -24 -22 -32.5q-13 -8.5 -27 -8.5q-14 0 -27.5 8.5q-13.5 8.5 -21.5 32.5l-94 245v-421h-12q-18 0 -24.5 10.5q-6.5 10.5 -6.5 27.5v512h34l135 -355q3 -8 7 -14.5q4 -6.5 10 -6.5q6 0 9.5 6.5q3.5 6.5 6.5 14.5l136 355h34l0 -550z" />
<glyph unicode="&#1085;" horiz-adv-x="436" d="M366 550v-550h-18q-14 0 -21 9q-7 9 -7 30v260q-7 -8 -18 -14.5q-11 -6.5 -37 -6.5h-150v-278h-18q-14 0 -21 9q-7 9 -7 30v511h46v-233h205l0 233z" />
<glyph unicode="&#1086;" horiz-adv-x="396" d="M198 564q37 0 65.5 -11.5q28.5 -11.5 47.5 -38q19 -26.5 29 -70q10 -43.5 10 -107.5v-121q0 -125 -38.5 -177.5q-38.5 -52.5 -113.5 -52.5q-37 0 -65.5 12.5q-28.5 12.5 -48 39.5q-19.5 27 -29.5 71q-10 44 -10 107v121q0 63 10.5 106q10.5 43 30 70q19.5 27 48 39q28.5 12 64.5 12zt0 0zM304 337q0 52 -6 87.5q-6 35.5 -18.5 57q-12.5 21.5 -33 30.5q-20.5 9 -48.5 9q-51 0 -79 -35.5q-28 -35.5 -28 -128.5v-141q0 -52 6.5 -87.5q6.5 -35.5 19.5 -57q13 -21.5 33 -31q20 -9.5 48 -9.5q27 0 47 9q20 9 33 30.5q13 21.5 19.5 57q6.5 35.5 6.5 88.5z" />
<glyph unicode="&#1087;" horiz-adv-x="427" d="M357 550v-550h-18q-14 0 -21 9q-7 9 -7 30v472h-196v-511h-18q-14 0 -21 9q-7 9 -7 30l0 511z" />
<glyph unicode="&#1088;" horiz-adv-x="397" d="M211 550q69 0 104.5 -42.5q35.5 -42.5 35.5 -127.5v-211q0 -85 -35.5 -127q-35.5 -42 -104.5 -42h-96v-209h-19q-27 0 -27 38v721zM115 39h96q43 0 68.5 34q25.5 34 25.5 103v199q0 70 -25.5 103q-25.5 33 -67.5 33l-97 0z" />
<glyph unicode="&#1089;" horiz-adv-x="347" d="M312 32q0 -14 -5.5 -23q-5.5 -9 -26.5 -9h-103q-62 0 -97 44q-35 44 -35 130v202q0 86 35 130q35 44 97 44h132v-9q0 -14 -5.5 -23q-5.5 -9 -26.5 -9h-80q-55 0 -80.5 -33.5q-25.5 -33.5 -25.5 -106.5v-188q0 -73 25.5 -106.5q25.5 -33.5 80.5 -33.5l115 0z" />
<glyph unicode="&#1090;" horiz-adv-x="322" d="M184 512v-512h-18q-14 0 -21 9q-7 9 -7 30v473h-120v38h286v-8q0 -18 -5 -24q-5 -6 -24 -6z" />
<glyph unicode="&#1091;" horiz-adv-x="420" d="M305 10q-24 -2 -38.5 -4q-14.5 -2 -26 -3.5q-11.5 -1.5 -22 -2q-10.5 -0.5 -26.5 -0.5q-36 1 -59.5 11q-23.5 10 -38 31.5q-14.5 21.5 -20 56q-5.5 34.5 -5.5 85.5v366h45v-377q0 -36 4 -61.5q4 -25.5 14 -41q10 -15.5 26.5 -22.5q16.5 -7 42.5 -7q8 0 21 1q13 1 27.5 2.5q14.5 1.5 29 4q14.5 2.5 26.5 4.5l0 497h45v-620q0 -27 -5.5 -52q-5.5 -25 -18 -44.5q-12.5 -19.5 -33 -31q-20.5 -11.5 -51.5 -11.5h-145v13q0 16 7.5 22q7.5 6 23.5 6h112q32 0 48 26.5q16 26.5 17 70.5z" />
<glyph unicode="&#1092;" horiz-adv-x="517" d="M426 326q0 64 -11 102q-11 38 -31 59q-20 21 -47 27.5q-27 6.5 -58 7.5l0 -496q31 0 58 6.5q27 6.5 47 27q20 20.5 31 58.5q11 38 11 103zM90 221q0 -65 11 -103q11 -38 31 -58.5q20 -20.5 46.5 -27q26.5 -6.5 58.5 -6.5l0 496q-32 -1 -59 -7.5q-27 -6.5 -46.5 -27.5q-19.5 -21 -30.5 -59q-11 -38 -11 -102zM237 751h42v-188q40 -1 74.5 -8q34.5 -7 60 -31.5q25.5 -24.5 40.5 -72.5q15 -48 15 -130v-94q0 -83 -15 -131q-15 -48 -41 -72.5q-26 -24.5 -60.5 -31q-34.5 -6.5 -73.5 -7.5l0 -194h-10q-14 0 -23 11q-9 11 -9 34v149q-39 1 -73.5 7.5q-34.5 6.5 -60.5 31q-26 24.5 -41 72.5q-15 48 -15 131v94q0 82 14.5 130q14.5 48 40 72.5q25.5 24.5 60.5 31.5q35 7 75 8z" />
<glyph unicode="&#1093;" horiz-adv-x="352" d="M9 0l140 276l-135 274h50l113 -241l113 241h47l-135 -274l141 -276h-51l-116 242l-119 -242z" />
<glyph unicode="&#1094;" horiz-adv-x="434" d="M202 0q-39 0 -65 9q-26 9 -41.5 30.5q-15.5 21.5 -22 56.5q-6.5 35 -6.5 88v366h46v-378q1 -41 6 -67q5 -26 17.5 -40.5q12.5 -14.5 34 -20q21.5 -5.5 55.5 -5.5h78v511h46v-511h54v-194h-13q-14 0 -21 9q-7 9 -7 30l0 116z" />
<glyph unicode="&#1095;" horiz-adv-x="378" d="M308 550v-550h-18q-14 0 -21 9q-7 9 -7 30v158h-111q-62 0 -89 38.5q-27 38.5 -27 111.5v203h46v-215q0 -52 22 -75.5q22 -23.5 65 -23.5h94l0 314z" />
<glyph unicode="&#1096;" horiz-adv-x="577" d="M204 0q-39 0 -65 9q-26 9 -41.5 30.5q-15.5 21.5 -22 56.5q-6.5 35 -6.5 88v366h46v-378q1 -41 6 -67q5 -26 17.5 -40.5q12.5 -14.5 34 -20q21.5 -5.5 55.5 -5.5h37v511h46v-511h150v511h46l0 -550z" />
<glyph unicode="&#1097;" horiz-adv-x="591" d="M204 0q-39 0 -65 9q-26 9 -41.5 30.5q-15.5 21.5 -22 56.5q-6.5 35 -6.5 88v366h46v-378q1 -41 6 -67q5 -26 17.5 -40.5q12.5 -14.5 34 -20q21.5 -5.5 55.5 -5.5h37v511h46v-511h150v511h46v-511h54v-194h-13q-14 0 -21 9q-7 9 -7 30l0 116z" />
<glyph unicode="&#1098;" horiz-adv-x="410" d="M105 0v511h-71q-20 0 -23.5 9q-3.5 9 -3.5 17v13h144v-193h71q35 0 63 -6q28 -6 47.5 -22.5q19.5 -16.5 30 -46.5q10.5 -30 10.5 -78v-51q0 -48 -10.5 -78q-10.5 -30 -30 -46.5q-19.5 -16.5 -47.5 -22.5q-28 -6 -63 -6zM224 39q60 0 81.5 23.5q21.5 23.5 21.5 74.5v83q0 51 -21.5 74.5q-21.5 23.5 -81.5 23.5h-73l0 -279z" />
<glyph unicode="&#1099;" horiz-adv-x="501" d="M175 39q60 0 81.5 23.5q21.5 23.5 21.5 74.5v83q0 51 -21.5 74.5q-21.5 23.5 -81.5 23.5h-60v-279zM69 0v550h46v-193h58q35 0 63 -6q28 -6 47.5 -22.5q19.5 -16.5 30 -46.5q10.5 -30 10.5 -78v-51q0 -48 -10.5 -78q-10.5 -30 -30 -46.5q-19.5 -16.5 -47.5 -22.5q-28 -6 -63 -6zM431 550v-550h-18q-14 0 -21 9q-7 9 -7 30l0 511z" />
<glyph unicode="&#1100;" horiz-adv-x="374" d="M188 39q60 0 81.5 23.5q21.5 23.5 21.5 74.5v83q0 51 -21.5 74.5q-21.5 23.5 -81.5 23.5h-73v-279zM69 0v550h46v-193h71q35 0 63 -6q28 -6 47.5 -22.5q19.5 -16.5 30 -46.5q10.5 -30 10.5 -78v-51q0 -48 -10.5 -78q-10.5 -30 -30 -46.5q-19.5 -16.5 -47.5 -22.5q-28 -6 -63 -6z" />
<glyph unicode="&#1101;" horiz-adv-x="340" d="M249 256h-153q-18 0 -23 7.5q-5 7.5 -5 21.5v12h181v93q0 68 -23.5 94.5q-23.5 26.5 -68.5 26.5h-90q-21 0 -26.5 8q-5.5 8 -5.5 22v9h134q69 0 97.5 -45q28.5 -45 28.5 -136v-188q0 -91 -28.5 -136q-28.5 -45 -97.5 -45h-103q-22 0 -28 10q-6 10 -6 22v7h125q45 0 68.5 26.5q23.5 26.5 23.5 94.5z" />
<glyph unicode="&#1102;" horiz-adv-x="505" d="M115 550v-233h55v20q0 63 9.5 106q9.5 43 28.5 70q19 27 45.5 39q26.5 12 61.5 12q35 0 62 -11.5q27 -11.5 45.5 -38q18.5 -26.5 28 -70q9.5 -43.5 9.5 -107.5v-121q0 -125 -37 -177.5q-37 -52.5 -108 -52.5q-35 0 -62 12.5q-27 12.5 -45.5 39.5q-18.5 27 -28 71q-9.5 44 -9.5 107v62h-55v-278h-18q-14 0 -21 9q-7 9 -7 30v511zM414 337q0 52 -5.5 87.5q-5.5 35.5 -17 57q-11.5 21.5 -30.5 30.5q-19 9 -46 9q-48 0 -73.5 -35.5q-25.5 -35.5 -25.5 -128.5v-141q0 -52 5.5 -87.5q5.5 -35.5 17.5 -57q12 -21.5 31 -31q19 -9.5 45 -9.5q26 0 44.5 9q18.5 9 30.5 30.5q12 21.5 18 57q6 35.5 6 88.5z" />
<glyph unicode="&#1103;" horiz-adv-x="390" d="M191 221l-95 -191q-8 -15 -14.5 -22.5q-6.5 -7.5 -20.5 -7.5h-31l114 222q-15 2 -34.5 9q-19.5 7 -37 23.5q-17.5 16.5 -29.5 45q-12 28.5 -12 74.5v43q0 60 34.5 96.5q34.5 36.5 115.5 36.5h139v-550h-18q-14 0 -20.5 7q-6.5 7 -6.5 28v186zM191 511q-61 0 -88 -23.5q-27 -23.5 -27 -88.5v-30q0 -32 7.5 -53q7.5 -21 22 -33q14.5 -12 36 -17q21.5 -5 50.5 -5h83l0 250z" />
<glyph unicode="&#1105;" horiz-adv-x="395" d="M170 695v-74h-24q-29 0 -29 34v40zM285 695v-74h-24q-29 0 -29 34v40zM335 43v-14q0 -14 -5.5 -21.5q-5.5 -7.5 -28.5 -7.5h-117q-58 0 -93.5 45.5q-35.5 45.5 -35.5 123.5v203q0 52 11.5 88.5q11.5 36.5 31.5 59.5q20 23 46.5 33.5q26.5 10.5 56.5 10.5q65 0 107 -44q42 -44 42 -126v-89q0 -29 -9.5 -40.5q-9.5 -11.5 -34.5 -11.5h-205v-84q0 -60 24.5 -93q24.5 -33 58.5 -33zM101 296h179q16 0 20 6q4 6 4 30v62q0 59 -26 93q-26 34 -77 34q-46 0 -73 -34q-27 -34 -27 -93z" />
<glyph unicode="&#8486;" horiz-adv-x="721" d="M527 478q0 -65 -10 -112q-10 -47 -27 -79.5q-17 -32.5 -38.5 -53q-21.5 -20.5 -45.5 -32.5l0 -164h93v-34h-113q-8 0 -14.5 5.5q-6.5 5.5 -6.5 16.5v186q0 4 2 8q4 8 8 9q45 17 76.5 79q31.5 62 31.5 156q0 52 -11 97q-11 45 -30 77q-19 32 -45 50.5q-26 18.5 -57 18.5q-30 0 -56 -19q-26 -19 -45.5 -52q-19.5 -33 -31 -78q-11.5 -45 -11.5 -97q0 -42 9 -81q9 -39 24 -69.5q15 -30.5 33.5 -51q18.5 -20.5 37.5 -25.5q6 -2 11.5 -5.5q5.5 -3.5 5.5 -18.5v-191q0 -6 -3.5 -10.5q-3.5 -4.5 -11.5 -4.5h-114v34h89v164q-55 29 -89 97q-34 68 -34 176q0 60 14.5 108.5q14.5 48.5 40 83.5q25.5 35 59 54q33.5 19 72.5 19q39 0 73 -17.5q34 -17.5 59.5 -51.5q25.5 -34 40 -82.5t14.5 -109.5z" />
<glyph unicode="&#8710;" horiz-adv-x="716" d="M344 638q4 11 8.5 14.5q4.5 3.5 9.5 3.5h7q10 0 17 -18l205 -607q5 -14 -1 -22.5q-6 -8.5 -17 -8.5h-415q-11 0 -16 9q-5 9 0 22zM351 573l-168 -505l337 0z" />
<glyph unicode="&#8719;" horiz-adv-x="599" d="M415 615h-232v-518q0 -32 1 -49.5q1 -17.5 4.5 -26q3.5 -8.5 9 -10.5q5.5 -2 14.5 -3q8 -1 14.5 -0.5q6.5 0.5 13.5 -1.5l0 -26h-173v26l28 2q9 1 15 3.5q6 2.5 9.5 11.5q3.5 9 5 26.5q1.5 17.5 1.5 47.5v440q0 27 -1 43q-1 16 -4.5 24.5q-3.5 8.5 -9.5 12q-6 3.5 -16 4.5l-28 3v28h463v-28l-29 -3q-10 -1 -15.5 -5q-5.5 -4 -8.5 -13.5q-3 -9.5 -4 -25q-1 -15.5 -1 -40.5v-440q0 -53 4.5 -70.5q4.5 -17.5 24.5 -18.5q8 -1 14.5 -0.5q6.5 0.5 14.5 -1.5l0 -26h-173v26l22 2q12 1 19.5 6q7.5 5 11 15q3.5 10 4.5 26.5q1 16.5 1 41.5z" />
<glyph unicode="&#8721;" horiz-adv-x="520" d="M65 -20v63l211 251l-195 316v42h356v-118h-36l-4 47q-1 22 -4.5 28q-3.5 6 -17.5 6h-221q45 -78 90 -149.5q45 -71.5 91 -149.5l-231 -274h281q10 0 17.5 8q7.5 8 8.5 26l2 50h37l0 -146z" />
<glyph unicode="&#8730;" horiz-adv-x="688" d="M94 169l-32 21l78 156l103 -320l207 736h159v-43h-132l-233 -826l-114 352z" />
<glyph unicode="&#8734;" horiz-adv-x="726" d="M351 277l-7 -17q-13 -29 -25 -48.5q-12 -19.5 -25 -31q-13 -11.5 -27 -16q-14 -4.5 -31 -4.5q-56 0 -83 45q-27 45 -27 117q0 72 27 117q27 45 83 45q17 0 31 -4.5q14 -4.5 26.5 -16q12.5 -11.5 24.5 -31q12 -19.5 25 -48.5l7 -17l8 17q25 58 50 79q25 21 58 21q56 0 83 -45q27 -45 27 -117q0 -72 -27 -117q-27 -45 -83 -45q-17 0 -31 4.5q-14 4.5 -26.5 16q-12.5 11.5 -24.5 31q-12 19.5 -25 48.5zM331 321l-18 40q-11 25 -20.5 41q-9.5 16 -18.5 25q-9 9 -18 12.5q-9 3.5 -19 3.5q-39 0 -55.5 -33.5q-16.5 -33.5 -16.5 -87.5q0 -54 16.5 -87.5q16.5 -33.5 55.5 -33.5q10 0 19 3q9 3 18 12q9 9 19 25q10 16 21 42zM371 322l18 -39q22 -51 39 -66.5q17 -15.5 37 -15.5q39 0 55.5 33.5q16.5 33.5 16.5 87.5q0 54 -16.5 87.5q-16.5 33.5 -55.5 33.5q-20 0 -37.5 -15.5q-17.5 -15.5 -39.5 -66.5z" />
<glyph unicode="&#8747;" horiz-adv-x="814" d="M483 694q11 -6 16 -17q5 -11 5 -22q0 -16 -8.5 -28q-8.5 -12 -21.5 -12q-11 0 -20.5 6.5q-9.5 6.5 -13.5 17.5q-17 -25 -23.5 -79q-6.5 -54 -8.5 -123l-4 -128q-2 -55 -7.5 -117.5q-5.5 -62.5 -18 -115q-12.5 -52.5 -33.5 -87.5q-21 -35 -54 -35q-17 0 -26 15q-9 15 -9 31q0 17 7 29.5q7 12.5 20 12.5q17 0 34 -22q16 16 23 55.5q7 39.5 9.5 87q2.5 47.5 2.5 95.5q0 48 2 83q1 24 3 59.5q2 35.5 6 75q4 39.5 11 79q7 39.5 19 71q12 31.5 29.5 51.5q17.5 20 41.5 20q5 0 10 -0.5t9 -2.5z" />
<glyph unicode="&#8776;" horiz-adv-x="700" d="M274 485q25 0 46 -13.5q21 -13.5 42 -29.5q21 -16 42.5 -29.5q21.5 -13.5 47.5 -13.5q16 0 30 7q14 7 27 18q13 11 23.5 25q10.5 14 19.5 28l8 -9q-7 -14 -18 -32q-11 -18 -26 -34q-15 -16 -34 -27q-19 -11 -43 -11q-24 0 -46 13.5q-22 13.5 -43 29.5q-21 16 -43 29.5q-22 13.5 -46 13.5q-16 0 -30 -7q-14 -7 -27 -18q-13 -11 -23.5 -25q-10.5 -14 -19.5 -28l-8 9q7 14 18 32q11 18 26 34q15 16 34 27q19 11 43 11zt0 0zM274 285q25 0 46 -13.5q21 -13.5 42 -29.5q21 -16 42.5 -29.5q21.5 -13.5 47.5 -13.5q16 0 30 7q14 7 27 18q13 11 23.5 25q10.5 14 19.5 28l8 -9q-7 -14 -18 -32q-11 -18 -26 -34q-15 -16 -34 -27q-19 -11 -43 -11q-24 0 -46 13.5q-22 13.5 -43 29.5q-21 16 -43 29.5q-22 13.5 -46 13.5q-16 0 -30 -7q-14 -7 -27 -18q-13 -11 -23.5 -25q-10.5 -14 -19.5 -28l-8 9q7 14 18 32q11 18 26 34q15 16 34 27t43 11z" />
<glyph unicode="&#174;" horiz-adv-x="634" d="M337 342h-91v-223h-19q-10 0 -14.5 6q-4.5 6 -4.5 22v473h125q58 0 84 -31q26 -31 26 -79v-49q0 -37 -15.5 -69q-15.5 -32 -53.5 -42l78 -231h-41zM338 382q35 0 51 19.5q16 19.5 16 63.5v32q0 44 -16 63.5q-16 19.5 -51 19.5h-92v-198zM316 28q55 0 98.5 23.5q43.5 23.5 74.5 68.5q31 45 47.5 110q16.5 65 16.5 148q0 82 -16.5 147q-16.5 65 -47.5 110q-31 45 -74.5 69q-43.5 24 -98.5 24q-55 0 -99 -24q-44 -24 -74.5 -69q-30.5 -45 -47 -110q-16.5 -65 -16.5 -147q0 -83 16.5 -148q16.5 -65 47 -110q30.5 -45 74.5 -68.5q44 -23.5 99 -23.5zt0 0zM316 -14q-64 0 -115.5 26q-51.5 26 -87.5 76q-36 50 -55.5 123q-19.5 73 -19.5 167q0 94 19.5 167q19.5 73 55.5 123q36 50 87.5 76q51.5 26 115.5 26q64 0 115.5 -26q51.5 -26 87.5 -76q36 -50 55.5 -123q19.5 -73 19.5 -167q0 -94 -19.5 -167q-19.5 -73 -55.5 -123q-36 -50 -87.5 -76t-115.5 -26z" />
<glyph unicode="&#57985;" horiz-adv-x="960" d="M480 746l415 -416l-415 -414l-415 414zM799 330l-319 320l-319 -320l319 -318z" />
<glyph unicode="&#57986;" horiz-adv-x="960" d="M480 746l415 -416l-415 -414l-415 414z" />
<glyph unicode="&#57989;" horiz-adv-x="960" d="M819 -9h-681v676h681zM208 61h542v536l-542 0z" />
<glyph unicode="&#57990;" horiz-adv-x="960" d="M819 -9h-681v676l681 0z" />
<glyph unicode="&#57992;" horiz-adv-x="960" d="M480 701q77 0 144.5 -29q67.5 -29 118 -79.5q50.5 -50.5 79.5 -118q29 -67.5 29 -144.5q0 -77 -29 -144.5q-29 -67.5 -79.5 -118q-50.5 -50.5 -118 -79.5q-67.5 -29 -144.5 -29q-77 0 -144.5 29q-67.5 29 -118 79.5q-50.5 50.5 -79.5 118q-29 67.5 -29 144.5q0 77 29 144.5q29 67.5 79.5 118q50.5 50.5 118 79.5q67.5 29 144.5 29zt0 0zM480 640q-64 0 -120.5 -24.5q-56.5 -24.5 -98.5 -66.5q-42 -42 -66.5 -98.5q-24.5 -56.5 -24.5 -120.5q0 -64 24.5 -120.5q24.5 -56.5 66.5 -98.5q42 -42 98.5 -66.5q56.5 -24.5 120.5 -24.5q64 0 120.5 24.5q56.5 24.5 98.5 66.5q42 42 66.5 98.5q24.5 56.5 24.5 120.5q0 64 -24.5 120.5q-24.5 56.5 -66.5 98.5q-42 42 -98.5 66.5t-120.5 24.5z" />
<glyph unicode="&#57993;" horiz-adv-x="960" d="M480 701q77 0 144.5 -29q67.5 -29 118 -79.5q50.5 -50.5 79.5 -118q29 -67.5 29 -144.5q0 -77 -29 -144.5q-29 -67.5 -79.5 -118q-50.5 -50.5 -118 -79.5q-67.5 -29 -144.5 -29q-77 0 -144.5 29q-67.5 29 -118 79.5q-50.5 50.5 -79.5 118q-29 67.5 -29 144.5q0 77 29 144.5q29 67.5 79.5 118q50.5 50.5 118 79.5t144.5 29z" />
<glyph unicode="&#8470;" horiz-adv-x="723" d="M382 109v637h39v-710q0 -20 -5.5 -28q-5.5 -8 -19.5 -8h-7l-276 642v-606q0 -20 -5.5 -28q-5.5 -8 -19.5 -8h-14v746h35zM600 167q44 0 58 43q14 43 14 127v28q0 84 -13.5 127.5q-13.5 43.5 -58.5 43.5q-44 0 -58 -43q-14 -43 -14 -127v-28q0 -84 13.5 -127.5q13.5 -43.5 58.5 -43.5zt0 0zM514 0q-16 0 -22.5 5q-6.5 5 -6.5 27v7h238v-39zM600 130q-33 0 -54 12.5q-21 12.5 -34 38.5q-13 26 -18 66q-5 40 -5 96v17q0 111 23 162q23 51 88 51q33 0 54 -12.5q21 -12.5 34 -38.5q13 -26 18 -66q5 -40 5 -96v-17q0 -111 -23 -162t-88 -51z" />
<glyph unicode="&#167;" horiz-adv-x="334" d="M169 453q-38 0 -63.5 -28q-25.5 -28 -25.5 -79q0 -33 21.5 -58q21.5 -25 56.5 -44q37 0 63 28q26 28 26 79q0 33 -21.5 58q-21.5 25 -56.5 44zt0 0zM286 349q0 -53 -20.5 -86.5q-20.5 -33.5 -55.5 -46.5q32 -17 54 -45.5q22 -28.5 22 -85.5q0 -23 -6.5 -46.5q-6.5 -23.5 -21 -43q-14.5 -19.5 -36.5 -32q-22 -12.5 -52 -12.5h-110v15q0 16 8 22q8 6 23 6h79q41 0 59.5 27.5q18.5 27.5 18.5 63.5q0 24 -5 39.5q-5 15.5 -14.5 26q-9.5 10.5 -22 18q-12.5 7.5 -27.5 15.5l-40 21q-18 10 -36 23.5q-18 13.5 -31.5 31q-13.5 17.5 -22 39.5q-8.5 22 -8.5 49q0 53 20 86.5q20 33.5 56 45.5q-16 9 -30 20q-14 11 -24 26.5q-10 15.5 -16 36q-6 20.5 -6 49.5q0 23 6.5 46.5q6.5 23.5 20.5 43q14 19.5 36 32q22 12.5 53 12.5h110v-15q0 -16 -8.5 -22q-8.5 -6 -23.5 -6h-78q-41 0 -59.5 -27.5q-18.5 -27.5 -18.5 -63.5q0 -24 5 -39.5q5 -15.5 14 -26q9 -10.5 21.5 -18.5q12.5 -8 27.5 -15l40 -21q19 -10 36.5 -23.5q17.5 -13.5 31.5 -31q14 -17.5 22.5 -39.5t8.5 -49z" />
<glyph unicode="&#8482;" horiz-adv-x="682" d="M623 333q-11 0 -15.5 7q-4.5 7 -4.5 15v304l-91 -156q-8 -11 -14.5 -16.5q-6.5 -5.5 -20.5 -5.5q-14 0 -21 5.5q-7 5.5 -14 16.5l-92 156v-326h-20q-10 0 -14.5 7q-4.5 7 -4.5 15v391h31l115 -197q7 -11 11 -17q4 -6 9 -6q7 0 19 23l115 197h31v-413zM155 333q-11 0 -15.5 7q-4.5 7 -4.5 15v349h-96v42h232v-15q0 -19 -4.5 -23q-4.5 -4 -15.5 -4h-75l0 -371z" />
<glyph unicode="&#65;" horiz-adv-x="463" d="M447 0h-47l-62 259q-8 -14 -22.5 -21.5q-14.5 -7.5 -30.5 -7.5h-166l-55 -230h-47l187 746h35q14 0 19.5 -7q5.5 -7 7.5 -16zM129 271h206l-103 428z" />
<glyph unicode="&#43;" horiz-adv-x="455" d="M249 401h152v-43h-152v-220h-42v220h-152v43h152v215l42 0z" />
<glyph unicode="&#37;" horiz-adv-x="586" d="M140 449q19 0 31.5 10.5q12.5 10.5 19.5 27.5q7 17 9.5 39.5q2.5 22.5 2.5 46.5q0 24 -2.5 46.5q-2.5 22.5 -9.5 39.5q-7 17 -19.5 27.5q-12.5 10.5 -31.5 10.5q-20 0 -32 -10.5q-12 -10.5 -19 -27.5q-7 -17 -9.5 -39.5q-2.5 -22.5 -2.5 -46.5q0 -24 2.5 -46.5q2.5 -22.5 9.5 -39.5q7 -17 19 -27.5q12 -10.5 32 -10.5zt0 0zM140 410q-103 0 -105 162q0 164 105 164q103 0 105 -162q0 -164 -105 -164zt0 0zM430 746l-228 -723q-5 -15 -10 -19q-5 -4 -14 -4h-25l235 746zM443 49q19 0 31.5 10.5q12.5 10.5 19.5 27.5q7 17 9.5 39.5q2.5 22.5 2.5 46.5q0 24 -2.5 46.5q-2.5 22.5 -9.5 39.5q-7 17 -19.5 27.5q-12.5 10.5 -31.5 10.5q-20 0 -32 -10.5q-12 -10.5 -19 -27.5q-7 -17 -9.5 -39.5q-2.5 -22.5 -2.5 -46.5q0 -24 2.5 -46.5q2.5 -22.5 9.5 -39.5q7 -17 19 -27.5q12 -10.5 32 -10.5zt0 0zM443 10q-103 0 -105 162q0 164 105 164q103 0 105 -162q0 -164 -105 -164z" />
<glyph unicode="&#8804;" horiz-adv-x="733" d="M230 380l318 -193l-15 -43l-384 235l379 233l14 -42zM562 70v-45h-414l0 45z" />
<glyph unicode="&#8805;" horiz-adv-x="733" d="M168 570l14 42l379 -233l-384 -235l-14 43l317 193zM562 70v-45h-414l0 45z" />
<glyph unicode="&#66;" horiz-adv-x="452" d="M266 746q33 0 56.5 -12q23.5 -12 39 -33.5q15.5 -21.5 23 -51.5q7.5 -30 7.5 -65v-45q0 -54 -19.5 -95.5q-19.5 -41.5 -51.5 -56.5q21 -6 37.5 -20.5q16.5 -14.5 27 -34q10.5 -19.5 16 -43.5q5.5 -24 5.5 -49v-66q0 -47 -11.5 -80q-11.5 -33 -30.5 -54q-19 -21 -45 -30.5q-26 -9.5 -54 -9.5h-193v746zM116 707v-300h146q26 0 43 12q17 12 26.5 31q9.5 19 13 42.5q3.5 23.5 3.5 45.5v43q0 26 -5.5 49q-5.5 23 -16 40q-10.5 17 -27 27q-16.5 10 -37.5 10zM116 368v-329h144q26 0 45.5 10.5q19.5 10.5 32.5 29q13 18.5 19.5 43q6.5 24.5 6.5 52.5v56q0 28 -5.5 53.5q-5.5 25.5 -18 44q-12.5 18.5 -32 29.5q-19.5 11 -47.5 11z" />
<glyph unicode="&#8800;" horiz-adv-x="787" d="M165 507h226l51 180l35 -13l-47 -167h187v-41h-199l-45 -159h244v-41h-255l-50 -178l-35 14l46 164h-158v41h170l45 159l-215 0z" />
<glyph unicode="&#8211;" horiz-adv-x="537" d="M66 322h394v-45l-394 0z" />
<glyph unicode="&#8212;" horiz-adv-x="604" d="M-10 322h624v-45l-624 0z" />
<glyph unicode="&#8364;" horiz-adv-x="714" d="M296 275v-85q0 -30 6 -56.5q6 -26.5 17.5 -46.5q11.5 -20 28.5 -32q17 -12 40 -12h181v-11q0 -11 -6 -21.5q-6 -10.5 -29 -10.5h-149q-29 0 -53.5 13.5q-24.5 13.5 -42.5 37.5q-18 24 -28 57.5q-10 33.5 -10 74.5v92h-107v42h107v118h-107v42h107v91q0 82 39.5 130q39.5 48 111.5 48h160v-8q0 -14 -5.5 -23.5q-5.5 -9.5 -28.5 -9.5h-124q-108 0 -108 -152v-76h161v-16q0 -16 -8.5 -21q-8.5 -5 -22.5 -5h-130v-118h161v-16q0 -16 -8.5 -21q-8.5 -5 -22.5 -5z" />
</font>
</defs>
</svg>
