<?xml version="1.0" standalone="no"?>
<!DOCTYPE svg PUBLIC "-//W3C//DTD SVG 1.1//EN" "http://www.w3.org/Graphics/SVG/1.1/DTD/svg11.dtd" >
<svg xmlns="http://www.w3.org/2000/svg">
<metadata>
Generated by SVGconv.
Copyright   : Copyright  2011-2013 Hyundai Motor Company and YoonDesign Inc. All rights reserved.
Designer    : YoonDesign Inc.
Foundry     : YoonDesign Inc.
Foundry URL : http://www.yoonfont.co.kr
</metadata>
<defs>
<font id="RUSModernH-Bold" horiz-adv-x="597" >
<font-face units-per-em="1000" ascent="1000" descent="300" />
<missing-glyph horiz-adv-x="920" />
<glyph unicode="&#13;" horiz-adv-x="300" />
<glyph unicode="&#32;" horiz-adv-x="300" />
<glyph unicode="&#33;" horiz-adv-x="347" d="M122 243l-16 527h135l-18 -527zM235 0h-127v127l127 0z" />
<glyph unicode="&#34;" horiz-adv-x="453" d="M192 781l-13 -271h-42q-26 0 -39 15q-13 15 -14 35l-12 221zM369 781l-13 -271h-41q-28 0 -40.5 15.5q-12.5 15.5 -13.5 35.5l-12 220z" />
<glyph unicode="&#35;" horiz-adv-x="696" d="M28 293h120l29 182h-96v93h111l31 192h117l-31 -192h138l31 192h117l-31 -192h103v-50q0 -25 -10.5 -34q-10.5 -9 -36.5 -9h-71l-29 -182h95v-50q0 -25 -10.5 -33.5q-10.5 -8.5 -36.5 -8.5h-63l-27 -168q-4 -22 -17.5 -34.5q-13.5 -12.5 -33.5 -12.5h-72l34 215h-139l-27 -168q-3 -22 -17 -34.5q-14 -12.5 -34 -12.5h-72l34 215h-106zM265 293h138l29 182l-138 0z" />
<glyph unicode="&#36;" horiz-adv-x="535" d="M325 790v-74h143v-41q0 -36 -16.5 -44.5q-16.5 -8.5 -51.5 -8.5h-75v-216l25 -12q43 -20 71 -40.5q28 -20.5 45 -42.5q17 -22 24 -47.5q7 -25.5 7 -55.5q0 -44 -14 -75q-14 -31 -38 -51q-24 -20 -55 -31.5q-31 -11.5 -65 -16.5l0 -77h-65q-23 0 -31.5 12q-8.5 12 -8.5 38v23h-180v41q0 26 14.5 39q14.5 13 54.5 13h111v221l-47 21q-68 30 -99.5 75q-31.5 45 -31.5 105q0 71 42.5 115.5q42.5 44.5 135.5 53.5l0 76zM157 545q0 -33 17 -53q17 -20 46 -36l0 161q-26 -6 -44.5 -22q-18.5 -16 -18.5 -50zt0 0zM382 207q0 23 -10.5 44.5q-10.5 21.5 -46.5 43.5l0 -164q30 10 43.5 29t13.5 47z" />
<glyph unicode="&#37;" horiz-adv-x="868" d="M606 181q0 -33 10.5 -56.5q10.5 -23.5 44.5 -23.5q34 0 44 23.5q10 23.5 10 56.5q0 32 -10 56q-10 24 -44 24q-34 0 -44.5 -24q-10.5 -24 -10.5 -56zt0 0zM491 181q0 82 43.5 127q43.5 45 126.5 45q81 0 125.5 -45q44.5 -45 44.5 -127q0 -83 -44.5 -127.5q-44.5 -44.5 -125.5 -44.5q-83 0 -126.5 44q-43.5 44 -43.5 128zt0 0zM668 746l-330 -710q-10 -21 -23.5 -28.5q-13.5 -7.5 -36.5 -7.5h-78l346 746zM150 562q0 -32 10.5 -55.5q10.5 -23.5 44.5 -23.5q17 0 27.5 6.5q10.5 6.5 16.5 17q6 10.5 8 25q2 14.5 2 30.5q0 33 -10 56.5q-10 23.5 -44 23.5q-34 0 -44.5 -23.5q-10.5 -23.5 -10.5 -56.5zt0 0zM36 562q0 82 43 127.5q43 45.5 126 45.5q81 0 125.5 -45.5q44.5 -45.5 44.5 -127.5q0 -80 -44 -126q-44 -46 -126 -46q-83 0 -126 44t-43 128z" />
<glyph unicode="&#38;" horiz-adv-x="712" d="M350 507q21 14 31.5 36q10.5 22 10.5 45q0 32 -23.5 55q-23.5 23 -64.5 23q-42 0 -64.5 -20q-22.5 -20 -24.5 -54q-1 -21 9.5 -39q10.5 -18 19.5 -29l47 -57zM268 333q-14 -9 -28 -19.5q-14 -10.5 -28 -20.5q-32 -23 -45.5 -48.5q-13.5 -25.5 -13.5 -58.5q0 -50 38 -78.5q38 -28.5 98 -28.5q44 0 83.5 14q39.5 14 66.5 39zM558 0l-50 55q-42 -32 -92 -50.5q-50 -18.5 -127 -18.5q-68 0 -116 17q-48 17 -78 45q-30 28 -44 64q-14 36 -14 75q0 36 10.5 64.5q10.5 28.5 26.5 51q16 22.5 35.5 39.5q19.5 17 37.5 29l55 37l-38 46q-12 14 -23.5 29q-11.5 15 -20.5 32.5q-9 17.5 -15 36.5q-6 19 -6 42q0 34 12 64.5q12 30.5 37 53q25 22.5 64 35.5q39 13 92 13q48 0 85.5 -13.5q37.5 -13.5 64 -36.5q26.5 -23 40.5 -54.5q14 -31.5 14 -67.5q0 -43 -22 -82q-22 -39 -61 -67l-71 -50l142 -164q9 26 13.5 60q4.5 34 4.5 62l106 -12q-1 -58 -14 -108.5q-13 -50.5 -34 -86.5q28 -31 61 -70q33 -39 60 -70z" />
<glyph unicode="&#8217;" horiz-adv-x="323" d="M139 681h-55v117h140v-109q0 -52 -27.5 -92q-27.5 -40 -76.5 -60l-36 48q55 28 55 77z" />
<glyph unicode="&#40;" horiz-adv-x="398" d="M206 232q3 -28 13 -56q10 -28 25 -53.5q15 -25.5 35.5 -47q20.5 -21.5 45.5 -36.5l-62 -70q-36 18 -65.5 46q-29.5 28 -51.5 62.5q-22 34.5 -35.5 73.5q-13.5 39 -17.5 78q-5 32 -6.5 72.5q-1.5 40.5 -1.5 80.5q0 39 2 80.5q2 41.5 6 73.5q11 82 49.5 146.5q38.5 64.5 119.5 112.5l63 -68q-52 -31 -81.5 -81.5q-29.5 -50.5 -37.5 -112.5q-5 -31 -6.5 -71.5q-1.5 -40.5 -1.5 -79.5q0 -40 1.5 -79t6.5 -71z" />
<glyph unicode="&#41;" horiz-adv-x="402" d="M193 232q5 32 6.5 71q1.5 39 1.5 79q0 39 -1.5 79.5q-1.5 40.5 -6.5 71.5q-8 62 -37.5 112.5q-29.5 50.5 -81.5 81.5l63 68q81 -48 119.5 -112.5q38.5 -64.5 49.5 -146.5q4 -32 6 -73.5q2 -41.5 2 -80.5q0 -40 -1.5 -80.5q-1.5 -40.5 -6.5 -72.5q-5 -39 -18 -78q-13 -39 -35 -73.5q-22 -34.5 -51.5 -62.5q-29.5 -28 -65.5 -46l-62 70q25 15 45.5 36.5q20.5 21.5 35.5 47q15 25.5 25 53.5t13 56z" />
<glyph unicode="&#42;" horiz-adv-x="585" d="M348 471l14 -146h-121l13 144l-128 -82l-63 101l150 60l-147 71l63 102l125 -93l-14 154h119l-12 -154l128 94l56 -104l-143 -64l143 -66l-58 -102z" />
<glyph unicode="&#43;" horiz-adv-x="604" d="M360 416h190v-94h-190v-194h-117v194h-188v94h188v190l117 0z" />
<glyph unicode="&#44;" horiz-adv-x="203" d="M47 0v127h126v-118q0 -53 -26 -95.5q-26 -42.5 -76 -62.5l-41 49q26 14 42 35.5q16 21.5 16 46.5l0 18z" />
<glyph unicode="&#45;" horiz-adv-x="471" d="M66 344h339v-94l-339 0z" />
<glyph unicode="&#46;" horiz-adv-x="186" d="M156 0h-126v127l126 0z" />
<glyph unicode="&#47;" horiz-adv-x="504" d="M454 781l-281 -803h-116l280 803z" />
<glyph unicode="&#48;" horiz-adv-x="520" d="M259 79q40 0 62.5 21q22.5 21 33.5 60q11 39 14 93.5q3 54.5 3 121.5q0 65 -3 118.5q-3 53.5 -14 92q-11 38.5 -33.5 59.5q-22.5 21 -62.5 21q-38 0 -60 -21q-22 -21 -33 -59.5q-11 -38.5 -14.5 -92q-3.5 -53.5 -3.5 -118.5q0 -67 3.5 -121.5q3.5 -54.5 15 -93.5q11.5 -39 33.5 -60q22 -21 59 -21zt0 0zM259 760q72 0 116.5 -24.5q44.5 -24.5 69 -73.5q24.5 -49 33.5 -121q9 -72 9 -166q0 -103 -11 -176.5q-11 -73.5 -37.5 -121q-26.5 -47.5 -70.5 -69.5q-44 -22 -109 -22q-67 0 -111 24.5q-44 24.5 -69.5 73q-25.5 48.5 -36 121.5q-10.5 73 -10.5 170q0 92 9.5 163.5q9.5 71.5 34.5 121q25 49.5 69.5 75t113.5 25.5z" />
<glyph unicode="&#49;" horiz-adv-x="520" d="M344 0h-55q-32 0 -46 15.5q-14 15.5 -14 49.5v588h-117v93h184q48 0 48 -44z" />
<glyph unicode="&#50;" horiz-adv-x="520" d="M114 0q-41 0 -58.5 13.5q-17.5 13.5 -17.5 54.5v101q0 45 17.5 75q17.5 30 51.5 53l189 128q20 14 32.5 28q12.5 14 19 29q6.5 15 9 32.5q2.5 17.5 2.5 38.5q0 52 -35 83q-35 31 -98 31q-39 0 -79.5 -5q-40.5 -5 -94.5 -19l0 94q23 6 43 10.5q20 4.5 40 7q20 2.5 42 4q22 1.5 49 1.5q57 0 103 -14q46 -14 78.5 -40.5q32.5 -26.5 50 -65q17.5 -38.5 17.5 -87.5q-1 -66 -25.5 -114q-24.5 -48 -81.5 -87l-185 -125q-17 -12 -23.5 -28.5q-6.5 -16.5 -6.5 -35.5v-69h326v-38q0 -24 -13 -40q-13 -16 -50 -16z" />
<glyph unicode="&#51;" horiz-adv-x="520" d="M223 760q50 0 94 -11q44 -11 76.5 -35q32.5 -24 51 -62q18.5 -38 17.5 -91q-1 -121 -82 -170q48 -23 74 -67.5q26 -44.5 26 -99.5q0 -64 -20 -109.5q-20 -45.5 -56.5 -74.5q-36.5 -29 -87 -42q-50.5 -13 -111.5 -12q-21 0 -38.5 0.5q-17.5 0.5 -35.5 2.5q-18 2 -39 5q-21 3 -50 8l0 41q0 26 15.5 38.5q15.5 12.5 46.5 7.5q28 -4 49.5 -5.5q21.5 -1.5 51.5 -1.5q35 0 64.5 7q29.5 7 50.5 22.5q21 15.5 32.5 41.5q11.5 26 11.5 65q0 36 -8 59.5q-8 23.5 -24.5 37q-16.5 13.5 -41.5 19q-25 5.5 -58 5.5h-104q-22 0 -31 7.5q-9 7.5 -9 27.5v59h144q66 0 90.5 30q24.5 30 24.5 100q0 48 -34 76q-34 28 -91 28q-46 0 -84.5 -6q-38.5 -6 -77.5 -16l0 92q87 23 163 23z" />
<glyph unicode="&#52;" horiz-adv-x="520" d="M439 123v-123h-54q-32 0 -45 15.5q-13 15.5 -13 49.5v58h-309v88l244 487q11 23 29 35.5q18 12.5 52 12.5h96v-531h62v-44q0 -27 -13.5 -37.5q-13.5 -10.5 -37.5 -10.5zM134 215h193l0 390z" />
<glyph unicode="&#53;" horiz-adv-x="520" d="M60 364v382h398v-45q0 -29 -16 -38.5q-16 -9.5 -40 -9.5h-226v-195h70q65 0 109 -16q44 -16 70.5 -44.5q26.5 -28.5 37.5 -69.5q11 -41 11 -90q0 -121 -63.5 -186.5q-63.5 -65.5 -196.5 -65.5q-29 0 -72 3q-43 3 -94 12l0 43q0 15 5.5 24q5.5 9 14 13.5q8.5 4.5 18.5 5q10 0.5 18 -0.5q57 -5 108 -6q75 -2 110.5 40.5q35.5 42.5 35.5 117.5q0 23 -4 45.5q-4 22.5 -16.5 40.5q-12.5 18 -36 29q-23.5 11 -61.5 11z" />
<glyph unicode="&#54;" horiz-adv-x="520" d="M450 689q0 -16 -4.5 -24.5q-4.5 -8.5 -11.5 -12.5q-7 -4 -16.5 -5q-9.5 -1 -18.5 -1q-30 2 -56 3.5q-26 1.5 -51 1.5q-51 0 -80 -18.5q-29 -18.5 -43 -45.5q-14 -27 -17 -57q-3 -30 -3 -52v-42q16 17 47 31.5q31 14.5 71 14.5q109 0 162 -53q53 -53 53 -147v-92q0 -102 -57 -153q-57 -51 -163 -51q-106 0 -165.5 50.5q-59.5 50.5 -59.5 153.5v277q0 60 13 111q13 51 42.5 88.5q29.5 37.5 78 58.5q48.5 21 120.5 21q40 0 77 -3q37 -3 82 -8zM369 270q0 65 -26.5 90q-26.5 25 -77.5 25q-57 0 -86.5 -24.5q-29.5 -24.5 -29.5 -87.5v-71q0 -64 25 -92q25 -28 88 -28q54 0 80.5 29q26.5 29 26.5 92z" />
<glyph unicode="&#55;" horiz-adv-x="520" d="M478 670q0 -14 -4 -26.5q-4 -12.5 -9 -26.5l-205 -579q-5 -15 -17 -26.5q-12 -11.5 -36 -11.5h-75l233 653h-318v93h386q18 0 31.5 -7q13.5 -7 13.5 -30z" />
<glyph unicode="&#56;" horiz-adv-x="520" d="M258 439q52 0 80.5 27.5q28.5 27.5 28.5 87.5q0 30 -8.5 51q-8.5 21 -23 34.5q-14.5 13.5 -34 20q-19.5 6.5 -41.5 6.5q-49 0 -77.5 -27q-28.5 -27 -28.5 -85q0 -60 27.5 -87.5q27.5 -27.5 76.5 -27.5zt0 0zM259 352q-66 0 -94 -36.5q-28 -36.5 -28 -102.5q0 -63 32 -98.5q32 -35.5 92 -35.5q35 0 58.5 11.5q23.5 11.5 37.5 30q14 18.5 20 42.5q6 24 6 49q0 66 -27 103q-27 37 -97 37zt0 0zM261 -14q-111 0 -175.5 54q-64.5 54 -64.5 164q0 43 8 75q8 32 21.5 54.5q13.5 22.5 32 38.5q18.5 16 40.5 28q-38 21 -61.5 60q-23.5 39 -23.5 93q0 56 16 95.5q16 39.5 45.5 64q29.5 24.5 70 36q40.5 11.5 89.5 11.5q49 0 90 -12q41 -12 70.5 -37q29.5 -25 46 -64q16.5 -39 16.5 -93q0 -23 -6.5 -47q-6.5 -24 -17.5 -45q-11 -21 -26.5 -38q-15.5 -17 -34.5 -26q52 -24 77 -73q25 -49 25 -115q0 -50 -13 -91q-13 -41 -41.5 -70.5q-28.5 -29.5 -74 -46t-109.5 -16.5z" />
<glyph unicode="&#57;" horiz-adv-x="520" d="M69 57q0 15 4.5 24q4.5 9 11.5 13.5q7 4.5 16.5 5q9.5 0.5 18.5 0.5q30 -2 56 -3.5q26 -1.5 51 -1.5q51 0 80 19q29 19 43 47q14 28 17 58q3 30 3 53v38q-16 -17 -47 -31.5q-31 -14.5 -71 -14.5q-109 0 -162 53q-53 53 -53 147v92q0 102 57 153q57 51 163 51q106 0 165.5 -50.5q59.5 -50.5 59.5 -153.5v-273q0 -60 -13 -111.5q-13 -51.5 -42.5 -90q-29.5 -38.5 -78 -60q-48.5 -21.5 -120.5 -21.5q-40 0 -77 3q-37 3 -82 8zM150 476q0 -65 26.5 -90q26.5 -25 77.5 -25q57 0 86.5 24.5q29.5 24.5 29.5 87.5v71q0 64 -25 92q-25 28 -88 28q-54 0 -80.5 -29q-26.5 -29 -26.5 -92z" />
<glyph unicode="&#58;" horiz-adv-x="186" d="M156 380h-126v128h126zM156 0h-126v127l126 0z" />
<glyph unicode="&#59;" horiz-adv-x="203" d="M47 0v127h126v-118q0 -53 -26 -95.5q-26 -42.5 -76 -62.5l-41 49q26 14 42 35.5q16 21.5 16 46.5v18zM173 380h-126v128l126 0z" />
<glyph unicode="&#60;" horiz-adv-x="500" d="M353 48l-289 324l289 319l82 -68l-230 -251l228 -252z" />
<glyph unicode="&#61;" horiz-adv-x="586" d="M79 318h428v-94h-428zM79 542h428v-94l-428 0z" />
<glyph unicode="&#62;" horiz-adv-x="500" d="M66 120l228 252l-230 251l82 68l289 -319l-289 -324z" />
<glyph unicode="&#63;" horiz-adv-x="491" d="M155 211v54q0 45 8.5 76q8.5 31 36.5 50l88 60q36 25 51.5 58q15.5 33 15.5 65q0 47 -40.5 74.5q-40.5 27.5 -104.5 27.5q-23 0 -44 -2q-21 -2 -42.5 -6q-21.5 -4 -45.5 -10q-24 -6 -53 -15l-5 94q30 9 54 15.5q24 6.5 46 10.5q22 4 43.5 5.5q21.5 1.5 44.5 1.5q56 0 104 -13.5q48 -13.5 83.5 -38q35.5 -24.5 55.5 -60.5q20 -36 20 -81q0 -120 -95 -188l-83 -59q-17 -12 -20 -27.5q-3 -15.5 -3 -39.5v-52zM275 0h-126v127l126 0z" />
<glyph unicode="&#64;" horiz-adv-x="916" d="M471 793q100 0 176 -28.5q76 -28.5 127.5 -79q51.5 -50.5 77.5 -120q26 -69.5 26 -151.5q0 -58 -17.5 -109q-17.5 -51 -49.5 -88.5q-32 -37.5 -79 -59.5q-47 -22 -105 -22h-201q-38 0 -68.5 10q-30.5 10 -52 27.5q-21.5 17.5 -33.5 42q-12 24.5 -12 54.5v49q0 69 45.5 102.5q45.5 33.5 125.5 33.5q18 0 32 -0.5q14 -0.5 25.5 -1q11.5 -0.5 22.5 -1.5q11 -1 24 -2l0 27q0 21 -10 32q-10 11 -40 11h-133q-35 0 -45.5 11.5q-10.5 11.5 -10.5 36.5v46h203q85 0 118.5 -39.5q33.5 -39.5 33.5 -107.5v-231q47 10 78.5 57q31.5 47 31.5 121q0 60 -16.5 112.5q-16.5 52.5 -52 91q-35.5 38.5 -90.5 60.5q-55 22 -133 22q-80 0 -139.5 -26q-59.5 -26 -99 -71q-39.5 -45 -59 -104.5q-19.5 -59.5 -19.5 -126.5q0 -68 17.5 -124.5q17.5 -56.5 55.5 -97.5q38 -41 97 -64q59 -23 143 -23q36 0 86.5 7q50.5 7 101.5 24l16 -55q5 -17 -1.5 -27q-6.5 -10 -18.5 -15q-43 -13 -95 -20.5q-52 -7.5 -104 -7.5q-104 0 -182 30q-78 30 -129.5 84q-51.5 54 -77 128q-25.5 74 -25.5 163q0 89 27.5 166q27.5 77 82.5 133.5q55 56.5 136 88.5q81 32 189 32zt0 0zM445 361q-35 0 -51.5 -9.5q-16.5 -9.5 -16.5 -36.5v-38q0 -27 16.5 -37.5q16.5 -10.5 51.5 -10.5h90v127q-26 3 -44 4t-46 1z" />
<glyph unicode="&#65;" horiz-adv-x="668" d="M453 249q-13 -14 -35 -24.5q-22 -10.5 -50 -10.5h-163l-68 -214h-120l250 746h90q20 0 36 -12q16 -12 21 -29l238 -705h-119zM236 311h195l-97 303z" />
<glyph unicode="&#66;" horiz-adv-x="644" d="M365 746q52 0 90.5 -13.5q38.5 -13.5 64 -37.5q25.5 -24 37.5 -56.5q12 -32.5 12 -70.5v-47q0 -40 -19 -77.5q-19 -37.5 -53 -54.5q45 -18 68.5 -54.5q23.5 -36.5 23.5 -81.5v-66q0 -50 -18.5 -85.5q-18.5 -35.5 -49.5 -58q-31 -22.5 -71.5 -33q-40.5 -10.5 -84.5 -10.5h-292v746zM189 651v-218h177q26 0 43 8.5q17 8.5 26.5 21.5q9.5 13 13.5 29.5q4 16.5 4 32.5v38q0 36 -21.5 62q-21.5 26 -65.5 26zM189 338v-244h175q56 0 82 29q26 29 26 69v47q0 20 -6 38q-6 18 -18.5 31.5q-12.5 13.5 -33 21.5q-20.5 8 -49.5 8z" />
<glyph unicode="&#67;" horiz-adv-x="583" d="M547 57q0 -23 -14 -40q-14 -17 -61 -17h-205q-45 0 -82.5 14q-37.5 14 -65 39.5q-27.5 25.5 -43 62q-15.5 36.5 -15.5 80.5v357q0 90 60 141.5q60 51.5 169 51.5h247v-36q0 -12 -2.5 -23q-2.5 -11 -10.5 -19q-8 -8 -22.5 -12.5q-14.5 -4.5 -38.5 -4.5h-170q-115 0 -115 -111v-337q0 -21 6 -41q6 -20 17.5 -35q11.5 -15 29 -24q17.5 -9 40.5 -9l276 0z" />
<glyph unicode="&#68;" horiz-adv-x="665" d="M350 746q64 0 111.5 -16.5q47.5 -16.5 79 -45.5q31.5 -29 46.5 -68.5q15 -39.5 15 -85.5v-316q0 -46 -15 -85.5q-15 -39.5 -46.5 -68q-31.5 -28.5 -79 -44.5q-47.5 -16 -111.5 -16h-276v746zM190 651v-557h160q63 0 99.5 32q36.5 32 36.5 88v316q0 60 -36.5 90.5q-36.5 30.5 -99.5 30.5z" />
<glyph unicode="&#69;" horiz-adv-x="602" d="M74 0v746h472v-34q0 -29 -12 -45q-12 -16 -52 -16h-291v-210h324v-36q0 -24 -11.5 -41q-11.5 -17 -51.5 -17h-261v-253h367v-36q0 -24 -12 -41q-12 -17 -51 -17z" />
<glyph unicode="&#70;" horiz-adv-x="581" d="M191 347v-347h-53q-35 0 -49.5 14q-14.5 14 -14.5 49v683h484v-35q0 -26 -13.5 -43q-13.5 -17 -54.5 -17h-299v-210h335v-36q0 -25 -14.5 -41.5q-14.5 -16.5 -55.5 -16.5z" />
<glyph unicode="&#71;" horiz-adv-x="672" d="M590 746v-35q0 -31 -15 -45.5q-15 -14.5 -56 -14.5h-233q-44 0 -73 -27q-29 -27 -29 -75v-350q0 -44 25.5 -74.5q25.5 -30.5 76.5 -30.5h119q43 0 64 28.5q21 28.5 21 67.5v121q0 8 -5 14q-5 6 -18 6h-80q-36 0 -52.5 10.5q-16.5 10.5 -16.5 42.5v42h203q47 0 66.5 -21q19.5 -21 19.5 -63v-152q0 -48 -15 -83.5q-15 -35.5 -41.5 -59.5q-26.5 -24 -63.5 -35.5q-37 -11.5 -81 -11.5h-120q-48 0 -88 12.5q-40 12.5 -69.5 37.5q-29.5 25 -45.5 62.5q-16 37.5 -16 87.5v349q0 47 17 84q17 37 46.5 62q29.5 25 69.5 38q40 13 86 13z" />
<glyph unicode="&#72;" horiz-adv-x="680" d="M603 746v-746h-53q-34 0 -49 13.5q-15 13.5 -15 47.5v313q-12 -14 -32 -20q-20 -6 -43 -6h-220v-348h-54q-34 0 -48.5 13.5q-14.5 13.5 -14.5 47.5v685h117v-304h295l0 304z" />
<glyph unicode="&#73;" horiz-adv-x="282" d="M202 746v-746h-55q-34 0 -48.5 13.5q-14.5 13.5 -14.5 47.5l0 685z" />
<glyph unicode="&#74;" horiz-adv-x="426" d="M142 94q47 0 69 22q22 22 22 77v553h118v-553q0 -99 -49 -146q-49 -47 -160 -47h-129v39q0 32 15 43.5q15 11.5 52 11.5z" />
<glyph unicode="&#75;" horiz-adv-x="645" d="M213 385l273 361h142l-274 -360l287 -386h-93q-28 0 -44 8.5q-16 8.5 -28 25.5zM191 746v-746h-55q-33 0 -47.5 14.5q-14.5 14.5 -14.5 47.5l0 684z" />
<glyph unicode="&#76;" horiz-adv-x="548" d="M191 94h339v-36q0 -31 -13 -44.5q-13 -13.5 -48 -13.5h-395v746l117 0z" />
<glyph unicode="&#77;" horiz-adv-x="886" d="M807 0h-54q-33 0 -48 14q-15 14 -15 46v465l-163 -301q-11 -20 -33 -37.5q-22 -17.5 -53 -17.5q-32 0 -52.5 17q-20.5 17 -31.5 37l-163 302v-525h-54q-63 0 -63 55v691h117l236 -447q3 -8 12 -8q8 0 12 8l236 447l117 0z" />
<glyph unicode="&#78;" horiz-adv-x="677" d="M74 746h312q54 0 94.5 -8.5q40.5 -8.5 67.5 -31q27 -22.5 40.5 -61q13.5 -38.5 13.5 -98.5v-547h-53q-33 0 -48.5 13.5q-15.5 13.5 -15.5 47.5v487q0 60 -22 81.5q-22 21.5 -77 21.5h-195v-651h-54q-34 0 -48.5 13.5q-14.5 13.5 -14.5 47.5z" />
<glyph unicode="&#79;" horiz-adv-x="702" d="M350 760q150 0 220.5 -81q70.5 -81 70.5 -231v-151q0 -149 -70.5 -230q-70.5 -81 -220.5 -81q-148 0 -219.5 81q-71.5 81 -71.5 231v150q0 150 71.5 231q71.5 81 219.5 81zt0 0zM524 449q0 45 -8 83.5q-8 38.5 -28 67q-20 28.5 -53.5 45q-33.5 16.5 -84.5 16.5q-50 0 -83.5 -16.5q-33.5 -16.5 -53.5 -45q-20 -28.5 -28.5 -67.5q-8.5 -39 -8.5 -84v-151q0 -211 167 -211q91 0 136 49q45 49 45 163z" />
<glyph unicode="&#80;" horiz-adv-x="627" d="M190 274v-274h-52q-35 0 -50 13.5q-15 13.5 -15 47.5v685h276q52 0 93 -10q41 -10 69.5 -32.5q28.5 -22.5 43.5 -58.5q15 -36 15 -88v-94q0 -27 -6 -59.5q-6 -32.5 -28 -61.5q-22 -29 -66.5 -48.5q-44.5 -19.5 -120.5 -19.5zM190 649v-279h159q104 0 104 93v94q0 42 -23.5 67q-23.5 25 -80.5 25z" />
<glyph unicode="&#81;" horiz-adv-x="712" d="M350 760q150 0 220.5 -81q70.5 -81 70.5 -231v-151q0 -82 -20 -143.5q-20 -61.5 -65 -100.5l106 -138h-82q-29 0 -45.5 8.5q-16.5 8.5 -26.5 21.5l-45 56q-50 -15 -113 -15q-148 0 -219.5 81q-71.5 81 -71.5 231v150q0 150 71.5 231q71.5 81 219.5 81zt0 0zM524 449q0 102 -40 157q-40 55 -134 55q-47 0 -80 -15q-33 -15 -54 -42.5q-21 -27.5 -30.5 -67q-9.5 -39.5 -9.5 -88.5v-151q0 -216 174 -211q174 -5 174 212z" />
<glyph unicode="&#82;" horiz-adv-x="643" d="M190 316v-316h-55q-33 0 -47.5 13.5q-14.5 13.5 -14.5 47.5v685h297q53 0 93 -13q40 -13 66.5 -35.5q26.5 -22.5 40 -54q13.5 -31.5 13.5 -67.5v-79q0 -27 -7 -53q-7 -26 -21.5 -48.5q-14.5 -22.5 -37.5 -39.5q-23 -17 -55 -26q36 -81 76 -165.5q40 -84.5 77 -164.5l-127 0l-144 316zM190 649v-237h180q47 0 71.5 23.5q24.5 23.5 24.5 70.5v54q0 42 -23.5 65.5q-23.5 23.5 -72.5 23.5z" />
<glyph unicode="&#83;" horiz-adv-x="578" d="M40 0v39q0 29 14.5 42q14.5 13 53.5 13h169q68 0 103 25.5q35 25.5 35 75.5q0 35 -23.5 62q-23.5 27 -81.5 53l-126 56q-73 32 -104.5 81q-31.5 49 -31.5 112q0 42 14 76q14 34 43 59q29 25 73.5 38.5q44.5 13.5 106.5 13.5h224v-41q0 -33 -17 -43.5q-17 -10.5 -53 -10.5h-154q-23 0 -44.5 -4.5q-21.5 -4.5 -38 -15q-16.5 -10.5 -26.5 -28q-10 -17.5 -10 -44.5q0 -39 21 -64q21 -25 64 -45l120 -54q47 -21 78 -42.5q31 -21.5 50 -45.5q19 -24 26.5 -51.5q7.5 -27.5 7.5 -60.5q0 -58 -22.5 -96q-22.5 -38 -59 -60q-36.5 -22 -81.5 -31q-45 -9 -90 -9z" />
<glyph unicode="&#84;" horiz-adv-x="603" d="M244 651h-226v95h570v-35q0 -32 -12 -46q-12 -14 -54 -14h-161v-651h-54q-33 0 -48 13.5q-15 13.5 -15 47.5z" />
<glyph unicode="&#85;" horiz-adv-x="684" d="M603 0h-312q-54 0 -94.5 8.5q-40.5 8.5 -67.5 31q-27 22.5 -40.5 61q-13.5 38.5 -13.5 98.5v547h117v-548q0 -30 5 -50q5 -20 16.5 -32q11.5 -12 30.5 -17q19 -5 47 -5h195v652l117 0z" />
<glyph unicode="&#86;" horiz-adv-x="657" d="M328 133q47 149 97.5 306.5q50.5 157.5 97.5 306.5l121 0l-249 -746h-85q-26 0 -40.5 11q-14.5 11 -21.5 31l-235 704l120 0z" />
<glyph unicode="&#87;" horiz-adv-x="913" d="M905 746l-176 -746h-76q-67 0 -83 70l-111 436l-129 -506h-72q-40 0 -58.5 16.5q-18.5 16.5 -26.5 51.5l-159 678h118l131 -599l139 535h115l138 -534l132 598z" />
<glyph unicode="&#88;" horiz-adv-x="671" d="M18 0l250 374l-246 372h128l182 -273l182 273h130l-245 -372l249 -374h-132l-184 275l-182 -275z" />
<glyph unicode="&#89;" horiz-adv-x="683" d="M396 0h-52q-34 0 -49.5 13q-15.5 13 -15.5 48v234l-263 451h128l196 -339l197 339h128l-269 -449z" />
<glyph unicode="&#90;" horiz-adv-x="626" d="M571 746v-89l-404 -563h421v-57q0 -21 -11.5 -29q-11.5 -8 -31.5 -8h-512v92l403 559h-391l0 95z" />
<glyph unicode="&#91;" horiz-adv-x="453" d="M380 -46h-247v866h247v-94h-131v-679l131 0z" />
<glyph unicode="&#92;" horiz-adv-x="532" d="M177 781l280 -803h-116l-281 803z" />
<glyph unicode="&#93;" horiz-adv-x="453" d="M79 47h130v679h-130v94h246v-866l-246 0z" />
<glyph unicode="&#94;" horiz-adv-x="628" d="M264 846h103l170 -237h-125l-97 137l-96 -137l-126 0z" />
<glyph unicode="&#95;" horiz-adv-x="614" d="M103 -19h412v-94l-412 0z" />
<glyph unicode="&#8216;" horiz-adv-x="323" d="M170 656h55v-117h-140v109q0 52 27 92q27 40 77 60l36 -48q-55 -28 -55 -77z" />
<glyph unicode="&#97;" horiz-adv-x="544" d="M479 0h-239q-86 0 -135.5 37.5q-49.5 37.5 -49.5 112.5v61q0 86 49.5 124q49.5 38 135.5 36q37 -1 64.5 -2.5q27.5 -1.5 58.5 -5.5l0 33q0 28 -16 44.5q-16 16.5 -51 16.5h-130q-23 0 -37.5 4q-14.5 4 -22 11.5q-7.5 7.5 -10 17q-2.5 9.5 -2.5 21.5v39h202q96 0 139.5 -39.5q43.5 -39.5 43.5 -114.5zM241 273q-36 0 -53 -15q-17 -15 -17 -51v-53q0 -18 6.5 -30q6.5 -12 17 -18.5q10.5 -6.5 23 -9q12.5 -2.5 23.5 -2.5h122v172q-35 4 -65.5 5.5t-56.5 1.5z" />
<glyph unicode="&#98;" horiz-adv-x="555" d="M191 751v-201h97q102 0 155 -44.5q53 -44.5 53 -133.5v-193q0 -91 -53 -135q-53 -44 -155 -44h-213v751zM191 94h97q42 0 67.5 23q25.5 23 25.5 71v174q0 49 -25.5 72q-25.5 23 -66.5 23l-98 0z" />
<glyph unicode="&#99;" horiz-adv-x="505" d="M465 94v-37q0 -12 -2.5 -22q-2.5 -10 -10 -18q-7.5 -8 -21.5 -12.5q-14 -4.5 -38 -4.5h-124q-45 0 -83 12.5q-38 12.5 -65.5 36.5q-27.5 24 -43 58.5q-15.5 34.5 -15.5 78.5v176q0 44 15.5 79q15.5 35 43 59q27.5 24 65.5 37q38 13 83 13h191v-34q0 -12 -2 -22.5q-2 -10.5 -9 -19q-7 -8.5 -20.5 -13q-13.5 -4.5 -37.5 -4.5h-122q-91 0 -91 -95v-175q0 -42 23 -67.5q23 -25.5 68 -25.5z" />
<glyph unicode="&#100;" horiz-adv-x="553" d="M480 751v-751h-214q-102 0 -155 44q-53 44 -53 135v193q0 89 53 133.5q53 44.5 155 44.5h98v201zM364 457h-99q-41 0 -66 -23q-25 -23 -25 -72v-174q0 -48 25 -71q25 -23 67 -23l98 0z" />
<glyph unicode="&#101;" horiz-adv-x="549" d="M474 94v-40q0 -12 -2 -22q-2 -10 -9.5 -17q-7.5 -7 -21.5 -11q-14 -4 -38 -4h-153q-89 0 -142 48q-53 48 -53 131v186q0 53 17.5 91q17.5 38 47 62q29.5 24 69 35q39.5 11 83.5 11q48 0 88.5 -12q40.5 -12 70 -34.5q29.5 -22.5 46 -56.5q16.5 -34 16.5 -77v-72q0 -36 -21 -60q-21 -24 -66 -24h-235v-49q0 -41 23.5 -63q23.5 -22 55.5 -22zM171 322h190q7 0 12 5.5q5 5.5 5 14.5v42q0 39 -27 62.5q-27 23.5 -79 23.5q-46 0 -73.5 -23.5q-27.5 -23.5 -27.5 -62.5z" />
<glyph unicode="&#102;" horiz-adv-x="437" d="M389 550v-43q0 -14 -6 -23.5q-6 -9.5 -15.5 -15.5q-9.5 -6 -21.5 -8.5q-12 -2.5 -23 -2.5h-77v-457h-53q-33 0 -48 13.5q-15 13.5 -15 48.5v395h-102v93h102v61q0 32 6 58q6 26 22.5 44q16.5 18 44.5 28q28 10 72 10h134v-32q0 -61 -73 -61h-61q-19 0 -24 -13.5q-5 -13.5 -5 -26.5l0 -68z" />
<glyph unicode="&#103;" horiz-adv-x="561" d="M320 -115q29 0 42.5 16q13.5 16 13.5 42v57h-116q-94 0 -147 45q-53 45 -53 133v195q0 88 54.5 132.5q54.5 44.5 145.5 44.5h231v-609q0 -27 -8 -54q-8 -27 -27 -48.5q-19 -21.5 -51.5 -34.5q-32.5 -13 -81.5 -13h-217v40q0 29 16.5 41.5q16.5 12.5 51.5 12.5zM176 178q0 -26 8 -42.5q8 -16.5 20.5 -25.5q12.5 -9 27.5 -12.5q15 -3.5 28 -3.5h116v363h-116q-43 0 -63.5 -24.5q-20.5 -24.5 -20.5 -60.5z" />
<glyph unicode="&#104;" horiz-adv-x="574" d="M190 457v-457h-53q-34 0 -48.5 13.5q-14.5 13.5 -14.5 48.5v689h116v-201h130q188 0 188 -168v-382h-52q-33 0 -48.5 13.5q-15.5 13.5 -15.5 48.5v319q0 41 -19.5 58.5q-19.5 17.5 -52.5 17.5z" />
<glyph unicode="&#105;" horiz-adv-x="267" d="M190 550v-550h-52q-35 0 -49.5 13.5q-14.5 13.5 -14.5 48.5v488zM72 760h120v-134h-44q-31 0 -53.5 17.5q-22.5 17.5 -22.5 50.5z" />
<glyph unicode="&#106;" horiz-adv-x="327" d="M134 760h120v-134h-44q-32 0 -54 17.5q-22 17.5 -22 50.5zM136 550h116v-597q0 -85 -46.5 -123.5q-46.5 -38.5 -130.5 -38.5h-86v39q0 28 17 42q17 14 45 14h24q31 0 46 17.5q15 17.5 15 49.5z" />
<glyph unicode="&#107;" horiz-adv-x="574" d="M75 751h116v-751h-52q-35 0 -49.5 13.5q-14.5 13.5 -14.5 48.5zM420 550h135l-213 -256l224 -294h-90q-19 0 -36 8q-17 8 -28 23l-201 264z" />
<glyph unicode="&#108;" horiz-adv-x="269" d="M189 751v-751h-53q-33 0 -48 13.5q-15 13.5 -15 48.5l0 689z" />
<glyph unicode="&#109;" horiz-adv-x="770" d="M442 457v-457h-52q-34 0 -49 13.5q-15 13.5 -15 48.5v395h-141v-457h-54q-33 0 -47.5 13.5q-14.5 13.5 -14.5 48.5v488h455q93 0 134.5 -38q41.5 -38 41.5 -120v-392h-54q-33 0 -47.5 13.5q-14.5 13.5 -14.5 48.5v330q0 65 -60 65z" />
<glyph unicode="&#110;" horiz-adv-x="571" d="M311 550q53 0 89.5 -9.5q36.5 -9.5 59 -30.5q22.5 -21 32 -54.5q9.5 -33.5 9.5 -80.5v-375h-53q-33 0 -48 13.5q-15 13.5 -15 48.5v313q0 48 -16 65q-16 17 -58 17h-125v-457h-51q-35 0 -50 13.5q-15 13.5 -15 48.5l0 488z" />
<glyph unicode="&#111;" horiz-adv-x="574" d="M286 564q110 0 168 -52.5q58 -52.5 58 -166.5v-139q0 -115 -57 -167.5q-57 -52.5 -169 -52.5q-109 0 -167.5 52q-58.5 52 -58.5 168v139q0 114 58.5 166.5q58.5 52.5 167.5 52.5zt0 0zM396 345q0 29 -4.5 52q-4.5 23 -16.5 39.5q-12 16.5 -33.5 25q-21.5 8.5 -55.5 8.5q-55 0 -82.5 -27q-27.5 -27 -27.5 -93v-144q0 -67 27.5 -97q27.5 -30 82.5 -30q55 0 82.5 28.5q27.5 28.5 27.5 98.5z" />
<glyph unicode="&#112;" horiz-adv-x="553" d="M69 550h218q204 0 204 -186v-179q0 -97 -53 -141q-53 -44 -151 -44h-102v-194h-53q-34 0 -48.5 14q-14.5 14 -14.5 49zM185 94h102q88 0 88 91v179q0 45 -21.5 69q-21.5 24 -66.5 24l-102 0z" />
<glyph unicode="&#113;" horiz-adv-x="551" d="M432 -194q-35 0 -49.5 14q-14.5 14 -14.5 49v131h-102q-99 0 -151.5 44q-52.5 44 -52.5 141v179q0 186 204 186h218v-744zM368 457h-102q-45 0 -66.5 -24q-21.5 -24 -21.5 -69v-179q0 -91 88 -91l102 0z" />
<glyph unicode="&#114;" horiz-adv-x="418" d="M183 0h-53q-33 0 -48 13.5q-15 13.5 -15 48.5v347q0 68 34.5 104.5q34.5 36.5 115.5 36.5h182v-29q0 -37 -22.5 -50.5q-22.5 -13.5 -56.5 -13.5h-103q-20 0 -27 -14q-7 -14 -7 -34z" />
<glyph unicode="&#115;" horiz-adv-x="474" d="M408 550v-40q0 -29 -17 -41q-17 -12 -55 -12h-104q-37 0 -52.5 -17.5q-15.5 -17.5 -15.5 -40.5q0 -19 11 -35.5q11 -16.5 38 -24.5l92 -30q71 -22 99.5 -60q28.5 -38 28.5 -92q0 -75 -51.5 -116q-51.5 -41 -141.5 -41h-189v37q0 57 68 57h121q34 0 55.5 15.5q21.5 15.5 21.5 47.5q0 22 -10.5 37.5q-10.5 15.5 -36.5 23.5l-88 29q-67 23 -100.5 57.5q-33.5 34.5 -33.5 94.5q0 26 10.5 53q10.5 27 33 48.5q22.5 21.5 57 35.5q34.5 14 83.5 14z" />
<glyph unicode="&#116;" horiz-adv-x="367" d="M252 0q-83 0 -117 39q-34 39 -34 114v304h-87v93h87v180h116v-180h124v-38q0 -24 -14 -39.5q-14 -15.5 -60 -15.5h-50v-304q0 -33 13 -46q13 -13 36 -13h83v-38q0 -23 -15 -39.5q-15 -16.5 -57 -16.5z" />
<glyph unicode="&#117;" horiz-adv-x="562" d="M270 0q-53 0 -91.5 10q-38.5 10 -64 33.5q-25.5 23.5 -37.5 61.5q-12 38 -12 95v350h115v-350q0 -33 5 -53.5q5 -20.5 15.5 -32.5q10.5 -12 27.5 -16q17 -4 42 -4h107v456h116l0 -550z" />
<glyph unicode="&#118;" horiz-adv-x="518" d="M244 0q-27 0 -42 11.5q-15 11.5 -24 37.5l-167 501h112l137 -423l134 423h109l-182 -550z" />
<glyph unicode="&#119;" horiz-adv-x="736" d="M729 550l-141 -550h-63q-28 0 -45 15q-17 15 -24 41l-89 327l-106 -383h-59q-19 0 -31.5 4q-12.5 4 -20 11.5q-7.5 7.5 -12 18.5q-4.5 11 -7.5 25l-126 491h108l94 -412l108 390h104l107 -389l95 411z" />
<glyph unicode="&#120;" horiz-adv-x="566" d="M15 0l200 276l-194 274h126l132 -189l132 189h130l-195 -274l201 -276h-127l-137 194l-138 -194z" />
<glyph unicode="&#121;" horiz-adv-x="562" d="M89 -209v40q0 32 15.5 45q15.5 13 54.5 13h158q35 0 47.5 14.5q12.5 14.5 12.5 39.5v65q-33 -3 -64.5 -4.5q-31.5 -1.5 -72.5 -3.5q-92 -3 -134 45q-42 48 -42 134v371h116v-370q0 -43 13 -64.5q13 -21.5 50 -20.5q38 1 70 3.5q32 2.5 64 5.5l0 446h116v-608q0 -32 -10 -59.5q-10 -27.5 -31 -48q-21 -20.5 -54.5 -32q-33.5 -11.5 -80.5 -11.5z" />
<glyph unicode="&#122;" horiz-adv-x="505" d="M462 94v-52q0 -42 -46 -42h-380v88l282 369h-269v93h401v-88l-283 -368z" />
<glyph unicode="&#123;" horiz-adv-x="452" d="M387 -43h-79q-66 0 -96.5 32.5q-30.5 32.5 -30.5 96.5v201q0 28 -24 40q-24 12 -58 14l0 89q35 1 58.5 12q23.5 11 23.5 41v204q0 66 33 100q33 34 98 34h75v-88q-47 -1 -71 -10.5q-24 -9.5 -24 -36.5v-197q0 -40 -11 -65q-11 -25 -31 -41q22 -18 32 -42.5q10 -24.5 10 -59.5v-190q0 -30 21 -38.5q21 -8.5 74 -8.5z" />
<glyph unicode="&#124;" horiz-adv-x="350" d="M235 797v-819h-107l0 819z" />
<glyph unicode="&#125;" horiz-adv-x="452" d="M75 44q53 0 74 8.5q21 8.5 21 38.5v190q0 35 10 59.5q10 24.5 32 42.5q-20 16 -31 41q-11 25 -11 65v197q0 27 -24 36.5q-24 9.5 -71 10.5l0 88h75q65 0 98 -34q33 -34 33 -100v-204q0 -30 23.5 -41q23.5 -11 58.5 -12l0 -89q-34 -2 -58 -14q-24 -12 -24 -40v-201q0 -64 -30.5 -96.5q-30.5 -32.5 -96.5 -32.5l-79 0z" />
<glyph unicode="&#126;" horiz-adv-x="726" d="M674 445q0 -41 -10.5 -76.5q-10.5 -35.5 -33 -62q-22.5 -26.5 -57 -42q-34.5 -15.5 -83.5 -15.5q-54 0 -92 22q-38 22 -69 61q-23 28 -42.5 40.5q-19.5 12.5 -36.5 12.5q-35 0 -56.5 -25.5q-21.5 -25.5 -21.5 -76.5l-110 0q3 88 50.5 142q47.5 54 135.5 54q57 0 95 -25q38 -25 76 -70q16 -19 33 -30q17 -11 36 -11q33 0 55 23.5q22 23.5 24 78.5z" />
<glyph unicode="&#163;" horiz-adv-x="571" d="M540 57q0 -12 -2.5 -22q-2.5 -10 -10 -18q-7.5 -8 -21.5 -12.5q-14 -4.5 -38 -4.5h-430v94q34 11 54 48q20 37 20 80v97h-69v93h69v149q0 52 17 89.5q17 37.5 47.5 62q30.5 24.5 73.5 36q43 11.5 95 11.5q36 0 86.5 -8q50.5 -8 95.5 -24l-5 -91q-29 9 -52 14.5q-23 5.5 -44 9q-21 3.5 -41 4.5q-20 1 -42 1q-53 0 -84.5 -24.5q-31.5 -24.5 -31.5 -80.5v-149h148v-36q0 -12 -2.5 -22q-2.5 -10 -10 -18q-7.5 -8 -21.5 -12.5q-14 -4.5 -38 -4.5h-76v-89q0 -37 -11 -75q-11 -38 -29 -61l353 0z" />
<glyph unicode="&#402;" horiz-adv-x="440" d="M246 -26q0 -79 -44 -123.5q-44 -44.5 -126 -44.5h-31v93h24q27 0 44 18.5q17 18.5 17 55.5v484h-102v93h102v61q0 32 6 58q6 26 22.5 44q16.5 18 44.5 28q28 10 72 10h134v-32q0 -61 -73 -61h-61q-19 0 -24 -13.5q-5 -13.5 -5 -26.5v-68h143v-43q0 -14 -6.5 -23.5q-6.5 -9.5 -16.5 -15.5q-10 -6 -22 -8.5q-12 -2.5 -23 -2.5l-75 0z" />
<glyph unicode="&#167;" horiz-adv-x="474" d="M401 746v-40q0 -29 -17 -41q-17 -12 -54 -12h-105q-37 0 -52.5 -16.5q-15.5 -16.5 -15.5 -39.5q0 -19 11 -35.5q11 -16.5 38 -24.5l86 -26q69 -21 101.5 -60q32.5 -39 32.5 -92q0 -43 -17.5 -75.5q-17.5 -32.5 -49.5 -52.5q67 -45 67 -120q0 -75 -51.5 -117.5q-51.5 -42.5 -141.5 -42.5h-189v36q0 57 68 57h121q34 0 55.5 17.5q21.5 17.5 21.5 49.5q0 22 -10.5 35q-10.5 13 -36.5 21l-86 29q-66 23 -101 57.5q-35 34.5 -35 94.5q0 34 16.5 67.5q16.5 33.5 53.5 55.5q-70 43 -70 126q0 26 10.5 52.5q10.5 26.5 33 48q22.5 21.5 57 35q34.5 13.5 83.5 13.5zM233 293q34 0 55.5 17q21.5 17 21.5 49q0 29 -20 46l-65 0q-37 0 -52.5 -17q-15.5 -17 -15.5 -40q0 -17 7.5 -31.5q7.5 -14.5 27.5 -23.5z" />
<glyph unicode="&#164;" horiz-adv-x="573" d="M292 539q73 0 124 -24l50 51l73 -70l-50 -51q12 -24 18.5 -53.5q6.5 -29.5 6.5 -65.5v-31q0 -73 -25 -119l50 -51l-73 -70l-49 50q-51 -24 -125 -24q-82 0 -133 29l-53 -55l-74 70l59 59q-21 45 -21 111v31q0 63 20 109l-58 61l74 70l54 -56q51 29 132 29zt0 0zM402 326q0 52 -25.5 88q-25.5 36 -84.5 36q-52 0 -81 -31.5q-29 -31.5 -29 -92.5v-31q0 -61 28 -93q28 -32 82 -32q52 0 81 31q29 31 29 94z" />
<glyph unicode="&#39;" horiz-adv-x="306" d="M214 781l-13 -271h-40q-27 0 -39.5 15.5q-12.5 15.5 -14.5 35.5l-13 220z" />
<glyph unicode="&#8220;" horiz-adv-x="490" d="M167 656h55v-117h-140v109q0 52 27.5 92q27.5 40 77.5 60l35 -48q-26 -14 -40.5 -33q-14.5 -19 -14.5 -44zM347 656h55v-117h-140v109q0 52 27.5 92q27.5 40 76.5 60l36 -48q-55 -28 -55 -77z" />
<glyph unicode="&#171;" horiz-adv-x="500" d="M282 506l-127 -220l127 -220l-86 -49l-155 269l155 269zM458 506l-127 -220l127 -220l-86 -49l-155 269l155 269z" />
<glyph unicode="&#8249;" horiz-adv-x="920" d="M883 771v-37l-652 -404l652 -403v-39l-722 442z" />
<glyph unicode="&#8250;" horiz-adv-x="920" d="M37 771l722 -441l-722 -442v39l652 403l-652 404z" />
<glyph unicode="&#8224;" horiz-adv-x="920" d="M478 551q14 0 39 5q25 5 46 10q16 4 33.5 5.5q17.5 1.5 31.5 -1.5q14 -3 23.5 -11.5q9.5 -8.5 9.5 -23.5q0 -15 -9.5 -23.5q-9.5 -8.5 -23.5 -12q-14 -3.5 -31.5 -2.5q-17.5 1 -33.5 6q-21 6 -46.5 11.5q-25.5 5.5 -38.5 3.5q0 -22 4.5 -45.5q4.5 -23.5 15.5 -38.5q11 -14 15 -18.5q4 -4.5 3 -9.5q-1 -5 -5.5 -12q-4.5 -7 -12.5 -25q-8 -19 -12 -54q-4 -35 -6 -77.5q-2 -42.5 -2.5 -89q-0.5 -46.5 -0.5 -88q0 -41.5 -0.5 -75q-0.5 -33.5 -1.5 -49.5q-3 -37 -14 -41q-13 -4 -16 41q-2 16 -2 49.5q0 33.5 0.5 75q0.5 41.5 0 88q-0.5 46.5 -2.5 89q-2 42.5 -6.5 77.5q-4.5 35 -12.5 54q-8 20 -13.5 27q-5.5 7 -4.5 12q0 4 4.5 9q4.5 5 13.5 17q12 15 17 39.5q5 24.5 4 44.5q-14 2 -39.5 -3.5q-25.5 -5.5 -46.5 -11.5q-16 -5 -33.5 -6q-17.5 -1 -31.5 2.5q-14 3.5 -23.5 12q-9.5 8.5 -9.5 23.5q0 15 9.5 23.5q9.5 8.5 23.5 11.5q14 3 31.5 1.5q17.5 -1.5 33.5 -5.5q21 -5 46 -10q25 -5 39 -5q0 7 -1 19q-1 12 -3 25.5q-2 13.5 -4.5 26.5q-2.5 13 -5.5 24q-5 16 -6 35q-1 19 2.5 35q3.5 16 12 26.5q8.5 10.5 23.5 10.5q15 0 23.5 -10.5q8.5 -10.5 11.5 -26.5q3 -16 1.5 -35q-1.5 -19 -5.5 -35q-3 -11 -5.5 -24.5q-2.5 -13.5 -4.5 -27q-2 -13.5 -2.5 -25t-0.5 -18.5z" />
<glyph unicode="&#8225;" horiz-adv-x="920" d="M442 527q-13 2 -37.5 -3.5q-24.5 -5.5 -45.5 -10.5q-16 -5 -33 -6q-17 -1 -31 2.5q-14 3.5 -23 12q-9 8.5 -9 22.5q0 15 9 23q9 8 23 11.5q14 3.5 31 2q17 -1.5 33 -6.5q21 -5 45.5 -9.5q24.5 -4.5 37.5 -4.5q0 7 -0.5 17.5q-0.5 10.5 -2.5 23q-2 12.5 -4.5 25q-2.5 12.5 -5.5 22.5q-5 16 -6 34q-1 18 2.5 34q3.5 16 11.5 26.5q8 10.5 23 10.5q15 0 23 -10.5q8 -10.5 11 -26.5q3 -16 1.5 -34q-1.5 -18 -5.5 -34q-3 -10 -5 -22.5q-2 -12.5 -4 -25q-2 -12.5 -2.5 -23q-0.5 -10.5 -0.5 -17.5q13 0 37.5 4.5q24.5 4.5 45.5 9.5q16 5 33 6.5q17 1.5 31 -2q14 -3.5 23 -11.5q9 -8 9 -23q0 -14 -9 -22.5q-9 -8.5 -23 -12q-14 -3.5 -31 -2.5q-17 1 -33 6q-21 5 -46 10.5q-25 5.5 -37 3.5l0 -94q13 0 37.5 4.5q24.5 4.5 45.5 9.5q16 5 33 6.5q17 1.5 31 -2q14 -3.5 23 -11.5q9 -8 9 -23q0 -14 -9 -22.5q-9 -8.5 -23 -12q-14 -3.5 -31 -2.5q-17 1 -33 6q-21 5 -46 10.5q-25 5.5 -37 3.5q0 -21 4 -44q4 -23 15 -38q11 -13 14.5 -17.5q3.5 -4.5 2.5 -9.5q-1 -5 -5.5 -12q-4.5 -7 -11.5 -25q-11 -28 -15.5 -72q-4.5 -44 -5.5 -90.5q-1 -46.5 -0.5 -88.5q0.5 -42 -0.5 -67q-2 -39 -14 -41q-5 -1 -10 9q-5 10 -6 32q-2 25 -1.5 67q0.5 42 -0.5 88.5q-1 46.5 -5 90.5q-4 44 -15 72q-8 21 -13.5 28q-5.5 7 -4.5 12q1 4 5 8.5q4 4.5 13 15.5q11 15 15.5 39q4.5 24 3.5 43q-13 2 -37.5 -3.5q-24.5 -5.5 -45.5 -10.5q-16 -5 -33 -6q-17 -1 -31 2.5q-14 3.5 -23 12q-9 8.5 -9 22.5q0 15 9 23q9 8 23 11.5q14 3.5 31 2q17 -1.5 33 -6.5q21 -5 45.5 -9.5q24.5 -4.5 37.5 -4.5z" />
<glyph unicode="&#183;" horiz-adv-x="333" d="M230 448v-128h-127l0 128z" />
<glyph unicode="&#182;" horiz-adv-x="548" d="M189 346q-30 5 -59.5 19.5q-29.5 14.5 -52.5 40q-23 25.5 -36.5 61.5q-13.5 36 -11.5 83q2 95 56 145.5q54 50.5 151 50.5h240v-872h-46q-34 0 -49 13.5q-15 13.5 -15 47.5v717h-68v-778h-45q-34 0 -49 13.5q-15 13.5 -15 47.5z" />
<glyph unicode="&#8226;" horiz-adv-x="920" d="M581 330q0 -26 -9.5 -48q-9.5 -22 -26 -38.5q-16.5 -16.5 -38.5 -26q-22 -9.5 -47 -9.5q-25 0 -47 9.5q-22 9.5 -38.5 26q-16.5 16.5 -26 38.5q-9.5 22 -9.5 48q0 25 9.5 46.5q9.5 21.5 26 38q16.5 16.5 38.5 26q22 9.5 47 9.5q25 0 47 -9.5q22 -9.5 38.5 -26q16.5 -16.5 26 -38t9.5 -46.5z" />
<glyph unicode="&#8221;" horiz-adv-x="490" d="M138 678h-55v117h140v-109q0 -52 -27 -92q-27 -40 -77 -60l-36 48q55 28 55 77zM318 678h-55v117h140v-109q0 -52 -27.5 -92q-27.5 -40 -76.5 -60l-36 48q55 28 55 77z" />
<glyph unicode="&#187;" horiz-adv-x="500" d="M217 66l127 220l-127 220l86 49l155 -269l-155 -269zM41 66l127 220l-127 220l86 49l155 -269l-155 -269z" />
<glyph unicode="&#8230;" horiz-adv-x="686" d="M156 0h-126v127h126zM406 0h-126v127h126zM656 0h-126v127l126 0z" />
<glyph unicode="&#8240;" horiz-adv-x="920" d="M424 738h113l-325 -702q-10 -21 -23.5 -28.5q-13.5 -7.5 -36.5 -7.5h-68zM112 547q0 -26 8.5 -45q8.5 -19 36.5 -19q27 0 35.5 19q8.5 19 8.5 45q0 28 -8.5 47.5q-8.5 19.5 -35.5 19.5q-28 0 -36.5 -19.5q-8.5 -19.5 -8.5 -47.5zt0 0zM12 547q0 71 37 110q37 39 108 39q69 0 107 -39q38 -39 38 -110q0 -66 -38 -106q-38 -40 -107 -40q-71 0 -108 37.5q-37 37.5 -37 108.5zt0 0zM427 196q0 -28 8 -47q8 -19 36 -19q28 0 36.5 19q8.5 19 8.5 47q0 27 -8.5 46.5q-8.5 19.5 -36.5 19.5q-28 0 -36 -19.5q-8 -19.5 -8 -46.5zt0 0zM326 196q0 70 37 109q37 39 108 39q69 0 107.5 -39q38.5 -39 38.5 -109q0 -69 -38 -108.5q-38 -39.5 -108 -39.5q-71 0 -108 38q-37 38 -37 110zt0 0zM723 196q0 -28 9 -47q9 -19 36 -19q28 0 36 19q8 19 8 47q0 27 -8 46.5q-8 19.5 -36 19.5q-27 0 -36 -19.5q-9 -19.5 -9 -46.5zt0 0zM623 196q0 70 37 109q37 39 108 39q69 0 107 -39q38 -39 38 -109q0 -69 -38 -108.5q-38 -39.5 -107 -39.5q-71 0 -108 38t-37 110z" />
<glyph unicode="&#96;" horiz-adv-x="331" d="M172 867l105 -249l-35 -16q-25 -11 -42.5 -3.5q-17.5 7.5 -28.5 26.5l-109 190z" />
<glyph unicode="&#172;" horiz-adv-x="635" d="M576 244h-116v192h-420v94l536 0z" />
<glyph unicode="&#181;" horiz-adv-x="571" d="M276 0q-54 0 -90 10l0 -204h-52q-34 0 -49 13q-15 13 -15 48l1 683h115v-363q0 -29 5 -47q5 -18 16 -28.5q11 -10.5 28 -14q17 -3.5 41 -3.5h107v456h116l0 -550z" />
<glyph unicode="&#8482;" horiz-adv-x="920" d="M418 746h112l90 -169q5 -5 7 -5q2 0 7 5l85 169h113v-413h-70q-20 0 -30 8.5q-10 8.5 -10 28.5v205l-47 -83q-8 -13 -20 -21q-12 -8 -30 -8q-18 0 -30 8q-12 8 -20 21l-47 83v-242h-70q-20 0 -30 8.5q-10 8.5 -10 28.5zM161 653h-113v93h343v-35q0 -31 -12 -44.5q-12 -13.5 -54 -13.5h-53v-320h-49q-32 0 -47 13.5q-15 13.5 -15 47.5z" />
<glyph unicode="&#177;" horiz-adv-x="618" d="M363 633v-181h190v-94h-190v-184h-117v184h-188v94h188v181zM67 0v94h477l0 -94z" />
<glyph unicode="&#247;" horiz-adv-x="507" d="M29 324v93h448v-93zM313 257v-127h-126v127zM313 612v-127h-126l0 127z" />
<glyph unicode="&#166;" horiz-adv-x="266" d="M186 466h-106v280h106zM186 0h-106v282l106 0z" />
<glyph unicode="&#176;" horiz-adv-x="382" d="M48 625q0 30 11 55q11 25 30 42.5q19 17.5 45 27.5q26 10 57 10q30 0 56.5 -10q26.5 -10 45.5 -27.5q19 -17.5 30 -42.5q11 -25 11 -55q0 -30 -11 -55q-11 -25 -30 -43q-19 -18 -45.5 -27.5q-26.5 -9.5 -56.5 -9.5q-31 0 -57 9.5q-26 9.5 -45 27.5q-19 18 -30 43q-11 25 -11 55zt0 0zM139 625q0 -25 14 -39q14 -14 37 -14q23 0 37.5 14q14.5 14 14.5 39q0 24 -14.5 39q-14.5 15 -37.5 15q-23 0 -37 -15t-14 -39z" />
<glyph unicode="&#174;" horiz-adv-x="873" d="M38 376q0 87 29.5 159q29.5 72 82 124q52.5 52 125.5 80.5q73 28.5 161 28.5q87 0 160 -28.5q73 -28.5 125.5 -80.5q52.5 -52 82 -124q29.5 -72 29.5 -159q0 -87 -29.5 -159.5q-29.5 -72.5 -82 -124q-52.5 -51.5 -125.5 -80q-73 -28.5 -160 -28.5q-88 0 -161 28.5q-73 28.5 -125.5 80q-52.5 51.5 -82 124q-29.5 72.5 -29.5 159.5zt0 0zM134 376q0 -68 21.5 -124q21.5 -56 61 -96q39.5 -40 95 -62q55.5 -22 122.5 -22q99 0 171 46l-65 0l-96 200h-72v-200h-50q-27 0 -40.5 11.5q-13.5 11.5 -13.5 41.5v448h201q78 0 116.5 -35.5q38.5 -35.5 38.5 -89.5v-43q0 -17 -4 -34.5q-4 -17.5 -13.5 -34q-9.5 -16.5 -24 -30q-14.5 -13.5 -35.5 -20.5l93 -188q45 40 70 99q25 59 25 133q0 68 -21.5 123.5q-21.5 55.5 -61 95.5q-39.5 40 -95 61.5q-55.5 21.5 -123.5 21.5q-67 0 -122.5 -21.5q-55.5 -21.5 -95 -61.5q-39.5 -40 -61 -95.5q-21.5 -55.5 -21.5 -123.5zt0 0zM372 530v-123h97q50 0 50 50v26q0 47 -50 47z" />
<glyph unicode="&#169;" horiz-adv-x="868" d="M38 376q0 87 29.5 159q29.5 72 82 124q52.5 52 125.5 80.5q73 28.5 161 28.5q87 0 160 -28.5q73 -28.5 125.5 -80.5q52.5 -52 82 -124q29.5 -72 29.5 -159q0 -87 -29.5 -159.5q-29.5 -72.5 -82 -124q-52.5 -51.5 -125.5 -80q-73 -28.5 -160 -28.5q-88 0 -161 28.5q-73 28.5 -125.5 80q-52.5 51.5 -82 124q-29.5 72.5 -29.5 159.5zt0 0zM134 376q0 -68 21.5 -124q21.5 -56 61 -96q39.5 -40 95 -62q55.5 -22 122.5 -22q68 0 123.5 22q55.5 22 95 62q39.5 40 61 96q21.5 56 21.5 124q0 68 -21.5 123.5q-21.5 55.5 -61 95.5q-39.5 40 -95 61.5q-55.5 21.5 -123.5 21.5q-67 0 -122.5 -21.5q-55.5 -21.5 -95 -61.5q-39.5 -40 -61 -95.5q-21.5 -55.5 -21.5 -123.5zt0 0zM586 216v-37q0 -12 -2.5 -22q-2.5 -10 -10 -18q-7.5 -8 -21.5 -12.5q-14 -4.5 -38 -4.5h-84q-46 0 -84 13q-38 13 -65.5 37q-27.5 24 -43 58.5q-15.5 34.5 -15.5 77.5v126q0 43 15.5 77.5q15.5 34.5 43 59q27.5 24.5 65.5 38q38 13.5 84 13.5h152v-35q0 -12 -2 -22.5q-2 -10.5 -9 -19q-7 -8.5 -21 -13q-14 -4.5 -37 -4.5h-83q-45 0 -68.5 -24q-23.5 -24 -23.5 -70v-125q0 -42 23.5 -67.5q23.5 -25.5 68.5 -25.5z" />
<glyph unicode="&#160;" horiz-adv-x="300" />
<glyph unicode="&#173;" horiz-adv-x="333" d="M316 442v-95h-299l0 95z" />
<glyph unicode="&#1026;" horiz-adv-x="860" d="M242 651h-226v95h570v-35q0 -32 -11.5 -46q-11.5 -14 -54.5 -14h-161v-192q46 20 91 31q45 11 86 11q57 0 107 -16q50 -16 86.5 -48q36.5 -32 57.5 -79q21 -47 21 -108q0 -122 -62.5 -186q-62.5 -64 -183.5 -64h-81v35q0 25 13.5 42q13.5 17 55.5 17h9q71 0 101 38q30 38 30 111q0 80 -43.5 120q-43.5 40 -112.5 40q-45 0 -86 -9.5q-41 -9.5 -89 -32.5l0 -361h-53q-33 0 -48.5 13.5q-15.5 13.5 -15.5 47.5z" />
<glyph unicode="&#1027;" horiz-adv-x="578" d="M191 0h-53q-35 0 -49.5 14q-14.5 14 -14.5 49v683h484v-35q0 -26 -13.5 -43q-13.5 -17 -54.5 -17h-299zM393 960l-91 -115q-14 -17 -28 -24q-14 -7 -40 -7h-49l86 146z" />
<glyph unicode="&#1028;" horiz-adv-x="602" d="M560 57q0 -23 -14 -40q-14 -17 -61 -17h-205q-45 0 -82.5 14.5q-37.5 14.5 -64.5 40.5q-27 26 -42.5 62q-15.5 36 -15.5 79v357q0 87 59.5 140q59.5 53 168.5 53h247v-36q0 -12 -2.5 -23q-2.5 -11 -10.5 -19q-8 -8 -22.5 -12.5q-14.5 -4.5 -38.5 -4.5h-170q-114 0 -114 -111v-117h309v-36q0 -24 -12 -41.5q-12 -17.5 -52 -17.5h-245v-125q0 -21 5.5 -41q5.5 -20 17 -35q11.5 -15 29 -24q17.5 -9 40.5 -9l276 0z" />
<glyph unicode="&#1029;" horiz-adv-x="578" d="M40 0v39q0 29 14.5 42q14.5 13 53.5 13h169q68 0 103 25.5q35 25.5 35 75.5q0 35 -23.5 62q-23.5 27 -81.5 53l-126 56q-73 32 -104.5 81q-31.5 49 -31.5 112q0 42 14 76q14 34 43 59q29 25 73.5 38.5q44.5 13.5 106.5 13.5h224v-41q0 -33 -17 -43.5q-17 -10.5 -53 -10.5h-154q-23 0 -44.5 -4.5q-21.5 -4.5 -38 -15q-16.5 -10.5 -26.5 -28q-10 -17.5 -10 -44.5q0 -39 21 -64q21 -25 64 -45l120 -54q47 -21 78 -42.5q31 -21.5 50 -45.5q19 -24 26.5 -51.5q7.5 -27.5 7.5 -60.5q0 -58 -22.5 -96q-22.5 -38 -59 -60q-36.5 -22 -81.5 -31q-45 -9 -90 -9z" />
<glyph unicode="&#1030;" horiz-adv-x="282" d="M202 746v-746h-55q-34 0 -48.5 13.5q-14.5 13.5 -14.5 47.5l0 685z" />
<glyph unicode="&#1031;" horiz-adv-x="282" d="M202 746v-746h-55q-34 0 -48.5 13.5q-14.5 13.5 -14.5 47.5v685zM301 811h-121v119h121zM106 811h-121v119l121 0z" />
<glyph unicode="&#1032;" horiz-adv-x="426" d="M142 94q47 0 69 22q22 22 22 77v553h118v-553q0 -99 -49 -146q-49 -47 -160 -47h-129v39q0 32 15 43.5q15 11.5 52 11.5z" />
<glyph unicode="&#1033;" horiz-adv-x="1133" d="M665 746v-313h177q48 0 89 -9.5q41 -9.5 71 -30.5q30 -21 47 -56q17 -35 17 -86v-64q0 -50 -18.5 -85.5q-18.5 -35.5 -49.5 -58q-31 -22.5 -71.5 -33q-40.5 -10.5 -84.5 -10.5h-294v651h-265v-458q0 -49 -9.5 -85.5q-9.5 -36.5 -31.5 -60.5q-22 -24 -58.5 -35.5q-36.5 -11.5 -90.5 -11.5h-70v39q0 32 14.5 43.5q14.5 11.5 52.5 11.5h3q45 0 58.5 22q13.5 22 13.5 77v553zM665 338v-244h176q56 0 82 29q26 29 26 69v47q0 20 -6 38q-6 18 -18.5 31.5q-12.5 13.5 -33 21.5q-20.5 8 -49.5 8z" />
<glyph unicode="&#1034;" horiz-adv-x="1061" d="M604 746v-303h177q48 0 89 -9.5q41 -9.5 70.5 -30.5q29.5 -21 46.5 -56q17 -35 17 -86v-74q0 -50 -18.5 -85.5q-18.5 -35.5 -49.5 -58q-31 -22.5 -71.5 -33q-40.5 -10.5 -84.5 -10.5h-292v372q-30 -24 -76 -24h-221v-348h-53q-34 0 -49 13.5q-15 13.5 -15 47.5v685h117v-304h297v304zM604 348v-254h175q56 0 82 29q26 29 26 69v57q0 20 -6 38q-6 18 -18.5 31.5q-12.5 13.5 -33 21.5q-20.5 8 -49.5 8z" />
<glyph unicode="&#1035;" horiz-adv-x="764" d="M247 651h-226v95h570v-35q0 -32 -11.5 -46q-11.5 -14 -54.5 -14h-161v-101h137q97 0 143.5 -42.5q46.5 -42.5 46.5 -127.5v-380h-53q-33 0 -48.5 13.5q-15.5 13.5 -15.5 48.5v317q0 41 -19.5 58.5q-19.5 17.5 -53.5 17.5h-137v-455h-53q-38 0 -51 16q-13 16 -13 45z" />
<glyph unicode="&#1036;" horiz-adv-x="669" d="M192 746v-746h-55q-33 0 -47.5 14.5q-14.5 14.5 -14.5 47.5v684zM221 389q29 22 48.5 43q19.5 21 33.5 46q14 25 25.5 54.5q11.5 29.5 23.5 67.5q24 75 74.5 110.5q50.5 35.5 131.5 35.5h63v-34q0 -29 -12 -45q-12 -16 -52 -16q-23 0 -40 -8q-17 -8 -30 -22q-13 -14 -22 -33q-9 -19 -16 -41q-6 -20 -14.5 -42.5q-8.5 -22.5 -19.5 -44.5q-11 -22 -25 -41q-14 -19 -31 -32l290 -387h-137zM432 960l-91 -115q-14 -17 -28 -24q-14 -7 -40 -7h-49l86 146z" />
<glyph unicode="&#1038;" horiz-adv-x="630" d="M80 0v40q0 32 16 45q16 13 54 13h228q35 0 48 15q13 15 13 40v82q-20 -3 -46 -5q-26 -2 -53 -4q-27 -2 -52.5 -3q-25.5 -1 -45.5 -1q-92 0 -139.5 43q-47.5 43 -47.5 137v344h117v-343q0 -85 74 -85q24 0 50.5 0.5q26.5 0.5 52.5 2q26 1.5 49.5 3.5q23.5 2 40.5 5l0 417h117v-594q0 -32 -10 -60q-10 -28 -31.5 -48.5q-21.5 -20.5 -55 -32q-33.5 -11.5 -81.5 -11.5zM241 946q1 -18 7.5 -29.5q6.5 -11.5 15.5 -18.5q9 -7 20 -9.5q11 -2.5 22 -2.5q10 0 21 2.5q11 2.5 20 9q9 6.5 15.5 18.5q6.5 12 7.5 30l92 0q-2 -66 -43.5 -103q-41.5 -37 -115.5 -37q-69 0 -110.5 37q-41.5 37 -43.5 103z" />
<glyph unicode="&#1039;" horiz-adv-x="679" d="M601 0h-206v-170h-53q-33 0 -48.5 14q-15.5 14 -15.5 48v108h-205v746h117v-652h294v652l117 0z" />
<glyph unicode="&#1106;" horiz-adv-x="627" d="M28 693h97v58h116v-58h187v-35q0 -24 -11.5 -41q-11.5 -17 -51.5 -17h-124v-50h130q97 0 142.5 -41.5q45.5 -41.5 45.5 -126.5v-444q0 -69 -33 -100.5q-33 -31.5 -108 -31.5h-80v35q0 24 13.5 41q13.5 17 54.5 17q23 0 30.5 9q7.5 9 7.5 32v441q0 41 -19.5 58.5q-19.5 17.5 -53.5 17.5h-130v-457h-53q-34 0 -48.5 13.5q-14.5 13.5 -14.5 48.5v538l-97 0z" />
<glyph unicode="&#1107;" horiz-adv-x="490" d="M187 0h-53q-34 0 -48.5 14q-14.5 14 -14.5 49v487h383v-34q0 -25 -13.5 -42q-13.5 -17 -54.5 -17h-199zM353 760l-91 -115q-14 -17 -28 -24q-14 -7 -40 -7h-49l86 146z" />
<glyph unicode="&#1108;" horiz-adv-x="504" d="M464 94v-37q0 -12 -2.5 -22q-2.5 -10 -10 -18q-7.5 -8 -21.5 -12.5q-14 -4.5 -38 -4.5h-123q-45 0 -83 13q-38 13 -65.5 37q-27.5 24 -43 58.5q-15.5 34.5 -15.5 77.5v176q0 43 15.5 77.5q15.5 34.5 43 59q27.5 24.5 65.5 38q38 13.5 83 13.5h191v-34q0 -12 -2 -22.5q-2 -10.5 -9 -19q-7 -8.5 -20.5 -13q-13.5 -4.5 -37.5 -4.5h-122q-91 0 -91 -95v-40h239v-35q0 -24 -11.5 -41q-11.5 -17 -51.5 -17h-176v-42q0 -42 23 -67.5q23 -25.5 68 -25.5z" />
<glyph unicode="&#1109;" horiz-adv-x="474" d="M408 550v-40q0 -29 -17 -41q-17 -12 -55 -12h-104q-37 0 -52.5 -17.5q-15.5 -17.5 -15.5 -40.5q0 -19 11 -35.5q11 -16.5 38 -24.5l92 -30q71 -22 99.5 -60q28.5 -38 28.5 -92q0 -75 -51.5 -116q-51.5 -41 -141.5 -41h-189v37q0 57 68 57h121q34 0 55.5 15.5q21.5 15.5 21.5 47.5q0 22 -10.5 37.5q-10.5 15.5 -36.5 23.5l-88 29q-67 23 -100.5 57.5q-33.5 34.5 -33.5 94.5q0 26 10.5 53q10.5 27 33 48.5q22.5 21.5 57 35.5q34.5 14 83.5 14z" />
<glyph unicode="&#1110;" horiz-adv-x="267" d="M190 550v-550h-52q-35 0 -49.5 13.5q-14.5 13.5 -14.5 48.5v488zM74 760h116v-134h-40q-31 0 -53.5 17.5q-22.5 17.5 -22.5 50.5z" />
<glyph unicode="&#1111;" horiz-adv-x="257" d="M285 611h-121v119h121zM90 611h-121v119h121zM185 550v-550h-52q-35 0 -49.5 13.5q-14.5 13.5 -14.5 48.5l0 488z" />
<glyph unicode="&#1112;" horiz-adv-x="327" d="M136 760h116v-134h-40q-32 0 -54 17.5q-22 17.5 -22 50.5zM136 550h116v-597q0 -85 -46.5 -123.5q-46.5 -38.5 -130.5 -38.5h-86v39q0 28 17 42q17 14 45 14h24q31 0 46 17.5q15 17.5 15 49.5z" />
<glyph unicode="&#1113;" horiz-adv-x="931" d="M90 94q21 0 33 4.5q12 4.5 17 15q5 10.5 6 26.5q1 16 1 40v370h408v-189h98q47 0 87.5 -7.5q40.5 -7.5 70 -27q29.5 -19.5 46.5 -52.5q17 -33 17 -83v-14q0 -50 -18 -84q-18 -34 -49 -54.5q-31 -20.5 -71 -29.5q-40 -9 -84 -9h-213v457h-175v-266q0 -48 -6.5 -84q-6.5 -36 -25 -60q-18.5 -24 -52 -35.5q-33.5 -11.5 -87.5 -11.5h-70v39q0 31 15 43q15 12 52 12zt0 0zM651 94q55 0 81 24q26 24 26 64q0 38 -24.5 61.5q-24.5 23.5 -81.5 23.5h-97l0 -173z" />
<glyph unicode="&#1114;" horiz-adv-x="882" d="M510 550v-191h98q48 0 88.5 -7.5q40.5 -7.5 70 -27q29.5 -19.5 46 -52.5q16.5 -33 16.5 -83v-14q0 -50 -18 -83.5q-18 -33.5 -49 -54q-31 -20.5 -71 -29q-40 -8.5 -84 -8.5h-212v272q-29 -24 -74 -24h-131v-248h-54q-33 0 -47.5 13.5q-14.5 13.5 -14.5 47.5v489h116v-208h205v208zM510 265v-171h97q55 0 81 23q26 23 26 63q0 38 -24.5 61.5q-24.5 23.5 -82.5 23.5z" />
<glyph unicode="&#1115;" horiz-adv-x="606" d="M28 693h79v58h116v-58h205v-35q0 -24 -11.5 -41q-11.5 -17 -51.5 -17h-142v-50h131q188 0 188 -168v-382h-52q-34 0 -49 13.5q-15 13.5 -15 48.5v319q0 41 -19.5 58.5q-19.5 17.5 -52.5 17.5h-131v-457h-53q-33 0 -48 13.5q-15 13.5 -15 48.5v538l-79 0z" />
<glyph unicode="&#1116;" horiz-adv-x="595" d="M191 550v-550h-54q-33 0 -47.5 14.5q-14.5 14.5 -14.5 47.5v488zM216 285q31 14 51.5 29q20.5 15 34.5 32q14 17 24 37.5q10 20.5 19 45.5q13 36 28 59.5q15 23.5 33 37q18 13.5 41.5 19q23.5 5.5 53.5 5.5h63v-33q0 -28 -12 -44q-12 -16 -52 -16q-8 0 -15 -2q-7 -2 -14.5 -8.5q-7.5 -6.5 -15.5 -20q-8 -13.5 -17 -36.5q-12 -35 -30 -70.5q-18 -35.5 -50 -54.5l213 -265h-133zM391 760l-91 -115q-14 -17 -28 -24q-14 -7 -40 -7h-49l86 146z" />
<glyph unicode="&#1118;" horiz-adv-x="562" d="M89 -209v40q0 32 15.5 45q15.5 13 54.5 13h158q35 0 47.5 14.5q12.5 14.5 12.5 39.5v85q-33 -3 -64.5 -4.5q-31.5 -1.5 -72.5 -3.5q-92 -3 -134 45q-42 48 -42 134v351h116v-350q0 -43 13 -64.5q13 -21.5 50 -20.5q38 1 70 3.5q32 2.5 64 5.5l0 426h116v-608q0 -32 -10 -59.5q-10 -27.5 -31 -48q-21 -20.5 -54.5 -32q-33.5 -11.5 -80.5 -11.5zM201 746q1 -18 7.5 -29.5q6.5 -11.5 15.5 -18.5q9 -7 20 -9.5q11 -2.5 22 -2.5q10 0 21 2.5q11 2.5 20 9q9 6.5 15.5 18.5q6.5 12 7.5 30l92 0q-2 -66 -43.5 -103q-41.5 -37 -115.5 -37q-69 0 -110.5 37q-41.5 37 -43.5 103z" />
<glyph unicode="&#1119;" horiz-adv-x="610" d="M538 0h-171v-170h-54q-32 0 -47 13.5q-15 13.5 -15 48.5v108h-178v550h116v-456h234v456l115 0z" />
<glyph unicode="&#1168;" horiz-adv-x="595" d="M561 918v-267h-367v-651h-53q-35 0 -49.5 14q-14.5 14 -14.5 49v683h367l0 172z" />
<glyph unicode="&#1169;" horiz-adv-x="495" d="M458 722v-265h-268v-457h-53q-34 0 -48.5 14q-14.5 14 -14.5 49v487h268l0 172z" />
<glyph unicode="&#8364;" horiz-adv-x="920" d="M289 213h-144v84h144v146h-144v84h144v26q0 90 60 141.5q60 51.5 169 51.5h247v-36q0 -12 -2.5 -23q-2.5 -11 -10.5 -19q-8 -8 -22.5 -12.5q-14.5 -4.5 -38.5 -4.5h-170q-115 0 -115 -111v-13h198v-84h-198v-146h198v-84h-198v-10q0 -21 6 -41q6 -20 17.5 -35q11.5 -15 29 -24q17.5 -9 40.5 -9h276v-37q0 -23 -14 -40q-14 -17 -61 -17h-205q-45 0 -82.5 14q-37.5 14 -65 39.5q-27.5 25.5 -43 62q-15.5 36.5 -15.5 80.5z" />
<glyph unicode="&#8710;" horiz-adv-x="920" d="M450 631q3 7 8 14.5q5 7.5 13 9.5q8 2 13.5 -7q5.5 -9 8.5 -15l289 -622q1 -2 4 -7.5q3 -5.5 6 -13q3 -7.5 4.5 -14q1.5 -6.5 -0.5 -9.5q-5 -8 -17 -7.5q-12 0.5 -18 0.5h-590q-5 0 -15.5 -1q-10.5 -1 -14.5 6q-4 8 2 19q6 11 7 14zM448 541l-244 -513l482 0z" />
<glyph unicode="&#8730;" horiz-adv-x="920" d="M75 204l116 167l142 -309l275 698h237v-80l-183 1l-323 -800l-166 339q-14 -18 -28.5 -39.5q-14.5 -21.5 -26.5 -38.5z" />
<glyph unicode="&#8734;" horiz-adv-x="920" d="M308 489q32 0 56.5 -9.5q24.5 -9.5 43 -23q18.5 -13.5 30.5 -28.5q12 -15 20 -27q7 12 19 27q12 15 30.5 28.5q18.5 13.5 44 23q25.5 9.5 59.5 9.5q34 0 65 -13q31 -13 53.5 -36q22.5 -23 36 -53.5q13.5 -30.5 13.5 -66.5q0 -36 -13.5 -66.5q-13.5 -30.5 -36 -53.5q-22.5 -23 -53.5 -36q-31 -13 -65 -13q-31 0 -55.5 9q-24.5 9 -43.5 22.5q-19 13.5 -32 28.5q-13 15 -21 27q-7 -12 -19 -27q-12 -15 -30.5 -28.5q-18.5 -13.5 -43.5 -22.5q-25 -9 -58 -9q-35 0 -65.5 13q-30.5 13 -53.5 36q-23 23 -36 53.5q-13 30.5 -13 66.5q0 36 13 66.5q13 30.5 36 53.5q23 23 53.5 36q30.5 13 65.5 13zt0 0zM215 320q0 -20 7.5 -37.5q7.5 -17.5 20 -30.5q12.5 -13 29.5 -20.5q17 -7.5 36 -7.5q23 0 41 11.5q18 11.5 31 27q13 15.5 21.5 31.5q8.5 16 12.5 25q-3 7 -11 23.5q-8 16.5 -21 33q-13 16.5 -31.5 29q-18.5 12.5 -42.5 12.5q-19 0 -36 -7.5q-17 -7.5 -29.5 -21q-12.5 -13.5 -20 -31q-7.5 -17.5 -7.5 -37.5zt0 0zM704 320q0 20 -7.5 37.5q-7.5 17.5 -20.5 31q-13 13.5 -29.5 21q-16.5 7.5 -35.5 7.5q-27 0 -46 -13.5q-19 -13.5 -32 -30.5q-13 -17 -20 -32.5q-7 -15.5 -8 -20.5q2 -6 9 -21.5q7 -15.5 20 -32q13 -16.5 32 -29q19 -12.5 45 -12.5q19 0 35.5 7.5q16.5 7.5 29.5 20q13 12.5 20.5 30t7.5 37.5z" />
<glyph unicode="&#8776;" horiz-adv-x="920" d="M155 381q10 11 25.5 30q15.5 19 37 36.5q21.5 17.5 50 29.5q28.5 12 63.5 9q45 -3 74 -16q29 -13 55.5 -27q26.5 -14 56.5 -27q30 -13 78 -16q27 -2 52.5 5q25.5 7 48 18q22.5 11 41 24q18.5 13 30.5 24q3 3 8.5 -2q5.5 -5 3.5 -10q-6 -11 -22.5 -27q-16.5 -16 -40.5 -31q-24 -15 -54.5 -26q-30.5 -11 -63.5 -11q-41 0 -69 8.5q-28 8.5 -53 21q-25 12.5 -50.5 26q-25.5 13.5 -60.5 21.5q-36 9 -62.5 5.5q-26.5 -3.5 -48 -14.5q-21.5 -11 -42.5 -27q-21 -16 -46 -33q-9 -6 -11.5 -0.5q-2.5 5.5 0.5 9.5zt0 0zM155 117q10 11 25.5 30q15.5 19 37 36.5q21.5 17.5 50 29.5q28.5 12 63.5 9q45 -3 74 -16q29 -13 55.5 -27q26.5 -14 56.5 -27q30 -13 78 -16q27 -2 52.5 5q25.5 7 48 18q22.5 11 41 24q18.5 13 30.5 24q3 3 8.5 -2q5.5 -5 3.5 -10q-6 -11 -22.5 -27q-16.5 -16 -40.5 -31q-24 -15 -54.5 -26q-30.5 -11 -63.5 -11q-41 0 -69 8.5q-28 8.5 -53 21q-25 12.5 -50.5 26q-25.5 13.5 -60.5 21.5q-36 9 -62.5 5.5q-26.5 -3.5 -48 -14.5q-21.5 -11 -42.5 -27q-21 -16 -46 -33q-9 -6 -11.5 -0.5t0.5 9.5z" />
<glyph unicode="&#8800;" horiz-adv-x="920" d="M752 269v-85h-305q-14 -38 -29 -79q-15 -41 -28 -79l-94 26l50 132h-179v85h210l34 101h-244v85h273l56 164l91 -20l-48 -144h213v-85h-241l-35 -101z" />
<glyph unicode="&#8804;" horiz-adv-x="920" d="M347 392l402 -166l-38 -78l-520 217q-8 3 -16 9.5q-8 6.5 -8 16.5q0 10 8 16.5q8 6.5 16 9.5l514 215l34 -77zM760 110v-85h-601l0 85z" />
<glyph unicode="&#8805;" horiz-adv-x="920" d="M207 148l-34 78l397 166q-97 40 -195.5 82q-98.5 42 -195.5 81l34 77l514 -214q9 -4 18 -11q9 -7 8 -16q-1 -9 -9 -16q-8 -7 -16 -10zM760 25h-601v85l601 0z" />
<glyph unicode="&#1040;" horiz-adv-x="668" d="M453 249q-13 -14 -35 -24.5q-22 -10.5 -50 -10.5h-163l-68 -214h-120l250 746h90q20 0 36 -12q16 -12 21 -29l238 -705h-119zM236 311h195l-97 303z" />
<glyph unicode="&#1041;" horiz-adv-x="610" d="M525 746v-38q0 -24 -12 -41.5q-12 -17.5 -50 -17.5h-275v-190h153q48 0 88.5 -9.5q40.5 -9.5 70 -31q29.5 -21.5 46.5 -56q17 -34.5 17 -85.5v-89q0 -51 -18.5 -86.5q-18.5 -35.5 -49 -58q-30.5 -22.5 -71 -33q-40.5 -10.5 -84.5 -10.5h-267v746zM188 365v-271h149q56 0 82.5 28.5q26.5 28.5 26.5 68.5v75q0 20 -6 38q-6 18 -19 31.5q-13 13.5 -33.5 21.5q-20.5 8 -49.5 8z" />
<glyph unicode="&#1042;" horiz-adv-x="634" d="M365 746q52 0 90.5 -13.5q38.5 -13.5 64 -37.5q25.5 -24 37.5 -56.5q12 -32.5 12 -70.5v-47q0 -40 -19 -77.5q-19 -37.5 -53 -54.5q45 -18 68.5 -54.5q23.5 -36.5 23.5 -81.5v-66q0 -50 -18.5 -85.5q-18.5 -35.5 -49.5 -58q-31 -22.5 -71.5 -33q-40.5 -10.5 -84.5 -10.5h-292v746zM189 651v-218h177q26 0 43 8.5q17 8.5 26.5 21.5q9.5 13 13.5 29.5q4 16.5 4 32.5v38q0 36 -21.5 62q-21.5 26 -65.5 26zM189 338v-244h175q56 0 82 29q26 29 26 69v47q0 20 -6 38q-6 18 -18.5 31.5q-12.5 13.5 -33 21.5q-20.5 8 -49.5 8z" />
<glyph unicode="&#1043;" horiz-adv-x="555" d="M189 645v-645h-52q-34 0 -48.5 14.5q-14.5 14.5 -14.5 49.5v682h451v-41q0 -26 -13 -43q-13 -17 -54 -17z" />
<glyph unicode="&#1044;" horiz-adv-x="734" d="M73 -170q-32 0 -46.5 14.5q-14.5 14.5 -14.5 48.5v203h80l207 650h91q19 0 34 -12.5q15 -12.5 21 -29.5l196 -608h81v-266h-50q-32 0 -46.5 14.5q-14.5 14.5 -14.5 48.5v107h-488v-170zM207 96h321l-162 531z" />
<glyph unicode="&#1045;" horiz-adv-x="602" d="M74 0v746h472v-34q0 -29 -12 -45q-12 -16 -52 -16h-291v-210h324v-36q0 -24 -11.5 -41q-11.5 -17 -51.5 -17h-261v-253h367v-36q0 -24 -12 -41q-12 -17 -51 -17z" />
<glyph unicode="&#1046;" horiz-adv-x="931" d="M531 746v-746h-54q-32 0 -46.5 14.5q-14.5 14.5 -14.5 48.5v683zM172 36q-14 -18 -31.5 -27q-17.5 -9 -37.5 -9h-87l251 389l-217 357h130l214 -363zM553 383l214 363h130l-217 -357l251 -389h-87q-20 0 -37.5 9q-17.5 9 -31.5 27z" />
<glyph unicode="&#1047;" horiz-adv-x="559" d="M106 0q-23 0 -37.5 5q-14.5 5 -22.5 13q-8 8 -11 18.5q-3 10.5 -3 21.5v38h218q34 0 58 2.5q24 2.5 39 12.5q15 10 22 29.5q7 19.5 7 53.5v56q-1 24 -6 40.5q-5 16.5 -17 26.5q-12 10 -31.5 14.5q-19.5 4.5 -49.5 5.5l-149 0q-21 0 -30 7.5q-9 7.5 -9 28.5v60h185q28 0 45.5 4q17.5 4 27 13.5q9.5 9.5 13 25.5q3.5 16 3.5 40v46q0 30 -10.5 47.5q-10.5 17.5 -28.5 26.5q-18 9 -41.5 11.5q-23.5 2.5 -49.5 2.5h-116q-24 0 -38.5 4.5q-14.5 4.5 -22 13q-7.5 8.5 -10 19q-2.5 10.5 -2.5 22.5v37h231q104 0 153 -46q49 -46 49 -122v-66q0 -18 -3 -36.5q-3 -18.5 -11 -35.5q-8 -17 -21 -31q-13 -14 -33 -21q30 -6 47 -20.5q17 -14.5 26 -34q9 -19.5 11.5 -42q2.5 -22.5 2.5 -42.5v-94q0 -51 -17.5 -82q-17.5 -31 -47 -47q-29.5 -16 -68 -21q-38.5 -5 -80.5 -5z" />
<glyph unicode="&#1048;" horiz-adv-x="687" d="M74 746h110v-539l316 539h110v-746h-48q-33 0 -47.5 14.5q-14.5 14.5 -14.5 46.5v496l-326 -557h-41q-59 0 -59 65z" />
<glyph unicode="&#1049;" horiz-adv-x="687" d="M267 780q-29 0 -43 12q-14 12 -14 49v38h261v-99zM74 746h110v-539l316 539h110v-746h-48q-33 0 -47.5 14.5q-14.5 14.5 -14.5 46.5v496l-326 -557h-41q-59 0 -59 65z" />
<glyph unicode="&#1050;" horiz-adv-x="657" d="M213 385l273 361h142l-274 -360l287 -386h-93q-28 0 -44 8.5q-16 8.5 -28 25.5zM191 746v-746h-55q-33 0 -47.5 14.5q-14.5 14.5 -14.5 47.5l0 684z" />
<glyph unicode="&#1051;" horiz-adv-x="658" d="M329 608l-173 -554q-6 -21 -14 -32q-8 -11 -17.5 -16q-9.5 -5 -22 -5.5q-12.5 -0.5 -28.5 -0.5h-57l246 745h90q19 0 34 -12.5q15 -12.5 21 -29.5l234 -703h-55q-16 0 -28.5 0.5q-12.5 0.5 -22.5 5.5q-10 5 -17.5 16q-7.5 11 -13.5 32z" />
<glyph unicode="&#1052;" horiz-adv-x="886" d="M807 0h-54q-33 0 -48 14q-15 14 -15 46v465l-163 -301q-11 -20 -33 -37.5q-22 -17.5 -53 -17.5q-32 0 -52.5 17q-20.5 17 -31.5 37l-163 302v-525h-54q-63 0 -63 55v691h117l236 -447q3 -8 12 -8q8 0 12 8l236 447l117 0z" />
<glyph unicode="&#1053;" horiz-adv-x="680" d="M603 746v-746h-53q-34 0 -49 13.5q-15 13.5 -15 47.5v313q-12 -14 -32 -20q-20 -6 -43 -6h-220v-348h-54q-34 0 -48.5 13.5q-14.5 13.5 -14.5 47.5v685h117v-304h295l0 304z" />
<glyph unicode="&#1054;" horiz-adv-x="702" d="M350 760q150 0 220.5 -81q70.5 -81 70.5 -231v-151q0 -149 -70.5 -230q-70.5 -81 -220.5 -81q-148 0 -219.5 81q-71.5 81 -71.5 231v150q0 150 71.5 231q71.5 81 219.5 81zt0 0zM524 449q0 45 -8 83.5q-8 38.5 -28 67q-20 28.5 -53.5 45q-33.5 16.5 -84.5 16.5q-50 0 -83.5 -16.5q-33.5 -16.5 -53.5 -45q-20 -28.5 -28.5 -67.5q-8.5 -39 -8.5 -84v-151q0 -211 167 -211q91 0 136 49q45 49 45 163z" />
<glyph unicode="&#1055;" horiz-adv-x="672" d="M74 746h521v-746h-53q-33 0 -48.5 13.5q-15.5 13.5 -15.5 47.5v590h-287v-651h-54q-34 0 -48.5 13.5q-14.5 13.5 -14.5 47.5z" />
<glyph unicode="&#1056;" horiz-adv-x="628" d="M191 274v-274h-52q-35 0 -50 13.5q-15 13.5 -15 47.5v685h276q52 0 93 -10q41 -10 69.5 -32.5q28.5 -22.5 43.5 -58.5q15 -36 15 -88v-94q0 -27 -6 -59.5q-6 -32.5 -28 -61.5q-22 -29 -66.5 -48.5q-44.5 -19.5 -120.5 -19.5zM191 649v-279h159q104 0 104 93v94q0 42 -23.5 67q-23.5 25 -80.5 25z" />
<glyph unicode="&#1057;" horiz-adv-x="583" d="M547 57q0 -23 -14 -40q-14 -17 -61 -17h-205q-45 0 -82.5 14q-37.5 14 -65 39.5q-27.5 25.5 -43 62q-15.5 36.5 -15.5 80.5v357q0 90 60 141.5q60 51.5 169 51.5h247v-36q0 -12 -2.5 -23q-2.5 -11 -10.5 -19q-8 -8 -22.5 -12.5q-14.5 -4.5 -38.5 -4.5h-170q-115 0 -115 -111v-337q0 -21 6 -41q6 -20 17.5 -35q11.5 -15 29 -24q17.5 -9 40.5 -9l276 0z" />
<glyph unicode="&#1058;" horiz-adv-x="603" d="M244 651h-226v95h570v-35q0 -32 -12 -46q-12 -14 -54 -14h-161v-651h-54q-33 0 -48 13.5q-15 13.5 -15 47.5z" />
<glyph unicode="&#1059;" horiz-adv-x="630" d="M272 153l-264 593h123l195 -460l186 460h108l-275 -690q-9 -22 -16.5 -33.5q-7.5 -11.5 -15 -16.5q-7.5 -5 -16.5 -5.5q-9 -0.5 -20 -0.5l-66 0z" />
<glyph unicode="&#1060;" horiz-adv-x="841" d="M474 774v-72h21q58 -2 110 -12q52 -10 91 -38.5q39 -28.5 61.5 -79.5q22.5 -51 22.5 -133v-90q0 -83 -22.5 -134q-22.5 -51 -61.5 -79.5q-39 -28.5 -91 -38.5q-52 -10 -110 -11l-21 0v-86h-47q-33 0 -47.5 14.5q-14.5 14.5 -14.5 47.5v24h-22q-58 1 -109.5 11q-51.5 10 -90.5 38.5q-39 28.5 -61.5 79.5q-22.5 51 -22.5 134v90q0 82 22.5 133q22.5 51 61.5 79.5q39 28.5 90.5 38.5q51.5 10 109.5 12l22 0v72zM168 421v-54q0 -58 12.5 -92.5q12.5 -34.5 35.5 -53.5q23 -19 55.5 -26q32.5 -7 71.5 -8l22 0v414h-22q-39 -2 -71.5 -8.5q-32.5 -6.5 -55.5 -25.5q-23 -19 -35.5 -53.5q-12.5 -34.5 -12.5 -92.5zt0 0zM495 187q39 1 71.5 8q32.5 7 55.5 26q23 19 35.5 53.5q12.5 34.5 12.5 92.5v54q0 58 -12.5 92.5q-12.5 34.5 -35.5 53.5q-23 19 -55.5 25.5q-32.5 6.5 -71.5 8.5l-21 0l0 -414z" />
<glyph unicode="&#1061;" horiz-adv-x="671" d="M18 0l250 374l-246 372h128l182 -273l182 273h130l-245 -372l249 -374h-132l-184 275l-182 -275z" />
<glyph unicode="&#1062;" horiz-adv-x="718" d="M602 96h88v-266h-48q-32 0 -47 14q-15 14 -15 49v107h-291q-54 0 -94.5 8.5q-40.5 8.5 -67.5 31q-27 22.5 -41 61q-14 38.5 -14 98.5v547h117v-548q0 -29 5 -48.5q5 -19.5 17 -31.5q12 -12 31 -17q19 -5 47 -5h196v650l117 0z" />
<glyph unicode="&#1063;" horiz-adv-x="614" d="M430 746h115v-746h-52q-32 0 -47.5 14.5q-15.5 14.5 -15.5 48.5v184h-165q-74 0 -119.5 16q-45.5 16 -71 46q-25.5 30 -34.5 74q-9 44 -9 100v263h115v-247q0 -42 4.5 -71q4.5 -29 20 -47q15.5 -18 45 -25.5q29.5 -7.5 79.5 -7.5l135 0z" />
<glyph unicode="&#1064;" horiz-adv-x="922" d="M287 0q-54 0 -94 8.5q-40 8.5 -67 31q-27 22.5 -40.5 61q-13.5 38.5 -13.5 98.5v547h115v-548q0 -29 5 -48.5q5 -19.5 17 -31.5q12 -12 31 -17q19 -5 47 -5h114v650h115v-650h214v650h115l0 -746z" />
<glyph unicode="&#1065;" horiz-adv-x="959" d="M845 96h88v-266h-48q-32 0 -47 14q-15 14 -15 49v107h-536q-54 0 -94 8.5q-40 8.5 -67 31q-27 22.5 -40.5 61q-13.5 38.5 -13.5 98.5v547h115v-548q0 -29 5 -48.5q5 -19.5 17 -31.5q12 -12 31 -17q19 -5 47 -5h114v650h115v-650h214v650l115 0z" />
<glyph unicode="&#1066;" horiz-adv-x="706" d="M86 647q-32 0 -47.5 14q-15.5 14 -15.5 49v36h260v-273h154q48 0 88.5 -9.5q40.5 -9.5 70 -31q29.5 -21.5 46 -56q16.5 -34.5 16.5 -85.5v-103q0 -51 -18.5 -86.5q-18.5 -35.5 -49 -58q-30.5 -22.5 -71 -33q-40.5 -10.5 -83.5 -10.5h-267v647zM283 376v-280h152q56 0 82.5 28.5q26.5 28.5 26.5 68.5v85q0 41 -25 69.5q-25 28.5 -83 28.5z" />
<glyph unicode="&#1067;" horiz-adv-x="818" d="M624 746h117v-746h-54q-33 0 -48 13.5q-15 13.5 -15 48.5zM188 746v-273h148q48 0 88.5 -9.5q40.5 -9.5 70 -31q29.5 -21.5 46 -56q16.5 -34.5 16.5 -85.5v-103q0 -51 -18.5 -86.5q-18.5 -35.5 -49 -58q-30.5 -22.5 -71 -33q-40.5 -10.5 -83.5 -10.5h-261v746zM188 376v-280h146q56 0 82.5 28.5q26.5 28.5 26.5 68.5v85q0 41 -25 69.5q-25 28.5 -83 28.5z" />
<glyph unicode="&#1068;" horiz-adv-x="612" d="M188 746v-273h154q48 0 88.5 -9.5q40.5 -9.5 70 -31q29.5 -21.5 46 -56q16.5 -34.5 16.5 -85.5v-103q0 -51 -18.5 -86.5q-18.5 -35.5 -49 -58q-30.5 -22.5 -71 -33q-40.5 -10.5 -83.5 -10.5h-267v746zM188 376v-280h152q56 0 82.5 28.5q26.5 28.5 26.5 68.5v85q0 41 -25 69.5q-25 28.5 -83 28.5z" />
<glyph unicode="&#1069;" horiz-adv-x="584" d="M33 94h276q23 0 40.5 9q17.5 9 29 24q11.5 15 17 35q5.5 20 5.5 41v125h-245q-20 0 -32.5 4.5q-12.5 4.5 -19.5 13q-7 8.5 -9.5 19q-2.5 10.5 -2.5 22.5v36h309v117q0 111 -114 111h-170q-24 0 -38.5 4.5q-14.5 4.5 -22.5 12.5q-8 8 -10.5 19q-2.5 11 -2.5 23v36h247q109 0 168.5 -53q59.5 -53 59.5 -140v-357q0 -43 -15.5 -79q-15.5 -36 -42.5 -62q-27 -26 -64.5 -40.5q-37.5 -14.5 -82.5 -14.5h-205q-47 0 -61 17q-14 17 -14 40z" />
<glyph unicode="&#1070;" horiz-adv-x="898" d="M279 348h-88v-348h-54q-34 0 -48.5 13.5q-14.5 13.5 -14.5 47.5v685h117v-304h88v6q0 70 16.5 127.5q16.5 57.5 50.5 98.5q34 41 86.5 63.5q52.5 22.5 125.5 22.5q73 0 125.5 -22.5q52.5 -22.5 86.5 -63.5q34 -41 50.5 -98.5q16.5 -57.5 16.5 -127.5v-150q0 -70 -16.5 -127.5q-16.5 -57.5 -50.5 -98.5q-34 -41 -86.5 -63.5q-52.5 -22.5 -125.5 -22.5q-73 0 -125.5 22.5q-52.5 22.5 -86.5 63.5q-34 41 -50.5 98.5q-16.5 57.5 -16.5 127.5zM396 298q0 -37 6.5 -75q6.5 -38 24.5 -68.5q18 -30.5 49.5 -50q31.5 -19.5 81.5 -19.5q49 0 80.5 19.5q31.5 19.5 49.5 50q18 30.5 25 68.5q7 38 7 75v150q0 37 -7 74.5q-7 37.5 -25 68.5q-18 31 -49.5 50.5q-31.5 19.5 -80.5 19.5q-50 0 -81.5 -19.5q-31.5 -19.5 -49.5 -50.5q-18 -31 -24.5 -68.5q-6.5 -37.5 -6.5 -74.5z" />
<glyph unicode="&#1071;" horiz-adv-x="621" d="M20 0l192 306q-57 6 -91.5 25.5q-34.5 19.5 -53 45q-18.5 25.5 -24.5 54.5q-6 29 -6 55v90q0 37 13 68q13 31 39 53.5q26 22.5 66 35.5q40 13 93 13h296v-746h-53q-32 0 -47 14.5q-15 14.5 -15 48.5v241h-92l-160 -257q-14 -23 -31 -35q-17 -12 -43 -12zM429 648h-181q-49 0 -72.5 -23q-23.5 -23 -23.5 -65v-65q0 -45 24.5 -68.5q24.5 -23.5 71.5 -23.5l181 0z" />
<glyph unicode="&#1072;" horiz-adv-x="538" d="M469 0h-239q-86 0 -135.5 37.5q-49.5 37.5 -49.5 112.5v61q0 86 49.5 124q49.5 38 135.5 36q37 -1 64.5 -2.5q27.5 -1.5 58.5 -5.5l0 33q0 28 -16 44.5q-16 16.5 -51 16.5h-130q-23 0 -37.5 4q-14.5 4 -22 11.5q-7.5 7.5 -10 17q-2.5 9.5 -2.5 21.5v39h202q96 0 139.5 -39.5q43.5 -39.5 43.5 -114.5zM231 273q-36 0 -53 -15q-17 -15 -17 -51v-53q0 -18 6.5 -30q6.5 -12 17 -18.5q10.5 -6.5 23 -9q12.5 -2.5 23.5 -2.5h122v172q-35 4 -65.5 5.5t-56.5 1.5z" />
<glyph unicode="&#1073;" horiz-adv-x="543" d="M47 224v235q0 66 10 111q10 45 36 74.5q26 29.5 70.5 46.5q44.5 17 114.5 28l198 28v-46q0 -33 -8.5 -45.5q-8.5 -12.5 -39.5 -16.5l-152 -22q-34 -6 -58.5 -14q-24.5 -8 -41 -21.5q-16.5 -13.5 -24.5 -34.5q-8 -21 -8 -54q31 31 71.5 43q40.5 12 76.5 12q100 0 152 -55q52 -55 52 -149v-147q0 -109 -58 -160q-58 -51 -167 -51q-53 0 -94.5 13q-41.5 13 -70.5 41.5q-29 28.5 -44 73.5q-15 45 -15 110zt0 0zM383 336q0 48 -26.5 82.5q-26.5 34.5 -85.5 34.5q-52 0 -82 -37.5q-30 -37.5 -30 -99.5v-72q0 -84 29.5 -123.5q29.5 -39.5 82.5 -39.5q52 0 82 29.5q30 29.5 30 88.5z" />
<glyph unicode="&#1074;" horiz-adv-x="529" d="M69 550h236q86 0 125.5 -37.5q39.5 -37.5 39.5 -94.5v-31q0 -35 -14.5 -61q-14.5 -26 -47.5 -37q38 -9 58.5 -31.5q20.5 -22.5 20.5 -60.5v-57q0 -38 -15.5 -64.5q-15.5 -26.5 -40.5 -43q-25 -16.5 -57.5 -24.5q-32.5 -8 -66.5 -8h-238zM181 454v-126h110q42 0 55.5 15q13.5 15 13.5 36v27q0 21 -13.5 34.5q-13.5 13.5 -55.5 13.5zM181 240v-144h126q42 0 56 13.5q14 13.5 14 34.5v45q0 10 -3.5 19.5q-3.5 9.5 -12.5 16.5q-9 7 -26 11q-17 4 -44 4z" />
<glyph unicode="&#1075;" horiz-adv-x="458" d="M183 453v-453h-52q-33 0 -47.5 14.5q-14.5 14.5 -14.5 49.5v486h370v-38q0 -25 -13 -42q-13 -17 -54 -17z" />
<glyph unicode="&#1076;" horiz-adv-x="570" d="M285 435l-112 -339h224zM11 96h54l161 454h80q17 0 30 -9.5q13 -9.5 21 -28.5l148 -416h54v-266h-45q-32 0 -46 12q-14 12 -14 47v111h-338v-170h-45q-32 0 -46 12q-14 12 -14 47z" />
<glyph unicode="&#1077;" horiz-adv-x="538" d="M474 94v-40q0 -12 -2 -22q-2 -10 -9.5 -17q-7.5 -7 -21.5 -11q-14 -4 -38 -4h-153q-89 0 -142 48q-53 48 -53 131v186q0 53 17.5 91q17.5 38 47 62q29.5 24 69 35q39.5 11 83.5 11q48 0 88.5 -12q40.5 -12 70 -34.5q29.5 -22.5 46 -56.5q16.5 -34 16.5 -77v-72q0 -36 -21 -60q-21 -24 -66 -24h-235v-49q0 -41 23.5 -63q23.5 -22 55.5 -22zM171 322h190q7 0 12 5.5q5 5.5 5 14.5v42q0 39 -27 62.5q-27 23.5 -79 23.5q-46 0 -73.5 -23.5q-27.5 -23.5 -27.5 -62.5z" />
<glyph unicode="&#1078;" horiz-adv-x="752" d="M322 550h108v-550h-47q-32 0 -46.5 14.5q-14.5 14.5 -14.5 48.5zM302 296l-148 -257q-20 -27 -36.5 -33q-16.5 -6 -41.5 -6h-68l175 297l-150 253h123zM596 550h123l-150 -253l175 -297h-68q-25 0 -41.5 6q-16.5 6 -36.5 33l-148 257z" />
<glyph unicode="&#1079;" horiz-adv-x="474" d="M105 0q-24 0 -38 4.5q-14 4.5 -21.5 12.5q-7.5 8 -9.5 18.5q-2 10.5 -2 22.5v38h212q39 0 54 8q15 8 15 42v40q0 34 -25.5 42.5q-25.5 8.5 -69.5 8.5h-113q-18 0 -25 6q-7 6 -7 23v59h145q43 0 62 8q19 8 19 41v39q0 29 -16.5 35.5q-16.5 6.5 -50.5 6.5h-127q-23 0 -36.5 5q-13.5 5 -20.5 13q-7 8 -9 19q-2 11 -2 23v35h179q39 0 73.5 -4.5q34.5 -4.5 61 -17.5q26.5 -13 41.5 -37.5q15 -24.5 15 -64.5v-44q0 -35 -12 -58.5q-12 -23.5 -44 -34.5q33 -8 52 -30q19 -22 19 -62v-61q0 -40 -10.5 -66q-10.5 -26 -32.5 -41.5q-22 -15.5 -55.5 -22q-33.5 -6.5 -79.5 -6.5z" />
<glyph unicode="&#1080;" horiz-adv-x="578" d="M69 550h107v-384l250 384h82v-550h-46q-33 0 -47 14q-14 14 -14 47v287l-228 -348h-43q-31 0 -46 15q-15 15 -15 41z" />
<glyph unicode="&#1081;" horiz-adv-x="578" d="M69 550h107v-384l250 384h82v-550h-46q-33 0 -47 14q-14 14 -14 47v287l-228 -348h-43q-31 0 -46 15q-15 15 -15 41zM225 578q-29 0 -43 12.5q-14 12.5 -14 48.5v35h240l0 -96z" />
<glyph unicode="&#1082;" horiz-adv-x="542" d="M69 550h114v-550h-53q-32 0 -46.5 14.5q-14.5 14.5 -14.5 48.5zM395 550h127l-194 -256l206 -294h-81q-20 0 -39 5.5q-19 5.5 -42 34.5l-170 255z" />
<glyph unicode="&#1083;" horiz-adv-x="536" d="M452 0q-27 0 -40.5 10q-13.5 10 -23.5 39l-120 363l-117 -363q-10 -29 -23.5 -39q-13.5 -10 -40.5 -10h-71l194 550h78q17 0 30 -9.5q13 -9.5 21 -28.5l184 -512z" />
<glyph unicode="&#1084;" horiz-adv-x="697" d="M516 343l-93 -162q-11 -19 -26.5 -34.5q-15.5 -15.5 -48.5 -15.5q-33 0 -48.5 15.5q-15.5 15.5 -26.5 34.5l-93 162v-343h-46q-30 0 -46 15q-16 15 -16 41v494h94l162 -293q13 -24 20 -24q5 0 9 6q4 6 11 18l162 293h94v-550h-46q-30 0 -46 15q-16 15 -16 41z" />
<glyph unicode="&#1085;" horiz-adv-x="569" d="M383 550h116v-550h-53q-33 0 -48 14q-15 14 -15 48v209q-11 -11 -26 -17.5q-15 -6.5 -38 -6.5h-134v-247h-54q-33 0 -47.5 14q-14.5 14 -14.5 48v488h116v-207l198 0z" />
<glyph unicode="&#1086;" horiz-adv-x="543" d="M271 564q110 0 168 -52.5q58 -52.5 58 -166.5v-139q0 -115 -57 -167.5q-57 -52.5 -169 -52.5q-109 0 -167.5 52q-58.5 52 -58.5 168v139q0 114 58.5 166.5q58.5 52.5 167.5 52.5zt0 0zM381 345q0 29 -4.5 52q-4.5 23 -16.5 39.5q-12 16.5 -33.5 25q-21.5 8.5 -55.5 8.5q-55 0 -82.5 -27q-27.5 -27 -27.5 -93v-144q0 -67 27.5 -97q27.5 -30 82.5 -30q55 0 82.5 28.5q27.5 28.5 27.5 98.5z" />
<glyph unicode="&#1087;" horiz-adv-x="563" d="M69 550h424v-550h-53q-33 0 -48 13.5q-15 13.5 -15 48.5v395h-192v-457h-51q-35 0 -50 13.5q-15 13.5 -15 48.5z" />
<glyph unicode="&#1088;" horiz-adv-x="537" d="M69 550h218q204 0 204 -186v-179q0 -97 -53 -141q-53 -44 -151 -44h-102v-209h-53q-34 0 -48.5 14q-14.5 14 -14.5 49zM185 94h102q88 0 88 91v179q0 45 -21.5 69q-21.5 24 -66.5 24l-102 0z" />
<glyph unicode="&#1089;" horiz-adv-x="483" d="M448 94v-37q0 -12 -2.5 -22q-2.5 -10 -10 -18q-7.5 -8 -21.5 -12.5q-14 -4.5 -38 -4.5h-124q-45 0 -83 12.5q-38 12.5 -65.5 36.5q-27.5 24 -43 58.5q-15.5 34.5 -15.5 78.5v176q0 44 15.5 79q15.5 35 43 59q27.5 24 65.5 37q38 13 83 13h191v-34q0 -12 -2 -22.5q-2 -10.5 -9 -19q-7 -8.5 -20.5 -13q-13.5 -4.5 -37.5 -4.5h-122q-91 0 -91 -95v-175q0 -42 23 -67.5q23 -25.5 68 -25.5z" />
<glyph unicode="&#1090;" horiz-adv-x="485" d="M181 454h-163v96h449v-37q0 -32 -11.5 -45.5q-11.5 -13.5 -53.5 -13.5h-105v-454h-54q-32 0 -47 13.5q-15 13.5 -15 47.5z" />
<glyph unicode="&#1091;" horiz-adv-x="568" d="M94 -209v40q0 32 15.5 45q15.5 13 54.5 13h158q35 0 47.5 14.5q12.5 14.5 12.5 39.5v65q-33 -3 -64.5 -4.5q-31.5 -1.5 -72.5 -3.5q-92 -3 -134 45q-42 48 -42 134v371h116v-370q0 -43 13 -64.5q13 -21.5 50 -20.5q38 1 70 3.5q32 2.5 64 5.5l0 446h116v-608q0 -32 -10 -59.5q-10 -27.5 -31 -48q-21 -20.5 -54.5 -32q-33.5 -11.5 -80.5 -11.5z" />
<glyph unicode="&#1092;" horiz-adv-x="710" d="M407 -209h-42q-33 0 -48 14q-15 14 -15 49v133q-53 2 -99.5 11q-46.5 9 -81 36q-34.5 27 -54.5 76.5q-20 49.5 -20 131.5v66q0 82 20 131.5q20 49.5 54.5 76.5q34.5 27 81 36q46.5 9 99.5 11l0 188h105v-188q53 -2 99.5 -11q46.5 -9 81 -36q34.5 -27 54.5 -76.5q20 -49.5 20 -131.5v-66q0 -82 -20 -131.5q-20 -49.5 -54.5 -76.5q-34.5 -27 -81 -36q-46.5 -9 -99.5 -11zM155 236q0 -48 11 -78q11 -30 31 -46.5q20 -16.5 46.5 -23q26.5 -6.5 58.5 -8.5l0 389q-32 -2 -58.5 -8.5q-26.5 -6.5 -46.5 -23q-20 -16.5 -31 -46q-11 -29.5 -11 -77.5zM554 314q0 48 -11 77.5q-11 29.5 -31 46q-20 16.5 -47 23q-27 6.5 -58 8.5l0 -389q31 2 58 8.5q27 6.5 47 23q20 16.5 31 46.5q11 30 11 78z" />
<glyph unicode="&#1093;" horiz-adv-x="566" d="M15 0l200 276l-194 274h126l132 -189l132 189h130l-195 -274l201 -276h-127l-137 194l-138 -194z" />
<glyph unicode="&#1094;" horiz-adv-x="613" d="M244 0q-53 0 -87 8.5q-34 8.5 -54 30q-20 21.5 -28 58q-8 36.5 -8 93.5v360h116v-360q0 -48 12.5 -71q12.5 -23 49.5 -25l134 0v456h116v-454h88v-266h-53q-33 0 -48 13.5q-15 13.5 -15 48.5l0 108z" />
<glyph unicode="&#1095;" horiz-adv-x="536" d="M352 270v280h114v-550h-52q-32 0 -47 14q-15 14 -15 49v112h-92q-62 0 -105 10.5q-43 10.5 -69.5 33q-26.5 22.5 -38.5 56q-12 33.5 -12 80.5v195h114v-179q0 -59 24.5 -80q24.5 -21 83.5 -21z" />
<glyph unicode="&#1096;" horiz-adv-x="777" d="M246 0q-53 0 -87.5 8.5q-34.5 8.5 -54.5 30.5q-20 22 -27.5 58.5q-7.5 36.5 -7.5 93.5v359h111v-359q0 -35 5.5 -54q5.5 -19 15.5 -28q10 -9 23 -11q13 -2 28 -2h80v454h111v-454h153v454h111l0 -550z" />
<glyph unicode="&#1097;" horiz-adv-x="825" d="M246 0q-53 0 -87.5 8.5q-34.5 8.5 -54.5 30.5q-20 22 -27.5 58.5q-7.5 36.5 -7.5 93.5v359h111v-359q0 -35 5.5 -54q5.5 -19 15.5 -28q10 -9 23 -11q13 -2 28 -2h80v454h111v-454h153v454h111v-454h88v-266h-53q-33 0 -48 13.5q-15 13.5 -15 48.5l0 108z" />
<glyph unicode="&#1098;" horiz-adv-x="603" d="M139 0v454h-70q-32 0 -47 14.5q-15 14.5 -15 48.5v33h245v-188h133q34 0 66.5 -8q32.5 -8 58 -27.5q25.5 -19.5 41 -52q15.5 -32.5 15.5 -80.5v-26q0 -48 -15.5 -80.5q-15.5 -32.5 -41 -52q-25.5 -19.5 -58 -27.5q-32.5 -8 -66.5 -8zM252 266v-170h128q42 0 57 18q15 18 15 53v23q0 37 -17 56.5q-17 19.5 -71 19.5z" />
<glyph unicode="&#1099;" horiz-adv-x="736" d="M550 550h116v-550h-53q-32 0 -47.5 13.5q-15.5 13.5 -15.5 48.5zM182 266v-170h124q42 0 57 18q15 18 15 53v23q0 37 -17 56.5q-17 19.5 -71 19.5zM69 0v550h113v-188h129q34 0 66.5 -8q32.5 -8 58 -27.5q25.5 -19.5 41 -52q15.5 -32.5 15.5 -80.5v-26q0 -48 -15.5 -80.5q-15.5 -32.5 -41 -52q-25.5 -19.5 -58 -27.5q-32.5 -8 -66.5 -8z" />
<glyph unicode="&#1100;" horiz-adv-x="533" d="M182 266v-170h128q42 0 57 18q15 18 15 53v23q0 37 -17 56.5q-17 19.5 -71 19.5zM69 0v550h113v-188h133q34 0 66.5 -8q32.5 -8 58 -27.5q25.5 -19.5 41 -52q15.5 -32.5 15.5 -80.5v-26q0 -48 -15.5 -80.5q-15.5 -32.5 -41 -52q-25.5 -19.5 -58 -27.5q-32.5 -8 -66.5 -8z" />
<glyph unicode="&#1101;" horiz-adv-x="480" d="M32 94h195q45 0 68.5 25.5q23.5 25.5 23.5 67.5v42h-177q-20 0 -32 4.5q-12 4.5 -19 12.5q-7 8 -9 18.5q-2 10.5 -2 22.5v35h239v40q0 47 -23.5 71q-23.5 24 -68.5 24h-121q-24 0 -37.5 4.5q-13.5 4.5 -21 13q-7.5 8.5 -9.5 19q-2 10.5 -2 22.5v34h191q46 0 84 -13.5q38 -13.5 65.5 -38q27.5 -24.5 43 -59q15.5 -34.5 15.5 -77.5v-176q0 -43 -15.5 -77.5q-15.5 -34.5 -43 -58.5q-27.5 -24 -65.5 -37q-38 -13 -84 -13h-122q-24 0 -38.5 4.5q-14.5 4.5 -22 12.5q-7.5 8 -10 18q-2.5 10 -2.5 22z" />
<glyph unicode="&#1102;" horiz-adv-x="733" d="M473 564q111 0 163 -52q52 -52 52 -167v-139q0 -115 -51.5 -167.5q-51.5 -52.5 -163.5 -52.5q-109 0 -162 51.5q-53 51.5 -53 168.5v41h-78v-247h-49q-33 0 -47.5 14q-14.5 14 -14.5 48v488h111v-207h78v2q0 115 53 167q53 52 162 52zt0 0zM369 206q0 -29 4.5 -52q4.5 -23 16 -39.5q11.5 -16.5 31.5 -25q20 -8.5 52 -8.5q51 0 77 27q26 27 26 93v144q0 29 -4.5 52q-4.5 23 -15.5 39.5q-11 16.5 -31.5 25q-20.5 8.5 -51.5 8.5q-51 0 -77.5 -27q-26.5 -27 -26.5 -93z" />
<glyph unicode="&#1103;" horiz-adv-x="538" d="M32 0l127 199q-37 7 -61.5 22q-24.5 15 -39.5 35.5q-15 20.5 -21.5 44.5q-6.5 24 -6.5 50v31q0 48 15.5 80.5q15.5 32.5 40.5 52q25 19.5 57.5 27.5q32.5 8 66.5 8h258v-550h-51q-32 0 -47 14q-15 14 -15 49v130h-78l-93 -153q-16 -26 -31.5 -33q-15.5 -7 -38.5 -7zM143 361q0 -35 15 -53.5q15 -18.5 57 -18.5h140v164h-140q-42 0 -57 -18.5q-15 -18.5 -15 -53.5z" />
<glyph unicode="&#1105;" horiz-adv-x="549" d="M474 94v-40q0 -12 -2 -22q-2 -10 -9.5 -17q-7.5 -7 -21.5 -11q-14 -4 -38 -4h-153q-89 0 -142 48q-53 48 -53 131v186q0 53 17.5 91q17.5 38 47 62q29.5 24 69 35q39.5 11 83.5 11q48 0 88.5 -12q40.5 -12 70 -34.5q29.5 -22.5 46 -56.5q16.5 -34 16.5 -77v-72q0 -36 -21 -60q-21 -24 -66 -24h-235v-49q0 -41 23.5 -63q23.5 -22 55.5 -22zM171 322h190q7 0 12 5.5q5 5.5 5 14.5v42q0 39 -27 62.5q-27 23.5 -79 23.5q-46 0 -73.5 -23.5q-27.5 -23.5 -27.5 -62.5zM239 730v-119h-42q-17 0 -31.5 2.5q-14.5 2.5 -25 9.5q-10.5 7 -16.5 20.5q-6 13.5 -6 36.5v50zM437 730v-119h-42q-17 0 -31.5 2.5q-14.5 2.5 -25 9.5q-10.5 7 -16.5 20.5q-6 13.5 -6 36.5l0 50z" />
<glyph unicode="&#1025;" horiz-adv-x="602" d="M74 0v746h472v-34q0 -29 -12 -45q-12 -16 -52 -16h-291v-210h324v-36q0 -24 -11.5 -41q-11.5 -17 -51.5 -17h-261v-253h367v-36q0 -24 -12 -41q-12 -17 -51 -17zM482 930v-119h-42q-17 0 -31.5 2.5q-14.5 2.5 -25 9.5q-10.5 7 -16.5 20.5q-6 13.5 -6 36.5v50zM264 930v-119h-42q-17 0 -31.5 2.5q-14.5 2.5 -25 9.5q-10.5 7 -16.5 20.5q-6 13.5 -6 36.5l0 50z" />
<glyph unicode="&#8470;" horiz-adv-x="976" d="M174 540v-540h-41q-59 0 -59 65v681h100l290 -522v522h100v-746h-52q-23 0 -37.5 13q-14.5 13 -30.5 39zM658 97h309v-97h-252q-18 0 -29.5 2.5q-11.5 2.5 -17.5 9.5q-6 7 -8 19q-2 12 -2 30zM814 557q51 0 82.5 -11q31.5 -11 49.5 -33q18 -22 24 -55.5q6 -33.5 6 -79.5v-52q0 -46 -6 -79.5q-6 -33.5 -24 -56q-18 -22.5 -49.5 -33.5q-31.5 -11 -82.5 -11q-51 0 -83 10.5q-32 10.5 -50 33q-18 22.5 -24 56q-6 33.5 -6 80.5v52q0 46 6 79.5q6 33.5 24 55.5q18 22 50 33q32 11 83 11zt0 0zM874 373q0 21 -1 39q-1 18 -6.5 31.5q-5.5 13.5 -18 21.5q-12.5 8 -34.5 8q-40 0 -50 -25q-10 -25 -10 -75v-42q0 -50 10 -75.5q10 -25.5 50 -25.5q40 0 50 25q10 25 10 76z" />
<glyph unicode="&#8211;" horiz-adv-x="722" d="M66 345h579v-94l-579 0z" />
<glyph unicode="&#8212;" horiz-adv-x="759" d="M-10 345h779v-94l-779 0z" />
</font>
</defs>
</svg>
