<?xml version="1.0" encoding="UTF-8" standalone="no"?>
<!-- Generator: Adobe Illustrator 17.0.0, SVG Export Plug-In . SVG Version: 6.00 Build 0)  -->

<svg
   xmlns:dc="http://purl.org/dc/elements/1.1/"
   xmlns:cc="http://creativecommons.org/ns#"
   xmlns:rdf="http://www.w3.org/1999/02/22-rdf-syntax-ns#"
   xmlns:svg="http://www.w3.org/2000/svg"
   xmlns="http://www.w3.org/2000/svg"
   xmlns:sodipodi="http://sodipodi.sourceforge.net/DTD/sodipodi-0.dtd"
   xmlns:inkscape="http://www.inkscape.org/namespaces/inkscape"
   version="1.1"
   id="Layer_1"
   x="0px"
   y="0px"
   width="30.295px"
   height="17.696px"
   viewBox="19.851 16.672 30.295 17.696"
   enable-background="new 19.851 16.672 30.295 17.696"
   xml:space="preserve"
   inkscape:version="0.91 r13725"
   sodipodi:docname="arrow_back.svg"><metadata
     id="metadata13"><rdf:RDF><cc:Work
         rdf:about=""><dc:format>image/svg+xml</dc:format><dc:type
           rdf:resource="http://purl.org/dc/dcmitype/StillImage" /><dc:title></dc:title></cc:Work></rdf:RDF></metadata><defs
     id="defs11" /><sodipodi:namedview
     pagecolor="#ffffff"
     bordercolor="#666666"
     borderopacity="1"
     objecttolerance="10"
     gridtolerance="10"
     guidetolerance="10"
     inkscape:pageopacity="0"
     inkscape:pageshadow="2"
     inkscape:window-width="1920"
     inkscape:window-height="1030"
     id="namedview9"
     showgrid="false"
     inkscape:zoom="13.336348"
     inkscape:cx="15.1475"
     inkscape:cy="8.8479996"
     inkscape:window-x="0"
     inkscape:window-y="0"
     inkscape:window-maximized="1"
     inkscape:current-layer="Layer_1" /><g
     id="g3"
     transform="matrix(0,0.57902949,-0.56778165,0,39.515467,5.2570925)"><g
       transform="translate(-258,-146)"
       id="g5"><path
         d="m 292.998,174.221 10.804,-10.804 c 0.992,-0.992 2.601,-0.99 3.595,0.004 1.001,1.001 0.996,2.604 0.004,3.595 l -12.608,12.608 c -0.495,0.495 -1.144,0.743 -1.794,0.743 -0.654,0.002 -1.302,-0.248 -1.797,-0.743 l -12.608,-12.608 c -0.992,-0.992 -0.99,-2.601 0.004,-3.595 1.001,-1.001 2.604,-0.996 3.595,-0.004 l 10.805,10.804 0,0 z"
         id="path7"
         inkscape:connector-curvature="0"
         style="fill:#282828" /></g></g></svg>