<?xml version="1.0" encoding="utf-8"?>
<!-- Generator: Adobe Illustrator 17.0.0, SVG Export Plug-In . SVG Version: 6.00 Build 0)  -->
<!DOCTYPE svg PUBLIC "-//W3C//DTD SVG 1.1//EN" "http://www.w3.org/Graphics/SVG/1.1/DTD/svg11.dtd">
<svg version="1.1" id="Layer_1" xmlns="http://www.w3.org/2000/svg" xmlns:xlink="http://www.w3.org/1999/xlink" x="0px" y="0px"
	 width="18.24px" height="18.24px" viewBox="-54.015 9.648 18.24 18.24" enable-background="new -54.015 9.648 18.24 18.24"
	 xml:space="preserve">
<g>
	<path fill="#FFFFFF" d="M-35.775,13.008c0-1.848-1.512-3.36-3.36-3.36h-11.52c-1.848,0-3.36,1.512-3.36,3.36v11.52
		c0,1.848,1.512,3.36,3.36,3.36h11.52c1.848,0,3.36-1.512,3.36-3.36V13.008z M-36.735,13.008v5.28h-7.68v-7.68h5.28
		C-37.815,10.608-36.735,11.688-36.735,13.008z M-50.655,10.608h5.28v7.68h-7.68v-5.28C-53.055,11.688-51.975,10.608-50.655,10.608z
		 M-53.055,24.528v-5.28h7.68v7.68h-5.28C-51.975,26.928-53.055,25.848-53.055,24.528z M-39.135,26.928h-5.28v-7.68h7.68v5.28
		C-36.735,25.848-37.815,26.928-39.135,26.928z"/>
	<polygon fill="#FFFFFF" points="-47.199,22.128 -48.807,22.128 -48.807,20.544 -49.767,20.544 -49.767,22.128 -51.351,22.128 
		-51.351,23.088 -49.767,23.088 -49.767,24.696 -48.807,24.696 -48.807,23.088 -47.199,23.088 	"/>
	<rect x="-51.351" y="14.136" fill="#FFFFFF" width="4.152" height="0.96"/>
	<rect x="-42.807" y="23.568" fill="#FFFFFF" width="4.152" height="0.96"/>
	<rect x="-42.807" y="21.408" fill="#FFFFFF" width="4.152" height="0.96"/>
	<polygon fill="#FFFFFF" points="-42.543,15.744 -41.871,16.416 -40.719,15.288 -39.591,16.416 -38.919,15.744 -40.047,14.616 
		-38.919,13.488 -39.591,12.792 -40.719,13.92 -41.871,12.792 -42.543,13.488 -41.415,14.616 	"/>
</g>
</svg>
