<svg version="1.1" xmlns="http://www.w3.org/2000/svg" xmlns:xlink="http://www.w3.org/1999/xlink" style="enable-background:new 228.5 241 55 30;" xml:space="preserve" width="51" height="28"><rect id="backgroundrect" width="100%" height="100%" x="0" y="0" fill="none" stroke="none"/>

<g class="currentLayer" style=""><title>Layer 1</title><g id="svg_1" class="">
	
</g><path fill="" fill-opacity="1" stroke="none" stroke-opacity="1" style="color: rgb(0, 0, 0);" stroke-width="1" stroke-dasharray="none" stroke-linejoin="miter" stroke-linecap="butt" stroke-dashoffset="" fill-rule="nonzero" opacity="1" marker-start="" marker-mid="" marker-end="" id="svg_4" d="M1.98979,12.5714 L11.3469,1.38776"/><path fill="" fill-opacity="1" stroke="none" stroke-opacity="1" style="color: rgb(0, 0, 0);" stroke-width="1" stroke-dasharray="none" stroke-linejoin="miter" stroke-linecap="butt" stroke-dashoffset="" fill-rule="nonzero" opacity="1" marker-start="" marker-mid="" marker-end="" id="svg_5" d="M12.275508552789688,1.2244892418384552 "/><path fill="#f4f4f4" fill-opacity="1" stroke="#f4f4f4" stroke-opacity="1" style="color: rgb(0, 0, 0);" stroke-width="1" stroke-dasharray="none" stroke-linejoin="miter" stroke-linecap="butt" stroke-dashoffset="" fill-rule="nonzero" opacity="1" marker-start="" marker-mid="" marker-end="" id="svg_6" d="M12.0306,0.897959 L30.7755,1.06122 L33.4694,2.28571 L39.7551,10.2857 L47.6735,12.3265 L50.0408,15.8367 L49.8776,19.7551 L48.4898,21.2245 L44.7347,21.2245 L44.0816,18.8571 L41.8776,16.4082 L38.3673,15.7551 L35.7551,16.6531 L34.0408,19.1837 L33.3061,21.6327 L18.1224,21.3878 L15.7551,16.2449 L12.1633,15.2653 L9.22449,16.5714 L7.18367,19.1837 L6.44898,21.7959 L2.85714,21.4694 L0.653061,14.0408 L10.6122,1.55102 L12.0306,0.897959 z"/><path fill="#f4f4f4" fill-opacity="1" stroke="#f4f4f4" stroke-opacity="1" style="color: rgb(0, 0, 0);" stroke-width="1" stroke-dasharray="none" stroke-linejoin="miter" stroke-linecap="butt" stroke-dashoffset="" fill-rule="nonzero" opacity="1" marker-start="" marker-mid="" marker-end="" id="svg_8" d="M7.21428,22.0408 L8.16327,17.8776 L12.4898,15.8367 L16.0816,17.2245 L17.8776,21.7143 L16.8163,24.0816 L13.9592,26.5306 L9.95918,26.6122 L8,24.5714 L7.10204,23.2653 L7.21428,22.0408 z"/><path fill="#f4f4f4" fill-opacity="1" stroke="#f4f4f4" stroke-opacity="1" style="color: rgb(0, 0, 0);" stroke-width="1" stroke-dasharray="none" stroke-linejoin="miter" stroke-linecap="butt" stroke-dashoffset="" fill-rule="nonzero" opacity="1" marker-start="" marker-mid="" marker-end="" id="svg_10" d="M33.7449,21.8776 L34.449,18.8571 L36.0816,16.898 L38.5306,16.1633 L41.8776,16.7347 L43.6735,18.6122 L44.4082,21.7959 L43.5918,24.5714 L40.4898,26.7755 L37.7143,26.6122 L35.7551,25.4694 L34.2857,23.9184 L33.7449,21.8776 z"/></g><g id="svg_2">
		<path fill="#113a72" d="M50.81390380859375,14.7642822265625 c-0.367000013589859,-2.806999921798706 -4.372000217437744,-3.697999954223633 -7.590000152587891,-4.414000034332275 l-0.22200000286102295,-0.04899999871850014 c-0.7570000290870667,-0.16899999976158142 -1.472000002861023,-0.328000009059906 -2.0769999027252197,-0.5009999871253967 c-1.2209999561309814,-0.3479999899864197 -2.6480000019073486,-2.509999990463257 -4.0289998054504395,-4.603000164031982 c-1.7769999504089355,-2.691999912261963 -3.9509999752044678,-4.618000030517578 -5.673999786376953,-5.025000095367432 c-0.48100000619888306,-0.11400000005960464 -1.215999960899353,-0.17100000381469727 -2.183000087738037,-0.17100000381469727 c-4.318999767303467,0 -16.135000228881836,0.12600000202655792 -17.152999877929688,0.2840000092983246 c-1.159999966621399,0.1550000011920929 -3.8310000896453857,2.7639999389648438 -8.163999557495117,7.974999904632568 l-0.3659999966621399,0.4399999976158142 c-2.049999952316284,2.4820001125335693 -3.2869999408721924,3.9790000915527344 -3.3570001125335693,5.675000190734863 c-0.0560000017285347,1.4019999504089355 1.659000039100647,7.186999797821045 2.177999973297119,7.7270002365112305 c0.47099998593330383,0.4909999966621399 1.1089999675750732,0.7609999775886536 1.7940000295639038,0.7609999775886536 h2.443000078201294 c0.6000000238418579,2.9179999828338623 3.0820000171661377,5.11299991607666 6.046000003814697,5.11299991607666 c2.9779999256134033,0 5.4710001945495605,-2.2149999141693115 6.056000232696533,-5.1529998779296875 h14.609000205993652 c0.5860000252723694,2.937999963760376 3.078000068664551,5.1529998779296875 6.057000160217285,5.1529998779296875 c3.002000093460083,0 5.508999824523926,-2.25 6.068999767303467,-5.2230000495910645 c0.10000000149011612,0 0.20200000703334808,0.0020000000949949026 0.3019999861717224,0.0010000000474974513 c0.12200000137090683,-0.0010000000474974513 0.24400000274181366,-0.003000000026077032 0.36500000953674316,-0.003000000026077032 c1.0190000534057617,0 2.4790000915527344,-0.05700000002980232 3.4189999103546143,-0.5569999814033508 C50.8529052734375,21.05126953125 51.3218994140625,18.690277099609375 50.81390380859375,14.7642822265625 zM12.45989990234375,26.457275390625 c-2.5889999866485596,0 -4.695000171661377,-2.2239999771118164 -4.695000171661377,-4.959000110626221 c0,-2.7339999675750732 2.1059999465942383,-4.958000183105469 4.695000171661377,-4.958000183105469 c2.5889999866485596,0 4.695000171661377,2.2239999771118164 4.695000171661377,4.958000183105469 C17.155899047851562,24.2332763671875 15.048904418945312,26.457275390625 12.45989990234375,26.457275390625 zM39.181915283203125,26.457275390625 c-2.5889999866485596,0 -4.696000099182129,-2.2239999771118164 -4.696000099182129,-4.959000110626221 c0,-2.7339999675750732 2.1070001125335693,-4.958000183105469 4.696000099182129,-4.958000183105469 c2.5889999866485596,0 4.696000099182129,2.2239999771118164 4.696000099182129,4.958000183105469 C43.877899169921875,24.2332763671875 41.770904541015625,26.457275390625 39.181915283203125,26.457275390625 zM48.606903076171875,20.870269775390625 c-0.47699999809265137,0.24400000274181366 -1.3639999628067017,0.3630000054836273 -2.7100000381469727,0.3630000054836273 c-0.15199999511241913,0 -0.2980000078678131,0.0010000000474974513 -0.43299999833106995,0.0020000000949949026 c-0.03999999910593033,0 -0.0689999982714653,0 -0.1080000028014183,0 c-0.13300000131130219,-3.4489998817443848 -2.8480000495910645,-6.214000225067139 -6.175000190734863,-6.214000225067139 c-3.3499999046325684,0 -6.078999996185303,2.802000045776367 -6.177999973297119,6.2829999923706055 h-14.364999771118164 c-0.0989999994635582,-3.4809999465942383 -2.8289999961853027,-6.2829999923706055 -6.177999973297119,-6.2829999923706055 c-3.361999988555908,0 -6.099999904632568,2.822999954223633 -6.178999900817871,6.322999954223633 h-2.302999973297119 c-0.28999999165534973,0 -0.5440000295639038,-0.10499999672174454 -0.7310000061988831,-0.30000001192092896 c-0.24300000071525574,-0.3179999887943268 -1.8109999895095825,-5.291999816894531 -1.7569999694824219,-6.60699987411499 c0.04600000008940697,-1.1319999694824219 0.9449999928474426,-2.2639999389648438 3.1579999923706055,-4.943999767303467 c2.759999990463257,-3.3459999561309814 6.6539998054504395,-7.521999835968018 7.35099983215332,-7.689000129699707 c0.8109999895095825,-0.19599999487400055 9.243000030517578,-0.3720000088214874 17.084999084472656,-0.2930000126361847 c0.8769999742507935,0.008999999612569809 1.4320000410079956,0.052000001072883606 1.8009999990463257,0.13899999856948853 c1.2660000324249268,0.29899999499320984 3.316999912261963,2.187000036239624 4.7729997634887695,4.390999794006348 c1.6019999980926514,2.427000045776367 3.115000009536743,4.71999979019165 4.864999771118164,5.218999862670898 c0.6389999985694885,0.18299999833106995 1.3760000467300415,0.34700000286102295 2.1589999198913574,0.5220000147819519 l0.27799999713897705,0.06199999898672104 c2.5950000286102295,0.5770000219345093 6.1479997634887695,1.3669999837875366 6.376999855041504,3.11899995803833 C49.868896484375,19.086273193359375 49.01690673828125,20.461273193359375 48.606903076171875,20.870269775390625 zM34.822906494140625,9.7332763671875 h-17.805999755859375 c-0.41100001335144043,0 -0.7459999918937683,0.3409999907016754 -0.7459999918937683,0.7590000033378601 c0,0.4189999997615814 0.33399999141693115,0.7590000033378601 0.7459999918937683,0.7590000033378601 h17.805999755859375 c0.41100001335144043,0 0.7459999918937683,-0.3400000035762787 0.7459999918937683,-0.7590000033378601 C35.56890869140625,10.073287963867188 35.233917236328125,9.7332763671875 34.822906494140625,9.7332763671875 z" id="svg_3"/>
	</g></svg>