<?xml version="1.0" encoding="utf-8"?>
<!-- Generator: Adobe Illustrator 17.0.0, SVG Export Plug-In . SVG Version: 6.00 Build 0)  -->
<!DOCTYPE svg PUBLIC "-//W3C//DTD SVG 1.1//EN" "http://www.w3.org/Graphics/SVG/1.1/DTD/svg11.dtd">
<svg version="1.1" id="Layer_1" xmlns="http://www.w3.org/2000/svg" xmlns:xlink="http://www.w3.org/1999/xlink" x="0px" y="0px"
	 width="24.814px" height="13.835px" viewBox="0 0 24.814 13.835" enable-background="new 0 0 24.814 13.835" xml:space="preserve">
<g>
	<path fill="#FFFFFF" d="M24.719,7.255c-0.197-1.513-2.202-1.958-3.813-2.316l-0.121-0.027c-0.35-0.078-0.68-0.152-0.959-0.231
		c-0.49-0.14-1.172-1.171-1.78-2.091c-0.88-1.334-1.974-2.292-2.854-2.5C14.943,0.029,14.584,0,14.092,0
		c-1.826,0-7.685,0.056-8.208,0.138c-0.427,0.057-1.274,0.55-4.052,3.89L1.654,4.241C0.646,5.462,0.037,6.2,0.001,7.091
		c-0.027,0.683,0.791,3.538,1.108,3.868c0.272,0.282,0.64,0.438,1.035,0.438h0.967c0.384,1.425,1.648,2.438,3.079,2.438
		c1.441,0,2.708-1.021,3.085-2.456h6.566c0.378,1.435,1.645,2.456,3.085,2.456c1.457,0,2.728-1.035,3.095-2.49l0.116-0.001
		c0.513,0,1.251-0.03,1.78-0.315C24.719,10.424,24.974,9.225,24.719,7.255z M18.926,8.384c1.097,0,1.988,0.947,1.988,2.112
		s-0.892,2.113-1.988,2.113s-1.988-0.948-1.988-2.113S17.83,8.384,18.926,8.384z M6.19,8.384c1.096,0,1.988,0.947,1.988,2.112
		c0,0.566-0.208,1.099-0.587,1.499c-0.375,0.396-0.873,0.614-1.4,0.614c-1.096,0-1.987-0.948-1.987-2.113S5.094,8.384,6.19,8.384z
		 M23.269,9.991c-0.147,0.062-0.464,0.129-1.142,0.129h-0.024c-0.181-1.678-1.534-2.959-3.177-2.959c-1.66,0-3.015,1.296-3.18,2.994
		H9.369C9.206,8.457,7.851,7.16,6.19,7.16c-1.643,0-3.022,1.331-3.181,3.014H2.147c-0.068,0-0.125-0.022-0.14-0.033
		c-0.134-0.236-0.818-2.455-0.796-3c0.019-0.457,0.458-1.007,1.449-2.207c1.446-1.753,3.095-3.465,3.37-3.581
		c0.276-0.067,2.979-0.142,6.183-0.142c0.629,0,1.268,0.003,1.9,0.009c0.389,0.003,0.644,0.022,0.802,0.059
		c0.474,0.112,1.396,0.886,2.123,1.987c0.79,1.197,1.536,2.327,2.461,2.591c0.285,0.082,0.612,0.156,0.961,0.234l0.213,0.047
		c1.033,0.229,2.761,0.613,2.847,1.274C23.755,9.239,23.396,9.841,23.269,9.991z"/>
	<path fill="#FFFFFF" d="M16.849,4.639H8.362c-0.333,0-0.605,0.274-0.605,0.612s0.271,0.612,0.605,0.612h8.488
		c0.334,0,0.605-0.274,0.605-0.612S17.183,4.639,16.849,4.639z"/>
</g>
</svg>
