<?xml version="1.0" encoding="utf-8"?>
<!-- Generator: Adobe Illustrator 17.0.0, SVG Export Plug-In . SVG Version: 6.00 Build 0)  -->
<!DOCTYPE svg PUBLIC "-//W3C//DTD SVG 1.1//EN" "http://www.w3.org/Graphics/SVG/1.1/DTD/svg11.dtd">
<svg version="1.1" id="Layer_1" xmlns="http://www.w3.org/2000/svg" xmlns:xlink="http://www.w3.org/1999/xlink" x="0px" y="0px"
	 width="24.814px" height="21.717px" viewBox="0 0 24.814 21.717" enable-background="new 0 0 24.814 21.717" xml:space="preserve">
<g>
	<path fill="#FFFFFF" d="M24.719,15.137c-0.197-1.513-2.202-1.958-3.813-2.316l-0.121-0.027c-0.35-0.078-0.68-0.152-0.959-0.231
		c-0.49-0.14-1.172-1.171-1.78-2.091c-0.88-1.334-1.974-2.292-2.854-2.5c-0.248-0.06-0.607-0.089-1.099-0.089
		c-1.826,0-7.685,0.056-8.208,0.138c-0.427,0.057-1.274,0.55-4.052,3.89l-0.178,0.214c-1.009,1.221-1.618,1.958-1.654,2.85
		c-0.027,0.683,0.791,3.538,1.108,3.868c0.272,0.282,0.64,0.438,1.035,0.438h0.967c0.384,1.425,1.648,2.438,3.079,2.438
		c1.441,0,2.708-1.021,3.085-2.456h6.566c0.378,1.435,1.645,2.456,3.085,2.456c1.457,0,2.728-1.035,3.095-2.49l0.116-0.001
		c0.513,0,1.251-0.03,1.78-0.315C24.719,18.306,24.974,17.107,24.719,15.137z M18.926,16.266c1.097,0,1.988,0.947,1.988,2.112
		s-0.892,2.113-1.988,2.113s-1.988-0.948-1.988-2.113S17.83,16.266,18.926,16.266z M6.19,16.266c1.096,0,1.988,0.947,1.988,2.112
		c0,0.566-0.208,1.099-0.587,1.499c-0.375,0.396-0.873,0.614-1.4,0.614c-1.096,0-1.987-0.948-1.987-2.113S5.094,16.266,6.19,16.266z
		 M23.269,17.873c-0.147,0.062-0.464,0.129-1.142,0.129h-0.024c-0.181-1.678-1.534-2.959-3.177-2.959
		c-1.66,0-3.015,1.296-3.18,2.994H9.369c-0.164-1.697-1.518-2.994-3.18-2.994c-1.643,0-3.022,1.331-3.181,3.014H2.147
		c-0.068,0-0.125-0.022-0.14-0.033c-0.134-0.236-0.818-2.455-0.796-3c0.019-0.457,0.458-1.007,1.449-2.207
		c1.446-1.753,3.095-3.465,3.37-3.581c0.276-0.067,2.979-0.142,6.183-0.142c0.629,0,1.268,0.003,1.9,0.009
		c0.389,0.003,0.644,0.022,0.802,0.059c0.474,0.112,1.396,0.886,2.123,1.987c0.79,1.197,1.536,2.327,2.461,2.591
		c0.285,0.082,0.612,0.156,0.961,0.234l0.213,0.047c1.033,0.229,2.761,0.613,2.847,1.274C23.755,17.121,23.396,17.723,23.269,17.873
		z"/>
	<path fill="#FFFFFF" d="M16.849,12.521H8.362c-0.333,0-0.605,0.274-0.605,0.612s0.271,0.612,0.605,0.612h8.488
		c0.334,0,0.605-0.274,0.605-0.612S17.183,12.521,16.849,12.521z"/>
</g>
<path fill="#FFFFFF" d="M24.009,3.732h-3.232V0.5c0-0.276-0.224-0.5-0.5-0.5s-0.5,0.224-0.5,0.5v3.232h-3.232
	c-0.276,0-0.5,0.224-0.5,0.5s0.224,0.5,0.5,0.5h3.232v3.232c0,0.276,0.224,0.5,0.5,0.5s0.5-0.224,0.5-0.5V4.732h3.232
	c0.276,0,0.5-0.224,0.5-0.5S24.285,3.732,24.009,3.732z"/>
</svg>
