<?xml version="1.0" encoding="utf-8"?>
<!-- Generator: Adobe Illustrator 17.0.0, SVG Export Plug-In . SVG Version: 6.00 Build 0)  -->
<!DOCTYPE svg PUBLIC "-//W3C//DTD SVG 1.1//EN" "http://www.w3.org/Graphics/SVG/1.1/DTD/svg11.dtd">
<svg version="1.1" id="Layer_1" xmlns="http://www.w3.org/2000/svg" xmlns:xlink="http://www.w3.org/1999/xlink" x="0px" y="0px"
	 width="49.129px" height="34.472px" viewBox="-106.862 -32.239 49.129 34.472"
	 enable-background="new -106.862 -32.239 49.129 34.472" xml:space="preserve">
<path fill="#FFFFFF" d="M-88.429,2.233c-0.989,0-1.988-0.409-2.673-1.095l-14.672-14.672c-1.449-1.449-1.449-3.898,0-5.348
	c0.706-0.706,1.655-1.094,2.674-1.094s1.968,0.389,2.673,1.094l11.999,11.998l24.262-24.262c0.706-0.705,1.655-1.094,2.674-1.094
	c1.019,0,1.968,0.389,2.674,1.094c1.449,1.449,1.449,3.898,0,5.348L-85.755,1.138C-86.461,1.845-87.411,2.233-88.429,2.233z"/>
</svg>
