<?xml version="1.0" encoding="iso-8859-1"?>
<!-- Generator: Adobe Illustrator 17.1.0, SVG Export Plug-In . SVG Version: 6.00 Build 0)  -->
<!DOCTYPE svg PUBLIC "-//W3C//DTD SVG 1.1//EN" "http://www.w3.org/Graphics/SVG/1.1/DTD/svg11.dtd">
<svg version="1.1" id="&#x421;&#x43B;&#x43E;&#x439;_1"
	 xmlns="http://www.w3.org/2000/svg" xmlns:xlink="http://www.w3.org/1999/xlink" x="0px" y="0px" viewBox="106 106 300 300"
	 style="enable-background:new 106 106 300 300;" xml:space="preserve">
<path style="stroke:#ffffff;stroke-width:10;stroke-miterlimit:10;" fill="#ffffff" d="M160.58,230.898c0.017-0.137,0.068-0.239,0.068-0.376
	V125.187c0-2.645-2.15-4.796-4.796-4.796c-2.645,0-4.795,2.15-4.795,4.796v105.336c0,0.137,0.068,0.239,0.068,0.376
	c-16.247,2.304-28.808,16.265-28.808,33.143s12.561,30.839,28.808,33.144c-0.017,0.136-0.068,0.239-0.068,0.375v86.186
	c0,2.646,2.133,4.796,4.795,4.796c2.646,0,4.796-2.15,4.796-4.796V297.56c0-0.137-0.068-0.239-0.068-0.375
	c16.247-2.304,28.809-16.265,28.809-33.144S176.828,233.202,160.58,230.898z M155.87,287.985c-13.192,0-23.944-10.735-23.944-23.944
	c0-13.193,10.735-23.945,23.944-23.945c13.193,0,23.945,10.735,23.945,23.945S169.08,287.985,155.87,287.985z"/>
<path style="stroke:#ffffff;stroke-width:10;stroke-miterlimit:10;" fill="#ffffff" d="M260.711,293.14c0.017-0.137,0.068-0.239,0.068-0.375
	V125.187c0-2.645-2.134-4.796-4.796-4.796c-2.646,0-4.796,2.15-4.796,4.796v167.578c0,0.137,0.068,0.239,0.068,0.375
	c-16.248,2.304-28.809,16.265-28.809,33.144s12.561,30.839,28.809,33.143c-0.017,0.137-0.068,0.239-0.068,0.375v23.945
	c0,2.646,2.133,4.796,4.796,4.796c2.646,0,4.796-2.15,4.796-4.796v-23.945c0-0.136-0.068-0.238-0.068-0.375
	c16.247-2.304,28.809-16.264,28.809-33.143S276.958,295.444,260.711,293.14z M256,350.227c-13.192,0-23.944-10.734-23.944-23.943
	c0-13.193,10.735-23.945,23.944-23.945c13.192,0,23.944,10.734,23.944,23.945C279.944,339.493,269.192,350.227,256,350.227z"/>
<path style="stroke:#ffffff;stroke-width:10;stroke-miterlimit:10;" fill="#ffffff" d="M389.649,192.224c0-16.879-12.561-30.839-28.809-33.143
	c0.017-0.137,0.068-0.239,0.068-0.376v-33.519c0-2.645-2.134-4.796-4.796-4.796c-2.645,0-4.796,2.15-4.796,4.796v33.519
	c0,0.136,0.068,0.239,0.068,0.376c-16.247,2.304-28.809,16.264-28.809,33.143s12.562,30.84,28.809,33.144
	c-0.017,0.137-0.068,0.239-0.068,0.376v158.003c0,2.646,2.134,4.796,4.796,4.796c2.646,0,4.796-2.15,4.796-4.796V225.743
	c0-0.136-0.068-0.239-0.068-0.376C377.088,223.064,389.649,209.104,389.649,192.224z M356.13,216.169
	c-13.192,0-23.944-10.735-23.944-23.945c0-13.192,10.735-23.944,23.944-23.944c13.193,0,23.945,10.735,23.945,23.944
	C380.075,205.417,369.323,216.169,356.13,216.169z"/>
</svg>
