<?xml version="1.0" encoding="iso-8859-1"?>
<!-- Generator: Adobe Illustrator 17.1.0, SVG Export Plug-In . SVG Version: 6.00 Build 0)  -->
<!DOCTYPE svg PUBLIC "-//W3C//DTD SVG 1.1//EN" "http://www.w3.org/Graphics/SVG/1.1/DTD/svg11.dtd">
<svg version="1.1" id="&#x421;&#x43B;&#x43E;&#x439;_1"
	 xmlns="http://www.w3.org/2000/svg" xmlns:xlink="http://www.w3.org/1999/xlink" x="0px" y="0px" viewBox="0 0 44 50"
	 style="enable-background:new 0 0 44 50;" xml:space="preserve">
<g>
	<g>
		<path style="fill:#62605E;" d="M34.877,4.865h-24.33c-0.972,0-2.011,0.485-2.845,1.33c-1.075,1.083-4.388,4.583-5.463,5.737
			c-0.602,0.648-1.244,1.753-1.244,2.912v30.833c0,2.107,1.703,3.82,3.793,3.82h30.089c2.093,0,3.795-1.714,3.795-3.82V8.687
			C38.673,6.579,36.97,4.865,34.877,4.865z M37.104,45.678c0,1.235-0.998,2.24-2.227,2.24H4.788c-1.228,0-2.224-1.005-2.224-2.24
			V14.844c0-0.567,0.329-1.303,0.819-1.831c1.069-1.147,4.362-4.627,5.429-5.7c0.536-0.543,1.185-0.867,1.735-0.867h24.33
			c1.229,0,2.227,1.005,2.227,2.241V45.678z M7.537,17.964h24.592c0.434,0,0.785-0.353,0.785-0.79c0-0.437-0.351-0.79-0.785-0.79
			H7.537c-0.434,0-0.785,0.354-0.785,0.79C6.752,17.611,7.102,17.964,7.537,17.964z M32.914,22.763c0-0.437-0.351-0.79-0.785-0.79
			H7.537c-0.434,0-0.785,0.354-0.785,0.79s0.351,0.79,0.785,0.79h24.592C32.563,23.554,32.914,23.2,32.914,22.763z M19.471,12.376
			h12.297c0.433,0,0.785-0.353,0.785-0.791c0-0.436-0.352-0.789-0.785-0.789H19.471c-0.434,0-0.785,0.353-0.785,0.789
			C18.686,12.023,19.037,12.376,19.471,12.376z M39.21,0.502H14.88c-0.433,0-0.785,0.353-0.785,0.79
			c0,0.437,0.352,0.791,0.785,0.791h24.33c1.228,0,2.227,1.005,2.227,2.239v36.991c0,0.436,0.351,0.791,0.784,0.791
			c0.434,0,0.785-0.354,0.785-0.791V4.322C43.006,2.216,41.302,0.502,39.21,0.502z M25.435,31.451c-2.284,0-4.143,1.872-4.143,4.173
			c0,2.302,1.858,4.175,4.143,4.175c2.284,0,4.142-1.872,4.142-4.175C29.577,33.323,27.719,31.451,25.435,31.451z M25.435,38.489
			c-1.567,0-2.843-1.285-2.843-2.865c0-1.579,1.276-2.864,2.843-2.864c1.567,0,2.842,1.285,2.842,2.864
			C28.277,37.204,27.002,38.489,25.435,38.489z M32.851,35.589l0.002-0.003c0.193-0.259,0.339-0.546,0.433-0.851
			c0.219-0.713,0.149-1.468-0.195-2.129c-0.346-0.659-0.925-1.145-1.674-1.426c0.01-0.734-0.277-1.455-0.791-1.983
			c-0.752-0.756-1.848-1.017-2.93-0.703c-0.179-0.254-0.399-0.476-0.656-0.661c-1.246-0.892-2.98-0.594-3.94,0.686
			c-1.011-0.338-2.103-0.076-2.86,0.686c-0.511,0.525-0.796,1.247-0.827,2.039c-0.305,0.095-0.59,0.242-0.846,0.435
			c-0.591,0.448-0.975,1.102-1.079,1.841c-0.104,0.739,0.084,1.474,0.529,2.142c-0.192,0.257-0.338,0.544-0.432,0.851
			c-0.219,0.713-0.15,1.468,0.194,2.129c0.346,0.66,0.925,1.145,1.675,1.425c-0.011,0.744,0.268,1.447,0.79,1.985
			c0.75,0.754,1.844,1.015,2.928,0.706c0.181,0.257,0.401,0.479,0.655,0.66c0.475,0.341,1.029,0.517,1.6,0.517
			c0.156,0,0.312-0.013,0.469-0.04c0.73-0.124,1.368-0.528,1.874-1.161c1.007,0.336,2.101,0.074,2.86-0.686
			c0.515-0.533,0.794-1.236,0.827-2.039c0.304-0.095,0.589-0.241,0.845-0.435c0.591-0.447,0.975-1.101,1.079-1.84
			c0.104-0.739-0.084-1.474-0.529-2.07C32.835,35.64,32.835,35.61,32.851,35.589z M32.008,37.503
			c-0.059,0.417-0.274,0.785-0.607,1.036c-0.144,0.109-0.305,0.192-0.476,0.245c-0.496,0.154-0.838,0.627-0.829,1.15
			c0.006,0.417-0.151,0.811-0.434,1.105c-0.428,0.428-1.047,0.577-1.624,0.386c-0.487-0.16-1.024,0.014-1.333,0.442
			c-0.241,0.342-0.601,0.57-1.011,0.641c-0.414,0.065-0.826-0.026-1.165-0.269c-0.143-0.103-0.266-0.227-0.371-0.376
			c-0.228-0.318-0.588-0.495-0.96-0.495c-0.124,0-0.25,0.019-0.372,0.059c-0.574,0.189-1.191,0.04-1.613-0.383
			c-0.29-0.299-0.447-0.693-0.44-1.114c0.004-0.525-0.327-0.985-0.829-1.146c-0.399-0.124-0.725-0.397-0.919-0.769
			c-0.194-0.372-0.233-0.797-0.109-1.199c0.053-0.173,0.135-0.334,0.243-0.481c0.31-0.418,0.31-1.002-0.001-1.422
			c-0.25-0.335-0.356-0.75-0.297-1.166c0.059-0.417,0.274-0.784,0.608-1.037c0.144-0.109,0.303-0.191,0.476-0.245
			c0.496-0.155,0.837-0.628,0.828-1.151c-0.007-0.417,0.15-0.81,0.436-1.104c0.426-0.429,1.053-0.575,1.622-0.385
			c0.496,0.161,1.028-0.016,1.332-0.443c0.499-0.708,1.474-0.874,2.176-0.373c0.145,0.105,0.27,0.23,0.375,0.379
			c0.304,0.421,0.84,0.597,1.331,0.433c0.569-0.188,1.195-0.043,1.615,0.382c0.286,0.293,0.447,0.698,0.441,1.108
			c-0.008,0.523,0.332,0.996,0.829,1.152c0.397,0.124,0.724,0.397,0.918,0.769c0.194,0.372,0.234,0.798,0.11,1.199
			c-0.052,0.172-0.135,0.333-0.234,0.466l-0.012,0.016c-0.312,0.419-0.312,1.004,0,1.423C31.961,36.673,32.067,37.087,32.008,37.503
			z"/>
	</g>
</g>
</svg>
