<?xml version="1.0" encoding="utf-8"?>
<!-- Generator: Adobe Illustrator 17.1.0, SVG Export Plug-In . SVG Version: 6.00 Build 0)  -->
<!DOCTYPE svg PUBLIC "-//W3C//DTD SVG 1.1//EN" "http://www.w3.org/Graphics/SVG/1.1/DTD/svg11.dtd">
<svg version="1.1" id="Layer_1" xmlns="http://www.w3.org/2000/svg" xmlns:xlink="http://www.w3.org/1999/xlink" x="0px" y="0px"
	 viewBox="0 0 512 512" enable-background="new 0 0 512 512" xml:space="preserve">
<path fill="#2b2b2b" d="M277.8,21.1l60.3,124.1c3.6,7.3,10.4,12.4,18.3,13.6l134.8,19.9c19.9,2.9,27.9,27.8,13.5,42.1l-97.6,96.6
	c-5.7,5.7-8.3,13.8-7,21.9l23,136.4c3.4,20.2-17.4,35.6-35.3,26.1l-120.5-64.4c-7.1-3.8-15.5-3.8-22.6,0l-120.6,64.4
	c-17.8,9.5-38.7-5.9-35.3-26.1l23-136.4c1.3-8-1.3-16.2-7-21.9L7.4,220.8c-14.4-14.3-6.4-39.2,13.5-42.1l134.8-19.9
	c7.9-1.2,14.7-6.2,18.2-13.6l60.3-124.1C243.1,2.8,268.9,2.8,277.8,21.1z"/>
</svg>
