<?xml version="1.0" encoding="utf-8"?>
<!-- Generator: Adobe Illustrator 17.0.0, SVG Export Plug-In . SVG Version: 6.00 Build 0)  -->
<!DOCTYPE svg PUBLIC "-//W3C//DTD SVG 1.1//EN" "http://www.w3.org/Graphics/SVG/1.1/DTD/svg11.dtd">
<svg version="1.1" id="Layer_1" xmlns="http://www.w3.org/2000/svg" xmlns:xlink="http://www.w3.org/1999/xlink" x="0px" y="0px"
	 width="15.507px" height="15.505px" viewBox="7.047 4.049 15.507 15.505" enable-background="new 7.047 4.049 15.507 15.505"
	 xml:space="preserve">
<path fill="#FFFFFF" d="M13.992,4.049c-3.835-0.001-6.944,3.107-6.945,6.942c-0.001,3.835,3.107,6.944,6.942,6.945
	c1.678,0,3.299-0.607,4.563-1.709l3.182,3.187c0.188,0.188,0.492,0.188,0.679,0s0.188-0.492,0-0.679l-3.187-3.185
	c2.52-2.887,2.222-7.27-0.665-9.79C17.296,4.655,15.672,4.047,13.992,4.049z M8.009,10.992c-0.002-3.304,2.675-5.985,5.979-5.987
	s5.985,2.675,5.987,5.979c0.001,1.575-0.619,3.087-1.726,4.208l-0.031,0.026l-0.026,0.031c-2.35,2.321-6.137,2.297-8.458-0.053
	C8.628,14.077,8.008,12.566,8.009,10.992z"/>
<path fill="#FFFFFF" d="M15.938,10.512h-1.466V9.048c0-0.265-0.215-0.48-0.48-0.48s-0.48,0.215-0.48,0.48v1.464h-1.464
	c-0.265,0-0.48,0.215-0.48,0.48s0.215,0.48,0.48,0.48h1.464v1.464c0,0.265,0.215,0.48,0.48,0.48s0.48-0.215,0.48-0.48v-1.464h1.464
	c0.265,0,0.48-0.215,0.48-0.48s-0.215-0.48-0.48-0.48H15.938z"/>
</svg>
