<?xml version="1.0" standalone="no"?>
<!DOCTYPE svg PUBLIC "-//W3C//DTD SVG 1.1//EN" "http://www.w3.org/Graphics/SVG/1.1/DTD/svg11.dtd" >
<svg xmlns="http://www.w3.org/2000/svg">
<metadata>
Generated by SVGconv.
Copyright   : Copyright  2011 Hyundai Motor Company and YoonDesign Inc. All rights reserved.
Designer    : YoonDesign Inc.
Foundry     : YoonDesign Inc.
Foundry URL : http://www.yoonfont.co.kr
</metadata>
<defs>
<font id="RUSModernH-EcoLight" horiz-adv-x="570" >
<font-face units-per-em="1000" ascent="1050" descent="350" />
<missing-glyph horiz-adv-x="920" />
<glyph unicode="&#13;" horiz-adv-x="300" />
<glyph unicode="&#32;" horiz-adv-x="300" />
<glyph unicode="&#33;" horiz-adv-x="292" d="M125 232l-19 538h80l-17 -538zM181 0h-71v88l71 0z" />
<glyph unicode="&#34;" horiz-adv-x="360" d="M139 781q-3 -63 -7 -124.5q-4 -61.5 -7 -124.5l-14 0q-12 0 -17.5 8q-5.5 8 -6.5 18l-13 223zM273 781q-3 -63 -7 -124.5q-4 -61.5 -7 -124.5l-13 0q-12 0 -18 8.5q-6 8.5 -7 17.5l-12 223z" />
<glyph unicode="&#35;" horiz-adv-x="697" d="M28 269h132l38 232h-116v46h124l36 213h57l-35 -213h226l35 213h58l-35 -213h119v-30q0 -16 -18 -16h-109l-37 -232h109v-30q0 -16 -18 -16h-99l-35 -211q-4 -26 -22 -26h-40l38 237h-226l-34 -211q-4 -26 -22 -26h-40l38 237h-124zM218 269h226l37 232l-225 0z" />
<glyph unicode="&#36;" horiz-adv-x="526" d="M297 790v-73h165v-14q0 -20 -10 -24q-10 -4 -32 -4h-123v-279l48 -21q41 -18 68.5 -37q27.5 -19 44.5 -41q17 -22 24 -46.5q7 -24.5 7 -52.5q0 -44 -16.5 -74.5q-16.5 -30.5 -43.5 -50q-27 -19.5 -61.5 -29q-34.5 -9.5 -70.5 -12.5l0 -75h-37q-12 0 -16 6q-4 6 -4 20v47h-199v14q0 15 9 21q9 6 35 6h155v299l-65 28q-63 27 -97.5 65.5q-34.5 38.5 -34.5 94.5q0 72 47.5 113q47.5 41 149.5 45l0 74zM431 197q0 40 -26 76.5q-26 36.5 -98 65.5l-10 4v-269q71 8 102.5 39.5q31.5 31.5 31.5 83.5zt0 0zM103 558q0 -24 7.5 -42q7.5 -18 21.5 -31.5q14 -13.5 35.5 -25.5q21.5 -12 48.5 -24l24 -11v250q-26 -2 -50.5 -7.5q-24.5 -5.5 -44 -18.5q-19.5 -13 -31 -34.5t-11.5 -55.5z" />
<glyph unicode="&#37;" horiz-adv-x="833" d="M619 746l-335 -724q-11 -22 -36 -22h-35l346 746zM93 570q0 -25 4.5 -46.5q4.5 -21.5 16 -38q11.5 -16.5 30 -26q18.5 -9.5 47.5 -9.5q28 0 46.5 9.5q18.5 9.5 30 26q11.5 16.5 16 38q4.5 21.5 4.5 46.5q0 25 -4.5 47.5q-4.5 22.5 -16 39q-11.5 16.5 -30 26q-18.5 9.5 -46.5 9.5q-27 0 -46 -9.5q-19 -9.5 -30.5 -26q-11.5 -16.5 -16.5 -39q-5 -22.5 -5 -47.5zt0 0zM36 570q0 78 39.5 121q39.5 43 115.5 43q74 0 114.5 -43q40.5 -43 40.5 -121q0 -75 -40 -118.5q-40 -43.5 -115 -43.5q-76 0 -115.5 42q-39.5 42 -39.5 120zt0 0zM543 173q0 -25 4.5 -46.5q4.5 -21.5 16 -38q11.5 -16.5 30 -26q18.5 -9.5 46.5 -9.5q28 0 47 9.5q19 9.5 30 26q11 16.5 15.5 38q4.5 21.5 4.5 46.5q0 25 -4.5 47.5q-4.5 22.5 -15.5 39q-11 16.5 -30 26q-19 9.5 -47 9.5q-27 0 -45.5 -9.5q-18.5 -9.5 -30 -26q-11.5 -16.5 -16.5 -39q-5 -22.5 -5 -47.5zt0 0zM485 173q0 78 40 120.5q40 42.5 115 42.5q74 0 115 -42.5q41 -42.5 41 -120.5q0 -75 -40.5 -118.5q-40.5 -43.5 -115.5 -43.5q-75 0 -115 42t-40 120z" />
<glyph unicode="&#38;" horiz-adv-x="681" d="M374 502q29 20 44 49.5q15 29.5 15 60.5q0 51 -35.5 78q-35.5 27 -98.5 27q-64 0 -100 -22.5q-36 -22.5 -36 -77.5q0 -32 13 -57q13 -25 26 -39l76 -85zM265 372l-90 -61q-46 -31 -62.5 -61q-16.5 -30 -16.5 -73q0 -35 13.5 -63q13.5 -28 38.5 -47q25 -19 59.5 -29q34.5 -10 75.5 -10q29 0 59 6.5q30 6.5 57.5 18q27.5 11.5 51.5 28.5q24 17 42 38zM597 0l-71 79q-42 -42 -99.5 -67.5q-57.5 -25.5 -143.5 -25.5q-68 0 -114.5 16q-46.5 16 -75.5 42.5q-29 26.5 -42 61.5q-13 35 -13 73q0 32 9.5 58q9.5 26 24.5 47q15 21 34 37q19 16 37 28l90 59l-64 72q-24 27 -44.5 59.5q-20.5 32.5 -20.5 75.5q0 63 47 104q47 41 148 41q42 0 78 -10q36 -10 61.5 -29.5q25.5 -19.5 40 -47q14.5 -27.5 14.5 -61.5q0 -42 -20.5 -76.5q-20.5 -34.5 -55.5 -59.5l-110 -78l216 -239q10 19 17.5 41.5q7.5 22.5 12 45.5q4.5 23 7 45.5q2.5 22.5 3.5 40.5l49 -5q-1 -57 -16 -112q-15 -55 -40 -93l105 -122z" />
<glyph unicode="&#8217;" horiz-adv-x="323" d="M160 720h-58v95h113v-101q0 -49 -23 -86.5q-23 -37.5 -64 -55.5l-20 26q24 15 38 37q14 22 14 51z" />
<glyph unicode="&#40;" horiz-adv-x="350" d="M148 216q8 -62 38 -118q30 -56 80 -94l-25 -29q-60 37 -100 102.5q-40 65.5 -49 141.5q-5 38 -6.5 77.5q-1.5 39.5 -1.5 84.5q0 43 1.5 82q1.5 39 6.5 75q11 80 45.5 141.5q34.5 61.5 103.5 105.5l25 -28q-50 -38 -78.5 -93q-28.5 -55 -39.5 -123q-5 -35 -7 -75.5q-2 -40.5 -2 -84.5q0 -93 9 -165z" />
<glyph unicode="&#41;" horiz-adv-x="350" d="M203 216q9 72 9 165q0 44 -2 84.5q-2 40.5 -7 75.5q-11 66 -40 122q-29 56 -78 94l25 28q69 -44 103.5 -105.5q34.5 -61.5 45.5 -141.5q5 -36 6.5 -75q1.5 -39 1.5 -82q0 -45 -1.5 -84.5q-1.5 -39.5 -6.5 -77.5q-9 -76 -48.5 -141.5q-39.5 -65.5 -100.5 -102.5l-25 29q51 38 80.5 94t37.5 118z" />
<glyph unicode="&#42;" horiz-adv-x="548" d="M294 530l17 -201h-58l16 201l-170 -116l-35 52l198 86l-198 89l34 54l171 -118l-18 204h58l-15 -204l167 120l32 -55l-191 -90l190 -84l-32 -54z" />
<glyph unicode="&#43;" horiz-adv-x="595" d="M325 381h216v-46h-216v-217h-56v217h-214v46h214v213l56 0z" />
<glyph unicode="&#44;" horiz-adv-x="154" d="M52 0v80h72v-92q0 -23 -8 -40.5q-8 -17.5 -20.5 -30.5q-12.5 -13 -27 -21q-14.5 -8 -26.5 -12l-12 16q26 14 40 34q14 20 14 54l0 12z" />
<glyph unicode="&#45;" horiz-adv-x="473" d="M66 381h341v-46l-341 0z" />
<glyph unicode="&#46;" horiz-adv-x="132" d="M102 0h-72v80l72 0z" />
<glyph unicode="&#47;" horiz-adv-x="451" d="M400 781l-285 -803h-55l285 803z" />
<glyph unicode="&#48;" horiz-adv-x="520" d="M261 28q55 0 87 23.5q32 23.5 48.5 68q16.5 44.5 21 109q4.5 64.5 4.5 146.5q0 80 -5 143.5q-5 63.5 -22 107.5q-17 44 -49 67.5q-32 23.5 -85 23.5q-50 0 -81.5 -23q-31.5 -23 -49 -67q-17.5 -44 -23.5 -107.5q-6 -63.5 -6 -144.5q0 -82 5.5 -146.5q5.5 -64.5 22.5 -109q17 -44.5 48.5 -68q31.5 -23.5 83.5 -23.5zt0 0zM261 760q68 0 111.5 -23q43.5 -23 68 -70.5q24.5 -47.5 33.5 -120q9 -72.5 9 -171.5q0 -108 -11 -182q-11 -74 -37 -120q-26 -46 -68.5 -66.5q-42.5 -20.5 -105.5 -20.5q-65 0 -107 23q-42 23 -67.5 70.5q-25.5 47.5 -35.5 121q-10 73.5 -10 174.5q0 96 9 168q9 72 33.5 120.5q24.5 48.5 67.5 72.5t110 24z" />
<glyph unicode="&#49;" horiz-adv-x="520" d="M315 0h-27q-18 0 -25.5 9.5q-7.5 9.5 -7.5 31.5v662h-131v43h171q20 0 20 -19z" />
<glyph unicode="&#50;" horiz-adv-x="520" d="M98 0q-28 0 -39.5 8.5q-11.5 8.5 -11.5 35.5v104q0 40 17 68q17 28 47 49l206 148q29 21 45.5 40.5q16.5 19.5 25 39q8.5 19.5 11 39.5q2.5 20 3.5 42q0 67 -46.5 103q-46.5 36 -131.5 36q-42 0 -80 -8q-38 -8 -83 -21l0 51q41 10 77 17.5q36 7.5 86 7.5q110 0 174 -47.5q64 -47.5 64 -138.5q-1 -73 -28.5 -117.5q-27.5 -44.5 -78.5 -80.5l-202 -144q-29 -20 -37.5 -41q-8.5 -21 -8.5 -49v-99h368v-12q0 -14 -7.5 -22.5q-7.5 -8.5 -27.5 -8.5z" />
<glyph unicode="&#51;" horiz-adv-x="520" d="M220 760q52 0 95 -11.5q43 -11.5 73.5 -34.5q30.5 -23 47 -58.5q16.5 -35.5 15.5 -84.5q-2 -75 -31.5 -120q-29.5 -45 -80.5 -62q35 -8 60 -26q25 -18 40.5 -42q15.5 -24 23 -52.5q7.5 -28.5 7.5 -58.5q0 -63 -19 -106q-19 -43 -53.5 -69.5q-34.5 -26.5 -84 -37.5q-49.5 -11 -110.5 -11q-42 0 -78.5 4.5q-36.5 4.5 -72.5 11.5l0 21q0 11 6.5 17.5q6.5 6.5 23.5 3.5q31 -5 58 -9q27 -4 64 -4q46 0 84 8.5q38 8.5 65 28.5q27 20 42 53q15 33 15 83q0 45 -12 76q-12 31 -35 50q-23 19 -56.5 27.5q-33.5 8.5 -77.5 8.5h-120q-9 0 -9 7v36h129q80 0 121 37q41 37 41 127q0 72 -45 107.5q-45 35.5 -127 35.5q-14 0 -34.5 -2.5q-20.5 -2.5 -41.5 -7q-21 -4.5 -41 -9.5q-20 -5 -34 -10l0 47q38 13 77.5 19.5t74.5 6.5z" />
<glyph unicode="&#52;" horiz-adv-x="520" d="M423 143v-143h-30q-29 0 -29 41v102h-342v45l281 520q10 18 20.5 28q10.5 10 33.5 10h66v-560h80v-20q0 -23 -21 -23zM84 186h280l0 516z" />
<glyph unicode="&#53;" horiz-adv-x="520" d="M68 400v346h377v-20q0 -14 -7.5 -19q-7.5 -5 -18.5 -5h-291v-259h109q67 0 110.5 -15.5q43.5 -15.5 69 -43q25.5 -27.5 36 -67q10.5 -39.5 12.5 -87.5q0 -126 -63 -185q-63 -59 -190 -59q-31 0 -70 4q-39 4 -85 12l0 25q0 14 13 17.5q13 3.5 21 1.5l21 -3q25 -4 49 -6.5q24 -2.5 50 -3.5q102 -2 148 47.5q46 49.5 46 149.5q0 31 -6.5 61.5q-6.5 30.5 -24.5 54.5q-18 24 -51 39q-33 15 -86 15z" />
<glyph unicode="&#54;" horiz-adv-x="520" d="M439 713q0 -10 -6 -14q-6 -4 -14 -3q-68 6 -122 6q-66 0 -105 -20.5q-39 -20.5 -59.5 -50.5q-20.5 -30 -26.5 -65q-6 -35 -6 -64v-104q28 34 71.5 56q43.5 22 97.5 22q106 0 156 -51.5q50 -51.5 50 -142.5v-99q0 -100 -54.5 -148.5q-54.5 -48.5 -157.5 -48.5q-105 0 -161.5 46.5q-56.5 46.5 -56.5 150.5v307q0 59 14.5 106.5q14.5 47.5 45 80.5q30.5 33 78 51q47.5 18 113.5 18q38 0 71.5 -1q33.5 -1 71.5 -6zM419 268q0 82 -38.5 121.5q-38.5 39.5 -113.5 39.5q-78 0 -122.5 -42q-44.5 -42 -44.5 -115v-76q0 -89 37 -127q37 -38 126 -38q75 0 115.5 39.5q40.5 39.5 40.5 126.5z" />
<glyph unicode="&#55;" horiz-adv-x="520" d="M472 715q0 -11 -3.5 -23.5q-3.5 -12.5 -8.5 -25.5l-239 -645q-3 -8 -9 -14.5q-6 -6.5 -18 -6.5h-35l258 703h-364v43h405q5 0 9.5 -2.5q4.5 -2.5 4.5 -9.5z" />
<glyph unicode="&#56;" horiz-adv-x="520" d="M258 416q78 0 120 36q42 36 42 117q0 40 -12 68.5q-12 28.5 -33.5 46q-21.5 17.5 -51 25.5q-29.5 8 -63.5 8q-75 0 -117.5 -35q-42.5 -35 -42.5 -113q0 -81 41.5 -117q41.5 -36 116.5 -36zt0 0zM259 381q-95 0 -136 -48q-41 -48 -41 -133q0 -85 45.5 -128.5q45.5 -43.5 133.5 -43.5q51 0 85 14.5q34 14.5 55 38.5q21 24 29.5 54.5q8.5 30.5 8.5 62.5q0 43 -9 77.5q-9 34.5 -30 57.5q-21 23 -55.5 35.5q-34.5 12.5 -85.5 12.5zt0 0zM261 -14q-53 0 -96.5 11.5q-43.5 11.5 -75.5 36q-32 24.5 -49.5 63.5q-17.5 39 -17.5 93q0 84 29.5 133q29.5 49 85.5 78q-51 27 -73.5 72.5q-22.5 45.5 -22.5 93.5q0 54 17 91q17 37 46 59.5q29 22.5 69 32.5q40 10 86 10q46 0 86.5 -10q40.5 -10 70.5 -33q30 -23 47 -59.5q17 -36.5 17 -88.5q0 -50 -22.5 -95.5q-22.5 -45.5 -78.5 -71.5q37 -14 60.5 -35.5q23.5 -21.5 36.5 -48q13 -26.5 17.5 -57.5q4.5 -31 4.5 -65q0 -97 -57 -153.5t-180 -56.5z" />
<glyph unicode="&#57;" horiz-adv-x="520" d="M82 34q0 11 6.5 14.5q6.5 3.5 12.5 2.5l46 -4q20 -2 39 -3q19 -1 37 -1q70 0 110 22q40 22 59 54.5q19 32.5 23.5 69q4.5 36.5 4.5 66.5v93q-25 -35 -70 -55.5q-45 -20.5 -99 -20.5q-106 0 -156 51q-50 51 -50 142v97q0 99 55 147.5q55 48.5 157 50.5q103 2 160.5 -48q57.5 -50 57.5 -150v-295q0 -61 -12 -110q-12 -49 -41 -84q-29 -35 -77 -54q-48 -19 -121 -19q-38 0 -71 2q-33 2 -71 6zM101 480q0 -47 10.5 -78q10.5 -31 30 -50q19.5 -19 47.5 -27q28 -8 64 -8q37 0 68 8.5q31 8.5 53 27.5q22 19 34 49q12 30 12 73v74q0 88 -37 126q-37 38 -126 38q-78 0 -117 -39q-39 -39 -39 -126z" />
<glyph unicode="&#58;" horiz-adv-x="132" d="M102 0h-72v80h72zM102 408h-72v80l72 0z" />
<glyph unicode="&#59;" horiz-adv-x="154" d="M124 408h-72v80h72zM52 0v80h72v-92q0 -23 -8 -40.5q-8 -17.5 -20.5 -30.5q-12.5 -13 -27 -21q-14.5 -8 -26.5 -12l-12 16q26 14 40 34q14 20 14 54l0 12z" />
<glyph unicode="&#60;" horiz-adv-x="450" d="M347 54l-284 316l284 314l39 -35l-254 -279l255 -281z" />
<glyph unicode="&#61;" horiz-adv-x="570" d="M80 292h411v-42h-411zM80 522h411v-42l-411 0z" />
<glyph unicode="&#62;" horiz-adv-x="450" d="M64 89l254 281l-254 279l39 35l284 -314l-284 -316z" />
<glyph unicode="&#63;" horiz-adv-x="477" d="M172 214v52q0 40 7.5 65.5q7.5 25.5 27.5 39.5l99 67q27 18 45 35.5q18 17.5 28.5 35.5q10.5 18 14.5 37q4 19 4 41q0 67 -45 102.5q-45 35.5 -139 35.5q-49 0 -95 -8.5q-46 -8.5 -96 -22.5l-3 44q55 17 101.5 24.5q46.5 7.5 89.5 7.5q115 0 180.5 -45.5q65.5 -45.5 65.5 -132.5q0 -58 -24 -100.5q-24 -42.5 -69 -72.5l-93 -62q-14 -9 -21.5 -17.5q-7.5 -8.5 -12 -19q-4.5 -10.5 -5.5 -24q-1 -13.5 -1 -32.5v-50zM236 0h-71v90l71 0z" />
<glyph unicode="&#64;" horiz-adv-x="916" d="M478 795q104 0 179.5 -26q75.5 -26 125 -74.5q49.5 -48.5 73.5 -117.5q24 -69 24 -154q0 -59 -15.5 -110.5q-15.5 -51.5 -45.5 -90q-30 -38.5 -73.5 -60.5q-43.5 -22 -98.5 -22h-225q-69 0 -110.5 31q-41.5 31 -41.5 89v54q0 63 41.5 92.5q41.5 29.5 116.5 29.5q22 0 39.5 -0.5q17.5 -0.5 34.5 -1.5q17 -1 35.5 -3q18.5 -2 42.5 -4l0 66q0 38 -18.5 58.5q-18.5 20.5 -73.5 20.5h-150q-17 0 -22 5.5q-5 5.5 -5 16.5v22h192q76 0 106 -36q30 -36 30 -98v-294q43 0 77 20q34 20 57 52.5q23 32.5 35 74.5q12 42 12 87q0 75 -19 135.5q-19 60.5 -60.5 103q-41.5 42.5 -107 66q-65.5 23.5 -158.5 23.5q-94 0 -165.5 -28.5q-71.5 -28.5 -119.5 -79q-48 -50.5 -72 -119.5q-24 -69 -24 -151q0 -83 22 -149q22 -66 67.5 -112.5q45.5 -46.5 117 -71.5q71.5 -25 170.5 -25q41 0 91.5 6.5q50.5 6.5 92.5 24.5l7 -25q3 -11 -2 -16.5q-5 -5.5 -12 -7.5q-44 -14 -93.5 -21q-49.5 -7 -100.5 -7q-108 0 -187 29q-79 29 -130.5 82q-51.5 53 -76.5 128q-25 75 -25 167q0 94 27 171.5q27 77.5 82 133q55 55.5 138 86q83 30.5 196 30.5zt0 0zM443 395q-57 0 -84.5 -17q-27.5 -17 -27.5 -67v-42q0 -48 26.5 -67q26.5 -19 85.5 -19h137v203q-23 3 -40.5 5q-17.5 2 -33 2.5q-15.5 0.5 -30.5 1t-33 0.5z" />
<glyph unicode="&#65;" horiz-adv-x="633" d="M467 264q-8 -15 -26 -24.5q-18 -9.5 -38 -9.5h-247l-78 -230h-60l252 746h72q9 0 17.5 -7.5q8.5 -7.5 11.5 -16.5l245 -722h-60zM169 274h296l-148 440z" />
<glyph unicode="&#66;" horiz-adv-x="622" d="M356 746q52 0 88 -12q36 -12 57.5 -33.5q21.5 -21.5 31 -51.5q9.5 -30 9.5 -65v-47q0 -50 -18 -88q-18 -38 -68 -61q53 -13 81 -54.5q28 -41.5 28 -92.5v-69q0 -48 -15 -80.5q-15 -32.5 -42.5 -53q-27.5 -20.5 -66 -29.5q-38.5 -9 -85.5 -9h-283v746zM130 703v-294h227q39 0 64 11.5q25 11.5 39 30.5q14 19 19.5 41.5q5.5 22.5 5.5 45.5v41q0 53 -31 88.5q-31 35.5 -97 35.5zM130 366v-323h225q76 0 113.5 34q37.5 34 37.5 100v50q0 28 -8.5 53.5q-8.5 25.5 -26.5 44.5q-18 19 -46.5 30q-28.5 11 -68.5 11z" />
<glyph unicode="&#67;" horiz-adv-x="557" d="M519 32q0 -13 -8.5 -22.5q-8.5 -9.5 -38.5 -9.5h-222q-41 0 -76 12.5q-35 12.5 -60 36q-25 23.5 -39 57.5q-14 34 -14 77v384q0 86 55.5 132.5q55.5 46.5 157.5 46.5h234v-11q0 -14 -8 -23q-8 -9 -37 -9h-186q-157 0 -157 -150v-363q0 -29 8.5 -56q8.5 -27 25 -47q16.5 -20 41.5 -32q25 -12 59 -12l265 0z" />
<glyph unicode="&#68;" horiz-adv-x="643" d="M341 746q61 0 105.5 -15q44.5 -15 74 -41.5q29.5 -26.5 44 -64q14.5 -37.5 14.5 -82.5v-342q0 -45 -14.5 -82q-14.5 -37 -44 -63.5q-29.5 -26.5 -74 -41q-44.5 -14.5 -105.5 -14.5h-267v746zM132 703v-660h209q85 0 133 41q48 41 48 117v342q0 80 -48 120q-48 40 -133 40z" />
<glyph unicode="&#69;" horiz-adv-x="575" d="M74 0v746h443v-8q0 -17 -6.5 -26q-6.5 -9 -28.5 -9h-349v-284h350v-11q0 -14 -6 -23q-6 -9 -28 -9h-316v-333h396v-10q0 -14 -6.5 -23.5q-6.5 -9.5 -27.5 -9.5z" />
<glyph unicode="&#70;" horiz-adv-x="554" d="M133 376v-376h-15q-20 0 -32 8.5q-12 8.5 -12 29.5v708h455v-10q0 -14 -7.5 -23.5q-7.5 -9.5 -31.5 -9.5h-357v-284h361v-11q0 -14 -8.5 -23q-8.5 -9 -31.5 -9z" />
<glyph unicode="&#71;" horiz-adv-x="650" d="M566 746v-9q0 -18 -9 -26q-9 -8 -33 -8h-253q-63 0 -103.5 -37.5q-40.5 -37.5 -40.5 -105.5v-374q0 -30 9 -56q9 -26 27 -45.5q18 -19.5 45 -30.5q27 -11 63 -11h129q31 0 54.5 10.5q23.5 10.5 39.5 28.5q16 18 23.5 42.5q7.5 24.5 7.5 51.5v141q0 26 -11.5 34q-11.5 8 -31.5 8h-102q-21 0 -30 5q-9 5 -9 21v17h181q62 0 62 -61v-165q0 -89 -50 -132.5q-50 -43.5 -133 -43.5h-130q-45 0 -82.5 11.5q-37.5 11.5 -64.5 35q-27 23.5 -42 58.5q-15 35 -15 82v375q0 44 16 78.5q16 34.5 43.5 58q27.5 23.5 64.5 35.5q37 12 80 12z" />
<glyph unicode="&#72;" horiz-adv-x="652" d="M134 746v-327h381v327h59v-746h-24q-19 0 -27 8q-8 8 -8 28v372q-21 -32 -62 -32h-319v-376h-25q-18 0 -26 8q-8 8 -8 28l0 710z" />
<glyph unicode="&#73;" horiz-adv-x="228" d="M146 746v-746h-21q-18 0 -29 10.5q-11 10.5 -11 30.5l0 705z" />
<glyph unicode="&#74;" horiz-adv-x="390" d="M119 43q69 0 101.5 29.5q32.5 29.5 32.5 107.5v566h60v-566q0 -93 -45 -136.5q-45 -43.5 -149 -43.5h-105v13q0 17 8.5 23.5q8.5 6.5 29.5 6.5z" />
<glyph unicode="&#75;" horiz-adv-x="538" d="M174 385l275 361h68l-274 -360l289 -386h-45q-10 0 -20 4.5q-10 4.5 -16 12.5zM135 746v-746h-22q-37 0 -37 41l0 705z" />
<glyph unicode="&#76;" horiz-adv-x="520" d="M134 43h367v-10q0 -17 -6.5 -25q-6.5 -8 -25.5 -8h-394v746l59 0z" />
<glyph unicode="&#77;" horiz-adv-x="853" d="M774 0h-21q-18 0 -28 11.5q-10 11.5 -10 30.5v617l-234 -424q-8 -14 -23.5 -24q-15.5 -10 -32.5 -10q-20 0 -33.5 10q-13.5 10 -21.5 23l-233 425v-659h-24q-17 0 -26.5 12.5q-9.5 12.5 -9.5 26.5v707h71l254 -467q8 -14 13 -19.5q5 -5.5 10 -5.5q5 0 10.5 5.5q5.5 5.5 13.5 19.5l255 467l70 0z" />
<glyph unicode="&#78;" horiz-adv-x="657" d="M74 746h307q50 0 87.5 -8q37.5 -8 62.5 -29q25 -21 37.5 -57q12.5 -36 12.5 -92v-560h-19q-18 0 -29 9.5q-11 9.5 -11 29.5v522q0 42 -7.5 69.5q-7.5 27.5 -24.5 43.5q-17 16 -44 22.5q-27 6.5 -67 6.5h-245v-703h-20q-18 0 -29 11.5q-11 11.5 -11 31.5z" />
<glyph unicode="&#79;" horiz-adv-x="684" d="M340 760q145 0 214 -81q69 -81 69 -233v-148q0 -152 -69 -232q-69 -80 -214 -80q-144 0 -212.5 79.5q-68.5 79.5 -68.5 233.5v147q0 154 68.5 234q68.5 80 212.5 80zt0 0zM563 447q2 57 -11 105.5q-13 48.5 -40.5 84.5q-27.5 36 -70.5 56q-43 20 -101 20q-61 0 -103 -20.5q-42 -20.5 -68.5 -56.5q-26.5 -36 -38 -85q-11.5 -49 -11.5 -105v-148q0 -140 55 -202.5q55 -62.5 166 -62.5q113 0 168 62.5q55 62.5 55 203.5z" />
<glyph unicode="&#80;" horiz-adv-x="602" d="M133 296v-296h-18q-19 0 -30 10.5q-11 10.5 -11 30.5v705h265q97 0 151 -39.5q54 -39.5 54 -134.5v-101q0 -25 -5.5 -55.5q-5.5 -30.5 -26 -57q-20.5 -26.5 -61.5 -44.5q-41 -18 -112 -18zM133 703v-363h206q77 0 111.5 32.5q34.5 32.5 34.5 98.5v101q0 30 -7.5 54q-7.5 24 -24.5 41.5q-17 17.5 -45 26.5q-28 9 -69 9z" />
<glyph unicode="&#81;" horiz-adv-x="677" d="M341 760q145 0 214 -81q69 -81 69 -233v-148q0 -179 -97 -258l98 -126h-32q-18 0 -29.5 4q-11.5 4 -21.5 17l-60 78q-60 -27 -141 -27q-144 0 -212.5 79.5q-68.5 79.5 -68.5 233.5v147q0 154 68.5 234q68.5 80 212.5 80zt0 0zM564 447q0 57 -12 106q-12 49 -39 84.5q-27 35.5 -69.5 55.5q-42.5 20 -102.5 20q-60 0 -102.5 -20.5q-42.5 -20.5 -68.5 -56.5q-26 -36 -38 -84.5q-12 -48.5 -12 -105.5v-148q0 -137 54.5 -201q54.5 -64 166.5 -64q114 0 168.5 64q54.5 64 54.5 202z" />
<glyph unicode="&#82;" horiz-adv-x="604" d="M133 341v-341h-18q-17 0 -29.5 10.5q-12.5 10.5 -12.5 30.5v705h289q106 0 151 -40q45 -40 45 -114v-84q0 -26 -6 -51.5q-6 -25.5 -21.5 -48q-15.5 -22.5 -43 -39.5q-27.5 -17 -70.5 -26l161 -343h-63l-158 341zM133 703v-318h229q137 0 137 132v58q0 62 -31.5 95q-31.5 33 -105.5 33z" />
<glyph unicode="&#83;" horiz-adv-x="553" d="M41 0v9q0 16 8.5 25q8.5 9 31.5 9h183q91 0 138 34.5q47 34.5 47 103.5q0 48 -29.5 82.5q-29.5 34.5 -104.5 68.5l-137 62q-63 29 -96 76.5q-33 47.5 -33 104.5q0 38 13.5 69.5q13.5 31.5 41 54q27.5 22.5 69.5 35q42 12.5 100 12.5h208v-16q0 -17 -9.5 -22q-9.5 -5 -31.5 -5h-167q-32 0 -62 -5.5q-30 -5.5 -52.5 -20q-22.5 -14.5 -36 -39.5q-13.5 -25 -13.5 -63q0 -54 27.5 -86q27.5 -32 84.5 -57l132 -59q78 -35 116.5 -83.5q38.5 -48.5 38.5 -107.5q0 -54 -21.5 -89.5q-21.5 -35.5 -56 -56q-34.5 -20.5 -77.5 -28.5q-43 -8 -86 -8z" />
<glyph unicode="&#84;" horiz-adv-x="584" d="M264 703h-246v43h550v-10q0 -18 -6.5 -25.5q-6.5 -7.5 -30.5 -7.5h-208v-703h-21q-17 0 -27.5 10q-10.5 10 -10.5 30z" />
<glyph unicode="&#85;" horiz-adv-x="662" d="M580 0h-304q-50 0 -87.5 8q-37.5 8 -63 29q-25.5 21 -38 57q-12.5 36 -12.5 92v560h60v-561q0 -79 34 -110.5q34 -31.5 107 -31.5h245v703l59 0z" />
<glyph unicode="&#86;" horiz-adv-x="605" d="M308 41l224 705h59l-237 -746h-65q-13 0 -21.5 8.5q-8.5 8.5 -13.5 17.5l-240 720l59 0z" />
<glyph unicode="&#87;" horiz-adv-x="856" d="M847 746l-172 -746h-36q-21 0 -35 14q-14 14 -21 39l-152 560l-164 -613h-33q-26 0 -39.5 12.5q-13.5 12.5 -19.5 38.5l-161 695h57l158 -684l166 619h72l166 -620l157 685z" />
<glyph unicode="&#88;" horiz-adv-x="609" d="M21 0l253 374l-248 372h62l214 -325l215 325h63l-246 -372l250 -374h-65l-217 324l-215 -324z" />
<glyph unicode="&#89;" horiz-adv-x="625" d="M339 0h-24q-18 0 -26.5 8q-8.5 8 -8.5 28v261l-262 449h61l231 -402l232 402h61l-264 -449z" />
<glyph unicode="&#90;" horiz-adv-x="605" d="M545 746v-43l-450 -660h471v-13q0 -14 -9.5 -22q-9.5 -8 -22.5 -8h-501v43l448 660h-436l0 43z" />
<glyph unicode="&#91;" horiz-adv-x="415" d="M341 -46h-207v866h207v-43h-147v-779l147 0z" />
<glyph unicode="&#92;" horiz-adv-x="481" d="M118 781l286 -803h-56l-285 803z" />
<glyph unicode="&#93;" horiz-adv-x="416" d="M80 -2h147v779h-147v43h207v-866l-207 0z" />
<glyph unicode="&#94;" horiz-adv-x="564" d="M245 826h76l149 -214h-66l-121 180l-121 -180l-66 0z" />
<glyph unicode="&#95;" horiz-adv-x="595" d="M104 -35h392v-42l-392 0z" />
<glyph unicode="&#8216;" horiz-adv-x="323" d="M158 664h58v-94h-113v100q0 50 22.5 87q22.5 37 64.5 56l20 -27q-25 -15 -38.5 -36.5q-13.5 -21.5 -13.5 -50.5z" />
<glyph unicode="&#97;" horiz-adv-x="526" d="M461 0h-233q-81 0 -127 34q-46 34 -46 103v66q0 81 46 116.5q46 35.5 126 33.5q44 -1 83 -4q39 -3 91 -11l0 70q0 46 -27 72.5q-27 26.5 -83 26.5h-147q-29 0 -37 8q-8 8 -8 21v14h192q92 0 131 -36q39 -36 39 -106zM229 306q-60 0 -87 -24q-27 -24 -27 -83v-57q0 -31 11 -50q11 -19 27.5 -30q16.5 -11 36.5 -15q20 -4 39 -4h172v250q-52 6 -94 9.5t-78 3.5z" />
<glyph unicode="&#98;" horiz-adv-x="539" d="M135 751v-201h145q97 0 148.5 -42.5q51.5 -42.5 51.5 -127.5v-211q0 -86 -51.5 -127.5q-51.5 -41.5 -148.5 -41.5h-204v751zM135 43h145q63 0 101.5 33.5q38.5 33.5 38.5 103.5v190q0 69 -38 103q-38 34 -101 34l-146 0z" />
<glyph unicode="&#99;" horiz-adv-x="486" d="M445 43v-11q0 -13 -9 -22.5q-9 -9.5 -38 -9.5h-137q-44 0 -80.5 12.5q-36.5 12.5 -62.5 35.5q-26 23 -40.5 56q-14.5 33 -14.5 74v192q0 41 14.5 74q14.5 33 40.5 56.5q26 23.5 62.5 36.5q36.5 13 80.5 13h179v-8q0 -14 -7 -24.5q-7 -10.5 -36 -10.5h-136q-68 0 -103.5 -35q-35.5 -35 -35.5 -102v-191q0 -61 35.5 -98.5q35.5 -37.5 103.5 -37.5z" />
<glyph unicode="&#100;" horiz-adv-x="535" d="M462 751v-751h-205q-97 0 -148 41.5q-51 41.5 -51 127.5v211q0 85 51 127.5q51 42.5 148 42.5h145v201zM402 507h-146q-63 0 -100.5 -34q-37.5 -34 -37.5 -103v-190q0 -70 38 -103.5q38 -33.5 101 -33.5l145 0z" />
<glyph unicode="&#101;" horiz-adv-x="534" d="M456 43v-14q0 -13 -7.5 -21q-7.5 -8 -37.5 -8h-171q-42 0 -76 11.5q-34 11.5 -58 33.5q-24 22 -37.5 53.5q-13.5 31.5 -13.5 70.5v203q0 52 17 88.5q17 36.5 45.5 59.5q28.5 23 66.5 33.5q38 10.5 80 10.5q46 0 85.5 -11.5q39.5 -11.5 68 -33q28.5 -21.5 44.5 -53.5q16 -32 16 -73v-84q0 -28 -14 -42q-14 -14 -47 -14h-302v-84q0 -31 10 -54.5q10 -23.5 27 -39.5q17 -16 39.5 -24q22.5 -8 48.5 -8zM115 296h260q28 0 35.5 8q7.5 8 7.5 34v55q0 59 -39.5 93.5q-39.5 34.5 -114.5 34.5q-69 0 -109 -34.5q-40 -34.5 -40 -93.5z" />
<glyph unicode="&#102;" horiz-adv-x="415" d="M364 550v-18q0 -14 -11.5 -19.5q-11.5 -5.5 -29.5 -5.5h-119v-507h-25q-20 0 -27.5 8q-7.5 8 -7.5 30v469h-116v43h116v75q0 29 5.5 52q5.5 23 19.5 39.5q14 16.5 39 25.5q25 9 63 9h115v-8q0 -36 -46 -36h-69q-23 0 -36 -7q-13 -7 -20 -17.5q-7 -10.5 -9 -24q-2 -13.5 -2 -25.5l0 -83z" />
<glyph unicode="&#103;" horiz-adv-x="545" d="M316 -166q51 0 75 27q24 27 24 70v69h-166q-89 0 -139 43q-50 43 -50 126v212q0 84 51.5 126.5q51.5 42.5 137.5 42.5h226v-622q0 -25 -7.5 -49.5q-7.5 -24.5 -25.5 -44q-18 -19.5 -48 -31.5q-30 -12 -75 -12h-207v14q0 29 40 29zM120 168q0 -40 12.5 -64.5q12.5 -24.5 31.5 -38q19 -13.5 42 -18q23 -4.5 43 -4.5h166v464h-166q-33 0 -57.5 -10q-24.5 -10 -40.5 -27q-16 -17 -23.5 -40q-7.5 -23 -7.5 -50z" />
<glyph unicode="&#104;" horiz-adv-x="558" d="M134 507v-507h-19q-19 0 -30 10q-11 10 -11 32v709h60v-201h181q91 0 134 -39q43 -39 43 -119v-392h-20q-19 0 -29.5 8q-10.5 8 -10.5 30v353q0 63 -31 89.5q-31 26.5 -86 26.5z" />
<glyph unicode="&#105;" horiz-adv-x="214" d="M136 550v-550h-21q-39 0 -39 42v508zM74 751h64v-103h-14q-21 0 -35.5 11.5q-14.5 11.5 -14.5 33.5z" />
<glyph unicode="&#106;" horiz-adv-x="292" d="M155 751h62v-103h-13q-20 0 -34.5 11.5q-14.5 11.5 -14.5 33.5zM157 550h59v-609q0 -78 -35 -114q-35 -36 -109 -36h-81v12q0 16 9.5 24q9.5 8 25.5 8h46q28 0 44.5 7.5q16.5 7.5 25.5 21q9 13.5 12 33.5q3 20 3 44z" />
<glyph unicode="&#107;" horiz-adv-x="460" d="M77 751h59v-751h-19q-20 0 -30 8q-10 8 -10 30zM373 550h63l-212 -254l225 -296h-40q-19 0 -34 18l-213 278z" />
<glyph unicode="&#108;" horiz-adv-x="216" d="M134 751v-751h-18q-19 0 -30 9.5q-11 9.5 -11 31.5l0 710z" />
<glyph unicode="&#109;" horiz-adv-x="757" d="M408 507v-507h-24q-20 0 -28 8q-8 8 -8 30v469h-219v-507h-20q-19 0 -29.5 8q-10.5 8 -10.5 30v512h456q85 0 123.5 -35q38.5 -35 38.5 -112v-403h-18q-18 0 -30 8q-12 8 -12 30v365q0 104 -102 104z" />
<glyph unicode="&#110;" horiz-adv-x="555" d="M306 550q50 0 84.5 -9q34.5 -9 55.5 -28.5q21 -19.5 30 -51q9 -31.5 9 -77.5v-384h-20q-41 0 -41 42v342q0 36 -6 60q-6 24 -20 38q-14 14 -36.5 19.5q-22.5 5.5 -55.5 5.5h-176v-507h-19q-41 0 -41 42l0 508z" />
<glyph unicode="&#111;" horiz-adv-x="560" d="M279 564q53 0 94 -12q41 -12 68.5 -39q27.5 -27 42 -69.5q14.5 -42.5 14.5 -102.5v-132q0 -121 -55 -172q-55 -51 -164 -51q-53 0 -93.5 12q-40.5 12 -68.5 38.5q-28 26.5 -42.5 69q-14.5 42.5 -14.5 103.5v132q0 60 14.5 102.5q14.5 42.5 42.5 69.5q28 27 69 39q41 12 93 12zt0 0zM438 339q0 45 -8 79q-8 34 -26.5 56.5q-18.5 22.5 -49 33.5q-30.5 11 -75.5 11q-87 0 -123 -44q-36 -44 -36 -136v-128q0 -99 41 -140q41 -41 118 -41q39 0 68.5 9.5q29.5 9.5 49.5 30.5q20 21 30.5 55.5q10.5 34.5 10.5 85.5z" />
<glyph unicode="&#112;" horiz-adv-x="535" d="M69 550h210q194 0 194 -178v-195q0 -93 -50.5 -135q-50.5 -42 -143.5 -42h-150v-194h-13q-20 0 -33.5 7.5q-13.5 7.5 -13.5 32.5zM129 43h150q69 0 101.5 33q32.5 33 32.5 101v195q0 66 -32 100.5q-32 34.5 -102 34.5l-150 0z" />
<glyph unicode="&#113;" horiz-adv-x="533" d="M448 -194q-20 0 -31 8.5q-11 8.5 -11 31.5v154h-150q-93 0 -143.5 42q-50.5 42 -50.5 135v195q0 178 194 178h210v-744zM406 507h-150q-70 0 -102 -34.5q-32 -34.5 -32 -100.5v-195q0 -68 32.5 -101q32.5 -33 101.5 -33l150 0z" />
<glyph unicode="&#114;" horiz-adv-x="390" d="M128 0h-18q-18 0 -29.5 8q-11.5 8 -11.5 30v384q0 62 30.5 95q30.5 33 102.5 33h169v-2q0 -23 -10 -32q-10 -9 -33 -9h-126q-23 0 -37 -6.5q-14 -6.5 -22.5 -18q-8.5 -11.5 -11.5 -27q-3 -15.5 -3 -33.5z" />
<glyph unicode="&#115;" horiz-adv-x="452" d="M383 550v-15q0 -28 -44 -28h-117q-61 0 -87 -28q-26 -28 -26 -66q0 -31 16.5 -56.5q16.5 -25.5 63.5 -39.5l96 -30q36 -11 60.5 -25.5q24.5 -14.5 39 -32.5q14.5 -18 20.5 -40q6 -22 6 -46q0 -70 -48 -106.5q-48 -36.5 -133 -36.5h-177v11q0 32 41 32h136q54 0 88.5 23.5q34.5 23.5 34.5 76.5q0 35 -16 57.5q-16 22.5 -61 37.5l-97 31q-68 23 -99 55.5q-31 32.5 -31 88.5q0 24 10 48.5q10 24.5 31 44q21 19.5 53.5 32q32.5 12.5 78.5 12.5z" />
<glyph unicode="&#116;" horiz-adv-x="339" d="M248 0q-74 0 -104.5 36q-30.5 36 -30.5 104v367h-98v43h98v180h60v-180h139v-12q0 -14 -9 -22.5q-9 -8.5 -39 -8.5h-91v-367q0 -20 2.5 -38q2.5 -18 11 -31q8.5 -13 23 -20.5q14.5 -7.5 38.5 -7.5h73v-11q0 -12 -9.5 -22q-9.5 -10 -35.5 -10z" />
<glyph unicode="&#117;" horiz-adv-x="544" d="M261 0q-51 0 -88 10q-37 10 -61 32.5q-24 22.5 -35.5 59.5q-11.5 37 -11.5 91v357h59v-357q0 -42 7 -70.5q7 -28.5 23.5 -46.5q16.5 -18 42.5 -25.5q26 -7.5 64 -7.5h154v507h60l0 -550z" />
<glyph unicode="&#118;" horiz-adv-x="474" d="M225 0q-17 0 -25.5 8q-8.5 8 -14.5 26l-173 516h52l176 -514l166 514h52l-175 -550z" />
<glyph unicode="&#119;" horiz-adv-x="690" d="M683 550l-138 -550h-36q-17 0 -27.5 11q-10.5 11 -15.5 29l-122 435l-134 -475h-34q-22 0 -30.5 11.5q-8.5 11.5 -13.5 30.5l-127 508h51l122 -497l132 474h68l130 -474l124 497z" />
<glyph unicode="&#120;" horiz-adv-x="502" d="M17 0l203 275l-195 275h62l162 -235l162 235h62l-192 -275l200 -275h-62l-170 241l-170 -241z" />
<glyph unicode="&#121;" horiz-adv-x="544" d="M93 -209v14q0 18 9.5 25.5q9.5 7.5 32.5 7.5h178q30 0 50 6.5q20 6.5 31.5 19q11.5 12.5 16 29.5q4.5 17 4.5 38v81q-40 -4 -90.5 -7q-50.5 -3 -99.5 -5q-84 -2 -122.5 43.5q-38.5 45.5 -38.5 125.5v381h60v-379q0 -64 22.5 -97q22.5 -33 84.5 -31q22 0 46.5 1q24.5 1 49.5 2.5q25 1.5 47.5 3.5q22.5 2 40.5 4l0 496h60v-621q0 -29 -9 -54q-9 -25 -28.5 -44q-19.5 -19 -50.5 -29.5q-31 -10.5 -74 -10.5z" />
<glyph unicode="&#122;" horiz-adv-x="487" d="M444 43v-18q0 -12 -8 -18.5q-8 -6.5 -19 -6.5h-381v44l332 463h-318v43h379v-42l-336 -465z" />
<glyph unicode="&#123;" horiz-adv-x="418" d="M352 -44h-54q-54 0 -79.5 29q-25.5 29 -25.5 86v202q0 42 -26.5 64q-26.5 22 -66.5 27l0 40q41 4 67 23.5q26 19.5 26 66.5v206q0 58 27.5 89q27.5 31 84.5 31h47v-36q-51 -1 -78.5 -21q-27.5 -20 -27.5 -64v-199q0 -44 -15 -71q-15 -27 -47 -45q32 -17 47 -48.5q15 -31.5 15 -68.5v-191q0 -48 24 -65.5q24 -17.5 82 -17.5z" />
<glyph unicode="&#124;" horiz-adv-x="296" d="M180 797v-819h-50l0 819z" />
<glyph unicode="&#125;" horiz-adv-x="418" d="M76 -7q58 1 82 18.5q24 17.5 24 64.5v191q0 37 15 68.5q15 31.5 47 48.5q-32 18 -47 45q-15 27 -15 71v199q0 45 -25.5 65q-25.5 20 -80.5 20l0 36h47q57 0 84.5 -31q27.5 -31 27.5 -89v-206q0 -48 25 -67.5q25 -19.5 68 -22.5l0 -40q-41 -5 -67 -27q-26 -22 -26 -64v-202q0 -57 -25.5 -86q-25.5 -29 -80.5 -29l-53 0z" />
<glyph unicode="&#126;" horiz-adv-x="724" d="M673 431q-2 -33 -11.5 -64q-9.5 -31 -29 -54.5q-19.5 -23.5 -49 -37.5q-29.5 -14 -71.5 -14q-54 0 -91.5 23.5q-37.5 23.5 -69.5 62.5q-33 42 -60 60.5q-27 18.5 -64 18.5q-54 0 -82.5 -32.5q-28.5 -32.5 -31.5 -92.5l-51 0q2 36 14 66.5q12 30.5 33 53q21 22.5 50 35q29 12.5 66 12.5q54 0 93.5 -26q39.5 -26 77.5 -74q23 -29 50 -46q27 -17 64 -17q48 0 78.5 32.5q30.5 32.5 33.5 93.5z" />
<glyph unicode="&#163;" horiz-adv-x="563" d="M532 32q0 -13 -8.5 -22.5q-8.5 -9.5 -37.5 -9.5h-448v53q38 21 61 66q23 45 23 98v140h-78v43h78v167q0 51 16.5 87.5q16.5 36.5 46.5 60q30 23.5 71.5 34.5q41.5 11 92.5 11q37 0 79.5 -7q42.5 -7 89.5 -20l-4 -40q-47 13 -84 18.5q-37 5.5 -84 5.5q-76 0 -121 -36q-45 -36 -45 -114v-167h167v-10q0 -14 -8.5 -23.5q-8.5 -9.5 -38.5 -9.5h-120v-130q0 -51 -22 -100.5q-22 -49.5 -72 -83.5l446 0z" />
<glyph unicode="&#402;" horiz-adv-x="418" d="M197 -40q0 -47 -9 -77q-9 -30 -27.5 -47q-18.5 -17 -46 -23.5q-27.5 -6.5 -63.5 -6.5h-8v44h5q22 0 38.5 4.5q16.5 4.5 27.5 16.5q11 12 17 33q6 21 6 55v548h-116v43h116v75q0 29 5.5 52q5.5 23 19.5 39.5q14 16.5 38.5 25.5q24.5 9 63.5 9h115v-8q0 -36 -46 -36h-69q-23 0 -36 -7q-13 -7 -20 -17.5q-7 -10.5 -9 -24q-2 -13.5 -2 -25.5v-83h160v-18q0 -14 -11.5 -19.5q-11.5 -5.5 -29.5 -5.5l-119 0z" />
<glyph unicode="&#167;" horiz-adv-x="452" d="M376 746v-13q0 -17 -10.5 -23.5q-10.5 -6.5 -33.5 -6.5h-118q-60 0 -86.5 -27q-26.5 -27 -26.5 -65q0 -32 17 -59q17 -27 64 -41l96 -27q63 -20 94.5 -56.5q31.5 -36.5 31.5 -84.5q0 -44 -23 -72q-23 -28 -67 -42q49 -23 69.5 -55.5q20.5 -32.5 20.5 -73.5q0 -71 -48 -110q-48 -39 -133 -39h-178v10q0 33 42 33h136q54 0 88 26.5q34 26.5 34 79.5q0 35 -18 56.5q-18 21.5 -59 35.5l-97 34q-60 22 -94.5 53q-34.5 31 -34.5 85q0 35 23 66q23 31 74 47q-50 23 -73.5 54.5q-23.5 31.5 -23.5 79.5q0 24 9.5 48q9.5 24 30.5 43.5q21 19.5 53.5 31.5q32.5 12 78.5 12zM213 260h10q54 0 88 22.5q34 22.5 34 60.5q0 36 -18 57.5q-18 21.5 -59 35.5l-20 6h-34q-60 0 -86.5 -22q-26.5 -22 -26.5 -56q0 -32 17 -56.5q17 -24.5 64 -38.5z" />
<glyph unicode="&#164;" horiz-adv-x="540" d="M270 537q91 0 143 -37l53 53l35 -35l-53 -53q37 -51 37 -136v-38q0 -82 -32 -131l53 -52l-35 -35l-51 51q-54 -42 -150 -42q-98 0 -152 45l-53 -54l-33 34l55 56q-31 47 -31 128v38q0 84 34 131l-56 57l33 34l55 -55q27 21 64.5 31q37.5 10 83.5 10zt0 0zM430 329q0 35 -9 66q-9 31 -28.5 54.5q-19.5 23.5 -49.5 37q-30 13.5 -73 13.5q-75 0 -117 -43q-42 -43 -42 -128v-38q0 -84 41 -127.5q41 -43.5 118 -43.5q77 0 118.5 42.5q41.5 42.5 41.5 128.5z" />
<glyph unicode="&#39;" horiz-adv-x="255" d="M162 781l-14 -249h-14q-13 0 -18.5 8q-5.5 8 -6.5 18l-13 223z" />
<glyph unicode="&#8220;" horiz-adv-x="490" d="M153 664h58v-94h-114v100q0 50 23 87q23 37 64 56l21 -27q-25 -15 -38.5 -36.5q-13.5 -21.5 -13.5 -50.5zM343 664h59v-94h-114v100q0 50 23 87q23 37 64 56l20 -27q-24 -15 -38 -36.5q-14 -21.5 -14 -50.5z" />
<glyph unicode="&#171;" horiz-adv-x="439" d="M409 48l-34 -21l-160 261l148 261l38 -22l-137 -239zM223 49l-34 -22l-161 261l150 261l37 -21l-138 -240z" />
<glyph unicode="&#8249;" horiz-adv-x="920" d="M883 771v-37l-652 -404l652 -403v-39l-722 442z" />
<glyph unicode="&#8250;" horiz-adv-x="920" d="M37 771l722 -441l-722 -442v39l652 403l-652 404z" />
<glyph unicode="&#8224;" horiz-adv-x="920" d="M468 551q12 0 28.5 3.5q16.5 3.5 34 7q17.5 3.5 34.5 7q17 3.5 32 3.5q22 0 38 -8.5q16 -8.5 16 -28.5q0 -20 -17 -29q-17 -9 -40 -9q-14 0 -29.5 3.5q-15.5 3.5 -31 7q-15.5 3.5 -30.5 7q-15 3.5 -28 3.5h-7q0 -22 4.5 -45.5q4.5 -23.5 15.5 -38.5q10 -13 14 -17.5q4 -4.5 4 -8.5q0 -7 -5 -13q-5 -6 -13 -26q-8 -18 -12.5 -52q-4.5 -34 -6.5 -75.5q-2 -41.5 -2.5 -87q-0.5 -45.5 -0.5 -87.5v-71q0 -56 -3 -79q-3 -23 -14 -23q-10 0 -13 27q-3 27 -3 94v100q0 37 -1 75.5q-1 38.5 -3 72.5q-2 34 -6 61.5q-4 27.5 -11 44.5q-9 20 -13.5 26.5q-4.5 6.5 -4.5 12.5q0 4 4.5 9q4.5 5 13.5 17q12 16 16.5 39.5q4.5 23.5 4.5 44.5l-8 0q-14 0 -29 -3.5q-15 -3.5 -30.5 -7q-15.5 -3.5 -31 -7q-15.5 -3.5 -28.5 -3.5q-23 0 -40 9q-17 9 -17 29q0 20 15.5 28.5q15.5 8.5 38.5 8.5q14 0 31.5 -3.5q17.5 -3.5 34.5 -7q17 -3.5 33.5 -7q16.5 -3.5 29.5 -3.5q0 14 -3.5 32.5q-3.5 18.5 -7 37.5q-3.5 19 -7 37q-3.5 18 -3.5 32q0 25 9.5 44q9.5 19 29.5 19q20 0 28.5 -18q8.5 -18 8.5 -42q0 -15 -3 -34q-3 -19 -6.5 -38.5q-3.5 -19.5 -6.5 -38t-3 -31.5z" />
<glyph unicode="&#8225;" horiz-adv-x="920" d="M432 527h-7q-12 0 -27 -3q-15 -3 -30.5 -7q-15.5 -4 -30.5 -7q-15 -3 -28 -3q-23 0 -39.5 8.5q-16.5 8.5 -16.5 28.5q0 20 15.5 28.5q15.5 8.5 37.5 8.5q13 0 30.5 -3.5q17.5 -3.5 34.5 -7q17 -3.5 33 -7q16 -3.5 28 -3.5q0 13 -3 29.5q-3 16.5 -6.5 34.5q-3.5 18 -6.5 35q-3 17 -3 31q0 25 8.5 44q8.5 19 28.5 19q20 0 27.5 -18q7.5 -18 7.5 -41q0 -15 -2.5 -33q-2.5 -18 -6 -36q-3.5 -18 -6 -35q-2.5 -17 -2.5 -30q11 0 27 3.5q16 3.5 33.5 7q17.5 3.5 34.5 7q17 3.5 31 3.5q22 0 37.5 -8.5q15.5 -8.5 15.5 -28.5q0 -20 -16.5 -28.5q-16.5 -8.5 -39.5 -8.5q-13 0 -28.5 3q-15.5 3 -31 7q-15.5 4 -30 7q-14.5 3 -26.5 3h-7v-94q11 0 27 3.5q16 3.5 33.5 7q17.5 3.5 34.5 7q17 3.5 31 3.5q22 0 37.5 -8.5q15.5 -8.5 15.5 -28.5q0 -20 -16.5 -28.5q-16.5 -8.5 -39.5 -8.5q-13 0 -28.5 3q-15.5 3 -31 7q-15.5 4 -30 7q-14.5 3 -26.5 3h-7q0 -20 4 -44q4 -24 15 -38q9 -12 13.5 -16q4.5 -4 3.5 -9q0 -6 -4.5 -12.5q-4.5 -6.5 -12.5 -26.5q-8 -19 -12 -46q-4 -27 -6.5 -57.5q-2.5 -30.5 -3 -62.5q-0.5 -32 -0.5 -62q0 -12 0.5 -23q0.5 -11 0.5 -22q0 -42 -2.5 -64q-2.5 -22 -13.5 -22q-10 0 -13 18.5q-3 18.5 -3.5 49q-0.5 30.5 0 69.5q0.5 39 -0.5 79q-1 40 -5 77.5q-4 37.5 -15 65.5q-8 21 -13 27.5q-5 6.5 -5 12.5q1 4 5 8q4 4 13 16q11 15 15 39q4 24 4 43l-7 0q-12 0 -27 -3q-15 -3 -30.5 -7q-15.5 -4 -30.5 -7q-15 -3 -28 -3q-23 0 -39.5 8.5q-16.5 8.5 -16.5 28.5q0 20 15.5 28.5q15.5 8.5 37.5 8.5q13 0 30.5 -3.5q17.5 -3.5 34.5 -7q17 -3.5 33 -7q16 -3.5 28 -3.5z" />
<glyph unicode="&#183;" horiz-adv-x="298" d="M184 436v-80h-71l0 80z" />
<glyph unicode="&#182;" horiz-adv-x="523" d="M210 353q-33 4 -66 18q-33 14 -59 38.5q-26 24.5 -41.5 60.5q-15.5 36 -14.5 84q2 93 54 142.5q52 49.5 145 49.5h223v-873h-18q-19 0 -27 8q-8 8 -8 29v793h-137v-830h-15q-19 0 -27.5 8q-8.5 8 -8.5 29z" />
<glyph unicode="&#8226;" horiz-adv-x="920" d="M570 330q0 -23 -9 -43q-9 -20 -24 -35q-15 -15 -35 -24q-20 -9 -42 -9q-23 0 -43 9q-20 9 -35 24q-15 15 -23.5 35q-8.5 20 -8.5 43q0 22 8.5 42q8.5 20 23.5 35q15 15 35 23.5q20 8.5 43 8.5q22 0 42 -8.5q20 -8.5 35 -23.5q15 -15 24 -35t9 -42z" />
<glyph unicode="&#8221;" horiz-adv-x="490" d="M347 717h-58v95h114v-101q0 -49 -23 -86.5q-23 -37.5 -64 -55.5l-21 26q25 15 38.5 36.5q13.5 21.5 13.5 50.5zM157 717h-59v95h114v-101q0 -49 -23 -86.5q-23 -37.5 -64 -55.5l-20 26q24 15 38 36.5q14 21.5 14 50.5z" />
<glyph unicode="&#187;" horiz-adv-x="439" d="M174 288l-138 239l39 22l148 -261l-160 -261l-35 22zM361 288l-138 240l37 21l149 -261l-160 -261l-34 22z" />
<glyph unicode="&#8230;" horiz-adv-x="512" d="M102 0h-72v80h72zM292 0h-72v80h72zM482 0h-72v80l72 0z" />
<glyph unicode="&#8240;" horiz-adv-x="920" d="M496 746h48l-450 -760h-48zM82 557q0 -45 16 -67q16 -22 53 -22q36 0 52 22q16 22 16 67q0 46 -16 68.5q-16 22.5 -52 22.5q-69 0 -69 -91zt0 0zM30 557q0 71 33.5 100q33.5 29 87.5 29q52 0 86.5 -29q34.5 -29 34.5 -100q0 -34 -9 -58q-9 -24 -25 -39.5q-16 -15.5 -38.5 -22.5q-22.5 -7 -48.5 -7q-54 0 -87.5 28q-33.5 28 -33.5 99zt0 0zM385 192q0 -45 16 -67q16 -22 53 -22q36 0 52 22q16 22 16 67q0 46 -16 68.5q-16 22.5 -52 22.5q-69 0 -69 -91zt0 0zM333 192q0 71 33.5 100q33.5 29 87.5 29q52 0 86.5 -29q34.5 -29 34.5 -100q0 -34 -9 -58q-9 -24 -25 -39.5q-16 -15.5 -38.5 -22.5q-22.5 -7 -48.5 -7q-54 0 -87.5 28q-33.5 28 -33.5 99zt0 0zM693 192q0 -45 16 -67q16 -22 53 -22q36 0 52 22q16 22 16 67q0 46 -16 68.5q-16 22.5 -52 22.5q-69 0 -69 -91zt0 0zM641 192q0 71 33.5 100q33.5 29 87.5 29q52 0 86.5 -29q34.5 -29 34.5 -100q0 -34 -9 -58q-9 -24 -25 -39.5q-16 -15.5 -38.5 -22.5q-22.5 -7 -48.5 -7q-54 0 -87.5 28t-33.5 99z" />
<glyph unicode="&#96;" horiz-adv-x="278" d="M126 855l96 -224l-15 -7q-8 -4 -15 -1.5q-7 2.5 -15 15.5l-112 187z" />
<glyph unicode="&#172;" horiz-adv-x="630" d="M571 263h-58v225h-473v42l531 0z" />
<glyph unicode="&#181;" horiz-adv-x="552" d="M266 0q-43 0 -77.5 7.5q-34.5 7.5 -59.5 24.5l0 -226h-22q-19 0 -28 8q-9 8 -9 29v707h59v-357q0 -47 7 -76q7 -29 23.5 -45.5q16.5 -16.5 42.5 -22.5q26 -6 64 -6h154v507h60l0 -550z" />
<glyph unicode="&#8482;" horiz-adv-x="920" d="M518 648v-300h-23q-17 0 -26.5 12.5q-9.5 12.5 -9.5 26.5v359h60l147 -238q4 -6 9.5 -9q5.5 -3 12.5 8l147 239h59v-398h-21q-18 0 -28 11.5q-10 11.5 -10 30.5v258l-111 -170q-9 -14 -21.5 -22q-12.5 -8 -25.5 -8q-13 0 -24.5 8q-11.5 8 -20.5 22zM233 700v-352h-22q-17 0 -27.5 10q-10.5 10 -10.5 30v312h-145v46h352v-13q0 -18 -6.5 -25.5q-6.5 -7.5 -30.5 -7.5z" />
<glyph unicode="&#177;" horiz-adv-x="609" d="M330 651v-205h214v-42h-214v-208h-60v208h-212v42h212v205zM68 38v42h466l0 -42z" />
<glyph unicode="&#247;" horiz-adv-x="492" d="M29 371v43h433v-43zM278 250v-81h-70v81zM278 616v-80h-70l0 80z" />
<glyph unicode="&#166;" horiz-adv-x="212" d="M131 492h-49v254h49zM131 0h-49v254l49 0z" />
<glyph unicode="&#176;" horiz-adv-x="348" d="M49 620q0 27 9.5 49q9.5 22 26 38q16.5 16 39.5 25q23 9 50 9q54 0 89.5 -33.5q35.5 -33.5 35.5 -87.5q0 -27 -9.5 -49.5q-9.5 -22.5 -26.5 -38.5q-17 -16 -39.5 -24.5q-22.5 -8.5 -49.5 -8.5q-54 0 -89.5 33q-35.5 33 -35.5 88zt0 0zM82 620q0 -42 24.5 -65.5q24.5 -23.5 66.5 -23.5q41 0 66.5 23.5q25.5 23.5 25.5 65.5q0 40 -25.5 64.5q-25.5 24.5 -66.5 24.5q-42 0 -66.5 -24.5t-24.5 -64.5z" />
<glyph unicode="&#174;" horiz-adv-x="869" d="M44 376q0 91 28 164q28 73 80 124q52 51 125 78.5q73 27.5 163 27.5q90 0 162.5 -27.5q72.5 -27.5 124.5 -78.5q52 -51 80 -124q28 -73 28 -164q0 -90 -28 -162.5q-28 -72.5 -80 -123.5q-52 -51 -124.5 -78.5q-72.5 -27.5 -162.5 -27.5q-90 0 -163 27.5q-73 27.5 -125 78.5q-52 51 -80 123.5q-28 72.5 -28 162.5zt0 0zM88 376q0 -82 24 -147q24 -65 69 -110.5q45 -45.5 110 -69.5q65 -24 148 -24q82 0 147 24q65 24 110.5 69.5q45.5 45.5 70 110.5q24.5 65 24.5 147q0 82 -24.5 147q-24.5 65 -70 111q-45.5 46 -110.5 70.5q-65 24.5 -147 24.5q-83 0 -148 -24.5q-65 -24.5 -110 -70.5q-45 -46 -69 -111q-24 -65 -24 -147zt0 0zM463 343h-136v-224h-20q-14 0 -20 6q-6 6 -6 22v473h191q39 0 65 -8q26 -8 42.5 -22.5q16.5 -14.5 23.5 -34.5q7 -20 7 -44v-49q0 -37 -22 -69.5q-22 -32.5 -78 -41.5l115 -232h-47zM327 582v-201h145q45 0 69 22q24 22 24 65v30q0 40 -22.5 62q-22.5 22 -70.5 22z" />
<glyph unicode="&#169;" horiz-adv-x="864" d="M38 376q0 91 28 164q28 73 80 124q52 51 125 78.5q73 27.5 163 27.5q90 0 162.5 -27.5q72.5 -27.5 124.5 -78.5q52 -51 80 -124q28 -73 28 -164q0 -90 -28 -162.5q-28 -72.5 -80 -123.5q-52 -51 -124.5 -78.5q-72.5 -27.5 -162.5 -27.5q-90 0 -163 27.5q-73 27.5 -125 78.5q-52 51 -80 123.5q-28 72.5 -28 162.5zt0 0zM82 376q0 -82 24 -147q24 -65 69 -110.5q45 -45.5 110 -69.5q65 -24 148 -24q82 0 147 24q65 24 110.5 69.5q45.5 45.5 70 110.5q24.5 65 24.5 147q0 82 -24.5 147q-24.5 65 -70 111q-45.5 46 -110.5 70.5q-65 24.5 -147 24.5q-83 0 -148 -24.5q-65 -24.5 -110 -70.5q-45 -46 -69 -111q-24 -65 -24 -147zt0 0zM571 161v-10q0 -13 -8.5 -22.5q-8.5 -9.5 -38.5 -9.5h-93q-44 0 -80.5 12.5q-36.5 12.5 -63 35.5q-26.5 23 -41 56q-14.5 33 -14.5 74v142q0 41 14.5 74.5q14.5 33.5 41 57q26.5 23.5 63 36.5q36.5 13 80.5 13h135v-8q0 -14 -7 -24.5q-7 -10.5 -36 -10.5h-92q-68 0 -103.5 -35q-35.5 -35 -35.5 -103v-141q0 -62 35.5 -99.5q35.5 -37.5 103.5 -37.5z" />
<glyph unicode="&#160;" horiz-adv-x="300" />
<glyph unicode="&#173;" horiz-adv-x="312" d="M288 419v-43h-265l0 43z" />
<glyph unicode="&#1026;" horiz-adv-x="858" d="M261 703h-245v43h550v-10q0 -18 -6.5 -25.5q-6.5 -7.5 -30.5 -7.5h-209v-280q12 8 33.5 19q21.5 11 50.5 21.5q29 10.5 65 17.5q36 7 77 7q55 0 103 -16.5q48 -16.5 82.5 -48q34.5 -31.5 54.5 -77.5q20 -46 20 -105q0 -118 -60 -179.5q-60 -61.5 -182 -61.5h-53v8q0 14 8 24.5q8 10.5 31 10.5h11q93 0 140 42q47 42 47 147q0 51 -14.5 89.5q-14.5 38.5 -41.5 64.5q-27 26 -64.5 39q-37.5 13 -83.5 13q-54 0 -108 -16.5q-54 -16.5 -116 -48.5l0 -373h-22q-16 0 -26.5 11q-10.5 11 -10.5 28z" />
<glyph unicode="&#1027;" horiz-adv-x="551" d="M132 0h-23q-20 0 -27 8.5q-7 8.5 -7 29.5v708h455v-10q0 -14 -7.5 -23.5q-7.5 -9.5 -31.5 -9.5h-359zM373 953l-85 -114q-16 -22 -47 -22h-12l81 136z" />
<glyph unicode="&#1028;" horiz-adv-x="566" d="M523 32q0 -13 -8.5 -22.5q-8.5 -9.5 -37.5 -9.5h-223q-41 0 -75.5 13.5q-34.5 13.5 -60 37.5q-25.5 24 -39.5 57.5q-14 33.5 -14 74.5v384q0 81 55.5 130q55.5 49 157.5 49h234v-11q0 -14 -8 -23q-8 -9 -37 -9h-185q-159 0 -159 -150v-155h304v-9q0 -14 -6 -23q-6 -9 -29 -9h-269v-167q0 -29 8.5 -56q8.5 -27 25.5 -47q17 -20 42 -32q25 -12 59 -12l265 0z" />
<glyph unicode="&#1029;" horiz-adv-x="553" d="M41 0v13q0 16 8.5 23q8.5 7 31.5 7h183q91 0 138 34.5q47 34.5 47 103.5q0 48 -29.5 82.5q-29.5 34.5 -104.5 68.5l-137 62q-63 29 -96 76.5q-33 47.5 -33 104.5q0 38 13.5 69.5q13.5 31.5 41 54q27.5 22.5 69.5 35q42 12.5 100 12.5h208v-16q0 -17 -9.5 -22q-9.5 -5 -31.5 -5h-167q-32 0 -62 -5.5q-30 -5.5 -52.5 -20q-22.5 -14.5 -36 -39.5q-13.5 -25 -13.5 -63q0 -54 27.5 -86q27.5 -32 84.5 -57l132 -59q78 -35 116.5 -83.5q38.5 -48.5 38.5 -107.5q0 -54 -21.5 -89.5q-21.5 -35.5 -56 -56q-34.5 -20.5 -77.5 -28.5q-43 -8 -86 -8z" />
<glyph unicode="&#1030;" horiz-adv-x="226" d="M144 746v-746h-24q-18 0 -26 8q-8 8 -8 28l0 710z" />
<glyph unicode="&#1031;" horiz-adv-x="226" d="M144 746v-746h-24q-18 0 -26 8q-8 8 -8 28v710zM227 839h-64v71h64zM64 839h-65v71l65 0z" />
<glyph unicode="&#1032;" horiz-adv-x="388" d="M119 43q69 0 101.5 32q32.5 32 32.5 105v566h58v-566q0 -93 -46 -136.5q-46 -43.5 -146 -43.5h-105v16q0 27 38 27z" />
<glyph unicode="&#1033;" horiz-adv-x="1136" d="M176 746h461v-338h223q45 0 83.5 -8.5q38.5 -8.5 66.5 -28q28 -19.5 43.5 -51q15.5 -31.5 15.5 -78.5v-69q0 -47 -17.5 -79.5q-17.5 -32.5 -46.5 -53.5q-29 -21 -67 -30.5q-38 -9.5 -79 -9.5h-278v703h-345v-523q0 -46 -8 -80q-8 -34 -27.5 -56q-19.5 -22 -53 -33q-33.5 -11 -83.5 -11h-41v15q0 28 38 28q37 0 59.5 8q22.5 8 35 24.5q12.5 16.5 16.5 42.5q4 26 4 62zM637 365v-322h221q39 0 68 10.5q29 10.5 48 29q19 18.5 28 43.5q9 25 9 53v49q0 28 -8.5 53q-8.5 25 -26.5 44q-18 19 -47 29.5q-29 10.5 -70 10.5z" />
<glyph unicode="&#1034;" horiz-adv-x="1063" d="M133 419h380v327h60v-338h225q45 0 83 -8.5q38 -8.5 66 -28.5q28 -20 43.5 -52q15.5 -32 15.5 -79v-67q0 -47 -17 -79.5q-17 -32.5 -46 -53.5q-29 -21 -67 -30.5q-38 -9.5 -79 -9.5h-284v404q-11 -13 -28 -20.5q-17 -7.5 -37 -7.5h-315v-376h-25q-18 0 -26 8q-8 8 -8 28v710h59zM573 365v-322h223q39 0 68 10.5q29 10.5 47.5 29q18.5 18.5 28 43.5q9.5 25 9.5 53v47q0 28 -8.5 53.5q-8.5 25.5 -26.5 44.5q-18 19 -47 30q-29 11 -70 11z" />
<glyph unicode="&#1035;" horiz-adv-x="747" d="M267 703h-246v43h550v-10q0 -18 -6.5 -25.5q-6.5 -7.5 -30.5 -7.5h-208v-153h178q91 0 133.5 -39q42.5 -39 42.5 -119v-392h-20q-18 0 -28.5 8q-10.5 8 -10.5 30v353q0 63 -31.5 89.5q-31.5 26.5 -85.5 26.5h-178v-507h-25q-16 0 -25 11.5q-9 11.5 -9 25.5z" />
<glyph unicode="&#1036;" horiz-adv-x="551" d="M175 383q35 27 57 64q22 37 39 77.5q17 40.5 33.5 80q16.5 39.5 40.5 71q24 31.5 59.5 51q35.5 19.5 90.5 19.5h34v-6q0 -17 -6 -27q-6 -10 -29 -10q-37 0 -64 -17.5q-27 -17.5 -47 -46q-20 -28.5 -35.5 -63.5q-15.5 -35 -31.5 -70.5q-16 -35.5 -35 -67.5q-19 -32 -44 -53l292 -385h-66zM136 746v-746h-24q-17 0 -26 11.5q-9 11.5 -9 28.5v706zM362 953l-85 -114q-16 -22 -47 -22h-12l81 136z" />
<glyph unicode="&#1038;" horiz-adv-x="605" d="M83 0v10q0 18 9.5 25.5q9.5 7.5 32.5 7.5h247q30 0 49.5 7q19.5 7 31 19q11.5 12 16 29q4.5 17 4.5 38v123q-25 -4 -58 -7.5q-33 -3.5 -67.5 -6.5q-34.5 -3 -67 -4.5q-32.5 -1.5 -56.5 -1.5q-83 0 -126 43q-43 43 -43 122v341h58v-340q0 -124 115 -124q30 0 64 1.5q34 1.5 67 3.5q33 2 63 5.5q30 3.5 51 8.5l0 445h57v-610q0 -58 -36.5 -96.5q-36.5 -38.5 -121.5 -38.5zM206 930q2 -43 29 -67.5q27 -24.5 65 -24.5q38 0 63.5 23.5q25.5 23.5 26.5 68.5l44 0q0 -26 -9.5 -49q-9.5 -23 -27 -40.5q-17.5 -17.5 -43 -28q-25.5 -10.5 -58.5 -10.5q-33 0 -58 10.5q-25 10.5 -41.5 28q-16.5 17.5 -25 40.5q-8.5 23 -8.5 49z" />
<glyph unicode="&#1039;" horiz-adv-x="657" d="M578 0h-223v-170h-24q-17 0 -25.5 8.5q-8.5 8.5 -8.5 28.5v133h-224v746h58v-703h390v703l57 0z" />
<glyph unicode="&#1106;" horiz-adv-x="620" d="M28 691h107v60h59v-60h213v-8q0 -14 -6.5 -24q-6.5 -10 -28.5 -10h-178v-99h183q90 0 132.5 -39q42.5 -39 42.5 -119v-469q0 -62 -29 -89.5q-29 -27.5 -95 -27.5h-54v7q0 15 8 25.5q8 10.5 32 10.5q24 0 39.5 4q15.5 4 24.5 13q9 9 12 23.5q3 14.5 3 35.5v466q0 63 -31.5 89.5q-31.5 26.5 -85.5 26.5h-182v-507h-19q-40 0 -40 42v607l-107 0z" />
<glyph unicode="&#1107;" horiz-adv-x="467" d="M132 0h-19q-40 0 -40 43v507h358v-8q0 -15 -8 -25q-8 -10 -32 -10h-259zM313 753l-85 -114q-16 -22 -47 -22h-12l81 136z" />
<glyph unicode="&#1108;" horiz-adv-x="485" d="M444 43v-11q0 -13 -9 -22.5q-9 -9.5 -38 -9.5h-137q-44 0 -80.5 12.5q-36.5 12.5 -62.5 35.5q-26 23 -40.5 56q-14.5 33 -14.5 74v192q0 41 14.5 74q14.5 33 40.5 56.5q26 23.5 62.5 36.5q36.5 13 80.5 13h179v-8q0 -14 -7 -24.5q-7 -10.5 -36 -10.5h-136q-68 0 -103.5 -35q-35.5 -35 -35.5 -102v-74h269v-8q0 -14 -6 -24q-6 -10 -29 -10h-234v-75q0 -61 35.5 -98.5q35.5 -37.5 103.5 -37.5z" />
<glyph unicode="&#1109;" horiz-adv-x="452" d="M383 550v-15q0 -28 -44 -28h-117q-61 0 -87 -28q-26 -28 -26 -66q0 -29 17.5 -54q17.5 -25 62.5 -40l96 -32q72 -24 99 -59.5q27 -35.5 27 -84.5q0 -70 -48 -106.5q-48 -36.5 -133 -36.5h-177v11q0 32 41 32h136q54 0 88.5 23.5q34.5 23.5 34.5 76.5q0 35 -16 58.5q-16 23.5 -61 38.5l-97 32q-68 23 -99 54q-31 31 -31 87q0 24 10 48.5q10 24.5 31 44q21 19.5 53.5 32q32.5 12.5 78.5 12.5z" />
<glyph unicode="&#1110;" horiz-adv-x="214" d="M136 550v-550h-21q-39 0 -39 42v508zM76 751h60v-103h-10q-21 0 -35.5 11.5q-14.5 11.5 -14.5 33.5z" />
<glyph unicode="&#1111;" horiz-adv-x="204" d="M215 639h-64v71h64zM52 639h-65v71h65zM131 550v-550h-24q-20 0 -28 8q-8 8 -8 30l0 512z" />
<glyph unicode="&#1112;" horiz-adv-x="292" d="M157 751h59v-103h-10q-20 0 -34.5 11.5q-14.5 11.5 -14.5 33.5zM157 550h59v-609q0 -78 -35 -114q-35 -36 -109 -36h-81v12q0 16 9.5 24q9.5 8 25.5 8h46q28 0 44.5 7.5q16.5 7.5 25.5 21q9 13.5 12 33.5q3 20 3 44z" />
<glyph unicode="&#1113;" horiz-adv-x="939" d="M161 550h374v-207h137q46 0 85 -7.5q39 -7.5 67 -25.5q28 -18 44 -49q16 -31 16 -78v-16q0 -47 -17.5 -79q-17.5 -32 -47 -51.5q-29.5 -19.5 -68 -28q-38.5 -8.5 -80.5 -8.5h-194v507h-256v-324q0 -46 -3.5 -80q-3.5 -34 -19 -57q-15.5 -23 -47 -34.5q-31.5 -11.5 -86.5 -11.5h-43v13q0 17 8.5 23.5q8.5 6.5 31.5 6.5q33 0 52.5 6.5q19.5 6.5 30 21.5q10.5 15 13.5 39.5q3 24.5 3 59.5zM535 300v-257h135q79 0 117.5 36q38.5 36 38.5 93q0 28 -9 51.5q-9 23.5 -27.5 40.5q-18.5 17 -48 26.5q-29.5 9.5 -70.5 9.5z" />
<glyph unicode="&#1114;" horiz-adv-x="888" d="M132 0h-19q-39 0 -39 41v509h58v-231h293v231h58v-209h138q46 0 85.5 -7q39.5 -7 68 -25q28.5 -18 44.5 -49q16 -31 16 -78v-16q0 -47 -18 -78.5q-18 -31.5 -47.5 -51q-29.5 -19.5 -68.5 -28q-39 -8.5 -81 -8.5h-195v303q-12 -14 -29 -20.5q-17 -6.5 -36 -6.5h-228zM483 298v-255h136q81 0 118.5 35.5q37.5 35.5 37.5 92.5q0 28 -8.5 51q-8.5 23 -27.5 40q-19 17 -48 26.5q-29 9.5 -71 9.5z" />
<glyph unicode="&#1115;" horiz-adv-x="593" d="M172 507v-507h-19q-40 0 -40 42v601h-85v42h85v66h59v-66h234v-8q0 -14 -6 -24q-6 -10 -29 -10h-199v-93h182q91 0 133.5 -39q42.5 -39 42.5 -119v-392h-20q-18 0 -28.5 8q-10.5 8 -10.5 30v353q0 63 -31.5 89.5q-31.5 26.5 -85.5 26.5z" />
<glyph unicode="&#1116;" horiz-adv-x="504" d="M133 550v-550h-21q-37 0 -37 41v509zM160 283q28 15 48.5 30.5q20.5 15.5 35.5 33q15 17.5 26.5 39q11.5 21.5 22.5 48.5q13 35 28 57.5q15 22.5 33 35.5q18 13 40 18q22 5 49 5h36v-6q0 -17 -6.5 -27q-6.5 -10 -30.5 -10q-13 0 -26 -3.5q-13 -3.5 -25 -13.5q-12 -10 -24 -28.5q-12 -18.5 -24 -49.5q-16 -38 -40 -75q-24 -37 -68 -62l222 -275h-67zM331 753l-85 -114q-16 -22 -47 -22h-12l81 136z" />
<glyph unicode="&#1118;" horiz-adv-x="544" d="M93 -209v14q0 18 9.5 25.5q9.5 7.5 32.5 7.5h178q30 0 50 6.5q20 6.5 31.5 19q11.5 12.5 16 29.5q4.5 17 4.5 38v100q-40 -4 -90.5 -7q-50.5 -3 -99.5 -5q-84 -2 -122.5 43.5q-38.5 45.5 -38.5 125.5v362h60v-360q0 -64 22.5 -96.5q22.5 -32.5 84.5 -30.5q22 0 46.5 1.5q24.5 1.5 49.5 3.5q25 2 47.5 4q22.5 2 40.5 4l0 474h60v-621q0 -29 -9 -54q-9 -25 -28.5 -44q-19.5 -19 -50.5 -29.5q-31 -10.5 -74 -10.5zM176 730q2 -43 29 -67.5q27 -24.5 65 -24.5q38 0 63.5 23.5q25.5 23.5 26.5 68.5l44 0q0 -26 -9.5 -49q-9.5 -23 -27 -40.5q-17.5 -17.5 -43 -28q-25.5 -10.5 -58.5 -10.5q-33 0 -58 10.5q-25 10.5 -41.5 28q-16.5 17.5 -25 40.5q-8.5 23 -8.5 49z" />
<glyph unicode="&#1119;" horiz-adv-x="605" d="M529 0h-194v-170h-24q-17 0 -25.5 8.5q-8.5 8.5 -8.5 30.5v131h-201v550h60v-507h335v507l58 0z" />
<glyph unicode="&#1168;" horiz-adv-x="568" d="M533 918v-215h-395v-703h-20q-40 0 -40 44v702h395l0 172z" />
<glyph unicode="&#1169;" horiz-adv-x="472" d="M434 722v-215h-298v-507h-22q-38 0 -38 45v505h298l0 172z" />
<glyph unicode="&#8364;" horiz-adv-x="920" d="M130 236v42h150v188h-150v42h150v59q0 86 55.5 132.5q55.5 46.5 157.5 46.5h234v-11q0 -14 -8 -23q-8 -9 -37 -9h-186q-157 0 -157 -150v-45h202v-42h-202v-188h202v-42h-202v-46q0 -29 8.5 -56q8.5 -27 25 -47q16.5 -20 41.5 -32q25 -12 59 -12h265v-11q0 -13 -8.5 -22.5q-8.5 -9.5 -38.5 -9.5h-222q-41 0 -76 12.5q-35 12.5 -60 36q-25 23.5 -39 57.5q-14 34 -14 77l0 53z" />
<glyph unicode="&#8710;" horiz-adv-x="920" d="M450 631q3 7 8 14.5q5 7.5 13 9.5q8 2 13.5 -7q5.5 -9 8.5 -15l289 -622q1 -2 4 -7.5q3 -5.5 6 -13q3 -7.5 4.5 -14q1.5 -6.5 -0.5 -9.5q-5 -8 -17 -7.5q-12 0.5 -18 0.5h-590q-5 0 -15.5 -1q-10.5 -1 -14.5 6q-4 8 2 19q6 11 7 14zM448 541l-244 -513l482 0z" />
<glyph unicode="&#8730;" horiz-adv-x="920" d="M68 198l98 140l158 -342l309 782h223v-47l-192 1l-337 -835l-174 356l-61 -89z" />
<glyph unicode="&#8734;" horiz-adv-x="920" d="M294 486q36 0 64 -15q28 -15 48.5 -34.5q20.5 -19.5 33 -40q12.5 -20.5 18.5 -30.5q5 10 17 30.5q12 20.5 32 40q20 19.5 48 34.5q28 15 66 15q33 0 62.5 -12.5q29.5 -12.5 51 -34.5q21.5 -22 34.5 -52q13 -30 13 -64q0 -34 -13 -64q-13 -30 -34.5 -52q-21.5 -22 -51 -34.5q-29.5 -12.5 -62.5 -12.5q-36 0 -64.5 15q-28.5 15 -48.5 34.5q-20 19.5 -33 39.5q-13 20 -18 30q-5 -10 -17 -30q-12 -20 -31.5 -39.5q-19.5 -19.5 -48 -34.5q-28.5 -15 -66.5 -15q-33 0 -62.5 12.5q-29.5 12.5 -51.5 34.5q-22 22 -35 52q-13 30 -13 64q0 34 13 64q13 30 35 52q22 22 51.5 34.5q29.5 12.5 62.5 12.5zt0 0zM174 323q0 -25 9.5 -47.5q9.5 -22.5 26 -39q16.5 -16.5 38.5 -26.5q22 -10 46 -10q32 0 56 16.5q24 16.5 40 37.5q16 21 25 40.5q9 19.5 12 25.5q-2 7 -10.5 28q-8.5 21 -24.5 43.5q-16 22.5 -40.5 39.5q-24.5 17 -57.5 17q-24 0 -46 -10q-22 -10 -38.5 -27.5q-16.5 -17.5 -26 -40q-9.5 -22.5 -9.5 -47.5zt0 0zM741 323q0 25 -10 47.5q-10 22.5 -26.5 40q-16.5 17.5 -38 27.5q-21.5 10 -45.5 10q-35 0 -60 -18.5q-25 -18.5 -41.5 -41q-16.5 -22.5 -25 -42.5q-8.5 -20 -9.5 -23q2 -6 11 -25.5q9 -19.5 25.5 -41q16.5 -21.5 41 -38.5q24.5 -17 58.5 -17q24 0 45.5 9.5q21.5 9.5 38 26q16.5 16.5 26.5 38.5t10 48z" />
<glyph unicode="&#8776;" horiz-adv-x="920" d="M155 381q10 10 24.5 28q14.5 18 34.5 35q20 17 46 29.5q26 12.5 58 12.5q34 0 58.5 -6.5q24.5 -6.5 45 -16q20.5 -9.5 38.5 -20.5q18 -11 38.5 -20.5q20.5 -9.5 46 -16q25.5 -6.5 60.5 -6.5q25 0 49.5 7q24.5 7 45.5 18q21 11 38 23q17 12 29 23q1 1 2 1q3 0 6.5 -3q3.5 -3 3.5 -8q0 -10 -16.5 -26.5q-16.5 -16.5 -43 -32q-26.5 -15.5 -58.5 -27q-32 -11.5 -63 -11.5q-41 0 -69 9q-28 9 -53 21.5q-25 12.5 -50.5 25.5q-25.5 13 -60.5 21q-27 6 -48 6q-24 0 -43 -6.5q-19 -6.5 -36 -17q-17 -10.5 -34.5 -24q-17.5 -13.5 -37.5 -27.5q-5 -3 -7 -3q-6 0 -6 7q0 3 2 5zt0 0zM155 117q10 10 24.5 28q14.5 18 34.5 35q20 17 46 29.5q26 12.5 58 12.5q34 0 58.5 -6.5q24.5 -6.5 45 -16q20.5 -9.5 38.5 -20.5q18 -11 38.5 -20.5q20.5 -9.5 46 -16q25.5 -6.5 60.5 -6.5q25 0 49.5 7q24.5 7 45.5 18q21 11 38 23q17 12 29 23q1 1 2 1q3 0 6.5 -3q3.5 -3 3.5 -8q0 -10 -16.5 -26.5q-16.5 -16.5 -43 -32q-26.5 -15.5 -58.5 -27q-32 -11.5 -63 -11.5q-41 0 -69 9q-28 9 -53 21.5q-25 12.5 -50.5 25.5q-25.5 13 -60.5 21q-27 6 -48 6q-24 0 -43 -6.5q-19 -6.5 -36 -17q-17 -10.5 -34.5 -24q-17.5 -13.5 -37.5 -27.5q-5 -3 -7 -3q-6 0 -6 7q0 3 2 5z" />
<glyph unicode="&#8800;" horiz-adv-x="920" d="M767 263v-43h-332l-62 -175l-49 14l57 161h-204v43h219l56 161h-275v43h290l63 177l49 -13l-57 -164h245v-43h-260l-57 -161z" />
<glyph unicode="&#8804;" horiz-adv-x="920" d="M271 381l473 -196l-19 -39l-562 234l555 231l17 -38zM766 67v-42h-607l0 42z" />
<glyph unicode="&#8805;" horiz-adv-x="920" d="M200 146l-17 39l469 196l-463 192l17 38l552 -231zM766 25h-607v42l607 0z" />
<glyph unicode="&#1040;" horiz-adv-x="631" d="M466 264q-8 -15 -26 -24.5q-18 -9.5 -38 -9.5h-247l-78 -230h-60l252 746h72q9 0 17.5 -7.5q8.5 -7.5 11.5 -16.5l245 -722h-60zM168 274h296l-148 440z" />
<glyph unicode="&#1041;" horiz-adv-x="601" d="M514 746v-10q0 -14 -6.5 -23.5q-6.5 -9.5 -27.5 -9.5h-348v-251h214q45 0 83 -8.5q38 -8.5 66 -28.5q28 -20 43.5 -52q15.5 -32 15.5 -79v-111q0 -47 -17.5 -79.5q-17.5 -32.5 -46.5 -53.5q-29 -21 -66.5 -30.5q-37.5 -9.5 -78.5 -9.5h-272v746zM132 409v-366h212q39 0 67.5 10.5q28.5 10.5 47.5 29q19 18.5 28 43.5q9 25 9 53v91q0 28 -8.5 53.5q-8.5 25.5 -26.5 44.5q-18 19 -47 30q-29 11 -69 11z" />
<glyph unicode="&#1042;" horiz-adv-x="610" d="M356 746q52 0 88 -12q36 -12 57.5 -33.5q21.5 -21.5 31 -51.5q9.5 -30 9.5 -65v-47q0 -50 -18 -88q-18 -38 -68 -61q53 -13 81 -54.5q28 -41.5 28 -92.5v-69q0 -48 -15 -80.5q-15 -32.5 -42.5 -53q-27.5 -20.5 -66 -29.5q-38.5 -9 -85.5 -9h-283v746zM130 703v-294h227q39 0 64 11.5q25 11.5 39 30.5q14 19 19.5 41.5q5.5 22.5 5.5 45.5v41q0 53 -31 88.5q-31 35.5 -97 35.5zM130 366v-323h225q76 0 113.5 34q37.5 34 37.5 100v50q0 28 -8.5 53.5q-8.5 25.5 -26.5 44.5q-18 19 -46.5 30q-28.5 11 -68.5 11z" />
<glyph unicode="&#1043;" horiz-adv-x="537" d="M131 698v-698h-23q-20 0 -27 8.5q-7 8.5 -7 29.5v708h433v-15q0 -14 -7.5 -23.5q-7.5 -9.5 -31.5 -9.5z" />
<glyph unicode="&#1044;" horiz-adv-x="695" d="M629 0h-563v-170h-6q-28 0 -38 10q-10 10 -10 39v164h67l225 703h59q17 0 24 -6.5q7 -6.5 12 -20.5l217 -676h67v-213h-6q-28 0 -38 10q-10 10 -10 39zM137 43h422l-212 670z" />
<glyph unicode="&#1045;" horiz-adv-x="573" d="M74 0v746h443v-8q0 -17 -6.5 -26q-6.5 -9 -28.5 -9h-349v-284h350v-11q0 -14 -6 -23q-6 -9 -28 -9h-316v-333h396v-10q0 -14 -6.5 -23.5q-6.5 -9.5 -27.5 -9.5z" />
<glyph unicode="&#1046;" horiz-adv-x="887" d="M520 385l278 361h68l-277 -360l298 -386h-45q-10 0 -19.5 3q-9.5 3 -16.5 14zM481 746v-746h-22q-37 0 -37 41v705zM97 17q-7 -11 -16.5 -14q-9.5 -3 -19.5 -3h-45l298 386l-277 360h68l278 -361z" />
<glyph unicode="&#1047;" horiz-adv-x="550" d="M79 0q-30 0 -38.5 9.5q-8.5 9.5 -8.5 22.5v11h241q37 0 65.5 3q28.5 3 47 14q18.5 11 28 33.5q9.5 22.5 9.5 60.5v112q-1 28 -11 47q-10 19 -28 30.5q-18 11.5 -43.5 16.5q-25.5 5 -58.5 6l-166 0q-17 0 -23.5 5.5q-6.5 5.5 -6.5 21.5v16h196q65 0 93.5 19.5q28.5 19.5 28.5 75.5v99q0 34 -11.5 54q-11.5 20 -31 30.5q-19.5 10.5 -45.5 13q-26 2.5 -55 2.5h-177q-29 0 -37 9q-8 9 -8 23v11h200q49 0 90.5 -5q41.5 -5 71 -21q29.5 -16 46 -46.5q16.5 -30.5 16.5 -81.5v-65q-1 -29 -4 -52.5q-3 -23.5 -10.5 -41q-7.5 -17.5 -20.5 -29.5q-13 -12 -35 -17q51 -8 70 -44.5q19 -36.5 19 -93.5v-82q0 -52 -9.5 -84.5q-9.5 -32.5 -32.5 -51q-23 -18.5 -61.5 -25q-38.5 -6.5 -96.5 -6.5z" />
<glyph unicode="&#1048;" horiz-adv-x="661" d="M526 652l-401 -652h-17q-18 0 -26 8q-8 8 -8 28v710h58v-651l400 651h52v-746h-23q-19 0 -27 8q-8 8 -8 28z" />
<glyph unicode="&#1049;" horiz-adv-x="661" d="M526 652l-401 -652h-17q-18 0 -26 8q-8 8 -8 28v710h58v-651l400 651h52v-746h-23q-19 0 -27 8q-8 8 -8 28zM232 802q-17 0 -26 8.5q-9 8.5 -9 31.5v12h248l0 -52z" />
<glyph unicode="&#1050;" horiz-adv-x="590" d="M172 387l320 359h68l-317 -356l331 -390h-47q-14 0 -25.5 5.5q-11.5 5.5 -22.5 19.5zM133 746v-746h-22q-37 0 -37 41l0 705z" />
<glyph unicode="&#1051;" horiz-adv-x="610" d="M558 0q-16 0 -24 8.5q-8 8.5 -18 37.5l-211 664l-209 -664q-10 -29 -18 -37.5q-8 -8.5 -24 -8.5h-37l245 746h59q17 0 24 -6.5q7 -6.5 12 -20.5l237 -719z" />
<glyph unicode="&#1052;" horiz-adv-x="853" d="M774 0h-21q-18 0 -28 11.5q-10 11.5 -10 30.5v617l-234 -424q-8 -14 -23.5 -24q-15.5 -10 -32.5 -10q-20 0 -33.5 10q-13.5 10 -21.5 23l-233 425v-659h-24q-17 0 -26.5 12.5q-9.5 12.5 -9.5 26.5v707h71l254 -467q8 -14 13 -19.5q5 -5.5 10 -5.5q5 0 10.5 5.5q5.5 5.5 13.5 19.5l255 467l70 0z" />
<glyph unicode="&#1053;" horiz-adv-x="650" d="M133 746v-327h381v327h59v-746h-24q-19 0 -27 8q-8 8 -8 28v372q-21 -32 -62 -32h-319v-376h-25q-18 0 -26 8q-8 8 -8 28l0 710z" />
<glyph unicode="&#1054;" horiz-adv-x="684" d="M340 760q145 0 214 -81q69 -81 69 -233v-148q0 -152 -69 -232q-69 -80 -214 -80q-144 0 -212.5 79.5q-68.5 79.5 -68.5 233.5v147q0 154 68.5 234q68.5 80 212.5 80zt0 0zM563 447q2 57 -11 105.5q-13 48.5 -40.5 84.5q-27.5 36 -70.5 56q-43 20 -101 20q-61 0 -103 -20.5q-42 -20.5 -68.5 -56.5q-26.5 -36 -38 -85q-11.5 -49 -11.5 -105v-148q0 -140 55 -202.5q55 -62.5 166 -62.5q113 0 168 62.5q55 62.5 55 203.5z" />
<glyph unicode="&#1055;" horiz-adv-x="645" d="M74 746h494v-746h-24q-18 0 -26.5 8q-8.5 8 -8.5 28v667h-376v-703h-24q-18 0 -26.5 8q-8.5 8 -8.5 28z" />
<glyph unicode="&#1056;" horiz-adv-x="601" d="M133 296v-296h-18q-19 0 -30 10.5q-11 10.5 -11 30.5v705h265q97 0 151 -39.5q54 -39.5 54 -134.5v-101q0 -25 -5.5 -55.5q-5.5 -30.5 -26 -57q-20.5 -26.5 -61.5 -44.5q-41 -18 -112 -18zM133 703v-363h206q77 0 111.5 32.5q34.5 32.5 34.5 98.5v101q0 30 -7.5 54q-7.5 24 -24.5 41.5q-17 17.5 -45 26.5q-28 9 -69 9z" />
<glyph unicode="&#1057;" horiz-adv-x="555" d="M519 32q0 -13 -8.5 -22.5q-8.5 -9.5 -38.5 -9.5h-222q-41 0 -76 12.5q-35 12.5 -60 36q-25 23.5 -39 57.5q-14 34 -14 77v384q0 86 55.5 132.5q55.5 46.5 157.5 46.5h234v-11q0 -14 -8 -23q-8 -9 -37 -9h-186q-157 0 -157 -150v-363q0 -29 8.5 -56q8.5 -27 25 -47q16.5 -20 41.5 -32q25 -12 59 -12l265 0z" />
<glyph unicode="&#1058;" horiz-adv-x="583" d="M264 703h-246v43h550v-10q0 -18 -6.5 -25.5q-6.5 -7.5 -30.5 -7.5h-208v-703h-21q-17 0 -27.5 10q-10.5 10 -10.5 30z" />
<glyph unicode="&#1059;" horiz-adv-x="588" d="M275 143l-267 603h68l228 -530l214 530h60l-285 -706q-5 -12 -9 -20q-4 -8 -8 -12.5q-4 -4.5 -9.5 -6q-5.5 -1.5 -14.5 -1.5l-35 0z" />
<glyph unicode="&#1060;" horiz-adv-x="788" d="M422 0h-24q-18 0 -26 8q-8 8 -8 28v52q-60 0 -115.5 6q-55.5 6 -97.5 31q-42 25 -67 76q-25 51 -25 142v103q0 90 24.5 141q24.5 51 66 76.5q41.5 25.5 97 32q55.5 6.5 117.5 6.5l0 74h58v-74q62 0 117.5 -6.5q55.5 -6.5 97 -32q41.5 -25.5 66 -76.5q24.5 -51 24.5 -141v-103q0 -91 -25 -142q-25 -51 -67.5 -76q-42.5 -25 -97.5 -31q-55 -6 -115 -6zM668 452q0 71 -19 112q-19 41 -52 62q-33 21 -78 26.5q-45 5.5 -97 5.5l0 -526q52 0 97 5.5q45 5.5 78 25.5q33 20 52 61q19 41 19 113zM118 337q0 -72 19 -113q19 -41 52 -61q33 -20 78 -25.5q45 -5.5 97 -5.5l0 526q-52 0 -97 -5.5q-45 -5.5 -78 -26.5q-33 -21 -52 -62q-19 -41 -19 -112z" />
<glyph unicode="&#1061;" horiz-adv-x="604" d="M18 0l253 374l-248 372h62l214 -325l215 325h63l-246 -372l250 -374h-65l-217 324l-215 -324z" />
<glyph unicode="&#1062;" horiz-adv-x="669" d="M567 43h74v-213h-21q-17 0 -25 8.5q-8 8.5 -8 28.5v133h-314q-50 0 -87.5 8q-37.5 8 -63 29q-25.5 21 -38 57q-12.5 36 -12.5 92v560h60v-561q0 -79 34 -110.5q34 -31.5 107 -31.5h235v703l59 0z" />
<glyph unicode="&#1063;" horiz-adv-x="572" d="M446 309v437h57v-746h-23q-17 0 -25.5 8.5q-8.5 8.5 -8.5 28.5v229h-202q-59 0 -100 10.5q-41 10.5 -66 34.5q-25 24 -36 63q-11 39 -11 96v276h57v-278q0 -47 9 -77.5q9 -30.5 27.5 -48.5q18.5 -18 48.5 -25.5q30 -7.5 72 -7.5z" />
<glyph unicode="&#1064;" horiz-adv-x="849" d="M130 185q0 -79 34 -110.5q34 -31.5 107 -31.5h122v703h58v-703h263v703h58v-746h-501q-50 0 -87.5 8q-37.5 8 -62 29q-24.5 21 -37 57q-12.5 36 -12.5 92v560l58 0z" />
<glyph unicode="&#1065;" horiz-adv-x="872" d="M130 185q0 -79 34 -110.5q34 -31.5 107 -31.5h122v703h58v-703h263v703h58v-703h74v-213h-21q-17 0 -25 8.5q-8 8.5 -8 28.5v133h-521q-50 0 -87.5 8q-37.5 8 -62 29q-24.5 21 -37 57q-12.5 36 -12.5 92v560l58 0z" />
<glyph unicode="&#1066;" horiz-adv-x="685" d="M57 705q-22 0 -28 9q-6 9 -6 23v9h198v-301h208q45 0 83 -8.5q38 -8.5 65.5 -28.5q27.5 -20 43.5 -52q16 -32 16 -79v-104q0 -47 -17.5 -79.5q-17.5 -32.5 -46.5 -53.5q-29 -21 -66.5 -30.5q-37.5 -9.5 -78.5 -9.5h-263v705zM221 402v-359h206q39 0 67.5 10.5q28.5 10.5 47 29q18.5 18.5 28 43.5q9.5 25 9.5 53v84q0 28 -8.5 53.5q-8.5 25.5 -26.5 44.5q-18 19 -47 30q-29 11 -69 11z" />
<glyph unicode="&#1067;" horiz-adv-x="749" d="M615 746h57v-746h-23q-17 0 -25.5 8.5q-8.5 8.5 -8.5 28.5zM130 746v-301h202q45 0 83 -8.5q38 -8.5 65.5 -28.5q27.5 -20 43.5 -52q16 -32 16 -79v-104q0 -47 -17.5 -79.5q-17.5 -32.5 -46.5 -53.5q-29 -21 -66.5 -30.5q-37.5 -9.5 -78.5 -9.5h-257v746zM130 402v-359h200q39 0 67.5 10.5q28.5 10.5 47 29q18.5 18.5 28 43.5q9.5 25 9.5 53v84q0 28 -8.5 53.5q-8.5 25.5 -26.5 44.5q-18 19 -47 30q-29 11 -69 11z" />
<glyph unicode="&#1068;" horiz-adv-x="595" d="M130 746v-301h208q45 0 83 -8.5q38 -8.5 65.5 -28.5q27.5 -20 43.5 -52q16 -32 16 -79v-104q0 -47 -17.5 -79.5q-17.5 -32.5 -46.5 -53.5q-29 -21 -66.5 -30.5q-37.5 -9.5 -78.5 -9.5h-263v746zM130 402v-359h206q39 0 67.5 10.5q28.5 10.5 47 29q18.5 18.5 28 43.5q9.5 25 9.5 53v84q0 28 -8.5 53.5q-8.5 25.5 -26.5 44.5q-18 19 -47 30q-29 11 -69 11z" />
<glyph unicode="&#1069;" horiz-adv-x="557" d="M33 43h265q34 0 59.5 12q25.5 12 42.5 32q17 20 25.5 47q8.5 27 8.5 56v165h-302q-22 0 -28 9q-6 9 -6 23v9h336v157q0 150 -159 150h-185q-30 0 -38 9.5q-8 9.5 -8 23.5v10h234q102 0 157.5 -49q55.5 -49 55.5 -130v-384q0 -41 -14 -74.5q-14 -33.5 -39 -57.5q-25 -24 -60 -37.5q-35 -13.5 -76 -13.5h-222q-30 0 -38.5 9.5q-8.5 9.5 -8.5 22.5z" />
<glyph unicode="&#1070;" horiz-adv-x="840" d="M779 290q0 -69 -16 -125q-16 -56 -49 -96q-33 -40 -84 -61.5q-51 -21.5 -120 -21.5q-69 0 -120 21.5q-51 21.5 -84 61.5q-33 40 -49 96q-16 56 -16 125v86h-108v-376h-25q-18 0 -26 8q-8 8 -8 28v710h59v-327h108v37q0 69 16 125q16 56 49 96q33 40 84 61.5q51 21.5 120 21.5q69 0 120 -21.5q51 -21.5 84 -61.5q33 -40 49 -96q16 -56 16 -125zM719 456q0 67 -17 116q-17 49 -46 80q-29 31 -66.5 46q-37.5 15 -79.5 15q-42 0 -79.5 -15q-37.5 -15 -66.5 -46q-29 -31 -46 -80q-17 -49 -17 -116v-166q0 -68 17 -116.5q17 -48.5 46 -79.5q29 -31 66.5 -46q37.5 -15 79.5 -15q42 0 79.5 15q37.5 15 66.5 46q29 31 46 79.5q17 48.5 17 116.5z" />
<glyph unicode="&#1071;" horiz-adv-x="589" d="M229 331q-40 0 -76.5 8q-36.5 8 -64 27.5q-27.5 19.5 -44 51.5q-16.5 32 -16.5 79v95q0 75 46 114.5q46 39.5 151 39.5h287v-746h-25q-18 0 -26 8.5q-8 8.5 -8 28.5v294h-146l-199 -305q-9 -14 -17 -20q-8 -6 -20 -6h-51l222 331zM453 703h-228q-72 0 -104.5 -32q-32.5 -32 -32.5 -96v-69q0 -131 137 -131l228 0z" />
<glyph unicode="&#1072;" horiz-adv-x="520" d="M451 0h-233q-81 0 -127 34q-46 34 -46 103v66q0 81 46 116.5q46 35.5 126 33.5q44 -1 83 -4q39 -3 91 -11l0 70q0 46 -27 72.5q-27 26.5 -83 26.5h-147q-29 0 -37 8q-8 8 -8 21v14h192q92 0 131 -36q39 -36 39 -106zM219 306q-60 0 -87 -24q-27 -24 -27 -83v-57q0 -31 11 -50q11 -19 27.5 -30q16.5 -11 36.5 -15q20 -4 39 -4h172v250q-52 6 -94 9.5t-78 3.5z" />
<glyph unicode="&#1073;" horiz-adv-x="531" d="M484 350v-156q0 -107 -55 -157.5q-55 -50.5 -164 -50.5q-53 0 -93.5 12.5q-40.5 12.5 -68 41q-27.5 28.5 -42 73q-14.5 44.5 -14.5 109.5v198q0 73 6.5 125q6.5 52 29 88q22.5 36 65.5 58q43 22 117 34l205 31v-24q0 -17 -6.5 -24.5q-6.5 -7.5 -36.5 -11.5l-159 -23q-44 -8 -74.5 -19.5q-30.5 -11.5 -50 -31.5q-19.5 -20 -28.5 -49q-9 -29 -9 -71v-35q31 50 79.5 67q48.5 17 101.5 17q99 0 148 -54.5q49 -54.5 49 -146.5zt0 0zM424 341q0 35 -9 66q-9 31 -28 54q-19 23 -49 36.5q-30 13.5 -73 13.5q-72 0 -115.5 -48q-43.5 -48 -43.5 -132v-132q0 -84 41 -127.5q41 -43.5 118 -43.5q76 0 117.5 42.5q41.5 42.5 41.5 128.5z" />
<glyph unicode="&#1074;" horiz-adv-x="521" d="M69 550h204q98 0 141 -30q43 -30 43 -100v-21q-2 -48 -20.5 -74q-18.5 -26 -48.5 -36q41 -9 66 -35.5q25 -26.5 25 -82.5v-27q0 -47 -18.5 -75q-18.5 -28 -48.5 -43.5q-30 -15.5 -68 -20.5q-38 -5 -77 -5h-198zM127 267v-224h139q40 0 69 4q29 4 48 15q19 11 28 30.5q9 19.5 9 49.5v23q0 30 -8.5 50q-8.5 20 -26.5 31.5q-18 11.5 -47 16q-29 4.5 -71 4.5zM256 309q39 0 66 4q27 4 44 13.5q17 9.5 24.5 27q7.5 17.5 7.5 44.5v22q0 54 -34.5 70.5q-34.5 16.5 -108.5 16.5h-128l0 -198z" />
<glyph unicode="&#1075;" horiz-adv-x="446" d="M128 507v-507h-19q-40 0 -40 43v507h358v-8q0 -15 -8 -25q-8 -10 -32 -10z" />
<glyph unicode="&#1076;" horiz-adv-x="566" d="M538 -170q-18 0 -28 9q-10 9 -10 31v143h-434v-183h-17q-18 0 -28 9q-10 9 -10 31v185h62l170 495h57q14 0 19 -4.5q5 -4.5 10 -15.5l164 -475h62v-225zM130 55h306l-154 452z" />
<glyph unicode="&#1077;" horiz-adv-x="523" d="M456 43v-14q0 -13 -7.5 -21q-7.5 -8 -37.5 -8h-171q-42 0 -76 11.5q-34 11.5 -58 33.5q-24 22 -37.5 53.5q-13.5 31.5 -13.5 70.5v203q0 52 17 88.5q17 36.5 45.5 59.5q28.5 23 66.5 33.5q38 10.5 80 10.5q46 0 85.5 -11.5q39.5 -11.5 68 -33q28.5 -21.5 44.5 -53.5q16 -32 16 -73v-84q0 -28 -14 -42q-14 -14 -47 -14h-302v-84q0 -31 10 -54.5q10 -23.5 27 -39.5q17 -16 39.5 -24q22.5 -8 48.5 -8zM115 296h260q28 0 35.5 8q7.5 8 7.5 34v55q0 59 -39.5 93.5q-39.5 34.5 -114.5 34.5q-69 0 -109 -34.5q-40 -34.5 -40 -93.5z" />
<glyph unicode="&#1078;" horiz-adv-x="728" d="M335 550h58v-550h-18q-20 0 -30 8q-10 8 -10 30zM315 296l-222 -278q-8 -9 -15.5 -13.5q-7.5 -4.5 -17.5 -4.5h-52l237 297l-226 253h72zM637 550h72l-226 -253l237 -297h-52q-17 0 -33 18l-222 278z" />
<glyph unicode="&#1079;" horiz-adv-x="449" d="M81 0q-29 0 -38 9.5q-9 9.5 -9 22.5v11h199q27 0 47 2q20 2 33.5 10.5q13.5 8.5 20 24.5q6.5 16 6.5 44v66q-2 42 -28 57q-26 15 -73 17l-145 0q-12 0 -16.5 4q-4.5 4 -4.5 16v22h166q47 0 67 14.5q20 14.5 20 55.5v57q0 25 -8 40q-8 15 -22 22.5q-14 7.5 -32.5 9.5q-18.5 2 -39.5 2h-142q-29 0 -36 10.5q-7 10.5 -7 24.5v8h187q35 0 64.5 -3.5q29.5 -3.5 50.5 -15.5q21 -12 32.5 -34.5q11.5 -22.5 11.5 -60.5v-48q-1 -42 -11.5 -68.5q-10.5 -26.5 -42.5 -34.5q68 -17 68 -102v-60q0 -38 -6.5 -62q-6.5 -24 -23 -37.5q-16.5 -13.5 -44 -18.5q-27.5 -5 -69.5 -5z" />
<glyph unicode="&#1080;" horiz-adv-x="569" d="M442 455l-333 -455h-12q-15 0 -21.5 6q-6.5 6 -6.5 21v523h57v-456l333 456h40v-550h-22q-19 0 -27 8q-8 8 -8 28z" />
<glyph unicode="&#1081;" horiz-adv-x="569" d="M442 455l-333 -455h-12q-15 0 -21.5 6q-6.5 6 -6.5 21v523h57v-456l333 456h40v-550h-22q-19 0 -27 8q-8 8 -8 28zM211 598q-17 0 -26 8.5q-9 8.5 -9 31.5v12h228l0 -52z" />
<glyph unicode="&#1082;" horiz-adv-x="503" d="M69 550h59v-550h-19q-20 0 -30 8q-10 8 -10 30zM408 550h74l-261 -254l274 -296h-60q-17 0 -33 18l-254 278z" />
<glyph unicode="&#1083;" horiz-adv-x="493" d="M88 29q-5 -17 -14 -23q-9 -6 -23 -6h-35l191 550h60q14 0 19 -4.5q5 -4.5 10 -15.5l184 -530h-35q-14 0 -23 6q-9 6 -14 23l-160 476z" />
<glyph unicode="&#1084;" horiz-adv-x="691" d="M560 439l-148 -258q-14 -23 -29.5 -35q-15.5 -12 -37.5 -12q-22 0 -37.5 12q-15.5 12 -29.5 35l-148 258v-439h-24q-17 0 -25.5 13q-8.5 13 -8.5 27v510h49l190 -338q11 -19 18.5 -24.5q7.5 -5.5 15.5 -5.5q8 0 15.5 5.5q7.5 5.5 18.5 24.5l190 338h49v-550h-24q-17 0 -25.5 13q-8.5 13 -8.5 27z" />
<glyph unicode="&#1085;" horiz-adv-x="558" d="M128 276v-276h-24q-19 0 -27 8q-8 8 -8 28v514h59v-231h300v231h60v-550h-23q-20 0 -28.5 8q-8.5 8 -8.5 28v264q-24 -24 -63 -24z" />
<glyph unicode="&#1086;" horiz-adv-x="529" d="M264 564q53 0 94 -12q41 -12 68.5 -39q27.5 -27 42 -69.5q14.5 -42.5 14.5 -102.5v-132q0 -121 -55 -172q-55 -51 -164 -51q-53 0 -93.5 12q-40.5 12 -68.5 38.5q-28 26.5 -42.5 69q-14.5 42.5 -14.5 103.5v132q0 60 14.5 102.5q14.5 42.5 42.5 69.5q28 27 69 39q41 12 93 12zt0 0zM423 339q0 45 -8 79q-8 34 -26.5 56.5q-18.5 22.5 -49 33.5q-30.5 11 -75.5 11q-87 0 -123 -44q-36 -44 -36 -136v-128q0 -99 41 -140q41 -41 118 -41q39 0 68.5 9.5q29.5 9.5 49.5 30.5q20 21 30.5 55.5q10.5 34.5 10.5 85.5z" />
<glyph unicode="&#1087;" horiz-adv-x="552" d="M69 550h413v-550h-24q-17 0 -27 10.5q-10 10.5 -10 27.5v469h-293v-507h-21q-17 0 -27.5 10.5q-10.5 10.5 -10.5 27.5z" />
<glyph unicode="&#1088;" horiz-adv-x="519" d="M69 550h210q194 0 194 -178v-195q0 -93 -50.5 -135q-50.5 -42 -143.5 -42h-150v-209h-13q-20 0 -33.5 7.5q-13.5 7.5 -13.5 32.5zM129 43h150q69 0 101.5 33q32.5 33 32.5 101v195q0 66 -32 100.5q-32 34.5 -102 34.5l-150 0z" />
<glyph unicode="&#1089;" horiz-adv-x="462" d="M427 43v-11q0 -13 -9 -22.5q-9 -9.5 -38 -9.5h-137q-44 0 -80.5 12.5q-36.5 12.5 -62.5 35.5q-26 23 -40.5 56q-14.5 33 -14.5 74v192q0 41 14.5 74q14.5 33 40.5 56.5q26 23.5 62.5 36.5q36.5 13 80.5 13h179v-8q0 -14 -7 -24.5q-7 -10.5 -36 -10.5h-136q-68 0 -103.5 -35q-35.5 -35 -35.5 -102v-191q0 -61 35.5 -98.5q35.5 -37.5 103.5 -37.5z" />
<glyph unicode="&#1090;" horiz-adv-x="450" d="M193 507h-175v43h414v-8q0 -19 -6.5 -27q-6.5 -8 -32.5 -8h-141v-507h-20q-18 0 -28.5 10.5q-10.5 10.5 -10.5 30.5z" />
<glyph unicode="&#1091;" horiz-adv-x="550" d="M98 -209v14q0 18 9.5 25.5q9.5 7.5 32.5 7.5h178q30 0 50 6.5q20 6.5 31.5 19q11.5 12.5 16 29.5q4.5 17 4.5 38v81q-40 -4 -90.5 -7q-50.5 -3 -99.5 -5q-84 -2 -122.5 43.5q-38.5 45.5 -38.5 125.5v381h60v-379q0 -64 22.5 -97q22.5 -33 84.5 -31q22 0 46.5 1q24.5 1 49.5 2.5q25 1.5 47.5 3.5q22.5 2 40.5 4l0 496h60v-621q0 -29 -9 -54q-9 -25 -28.5 -44q-19.5 -19 -50.5 -29.5q-31 -10.5 -74 -10.5z" />
<glyph unicode="&#1092;" horiz-adv-x="704" d="M324 751h55v-187q57 -1 107.5 -7.5q50.5 -6.5 88 -31q37.5 -24.5 59.5 -73q22 -48.5 22 -133.5v-90q0 -86 -22.5 -134.5q-22.5 -48.5 -60.5 -72.5q-38 -24 -88 -30.5q-50 -6.5 -106 -6.5l0 -194h-13q-20 0 -31 10.5q-11 10.5 -11 33.5v150q-56 0 -106 6.5q-50 6.5 -88 30.5q-38 24 -60.5 72.5q-22.5 48.5 -22.5 134.5v90q0 85 22 133.5q22 48.5 59.5 73q37.5 24.5 88 31q50.5 6.5 107.5 7.5zM599 325q0 66 -17 104.5q-17 38.5 -46.5 58.5q-29.5 20 -69.5 25.5q-40 5.5 -87 6.5l0 -491q47 0 87 5.5q40 5.5 69.5 25q29.5 19.5 46.5 58q17 38.5 17 105.5zM104 223q0 -67 17 -105.5q17 -38.5 46.5 -58q29.5 -19.5 69.5 -25q40 -5.5 87 -5.5l0 491q-47 -1 -87.5 -6.5q-40.5 -5.5 -70 -25.5q-29.5 -20 -46 -58.5q-16.5 -38.5 -16.5 -104.5z" />
<glyph unicode="&#1093;" horiz-adv-x="498" d="M15 0l203 275l-195 275h62l162 -235l162 235h62l-192 -275l200 -275h-62l-170 241l-170 -241z" />
<glyph unicode="&#1094;" horiz-adv-x="578" d="M263 0q-51 0 -88 10q-37 10 -61 32.5q-24 22.5 -35.5 59.5q-11.5 37 -11.5 91v357h59v-357q0 -42 7 -70.5q7 -28.5 23.5 -46.5q16.5 -18 42.5 -25.5q26 -7.5 64 -7.5h159v507h60v-507h66v-213h-19q-17 0 -28 10.5q-11 10.5 -11 31.5v128l-227 0z" />
<glyph unicode="&#1095;" horiz-adv-x="493" d="M364 236v314h59v-550h-24q-17 0 -26 8q-9 8 -9 30v155h-153q-176 0 -176 158v199h59v-198q0 -63 31.5 -89.5q31.5 -26.5 85.5 -26.5z" />
<glyph unicode="&#1096;" horiz-adv-x="780" d="M264 0q-51 0 -87.5 10q-36.5 10 -60.5 32.5q-24 22.5 -35.5 59.5q-11.5 37 -11.5 91v357h58v-357q0 -42 7 -70.5q7 -28.5 23.5 -46.5q16.5 -18 42.5 -25.5q26 -7.5 64 -7.5h96v507h59v-507h233v507h58l0 -550z" />
<glyph unicode="&#1097;" horiz-adv-x="806" d="M264 0q-51 0 -87.5 10q-36.5 10 -60.5 32.5q-24 22.5 -35.5 59.5q-11.5 37 -11.5 91v357h58v-357q0 -42 7 -70.5q7 -28.5 23.5 -46.5q16.5 -18 42.5 -25.5q26 -7.5 64 -7.5h96v507h59v-507h233v507h58v-507h66v-213h-19q-17 0 -28 10.5q-11 10.5 -11 31.5l0 128z" />
<glyph unicode="&#1098;" horiz-adv-x="559" d="M307 43q85 0 120 28q35 28 35 80v50q0 52 -35 80q-35 28 -120 28h-108v-266zM199 550v-198h110q46 0 85 -6.5q39 -6.5 67.5 -24q28.5 -17.5 44.5 -47.5q16 -30 16 -77v-42q0 -47 -16 -77.5q-16 -30.5 -44.5 -47.5q-28.5 -17 -67.5 -23.5q-39 -6.5 -85 -6.5h-169v507h-98q-23 0 -29 10q-6 10 -6 24l0 9z" />
<glyph unicode="&#1099;" horiz-adv-x="632" d="M503 550h59v-550h-24q-19 0 -27 8q-8 8 -8 30zM224 43q85 0 120 28q35 28 35 80v50q0 52 -35 80q-35 28 -120 28h-96v-266zM128 550v-198h98q46 0 85 -6.5q39 -6.5 67.5 -24q28.5 -17.5 44.5 -47.5q16 -30 16 -77v-42q0 -47 -16 -77.5q-16 -30.5 -44.5 -47.5q-28.5 -17 -67.5 -23.5q-39 -6.5 -85 -6.5h-157l0 550z" />
<glyph unicode="&#1100;" horiz-adv-x="488" d="M236 43q85 0 120 28q35 28 35 80v50q0 52 -35 80q-35 28 -120 28h-108v-266zM128 550v-198h110q46 0 85 -6.5q39 -6.5 67.5 -24q28.5 -17.5 44.5 -47.5q16 -30 16 -77v-42q0 -47 -16 -77.5q-16 -30.5 -44.5 -47.5q-28.5 -17 -67.5 -23.5q-39 -6.5 -85 -6.5h-169l0 550z" />
<glyph unicode="&#1101;" horiz-adv-x="459" d="M32 43h184q68 0 103.5 37.5q35.5 37.5 35.5 98.5v75h-234q-23 0 -29 10q-6 10 -6 24v8h269v74q0 67 -35.5 102q-35.5 35 -103.5 35h-136q-29 0 -36.5 10.5q-7.5 10.5 -7.5 24.5v8h180q44 0 80.5 -13q36.5 -13 62.5 -36.5q26 -23.5 40.5 -56.5q14.5 -33 14.5 -74v-192q0 -41 -14.5 -74q-14.5 -33 -40.5 -56q-26 -23 -62.5 -35.5q-36.5 -12.5 -80.5 -12.5h-137q-31 0 -39 9.5q-8 9.5 -8 22.5z" />
<glyph unicode="&#1102;" horiz-adv-x="671" d="M125 276v-276h-21q-19 0 -27 8q-8 8 -8 28v514h56v-231h89v30q0 112 50.5 163.5q50.5 51.5 155.5 51.5q106 0 156 -51.5q50 -51.5 50 -163.5v-148q0 -111 -49 -163q-49 -52 -157 -52q-105 0 -155.5 51.5q-50.5 51.5 -50.5 163.5v75zM571 349q0 35 -7.5 66.5q-7.5 31.5 -25 55q-17.5 23.5 -46.5 37q-29 13.5 -72 13.5q-74 0 -112.5 -44q-38.5 -44 -38.5 -128v-148q0 -84 37 -128.5q37 -44.5 114 -44.5q151 0 151 173z" />
<glyph unicode="&#1103;" horiz-adv-x="525" d="M271 218l-139 -187q-14 -17 -23 -24q-9 -7 -28 -7h-43l170 219q-31 1 -63 7.5q-32 6.5 -57.5 22.5q-25.5 16 -41.5 44q-16 28 -16 73v34q0 78 49.5 114q49.5 36 152.5 36h223v-550h-24q-19 0 -27.5 8q-8.5 8 -8.5 29v181zM245 506q-83 0 -119 -24.5q-36 -24.5 -36 -85.5v-27q0 -61 38 -84q38 -23 118 -23h149l0 244z" />
<glyph unicode="&#1105;" horiz-adv-x="534" d="M456 43v-14q0 -13 -7.5 -21q-7.5 -8 -37.5 -8h-171q-42 0 -76 11.5q-34 11.5 -58 33.5q-24 22 -37.5 53.5q-13.5 31.5 -13.5 70.5v203q0 52 17 88.5q17 36.5 45.5 59.5q28.5 23 66.5 33.5q38 10.5 80 10.5q46 0 85.5 -11.5q39.5 -11.5 68 -33q28.5 -21.5 44.5 -53.5q16 -32 16 -73v-84q0 -28 -14 -42q-14 -14 -47 -14h-302v-84q0 -31 10 -54.5q10 -23.5 27 -39.5q17 -16 39.5 -24q22.5 -8 48.5 -8zM115 295h260q28 0 35.5 8.5q7.5 8.5 7.5 34.5v55q0 59 -39.5 93.5q-39.5 34.5 -114.5 34.5q-69 0 -109 -34.5q-40 -34.5 -40 -93.5zM217 715v-76h-27q-21 0 -32 8.5q-11 8.5 -11 31.5v36zM376 715v-76h-27q-21 0 -32 8.5q-11 8.5 -11 31.5l0 36z" />
<glyph unicode="&#1025;" horiz-adv-x="573" d="M74 0v746h443v-8q0 -17 -6.5 -26q-6.5 -9 -28.5 -9h-349v-284h350v-11q0 -14 -6 -23q-6 -9 -28 -9h-316v-333h396v-10q0 -14 -6.5 -23.5q-6.5 -9.5 -27.5 -9.5zM239 913v-76h-27q-21 0 -32 8.5q-11 8.5 -11 31.5v36zM408 913v-76h-27q-21 0 -32 8.5q-11 8.5 -11 31.5l0 36z" />
<glyph unicode="&#8470;" horiz-adv-x="970" d="M799 573q45 0 75.5 -12.5q30.5 -12.5 49 -38.5q18.5 -26 26.5 -66.5q8 -40.5 8 -95.5v-17q0 -55 -7.5 -95q-7.5 -40 -26 -66.5q-18.5 -26.5 -49 -39q-30.5 -12.5 -76.5 -12.5q-45 0 -75 12.5q-30 12.5 -49 38.5q-19 26 -27 66q-8 40 -8 96v17q0 111 35 162q35 51 124 51zt0 0zM497 111v635h50v-710q0 -20 -8 -28q-8 -8 -26 -8h-9l-380 640v-604q0 -20 -8 -28q-8 -8 -27 -8h-15v746h44zM898 360q0 35 -2.5 66q-2.5 31 -12 54q-9.5 23 -29.5 36.5q-20 13.5 -55 13.5q-59 0 -79 -43.5q-20 -43.5 -20 -126.5v-17q0 -42 4 -73.5q4 -31.5 15 -53.5q11 -22 30 -33q19 -11 50 -11q30 0 49.5 10.5q19.5 10.5 30.5 32q11 21.5 15 53.5q4 32 4 75zM680 0q-42 0 -42 33v13h332l0 -46z" />
<glyph unicode="&#8211;" horiz-adv-x="722" d="M66 381h579v-46l-579 0z" />
<glyph unicode="&#8212;" horiz-adv-x="759" d="M-10 381h779v-46l-779 0z" />
</font>
</defs>
</svg>
