<?xml version="1.0" standalone="no"?>
<!DOCTYPE svg PUBLIC "-//W3C//DTD SVG 1.1//EN" "http://www.w3.org/Graphics/SVG/1.1/DTD/svg11.dtd" >
<svg xmlns="http://www.w3.org/2000/svg">
<metadata>
Generated by SVGconv.
Copyright   : Copyright  2011 Hyundai Motor Company and YoonDesign Inc. All rights reserved.
Designer    : YoonDesign Inc.
Foundry     : YoonDesign Inc.
Foundry URL : http://www.yoonfont.co.kr
</metadata>
<defs>
<font id="RUSModernH-Light" horiz-adv-x="578" >
<font-face units-per-em="1000" ascent="1050" descent="350" />
<missing-glyph horiz-adv-x="920" />
<glyph unicode="&#13;" horiz-adv-x="300" />
<glyph unicode="&#32;" horiz-adv-x="300" />
<glyph unicode="&#33;" horiz-adv-x="300" d="M118 231l-18 539h100l-19 -539zM194 0h-91v99l91 0z" />
<glyph unicode="&#34;" horiz-adv-x="422" d="M160 781l-14 -271h-22q-17 0 -25 11q-8 11 -9 24l-14 236zM333 781l-15 -271h-20q-17 0 -26 11q-9 11 -10 24l-12 236z" />
<glyph unicode="&#35;" horiz-adv-x="698" d="M28 279h128l35 210h-108v62h118l34 209h78l-35 -209h197l34 209h78l-35 -209h116v-35q0 -16 -6.5 -21.5q-6.5 -5.5 -21.5 -5.5h-98l-34 -210h105v-35q0 -16 -6.5 -21.5q-6.5 -5.5 -21.5 -5.5h-87l-32 -196q-6 -35 -32 -35h-51l37 231h-196l-32 -196q-6 -35 -32 -35h-51l37 231h-118zM234 279h196l35 210l-197 0z" />
<glyph unicode="&#36;" horiz-adv-x="524" d="M301 790v-74h154v-25q0 -26 -12.5 -32q-12.5 -6 -38.5 -6h-103v-258l40 -18q78 -36 111.5 -78.5q33.5 -42.5 33.5 -98.5q0 -45 -15.5 -75.5q-15.5 -30.5 -41.5 -50q-26 -19.5 -59 -29.5q-33 -10 -69 -13l0 -75h-47q-17 0 -23.5 8.5q-6.5 8.5 -6.5 27.5v37h-184v25q0 20 10.5 28.5q10.5 8.5 41.5 8.5h132v263l-54 24q-66 29 -97 73.5q-31 44.5 -31 100.5q0 71 44 112.5q44 41.5 138 48.5l0 76zM408 199q0 16 -4 31.5q-4 15.5 -15 30.5q-11 15 -32.5 29.5q-21.5 14.5 -55.5 30.5l0 -226q57 8 82 34.5q25 26.5 25 69.5zt0 0zM121 553q0 -45 25 -71q25 -26 78 -51l0 220q-20 -2 -39 -8q-19 -6 -33 -17.5q-14 -11.5 -22.5 -29t-8.5 -43.5z" />
<glyph unicode="&#37;" horiz-adv-x="855" d="M569 174q0 -21 3.5 -40q3.5 -19 12.5 -33.5q9 -14.5 25 -22.5q16 -8 41 -8q25 0 41 8q16 8 25 22.5q9 14.5 12 33.5q3 19 3 40q0 21 -3 40.5q-3 19.5 -12 33.5q-9 14 -25 22.5q-16 8.5 -41 8.5q-25 0 -41 -8.5q-16 -8.5 -25 -22.5q-9 -14 -12.5 -33.5q-3.5 -19.5 -3.5 -40.5zt0 0zM491 174q0 79 41 123q41 44 119 44q76 0 118 -44q42 -44 42 -123q0 -79 -41.5 -122.5q-41.5 -43.5 -118.5 -43.5q-78 0 -119 42.5q-41 42.5 -41 123.5zt0 0zM638 746l-332 -718q-8 -17 -17.5 -22.5q-9.5 -5.5 -26.5 -5.5h-51l345 746zM118 568q0 -21 3 -40q3 -19 12 -33.5q9 -14.5 25 -22.5q16 -8 42 -8q25 0 40.5 8q15.5 8 24.5 22.5q9 14.5 12 33.5q3 19 3 40q0 21 -3 40q-3 19 -12 33.5q-9 14.5 -24.5 22.5q-15.5 8 -40.5 8q-26 0 -42 -8q-16 -8 -25 -22.5q-9 -14.5 -12 -33.5q-3 -19 -3 -40zt0 0zM40 568q0 78 41 122.5q41 44.5 119 44.5q75 0 117 -44.5q42 -44.5 42 -122.5q0 -77 -41.5 -121.5q-41.5 -44.5 -117.5 -44.5q-78 0 -119 42.5t-41 123.5z" />
<glyph unicode="&#38;" horiz-adv-x="693" d="M363 501q27 19 41 47q14 28 14 55q0 44 -31.5 68.5q-31.5 24.5 -85.5 24.5q-57 0 -87 -22q-30 -22 -32 -67q-1 -28 12 -49.5q13 -21.5 24 -35.5l63 -77zM266 355l-77 -54q-41 -29 -57 -58.5q-16 -29.5 -16 -66.5q0 -30 13 -53q13 -23 35.5 -39.5q22.5 -16.5 53.5 -25q31 -8.5 67 -8.5q54 0 107 17.5q53 17.5 83 55.5zM584 0l-63 70q-40 -41 -98 -62.5q-58 -21.5 -138 -21.5q-67 0 -114 16.5q-47 16.5 -77 43.5q-30 27 -43.5 61q-13.5 34 -13.5 70q0 34 10 61.5q10 27.5 26 49.5q16 22 35 38.5q19 16.5 37 29.5l76 52l-53 63q-24 29 -44 60.5q-20 31.5 -20 74.5q0 32 11.5 60q11.5 28 36 49q24.5 21 61.5 33q37 12 88 12q42 0 77.5 -11q35.5 -11 62 -31.5q26.5 -20.5 41.5 -49.5q15 -29 15 -65q0 -42 -21 -80q-21 -38 -58 -65l-92 -67l190 -208q9 16 15 35.5q6 19.5 10 39.5q4 20 6.5 39.5q2.5 19.5 2.5 35.5l71 -8q-2 -57 -17.5 -107.5q-15.5 -50.5 -39.5 -88.5l110 -129z" />
<glyph unicode="&#8217;" horiz-adv-x="323" d="M152 704h-57v104h123v-104q0 -52 -24 -90.5q-24 -38.5 -69 -56.5q-8 11 -14.5 19q-6.5 8 -12.5 17q26 14 40 34.5q14 20.5 14 48.5z" />
<glyph unicode="&#40;" horiz-adv-x="330" d="M169 224q4 -31 13 -61.5q9 -30.5 24 -58q15 -27.5 35 -50.5q20 -23 46 -39l-39 -46q-32 18 -58.5 45.5q-26.5 27.5 -46.5 61.5q-20 34 -33 72q-13 38 -17 77q-4 35 -6 75.5q-2 40.5 -2 82.5q0 42 1.5 82.5q1.5 40.5 6.5 75.5q11 81 47.5 144q36.5 63 108.5 108l38 -43q-51 -32 -79.5 -87q-28.5 -55 -38.5 -121q-5 -34 -6.5 -75.5q-1.5 -41.5 -1.5 -83.5q0 -45 1.5 -84.5t6.5 -74.5z" />
<glyph unicode="&#41;" horiz-adv-x="330" d="M182 224q5 35 6.5 74.5q1.5 39.5 1.5 84.5q0 42 -1.5 83.5q-1.5 41.5 -6.5 75.5q-10 66 -38.5 121q-28.5 55 -79.5 87l38 43q72 -45 108.5 -108q36.5 -63 47.5 -144q5 -35 6.5 -75.5q1.5 -40.5 1.5 -82.5q0 -42 -2 -82.5q-2 -40.5 -6 -75.5q-5 -39 -17.5 -77q-12.5 -38 -32.5 -72q-20 -34 -46.5 -61.5q-26.5 -27.5 -58.5 -45.5l-39 46q26 16 46 39q20 23 35 50.5q15 27.5 24 58t13 61.5z" />
<glyph unicode="&#42;" horiz-adv-x="559" d="M311 505l17 -180h-80l16 179l-154 -101l-47 77l178 71l-176 85l44 74l155 -117l-17 188h78l-14 -186l153 108l41 -75l-170 -78l170 -79l-42 -69z" />
<glyph unicode="&#43;" horiz-adv-x="595" d="M337 407h204v-63h-204v-210h-80v210h-202v63h202v205l80 0z" />
<glyph unicode="&#44;" horiz-adv-x="163" d="M43 0v114h90v-119q0 -50 -21 -81.5q-21 -31.5 -60 -50.5l-22 29q25 16 37.5 36q12.5 20 12.5 47l0 25z" />
<glyph unicode="&#45;" horiz-adv-x="471" d="M66 327h339v-64l-339 0z" />
<glyph unicode="&#46;" horiz-adv-x="150" d="M120 0h-90v114l90 0z" />
<glyph unicode="&#47;" horiz-adv-x="472" d="M422 781l-286 -803h-79l285 803z" />
<glyph unicode="&#48;" horiz-adv-x="520" d="M259 50q52 0 82 23q30 23 44 65.5q14 42.5 17.5 102.5q3.5 60 3.5 135q0 72 -3 131q-3 59 -17.5 101q-14.5 42 -44 65q-29.5 23 -82.5 23q-50 0 -79 -23q-29 -23 -44 -65q-15 -42 -19 -101q-4 -59 -4 -131q0 -75 4 -135q4 -60 19 -102.5q15 -42.5 44 -65.5q29 -23 79 -23zt0 0zM259 760q72 0 116 -24.5q44 -24.5 68.5 -73q24.5 -48.5 33 -120.5q8.5 -72 8.5 -166q0 -104 -11 -178q-11 -74 -37 -121q-26 -47 -69.5 -69q-43.5 -22 -108.5 -22q-67 0 -110.5 24q-43.5 24 -68.5 73q-25 49 -35 122q-10 73 -10 171q0 92 9 163.5q9 71.5 33.5 120.5q24.5 49 68 74.5t113.5 25.5z" />
<glyph unicode="&#49;" horiz-adv-x="520" d="M331 0h-36q-23 0 -33 12q-10 12 -10 39v632h-125v63h175q29 0 29 -29z" />
<glyph unicode="&#50;" horiz-adv-x="520" d="M109 0q-31 0 -45 10.5q-14 10.5 -14 43.5v97q0 42 17 72q17 30 48 52l195 144q24 18 39.5 36q15.5 18 24 37q8.5 19 11.5 37.5q3 18.5 3 36.5q0 60 -43 95.5q-43 35.5 -115 35.5q-39 0 -80 -6.5q-41 -6.5 -86 -18.5l0 64q42 11 80 17.5q38 6.5 86 6.5q53 0 97 -13.5q44 -13.5 75.5 -38.5q31.5 -25 48.5 -61q17 -36 16 -81q-1 -63 -27 -110.5q-26 -47.5 -83 -87.5l-189 -140q-25 -17 -32 -37.5q-7 -20.5 -7 -45.5v-82h347v-22q0 -17 -9.5 -29q-9.5 -12 -35.5 -12z" />
<glyph unicode="&#51;" horiz-adv-x="520" d="M221 760q52 0 95.5 -11.5q43.5 -11.5 74.5 -35.5q31 -24 48 -61q17 -37 16 -88q-1 -63 -28 -110q-27 -47 -78 -66q66 -19 95 -67.5q29 -48.5 29 -108.5q0 -62 -18.5 -105.5q-18.5 -43.5 -53.5 -70.5q-35 -27 -84.5 -39q-49.5 -12 -111.5 -11q-20 0 -36 0.5q-16 0.5 -33 2q-17 1.5 -36.5 4q-19.5 2.5 -46.5 7.5l0 28q0 17 10.5 26q10.5 9 30.5 6q29 -5 53 -7q24 -2 59 -2q42 0 77 6.5q35 6.5 60 24q25 17.5 38.5 47.5q13.5 30 13.5 77q0 83 -42 115q-42 32 -123 32h-112q-11 0 -15 3.5q-4 3.5 -4 14.5v45h131q80 0 113 39.5q33 39.5 33 110.5q0 63 -38.5 97q-38.5 34 -117.5 34q-79 0 -151 -20l0 62q40 10 80 15.5t72 5.5z" />
<glyph unicode="&#52;" horiz-adv-x="520" d="M434 139v-139h-35q-22 0 -31 12q-9 12 -9 39v88h-340v72l269 494q11 20 25 30.5q14 10.5 41 10.5h80v-545h66v-29q0 -18 -8 -25.5q-8 -7.5 -24 -7.5zM98 201h261l0 486z" />
<glyph unicode="&#53;" horiz-adv-x="520" d="M67 382v364h382v-30q0 -20 -10 -26.5q-10 -6.5 -27 -6.5h-266v-238h82q127 0 182.5 -58.5q55.5 -58.5 55.5 -169.5q0 -118 -63 -174.5q-63 -56.5 -187 -56.5q-29 0 -71.5 3.5q-42.5 3.5 -87.5 10.5l0 29q0 11 5 17q5 6 11.5 9q6.5 3 14 3q7.5 0 13.5 -1q31 -3 57.5 -5q26.5 -2 55.5 -3q91 -2 132.5 41q41.5 43 41.5 128q0 85 -40.5 124.5q-40.5 39.5 -119.5 39.5z" />
<glyph unicode="&#54;" horiz-adv-x="520" d="M442 705q0 -17 -9.5 -22.5q-9.5 -5.5 -20.5 -5.5q-32 0 -61 2.5q-29 2.5 -55 2.5q-42 0 -72 -10q-30 -10 -49.5 -26.5q-19.5 -16.5 -30.5 -38q-11 -21.5 -16.5 -43.5q-5.5 -22 -7 -43q-1.5 -21 -1.5 -38v-79q23 31 59 48.5q36 17.5 91 17.5q105 0 156 -54.5q51 -54.5 51 -145.5v-79q0 -100 -55 -152.5q-55 -52.5 -158 -52.5q-103 0 -161 52.5q-58 52.5 -58 152.5v280q0 64 12.5 115q12.5 51 42 86.5q29.5 35.5 77.5 54.5q48 19 119 19q38 0 73 -2q35 -2 74 -6zM401 256q0 81 -34 114.5q-34 33.5 -100 33.5q-72 0 -110 -32.5q-38 -32.5 -38 -110.5v-58q0 -78 32.5 -114q32.5 -36 111.5 -36q69 0 103.5 36.5q34.5 36.5 34.5 114.5z" />
<glyph unicode="&#55;" horiz-adv-x="520" d="M472 693q0 -14 -3 -26q-3 -12 -8 -25l-224 -614q-5 -11 -13.5 -19.5q-8.5 -8.5 -23.5 -8.5h-49l249 683h-355v63h402q11 0 18 -4q7 -4 7 -18z" />
<glyph unicode="&#56;" horiz-adv-x="520" d="M258 424q72 0 108 32.5q36 32.5 36 104.5q0 74 -39.5 104.5q-39.5 30.5 -102.5 30.5q-69 0 -105.5 -32.5q-36.5 -32.5 -36.5 -102.5q0 -137 140 -137zt0 0zM259 367q-85 0 -121.5 -42q-36.5 -42 -36.5 -120q0 -75 39.5 -115q39.5 -40 120.5 -40q46 0 76.5 13q30.5 13 49 34.5q18.5 21.5 26 49q7.5 27.5 7.5 56.5q0 78 -35.5 121q-35.5 43 -125.5 43zt0 0zM261 -14q-53 0 -96.5 12.5q-43.5 12.5 -75.5 38.5q-32 26 -49.5 65.5q-17.5 39.5 -17.5 92.5q0 78 24 126.5q24 48.5 81 77.5q-26 12 -43 30q-17 18 -27 39q-10 21 -13.5 44.5q-3.5 23.5 -3.5 47.5q0 54 17 92q17 38 46.5 62q29.5 24 69.5 35q40 11 86 11q46 0 86.5 -11.5q40.5 -11.5 70.5 -35.5q30 -24 47.5 -62q17.5 -38 17.5 -90q0 -24 -5 -49q-5 -25 -16 -47q-11 -22 -29 -40q-18 -18 -43 -28q32 -13 53.5 -32.5q21.5 -19.5 34 -44.5q12.5 -25 17.5 -55q5 -30 5 -64q0 -48 -14 -87.5q-14 -39.5 -43 -68q-29 -28.5 -74 -44t-106 -15.5z" />
<glyph unicode="&#57;" horiz-adv-x="520" d="M78 41q0 17 9.5 22.5q9.5 5.5 20.5 5.5q32 0 61 -2.5q29 -2.5 55 -2.5q64 0 99.5 21.5q35.5 21.5 52.5 52.5q17 31 21 65q4 34 4 60v79q-23 -31 -59 -48.5q-36 -17.5 -91 -17.5q-105 0 -156 54.5q-51 54.5 -51 145.5v79q0 100 55 152.5q55 52.5 158 52.5q103 0 161 -52.5q58 -52.5 58 -152.5v-280q0 -64 -12.5 -115q-12.5 -51 -42 -86.5q-29.5 -35.5 -77.5 -54.5q-48 -19 -119 -19q-38 0 -73 2q-35 2 -74 6zM119 490q0 -81 34 -114.5q34 -33.5 100 -33.5q72 0 110 32.5q38 32.5 38 110.5v58q0 78 -32.5 114q-32.5 36 -111.5 36q-69 0 -103.5 -36.5q-34.5 -36.5 -34.5 -114.5z" />
<glyph unicode="&#58;" horiz-adv-x="150" d="M120 0h-90v114h90zM120 394h-90v114l90 0z" />
<glyph unicode="&#59;" horiz-adv-x="163" d="M43 0v114h90v-119q0 -50 -21 -81.5q-21 -31.5 -60 -50.5l-22 29q25 16 37.5 36q12.5 20 12.5 47v25zM133 394h-90v114l90 0z" />
<glyph unicode="&#60;" horiz-adv-x="500" d="M364 50l-285 320l286 318l55 -48l-244 -270l244 -271z" />
<glyph unicode="&#61;" horiz-adv-x="573" d="M79 295h415v-63h-415zM79 535h415v-63l-415 0z" />
<glyph unicode="&#62;" horiz-adv-x="500" d="M79 99l244 271l-244 270l55 48l286 -318l-285 -320z" />
<glyph unicode="&#63;" horiz-adv-x="470" d="M165 207v51q0 44 8 73.5q8 29.5 31 44.5l94 65q43 29 58 64q15 35 15 69q0 60 -42.5 96.5q-42.5 36.5 -122.5 36.5q-48 0 -89.5 -7.5q-41.5 -7.5 -91.5 -20.5l-5 62q28 9 51.5 14.5q23.5 5.5 45.5 8.5q22 3 43 4.5q21 1.5 44 1.5q54 0 99.5 -13q45.5 -13 78 -37.5q32.5 -24.5 50.5 -61q18 -36.5 18 -83.5q0 -59 -21.5 -100.5q-21.5 -41.5 -60.5 -68.5l-91 -64q-25 -17 -29 -37q-4 -20 -4 -51v-47zM249 0h-90v99l90 0z" />
<glyph unicode="&#64;" horiz-adv-x="917" d="M476 793q101 0 176.5 -27.5q75.5 -27.5 126 -77q50.5 -49.5 75.5 -118q25 -68.5 25 -150.5q0 -57 -18 -108.5q-18 -51.5 -50 -89.5q-32 -38 -76 -60.5q-44 -22.5 -97 -22.5h-216q-70 0 -112.5 34.5q-42.5 34.5 -42.5 91.5v51q0 66 42.5 97q42.5 31 117.5 31q21 0 37.5 -0.5q16.5 -0.5 31.5 -1q15 -0.5 30.5 -2q15.5 -1.5 35.5 -3.5l0 51q0 32 -15 48.5q-15 16.5 -61 16.5h-144q-23 0 -30 7.5q-7 7.5 -7 24.5v31h195q39 0 66 -10q27 -10 43.5 -28q16.5 -18 24 -43.5q7.5 -25.5 7.5 -57.5v-269q35 0 64 19.5q29 19.5 50 50q21 30.5 32.5 68q11.5 37.5 11.5 73.5q0 67 -17.5 124q-17.5 57 -56.5 98.5q-39 41.5 -101 65q-62 23.5 -151 23.5q-89 0 -156 -28q-67 -28 -112 -76q-45 -48 -67.5 -113q-22.5 -65 -22.5 -139q0 -75 20 -137.5q20 -62.5 63.5 -107.5q43.5 -45 111.5 -70.5q68 -25.5 164 -25.5q40 0 88 7.5q48 7.5 96 21.5l15 -42q5 -16 -7 -20q-46 -14 -100.5 -23q-54.5 -9 -107.5 -9q-107 0 -186 30.5q-79 30.5 -131.5 84.5q-52.5 54 -78.5 129q-26 75 -26 164q0 90 28 166.5q28 76.5 83.5 132q55.5 55.5 138 87q82.5 31.5 190.5 31.5zt0 0zM442 382q-48 0 -71.5 -14q-23.5 -14 -23.5 -55v-40q0 -40 22.5 -55.5q22.5 -15.5 72.5 -15.5h120v173q-20 2 -34.5 3.5q-14.5 1.5 -27.5 2q-13 0.5 -26.5 1t-31.5 0.5z" />
<glyph unicode="&#65;" horiz-adv-x="644" d="M170 224l-71 -224h-82l251 746h79q11 0 23 -9.5q12 -9.5 16 -20.5l242 -716h-80l-86 264q-11 -17 -29 -28.5q-18 -11.5 -38 -11.5zM322 694l-131 -405l263 0z" />
<glyph unicode="&#66;" horiz-adv-x="627" d="M358 746q49 0 85.5 -12.5q36.5 -12.5 60 -35q23.5 -22.5 35 -53.5q11.5 -31 11.5 -67v-46q0 -48 -19.5 -88q-19.5 -40 -58.5 -58q51 -17 75.5 -55q24.5 -38 24.5 -86v-66q0 -48 -17.5 -82q-17.5 -34 -47 -55.5q-29.5 -21.5 -68.5 -31.5q-39 -10 -81 -10h-285v746zM150 684v-267h209q34 0 56.5 10.5q22.5 10.5 35 27.5q12.5 17 17.5 37.5q5 20.5 5 40.5v40q0 46 -28.5 78.5q-28.5 32.5 -85.5 32.5zM150 354v-291h207q35 0 60.5 9.5q25.5 9.5 42.5 26q17 16.5 25.5 38.5q8.5 22 8.5 47v47q0 25 -7.5 47.5q-7.5 22.5 -24 39q-16.5 16.5 -42 26.5q-25.5 10 -62.5 10z" />
<glyph unicode="&#67;" horiz-adv-x="563" d="M527 42q0 -8 -2 -15.5q-2 -7.5 -8 -13.5q-6 -6 -17.5 -9.5q-11.5 -3.5 -29.5 -3.5h-215q-42 0 -78 13.5q-36 13.5 -61.5 38q-25.5 24.5 -40 59q-14.5 34.5 -14.5 77.5v374q0 86 57 135q57 49 161 49h238v-19q0 -18 -10 -30.5q-10 -12.5 -46 -12.5h-179q-143 0 -143 -136v-353q0 -26 7.5 -50q7.5 -24 22.5 -42q15 -18 37.5 -29q22.5 -11 52.5 -11l268 0z" />
<glyph unicode="&#68;" horiz-adv-x="648" d="M343 746q63 0 108.5 -16q45.5 -16 75 -43.5q29.5 -27.5 44 -65.5q14.5 -38 14.5 -83v-332q0 -45 -15 -82.5q-15 -37.5 -45 -65q-30 -27.5 -75.5 -43q-45.5 -15.5 -106.5 -15.5h-269v746zM151 684v-621h192q77 0 121 38q44 38 44 105v332q0 72 -43 109q-43 37 -122 37z" />
<glyph unicode="&#69;" horiz-adv-x="582" d="M74 0v746h452v-16q0 -22 -8 -34q-8 -12 -37 -12h-329v-256h341v-19q0 -18 -7.5 -30.5q-7.5 -12.5 -36.5 -12.5h-297v-303h386v-20q0 -17 -8 -30q-8 -13 -36 -13z" />
<glyph unicode="&#70;" horiz-adv-x="561" d="M152 366v-366h-34q-24 0 -34 11q-10 11 -10 37v698h464v-18q0 -19 -9.5 -31.5q-9.5 -12.5 -39.5 -12.5h-337v-256h352v-19q0 -19 -10.5 -31q-10.5 -12 -39.5 -12z" />
<glyph unicode="&#71;" horiz-adv-x="655" d="M573 746v-17q0 -24 -11.5 -34.5q-11.5 -10.5 -41.5 -10.5h-245q-56 0 -93 -33q-37 -33 -37 -93v-367q0 -27 8 -50q8 -23 24.5 -40.5q16.5 -17.5 41 -27.5q24.5 -10 56.5 -10h125q28 0 49 9.5q21 9.5 35 25.5q14 16 21 38q7 22 7 46v137q0 20 -8 25q-8 5 -23 5h-110q-26 0 -38 7q-12 7 -12 30v26h203q38 0 52 -17.5q14 -17.5 14 -52.5v-160q0 -92 -52.5 -137q-52.5 -45 -136.5 -45h-126q-46 0 -84 12q-38 12 -65.5 36q-27.5 24 -43 60q-15.5 36 -15.5 84v366q0 45 16 80q16 35 44.5 59q28.5 24 66 36.5q37.5 12.5 81.5 12.5z" />
<glyph unicode="&#72;" horiz-adv-x="663" d="M152 427h356v319h78v-746h-33q-24 0 -34.5 10.5q-10.5 10.5 -10.5 35.5v357q-11 -17 -30 -27.5q-19 -10.5 -47 -10.5h-279v-365h-34q-23 0 -33.5 10.5q-10.5 10.5 -10.5 35.5v700l78 0z" />
<glyph unicode="&#73;" horiz-adv-x="243" d="M163 746v-746h-35q-23 0 -33.5 10.5q-10.5 10.5 -10.5 35.5l0 700z" />
<glyph unicode="&#74;" horiz-adv-x="399" d="M126 63q60 0 89.5 27q29.5 27 29.5 95v561h79v-561q0 -94 -47.5 -139.5q-47.5 -45.5 -150.5 -45.5h-113v23q0 23 11 31.5q11 8.5 38 8.5z" />
<glyph unicode="&#75;" horiz-adv-x="602" d="M198 386l289 360h96l-289 -359l304 -387h-63q-13 0 -27 5.5q-14 5.5 -22 16.5zM152 746v-746h-35q-43 0 -43 47l0 699z" />
<glyph unicode="&#76;" horiz-adv-x="528" d="M152 63h358v-20q0 -23 -9 -33q-9 -10 -34 -10h-393v746l78 0z" />
<glyph unicode="&#77;" horiz-adv-x="879" d="M800 0h-34q-23 0 -33.5 10.5q-10.5 10.5 -10.5 34.5v572l-214 -396q-11 -19 -27.5 -33.5q-16.5 -14.5 -42.5 -14.5q-25 0 -42 15q-17 15 -27 32l-214 397v-617h-34q-22 0 -33 11q-11 11 -11 29v706h86l253 -475q12 -22 22 -22q10 0 22 22l254 475l86 0z" />
<glyph unicode="&#78;" horiz-adv-x="660" d="M74 746h306q51 0 89.5 -8.5q38.5 -8.5 64 -29.5q25.5 -21 38.5 -58q13 -37 13 -94v-556h-33q-23 0 -34 10.5q-11 10.5 -11 35.5v511q0 37 -6.5 61.5q-6.5 24.5 -21.5 39q-15 14.5 -39.5 20.5q-24.5 6 -59.5 6h-228v-684h-34q-23 0 -33.5 10.5q-10.5 10.5 -10.5 35.5z" />
<glyph unicode="&#79;" horiz-adv-x="688" d="M343 760q145 0 214.5 -82.5q69.5 -82.5 69.5 -233.5v-143q0 -150 -69.5 -232.5q-69.5 -82.5 -214.5 -82.5q-145 0 -214.5 82.5q-69.5 82.5 -69.5 233.5v142q0 151 69.5 233.5q69.5 82.5 214.5 82.5zt0 0zM549 445q1 52 -8.5 97.5q-9.5 45.5 -33.5 78.5q-24 33 -64 52q-40 19 -100 19q-59 0 -99.5 -19q-40.5 -19 -64.5 -52q-24 -33 -34 -78.5q-10 -45.5 -8 -98.5l0 -143q0 -131 51.5 -189q51.5 -58 154.5 -58q103 0 154.5 58q51.5 58 51.5 190z" />
<glyph unicode="&#80;" horiz-adv-x="607" d="M152 287v-287h-33q-24 0 -34.5 10.5q-10.5 10.5 -10.5 35.5v700h268q49 0 88 -9.5q39 -9.5 66 -31q27 -21.5 41 -55.5q14 -34 14 -83v-100q0 -26 -5.5 -57.5q-5.5 -31.5 -26.5 -58.5q-21 -27 -62.5 -45.5q-41.5 -18.5 -114.5 -18.5zM152 682v-331h190q69 0 100 29q31 29 31 87v100q0 54 -29.5 84.5q-29.5 30.5 -101.5 30.5z" />
<glyph unicode="&#81;" horiz-adv-x="680" d="M344 760q143 0 213.5 -82.5q70.5 -82.5 70.5 -233.5v-143q0 -88 -23.5 -153q-23.5 -65 -72.5 -105l98 -128h-45q-23 0 -36.5 7.5q-13.5 7.5 -22.5 18.5l-54 67q-53 -22 -128 -22q-145 0 -214.5 82.5q-69.5 82.5 -69.5 233.5v142q0 153 70 234.5q70 81.5 214 81.5zt0 0zM550 445q0 58 -13 103q-13 45 -36 75q-23 31 -60 50q-37 19 -97 19q-61 0 -97.5 -18.5q-36.5 -18.5 -59.5 -49.5q-23 -30 -36 -75q-13 -45 -13 -105v-143q0 -127 48.5 -187q48.5 -60 157.5 -60q109 0 157.5 60q48.5 60 48.5 188z" />
<glyph unicode="&#82;" horiz-adv-x="616" d="M151 332v-332h-35q-23 0 -33 10.5q-10 10.5 -10 35.5v700h290q106 0 153.5 -45q47.5 -45 47.5 -115v-82q0 -27 -7 -53q-7 -26 -23 -48.5q-16 -22.5 -41.5 -39q-25.5 -16.5 -61.5 -24.5l157 -339h-84l-152 332zM151 682v-286h212q60 0 91.5 29.5q31.5 29.5 31.5 87.5v57q0 53 -28 82.5q-28 29.5 -95 29.5z" />
<glyph unicode="&#83;" horiz-adv-x="559" d="M40 0v23q0 21 10 30.5q10 9.5 39 9.5h177q83 0 126 31q43 31 43 92q0 43 -27.5 75q-27.5 32 -96.5 63l-133 59q-69 31 -99.5 78q-30.5 47 -30.5 109q0 79 55 127.5q55 48.5 172 48.5h213v-24q0 -24 -12.5 -31q-12.5 -7 -38.5 -7h-162q-29 0 -55.5 -5.5q-26.5 -5.5 -47 -18.5q-20.5 -13 -33 -35q-12.5 -22 -12.5 -55q0 -48 26 -76.5q26 -28.5 78 -52.5l126 -58q45 -21 75 -41.5q30 -20.5 48.5 -43.5q18.5 -23 26 -50q7.5 -27 7.5 -61q0 -56 -22 -92q-22 -36 -56.5 -57q-34.5 -21 -78.5 -29.5q-44 -8.5 -87 -8.5z" />
<glyph unicode="&#84;" horiz-adv-x="588" d="M256 684h-238v62h555v-18q0 -24 -8 -34q-8 -10 -39 -10h-192v-684h-34q-23 0 -33.5 10.5q-10.5 10.5 -10.5 35.5z" />
<glyph unicode="&#85;" horiz-adv-x="667" d="M586 0h-306q-51 0 -89.5 8.5q-38.5 8.5 -64 30q-25.5 21.5 -38.5 58.5q-13 37 -13 94v555h78v-556q0 -37 6.5 -61.5q6.5 -24.5 21.5 -39q15 -14.5 39.5 -20.5q24.5 -6 59.5 -6h228v683l78 0z" />
<glyph unicode="&#86;" horiz-adv-x="633" d="M316 65l222 681h82l-249 -746h-73q-20 0 -30 8q-10 8 -15 24l-240 714l82 0z" />
<glyph unicode="&#87;" horiz-adv-x="903" d="M895 746l-174 -746h-62q-26 0 -41 15q-15 15 -23 45l-140 515l-155 -575h-56q-30 0 -46.5 16q-16.5 16 -22.5 42l-161 688h77l156 -681l166 615h84l166 -615l156 681z" />
<glyph unicode="&#88;" horiz-adv-x="629" d="M18 0l250 375l-246 371h86l204 -307l203 307h88l-245 -371l248 -375h-88l-206 309l-204 -309z" />
<glyph unicode="&#89;" horiz-adv-x="644" d="M356 0h-33q-23 0 -34 10.5q-11 10.5 -11 35.5v252l-262 448h83l220 -380l222 380h85l-270 -449z" />
<glyph unicode="&#90;" horiz-adv-x="610" d="M555 746v-70l-443 -613h460v-42q0 -12 -6 -16.5q-6 -4.5 -17 -4.5h-516v75l440 609h-428l0 62z" />
<glyph unicode="&#91;" horiz-adv-x="426" d="M353 -46h-220v866h220v-63h-141v-740l141 0z" />
<glyph unicode="&#92;" horiz-adv-x="501" d="M140 781l286 -803h-80l-286 803z" />
<glyph unicode="&#93;" horiz-adv-x="426" d="M79 17h140v740h-140v63h219v-866l-219 0z" />
<glyph unicode="&#94;" horiz-adv-x="585" d="M251 846h86l167 -237h-85l-125 178l-124 -178l-87 0z" />
<glyph unicode="&#95;" horiz-adv-x="599" d="M103 -27h397v-63l-397 0z" />
<glyph unicode="&#8216;" horiz-adv-x="323" d="M162 661h57v-104h-123v104q0 52 24 90.5q24 38.5 69 56.5q8 -11 14.5 -19q6.5 -8 12.5 -17q-26 -14 -40 -34.5q-14 -20.5 -14 -48.5z" />
<glyph unicode="&#97;" horiz-adv-x="529" d="M464 0h-233q-81 0 -128.5 36q-47.5 36 -47.5 106v63q0 84 47.5 120q47.5 36 128.5 34q38 -1 73 -3.5q35 -2.5 81 -9.5l0 57q0 39 -23 61q-23 22 -71 22h-140q-36 0 -45.5 11.5q-9.5 11.5 -9.5 28.5v24h195q90 0 131.5 -37.5q41.5 -37.5 41.5 -109.5zM232 291q-52 0 -75.5 -19.5q-23.5 -19.5 -23.5 -70.5v-54q0 -25 9.5 -41.5q9.5 -16.5 24 -26q14.5 -9.5 32 -13q17.5 -3.5 33.5 -3.5h153v217q-45 6 -82.5 8.5t-70.5 2.5z" />
<glyph unicode="&#98;" horiz-adv-x="542" d="M154 751v-201h127q99 0 150.5 -43q51.5 -43 51.5 -130v-204q0 -88 -51.5 -130.5q-51.5 -42.5 -150.5 -42.5h-206v751zM154 63h127q56 0 89.5 30q33.5 30 33.5 90v183q0 62 -33.5 91q-33.5 29 -88.5 29l-128 0z" />
<glyph unicode="&#99;" horiz-adv-x="490" d="M449 63v-21q0 -17 -9.5 -29.5q-9.5 -12.5 -45.5 -12.5h-132q-44 0 -81 12.5q-37 12.5 -63.5 36q-26.5 23.5 -41 57q-14.5 33.5 -14.5 75.5v185q0 42 14.5 76q14.5 34 41 58q26.5 24 63.5 37q37 13 81 13h183v-19q0 -18 -9 -31.5q-9 -13.5 -43 -13.5h-131q-59 0 -90 -30q-31 -30 -31 -90v-184q0 -53 31 -86q31 -33 90 -33z" />
<glyph unicode="&#100;" horiz-adv-x="538" d="M465 751v-751h-206q-99 0 -150 42.5q-51 42.5 -51 130.5v204q0 87 51 130q51 43 150 43h127v201zM386 486h-128q-55 0 -88.5 -29q-33.5 -29 -33.5 -91v-183q0 -60 33.5 -90q33.5 -30 89.5 -30l127 0z" />
<glyph unicode="&#101;" horiz-adv-x="537" d="M460 63v-24q0 -18 -9 -28.5q-9 -10.5 -45 -10.5h-164q-42 0 -76.5 12q-34.5 12 -59 34.5q-24.5 22.5 -38 54.5q-13.5 32 -13.5 72v196q0 52 17 89.5q17 37.5 46 60.5q29 23 67 34q38 11 81 11q46 0 85.5 -11.5q39.5 -11.5 68.5 -33.5q29 -22 45 -54.5q16 -32.5 16 -74.5v-82q0 -32 -15.5 -48.5q-15.5 -16.5 -53.5 -16.5h-278v-70q0 -53 31.5 -81.5q31.5 -28.5 76.5 -28.5zM134 306h238q19 0 24.5 6q5.5 6 5.5 24v54q0 51 -35 81q-35 30 -101 30q-61 0 -96.5 -30q-35.5 -30 -35.5 -81z" />
<glyph unicode="&#102;" horiz-adv-x="421" d="M371 550v-28q0 -20 -17 -28q-17 -8 -34 -8h-103v-486h-34q-23 0 -34 11q-11 11 -11 37v438h-110v64h110v70q0 30 5.5 54q5.5 24 20.5 41.5q15 17.5 41 26.5q26 9 66 9h122v-16q0 -47 -56 -47h-66q-18 0 -28.5 -5.5q-10.5 -5.5 -16.5 -14.5q-6 -9 -7.5 -20q-1.5 -11 -1.5 -21l0 -77z" />
<glyph unicode="&#103;" horiz-adv-x="548" d="M316 -146q42 0 62.5 23q20.5 23 20.5 58v65h-148q-90 0 -140.5 44.5q-50.5 44.5 -50.5 129.5v204q0 86 52 129q52 43 139 43h227v-617q0 -26 -7.5 -51.5q-7.5 -25.5 -26 -45.5q-18.5 -20 -49 -32.5q-30.5 -12.5 -76.5 -12.5h-210v24q0 21 12 30q12 9 38 9zM138 172q0 -34 11 -55.5q11 -21.5 28 -33.5q17 -12 36.5 -16q19.5 -4 37.5 -4h148v423h-148q-58 0 -85.5 -31q-27.5 -31 -27.5 -78z" />
<glyph unicode="&#104;" horiz-adv-x="561" d="M153 486v-486h-35q-23 0 -33.5 11q-10.5 11 -10.5 37v703h79v-201h162q93 0 136.5 -40.5q43.5 -40.5 43.5 -121.5v-388h-33q-23 0 -34.5 11q-11.5 11 -11.5 37v339q0 53 -26.5 76q-26.5 23 -74.5 23z" />
<glyph unicode="&#105;" horiz-adv-x="230" d="M153 550v-550h-33q-25 0 -35.5 11q-10.5 11 -10.5 37v502zM72 751h83v-111h-24q-24 0 -41.5 14q-17.5 14 -17.5 40z" />
<glyph unicode="&#106;" horiz-adv-x="301" d="M146 751h82v-111h-24q-24 0 -41 14q-17 14 -17 40zM148 550h78v-604q0 -81 -36 -118q-36 -37 -112 -37h-89v23q0 20 12.5 30.5q12.5 10.5 31.5 10.5h45q23 0 36.5 6q13.5 6 21 18q7.5 12 10 29q2.5 17 2.5 38z" />
<glyph unicode="&#107;" horiz-adv-x="525" d="M75 751h78v-751h-33q-24 0 -34.5 11q-10.5 11 -10.5 37zM412 550h90l-224 -254l239 -296h-56q-12 0 -25.5 4.5q-13.5 4.5 -21.5 14.5l-223 278z" />
<glyph unicode="&#108;" horiz-adv-x="232" d="M152 751v-751h-35q-23 0 -33.5 11q-10.5 11 -10.5 37l0 703z" />
<glyph unicode="&#109;" horiz-adv-x="771" d="M425 486v-486h-34q-24 0 -34.5 11q-10.5 11 -10.5 37v438h-198v-486h-35q-23 0 -33.5 11q-10.5 11 -10.5 37v502h466q87 0 126.5 -36.5q39.5 -36.5 39.5 -115.5v-398h-36q-23 0 -33 11q-10 11 -10 37v350q0 88 -87 88z" />
<glyph unicode="&#110;" horiz-adv-x="558" d="M306 550q51 0 86 -9q35 -9 56 -29.5q21 -20.5 30.5 -53q9.5 -32.5 9.5 -78.5v-380h-34q-24 0 -35 11q-11 11 -11 37v332q0 31 -5.5 51.5q-5.5 20.5 -17.5 32.5q-12 12 -31.5 17q-19.5 5 -47.5 5h-157v-486h-33q-24 0 -35 11q-11 11 -11 37l0 502z" />
<glyph unicode="&#111;" horiz-adv-x="562" d="M280 564q54 0 95 -12q41 -12 68.5 -39q27.5 -27 42 -69.5q14.5 -42.5 14.5 -103.5v-128q0 -121 -55.5 -173.5q-55.5 -52.5 -164.5 -52.5q-106 0 -163 52q-57 52 -57 174v128q0 60 14.5 102.5q14.5 42.5 43 69.5q28.5 27 69 39.5q40.5 12.5 93.5 12.5zt0 0zM421 340q0 86 -31.5 123.5q-31.5 37.5 -109.5 37.5q-71 0 -106 -35.5q-35 -35.5 -35 -125.5v-128q0 -89 34 -125.5q34 -36.5 107 -36.5q36 0 62.5 8q26.5 8 44 27q17.5 19 26 50q8.5 31 8.5 77z" />
<glyph unicode="&#112;" horiz-adv-x="539" d="M69 550h211q197 0 197 -182v-188q0 -94 -51 -137q-51 -43 -146 -43h-132v-194h-34q-24 0 -34.5 11q-10.5 11 -10.5 37zM148 63h132q118 0 118 117v188q0 58 -28.5 88q-28.5 30 -89.5 30l-132 0z" />
<glyph unicode="&#113;" horiz-adv-x="536" d="M436 -194q-24 0 -34.5 11q-10.5 11 -10.5 37v146h-133q-95 0 -145.5 43q-50.5 43 -50.5 137v188q0 182 196 182h211v-744zM391 486h-133q-61 0 -89 -30q-28 -30 -28 -88v-188q0 -117 117 -117l133 0z" />
<glyph unicode="&#114;" horiz-adv-x="397" d="M145 0h-34q-23 0 -33.5 11q-10.5 11 -10.5 37v369q0 63 31.5 98q31.5 35 106.5 35h173v-13q0 -29 -17.5 -40q-17.5 -11 -44.5 -11h-111q-35 0 -47.5 -20q-12.5 -20 -12.5 -49z" />
<glyph unicode="&#115;" horiz-adv-x="457" d="M389 550v-25q0 -21 -13.5 -30q-13.5 -9 -40.5 -9h-112q-52 0 -74 -22.5q-22 -22.5 -22 -54.5q0 -28 14.5 -49.5q14.5 -21.5 54.5 -33.5l92 -28q67 -20 97.5 -59q30.5 -39 30.5 -90q0 -72 -50 -110.5q-50 -38.5 -135 -38.5h-180v21q0 42 51 42h129q48 0 77 20.5q29 20.5 29 65.5q0 31 -15 51q-15 20 -51 32l-92 31q-65 22 -98 55.5q-33 33.5 -33 90.5q0 25 10 50q10 25 31.5 45q21.5 20 54.5 33q33 13 79 13z" />
<glyph unicode="&#116;" horiz-adv-x="346" d="M247 0q-77 0 -108.5 32.5q-31.5 32.5 -31.5 100.5v353h-93v64h93v181h79v-181h134v-23q0 -18 -11 -29.5q-11 -11.5 -46 -11.5h-77v-353q0 -33 11.5 -51.5q11.5 -18.5 49.5 -18.5h81v-22q0 -16 -11.5 -28.5q-11.5 -12.5 -43.5 -12.5z" />
<glyph unicode="&#117;" horiz-adv-x="548" d="M263 0q-51 0 -88.5 8.5q-37.5 8.5 -61.5 29.5q-24 21 -36 57q-12 36 -12 91v364h78v-364q0 -39 6.5 -63q6.5 -24 20.5 -37.5q14 -13.5 37 -18q23 -4.5 56 -4.5h137v487h79l0 -550z" />
<glyph unicode="&#118;" horiz-adv-x="496" d="M232 0q-20 0 -31.5 9.5q-11.5 9.5 -18.5 30.5l-171 510h75l163 -493l161 493h71l-182 -550z" />
<glyph unicode="&#119;" horiz-adv-x="732" d="M725 550l-141 -550h-51q-38 0 -51 46l-117 379l-130 -425h-48q-27 0 -36.5 13q-9.5 13 -15.5 36l-130 501h70l118 -472l134 449h75l136 -449l116 472z" />
<glyph unicode="&#120;" horiz-adv-x="527" d="M15 0l202 276l-195 274h83l155 -221l156 221h85l-196 -274l203 -276h-84l-161 223l-163 -223z" />
<glyph unicode="&#121;" horiz-adv-x="548" d="M91 -209v24q0 23 11.5 33.5q11.5 10.5 40.5 10.5h170q51 0 69 20.5q18 20.5 18 55.5v75q-38 -4 -80.5 -6q-42.5 -2 -89.5 -4q-86 -2 -126 44q-40 46 -40 129v377h79v-376q0 -56 19 -84q19 -28 72 -27q41 1 86 4q45 3 80 6l0 477h79v-616q0 -30 -9.5 -56.5q-9.5 -26.5 -29.5 -45.5q-20 -19 -51.5 -30q-31.5 -11 -75.5 -11z" />
<glyph unicode="&#122;" horiz-adv-x="491" d="M448 64v-38q0 -26 -27 -26h-385v71l322 415h-308v64h385v-70l-325 -416z" />
<glyph unicode="&#123;" horiz-adv-x="427" d="M362 -43h-62q-113 0 -113 121v201q0 37 -25.5 55.5q-25.5 18.5 -62.5 21.5l0 58q38 2 63 18.5q25 16.5 25 57.5v205q0 61 29 93.5q29 32.5 89 32.5h57v-57q-51 -2 -76 -16.5q-25 -14.5 -25 -53.5v-198q0 -42 -13 -68q-13 -26 -39 -43q52 -39 52 -112v-190q0 -42 23.5 -55q23.5 -13 77.5 -14z" />
<glyph unicode="&#124;" horiz-adv-x="312" d="M197 797v-819h-69l0 819z" />
<glyph unicode="&#125;" horiz-adv-x="428" d="M75 14q55 1 78.5 14q23.5 13 23.5 55v190q0 37 12 64.5q12 27.5 40 47.5q-27 17 -39.5 43q-12.5 26 -12.5 68v198q0 39 -25.5 53.5q-25.5 14.5 -76.5 16.5l0 57h57q60 0 89.5 -32.5q29.5 -32.5 29.5 -93.5v-205q0 -41 25 -57.5q25 -16.5 63 -18.5l0 -58q-38 -3 -63 -21.5q-25 -18.5 -25 -55.5v-201q0 -121 -114 -121l-62 0z" />
<glyph unicode="&#126;" horiz-adv-x="724" d="M672 444q0 -37 -9 -70.5q-9 -33.5 -28.5 -59q-19.5 -25.5 -50.5 -40.5q-31 -15 -76 -15q-55 0 -94 23.5q-39 23.5 -71 63.5q-30 38 -55 54q-25 16 -55 16q-46 0 -70 -33q-24 -33 -28 -87l-73 0q3 39 15 72.5q12 33.5 33 58q21 24.5 51.5 38.5q30.5 14 69.5 14q57 0 95 -25.5q38 -25.5 76 -74.5q21 -27 46.5 -41.5q25.5 -14.5 57.5 -14.5q45 0 69.5 29q24.5 29 25.5 92z" />
<glyph unicode="&#163;" horiz-adv-x="563" d="M532 42q0 -17 -9.5 -29.5q-9.5 -12.5 -45.5 -12.5h-439v69q36 17 58 58.5q22 41.5 22 92.5v116h-77v63h77v166q0 51 16.5 88q16.5 37 46.5 60.5q30 23.5 72 35q42 11.5 93 11.5q38 0 80 -6.5q42 -6.5 93 -22.5l-5 -61q-25 8 -46 13q-21 5 -40.5 8q-19.5 3 -40 4q-20.5 1 -44.5 1q-68 0 -107.5 -31q-39.5 -31 -39.5 -100v-166h159v-20q0 -17 -9.5 -30q-9.5 -13 -45.5 -13h-104v-114q0 -51 -20 -91q-20 -40 -62 -68l418 0z" />
<glyph unicode="&#402;" horiz-adv-x="424" d="M217 -33q0 -75 -41 -118q-41 -43 -118 -43h-12v63h3q39 0 64 24q25 24 25 73v520h-110v64h110v70q0 30 5.5 54q5.5 24 20.5 41.5q15 17.5 41 26.5q26 9 66 9h122v-16q0 -47 -56 -47h-66q-18 0 -28.5 -5.5q-10.5 -5.5 -16.5 -14.5q-6 -9 -7.5 -20q-1.5 -11 -1.5 -21v-77h154v-28q0 -20 -17 -28q-17 -8 -34 -8l-103 0z" />
<glyph unicode="&#167;" horiz-adv-x="457" d="M382 746v-25q0 -21 -13.5 -29.5q-13.5 -8.5 -40.5 -8.5h-112q-53 0 -74.5 -22.5q-21.5 -22.5 -21.5 -54.5q0 -26 14.5 -47.5q14.5 -21.5 54.5 -33.5l92 -28q67 -20 97.5 -56.5q30.5 -36.5 30.5 -87.5q0 -45 -20 -76.5q-20 -31.5 -58 -50.5q41 -21 59.5 -52q18.5 -31 18.5 -70q0 -72 -50 -112.5q-50 -40.5 -135 -40.5h-180v21q0 42 51 42h129q48 0 77 22.5q29 22.5 29 67.5q0 30 -15.5 46.5q-15.5 16.5 -50.5 28.5l-93 32q-64 22 -97 55.5q-33 33.5 -33 90.5q0 35 19.5 70q19.5 35 63.5 55q-42 20 -62.5 49.5q-20.5 29.5 -20.5 74.5q0 24 10 49q10 25 31.5 45.5q21.5 20.5 54.5 33q33 12.5 79 12.5zM330 353q0 30 -15.5 48.5q-15.5 18.5 -50.5 30.5l-15 5h-33q-53 0 -74.5 -24q-21.5 -24 -21.5 -56q0 -28 14.5 -49.5q14.5 -21.5 54.5 -33.5l36 -11q48 0 76.5 22.5t28.5 67.5z" />
<glyph unicode="&#164;" horiz-adv-x="549" d="M279 539q84 0 137 -33l50 51l48 -48l-50 -50q15 -25 23 -56.5q8 -31.5 8 -72.5v-37q0 -79 -31 -130l51 -50l-49 -48l-49 50q-52 -34 -138 -34q-94 0 -146 39l-54 -55l-47 48l57 59q-25 48 -25 119v39q0 72 26 119l-58 61l47 48l56 -58q54 39 144 39zt0 0zM421 330q0 31 -8 59q-8 28 -25 48q-17 20 -44 32q-27 12 -65 12q-66 0 -103.5 -38q-37.5 -38 -37.5 -113v-39q0 -74 36.5 -113q36.5 -39 104.5 -39q68 0 105 38q37 38 37 114z" />
<glyph unicode="&#39;" horiz-adv-x="268" d="M176 781l-14 -271h-20q-17 0 -25.5 11q-8.5 11 -9.5 24l-13 236z" />
<glyph unicode="&#8220;" horiz-adv-x="490" d="M158 661h57v-104h-123v104q0 52 24 90.5q24 38.5 69 56.5q8 -11 14.5 -19q6.5 -8 12.5 -17q-26 -14 -40 -34.5q-14 -20.5 -14 -48.5zM344 661h57v-104h-123v104q0 52 24 90.5q24 38.5 69 56.5q8 -11 14.5 -19q6.5 -8 12.5 -17q-26 -14 -40 -34.5q-14 -20.5 -14 -48.5z" />
<glyph unicode="&#171;" horiz-adv-x="450" d="M256 43l-51 -34l-164 270l164 269l51 -34l-142 -236zM408 43l-51 -34l-164 270l164 269l51 -34l-142 -236z" />
<glyph unicode="&#8249;" horiz-adv-x="920" d="M883 771v-37l-652 -404l652 -403v-39l-722 442z" />
<glyph unicode="&#8250;" horiz-adv-x="920" d="M37 771l722 -441l-722 -442v39l652 403l-652 404z" />
<glyph unicode="&#8224;" horiz-adv-x="920" d="M468 551q12 0 28.5 3.5q16.5 3.5 34 7q17.5 3.5 34.5 7q17 3.5 32 3.5q22 0 38 -8.5q16 -8.5 16 -28.5q0 -20 -17 -29q-17 -9 -40 -9q-14 0 -29.5 3.5q-15.5 3.5 -31 7q-15.5 3.5 -30.5 7q-15 3.5 -28 3.5h-7q0 -22 4.5 -45.5q4.5 -23.5 15.5 -38.5q10 -13 14 -17.5q4 -4.5 4 -8.5q0 -7 -5 -13q-5 -6 -13 -26q-8 -18 -12.5 -52q-4.5 -34 -6.5 -75.5q-2 -41.5 -2.5 -87q-0.5 -45.5 -0.5 -87.5v-71q0 -56 -3 -79q-3 -23 -14 -23q-10 0 -13 27q-3 27 -3 94v100q0 37 -1 75.5q-1 38.5 -3 72.5q-2 34 -6 61.5q-4 27.5 -11 44.5q-9 20 -13.5 26.5q-4.5 6.5 -4.5 12.5q0 4 4.5 9q4.5 5 13.5 17q12 16 16.5 39.5q4.5 23.5 4.5 44.5l-8 0q-14 0 -29 -3.5q-15 -3.5 -30.5 -7q-15.5 -3.5 -31 -7q-15.5 -3.5 -28.5 -3.5q-23 0 -40 9q-17 9 -17 29q0 20 15.5 28.5q15.5 8.5 38.5 8.5q14 0 31.5 -3.5q17.5 -3.5 34.5 -7q17 -3.5 33.5 -7q16.5 -3.5 29.5 -3.5q0 14 -3.5 32.5q-3.5 18.5 -7 37.5q-3.5 19 -7 37q-3.5 18 -3.5 32q0 25 9.5 44q9.5 19 29.5 19q20 0 28.5 -18q8.5 -18 8.5 -42q0 -15 -3 -34q-3 -19 -6.5 -38.5q-3.5 -19.5 -6.5 -38t-3 -31.5z" />
<glyph unicode="&#8225;" horiz-adv-x="920" d="M432 527h-7q-12 0 -27 -3q-15 -3 -30.5 -7q-15.5 -4 -30.5 -7q-15 -3 -28 -3q-23 0 -39.5 8.5q-16.5 8.5 -16.5 28.5q0 20 15.5 28.5q15.5 8.5 37.5 8.5q13 0 30.5 -3.5q17.5 -3.5 34.5 -7q17 -3.5 33 -7q16 -3.5 28 -3.5q0 13 -3 29.5q-3 16.5 -6.5 34.5q-3.5 18 -6.5 35q-3 17 -3 31q0 25 8.5 44q8.5 19 28.5 19q20 0 27.5 -18q7.5 -18 7.5 -41q0 -15 -2.5 -33q-2.5 -18 -6 -36q-3.5 -18 -6 -35q-2.5 -17 -2.5 -30q11 0 27 3.5q16 3.5 33.5 7q17.5 3.5 34.5 7q17 3.5 31 3.5q22 0 37.5 -8.5q15.5 -8.5 15.5 -28.5q0 -20 -16.5 -28.5q-16.5 -8.5 -39.5 -8.5q-13 0 -28.5 3q-15.5 3 -31 7q-15.5 4 -30 7q-14.5 3 -26.5 3h-7v-94q11 0 27 3.5q16 3.5 33.5 7q17.5 3.5 34.5 7q17 3.5 31 3.5q22 0 37.5 -8.5q15.5 -8.5 15.5 -28.5q0 -20 -16.5 -28.5q-16.5 -8.5 -39.5 -8.5q-13 0 -28.5 3q-15.5 3 -31 7q-15.5 4 -30 7q-14.5 3 -26.5 3h-7q0 -20 4 -44q4 -24 15 -38q9 -12 13.5 -16q4.5 -4 3.5 -9q0 -6 -4.5 -12.5q-4.5 -6.5 -12.5 -26.5q-8 -19 -12 -46q-4 -27 -6.5 -57.5q-2.5 -30.5 -3 -62.5q-0.5 -32 -0.5 -62q0 -12 0.5 -23q0.5 -11 0.5 -22q0 -42 -2.5 -64q-2.5 -22 -13.5 -22q-10 0 -13 18.5q-3 18.5 -3.5 49q-0.5 30.5 0 69.5q0.5 39 -0.5 79q-1 40 -5 77.5q-4 37.5 -15 65.5q-8 21 -13 27.5q-5 6.5 -5 12.5q1 4 5 8q4 4 13 16q11 15 15 39q4 24 4 43l-7 0q-12 0 -27 -3q-15 -3 -30.5 -7q-15.5 -4 -30.5 -7q-15 -3 -28 -3q-23 0 -39.5 8.5q-16.5 8.5 -16.5 28.5q0 20 15.5 28.5q15.5 8.5 37.5 8.5q13 0 30.5 -3.5q17.5 -3.5 34.5 -7q17 -3.5 33 -7q16 -3.5 28 -3.5z" />
<glyph unicode="&#183;" horiz-adv-x="315" d="M203 441v-100h-91l0 100z" />
<glyph unicode="&#182;" horiz-adv-x="525" d="M211 350q-32 3 -65 17q-33 14 -59.5 39.5q-26.5 25.5 -43 62q-16.5 36.5 -14.5 84.5q3 94 59.5 143.5q56.5 49.5 150.5 49.5h214v-873h-27q-23 0 -34 10.5q-11 10.5 -11 36.5v762h-98v-809h-26q-23 0 -34.5 10.5q-11.5 10.5 -11.5 36.5z" />
<glyph unicode="&#8226;" horiz-adv-x="920" d="M570 330q0 -23 -9 -43q-9 -20 -24 -35q-15 -15 -35 -24q-20 -9 -42 -9q-23 0 -43 9q-20 9 -35 24q-15 15 -23.5 35q-8.5 20 -8.5 43q0 22 8.5 42q8.5 20 23.5 35q15 15 35 23.5q20 8.5 43 8.5q22 0 42 -8.5q20 -8.5 35 -23.5q15 -15 24 -35t9 -42z" />
<glyph unicode="&#8221;" horiz-adv-x="490" d="M336 704h-57v104h123v-104q0 -52 -24 -90.5q-24 -38.5 -69 -56.5q-8 11 -14.5 19q-6.5 8 -12.5 17q26 14 40 34.5q14 20.5 14 48.5zM150 704h-57v104h123v-104q0 -52 -24 -90.5q-24 -38.5 -69 -56.5q-8 11 -14.5 19q-6.5 8 -12.5 17q26 14 40 34.5q14 20.5 14 48.5z" />
<glyph unicode="&#187;" horiz-adv-x="450" d="M193 514l51 34l164 -270l-164 -269l-51 34l142 236zM41 514l51 34l164 -270l-164 -269l-51 34l142 236z" />
<glyph unicode="&#8230;" horiz-adv-x="576" d="M120 0h-90v114h90zM333 0h-90v114h90zM546 0h-90v114l90 0z" />
<glyph unicode="&#8240;" horiz-adv-x="920" d="M90 560q0 -33 12.5 -57.5q12.5 -24.5 51.5 -24.5q18 0 30 6.5q12 6.5 18.5 18q6.5 11.5 9 26q2.5 14.5 2.5 31.5q0 32 -11.5 56q-11.5 24 -48.5 24q-20 0 -32 -6.5q-12 -6.5 -19.5 -17.5q-7.5 -11 -10 -25.5q-2.5 -14.5 -2.5 -30.5zt0 0zM21 560q0 65 34 101.5q34 36.5 99 36.5q61 0 96 -36.5q35 -36.5 35 -101.5q0 -64 -34.5 -100.5q-34.5 -36.5 -96.5 -36.5q-65 0 -99 35.5q-34 35.5 -34 101.5zt0 0zM443 746h82l-352 -718q-8 -17 -17.5 -22.5q-9.5 -5.5 -26.5 -5.5h-51zM393 185q0 -33 12.5 -57.5q12.5 -24.5 51.5 -24.5q18 0 30 6.5q12 6.5 18.5 18q6.5 11.5 9 26q2.5 14.5 2.5 31.5q0 32 -11.5 56q-11.5 24 -48.5 24q-20 0 -32 -6.5q-12 -6.5 -19.5 -17.5q-7.5 -11 -10 -25.5q-2.5 -14.5 -2.5 -30.5zt0 0zM324 185q0 65 34 101.5q34 36.5 99 36.5q61 0 96 -36.5q35 -36.5 35 -101.5q0 -64 -34.5 -100.5q-34.5 -36.5 -96.5 -36.5q-65 0 -99 35.5q-34 35.5 -34 101.5zt0 0zM690 185q0 -33 12.5 -57.5q12.5 -24.5 50.5 -24.5q18 0 30 6.5q12 6.5 18.5 18q6.5 11.5 9 26q2.5 14.5 2.5 31.5q0 32 -11.5 56q-11.5 24 -48.5 24q-19 0 -31.5 -6.5q-12.5 -6.5 -19.5 -17.5q-7 -11 -9.5 -25.5q-2.5 -14.5 -2.5 -30.5zt0 0zM621 185q0 65 34 101.5q34 36.5 98 36.5q62 0 97 -36.5q35 -36.5 35 -101.5q0 -64 -34.5 -100.5q-34.5 -36.5 -97.5 -36.5q-64 0 -98 35.5t-34 101.5z" />
<glyph unicode="&#96;" horiz-adv-x="299" d="M140 866l105 -241l-19 -9q-15 -8 -27.5 -1.5q-12.5 6.5 -19.5 18.5l-117 197z" />
<glyph unicode="&#172;" horiz-adv-x="629" d="M570 244h-79v223h-451v63l530 0z" />
<glyph unicode="&#181;" horiz-adv-x="557" d="M269 0q-76 0 -120 22l0 -216h-34q-23 0 -34 10q-11 10 -11 36l1 698h78v-370q0 -36 7 -58.5q7 -22.5 21.5 -35.5q14.5 -13 37 -18q22.5 -5 54.5 -5h137v487h79l0 -550z" />
<glyph unicode="&#8482;" horiz-adv-x="920" d="M870 746v-413h-42q-31 0 -31 31v312l-99 -177q-8 -14 -20 -24q-12 -10 -29 -10q-18 0 -30 10.5q-12 10.5 -19 22.5l-100 178v-343h-43q-31 0 -31 28v385h110l97 -182q15 -30 31 0l98 182zM180 683h-127v63h328v-33q0 -17 -5.5 -23.5q-5.5 -6.5 -26.5 -6.5h-95v-350h-44q-30 0 -30 32z" />
<glyph unicode="&#177;" horiz-adv-x="609" d="M340 633v-195h204v-63h-204v-199h-80v199h-202v63h202v195zM68 0v63h467l0 -63z" />
<glyph unicode="&#247;" horiz-adv-x="495" d="M29 340v64h436v-64zM289 231v-99h-90v99zM289 610v-100h-90l0 100z" />
<glyph unicode="&#166;" horiz-adv-x="229" d="M149 482h-69v264h69zM149 0h-69v265l69 0z" />
<glyph unicode="&#176;" horiz-adv-x="357" d="M48 628q0 28 10 51.5q10 23.5 27 40.5q17 17 41 26q24 9 52 9q28 0 52 -9q24 -9 41.5 -26q17.5 -17 27.5 -40.5q10 -23.5 10 -51.5q0 -29 -10 -52.5q-10 -23.5 -27.5 -40q-17.5 -16.5 -41.5 -25.5q-24 -9 -52 -9q-57 0 -93.5 34.5q-36.5 34.5 -36.5 92.5zt0 0zM100 628q0 -35 21 -55.5q21 -20.5 56 -20.5q35 0 57 20.5q22 20.5 22 55.5q0 34 -22 55.5q-22 21.5 -57 21.5q-35 0 -56 -21.5t-21 -55.5z" />
<glyph unicode="&#174;" horiz-adv-x="871" d="M43 377q0 87 29.5 159q29.5 72 82 123.5q52.5 51.5 125.5 80.5q73 29 160 29q87 0 159.5 -29q72.5 -29 125 -80.5q52.5 -51.5 82 -123.5q29.5 -72 29.5 -159q0 -87 -29.5 -159.5q-29.5 -72.5 -82 -124q-52.5 -51.5 -125 -80.5q-72.5 -29 -159.5 -29q-87 0 -160 29q-73 29 -125.5 80.5q-52.5 51.5 -82 124q-29.5 72.5 -29.5 159.5zt0 0zM103 377q0 -74 24.5 -135q24.5 -61 68.5 -105q44 -44 106 -68.5q62 -24.5 137 -24.5q74 0 135.5 24.5q61.5 24.5 105.5 68.5q44 44 68.5 105q24.5 61 24.5 135q0 73 -24 134q-24 61 -68 104.5q-44 43.5 -105.5 68q-61.5 24.5 -136.5 24.5q-75 0 -136.5 -24.5q-61.5 -24.5 -106 -68.5q-44.5 -44 -69 -104.5q-24.5 -60.5 -24.5 -133.5zt0 0zM463 334h-117v-215h-31q-18 0 -27 9q-9 9 -9 30v462h194q73 0 108.5 -32q35.5 -32 35.5 -83v-46q0 -17 -5 -35q-5 -18 -16 -34q-11 -16 -28 -28.5q-17 -12.5 -42 -18.5l101 -224h-71zM346 562v-170h127q77 0 77 73v28q0 33 -18.5 51q-18.5 18 -58.5 18z" />
<glyph unicode="&#169;" horiz-adv-x="866" d="M38 377q0 87 29.5 159q29.5 72 82 123.5q52.5 51.5 125.5 80.5q73 29 160 29q87 0 159.5 -29q72.5 -29 125 -80.5q52.5 -51.5 82 -123.5q29.5 -72 29.5 -159q0 -87 -29.5 -159.5q-29.5 -72.5 -82 -124q-52.5 -51.5 -125 -80.5q-72.5 -29 -159.5 -29q-87 0 -160 29q-73 29 -125.5 80.5q-52.5 51.5 -82 124q-29.5 72.5 -29.5 159.5zt0 0zM98 377q0 -74 24.5 -135q24.5 -61 68.5 -105q44 -44 106 -68.5q62 -24.5 137 -24.5q74 0 135.5 24.5q61.5 24.5 105.5 68.5q44 44 68.5 105q24.5 61 24.5 135q0 73 -24 134q-24 61 -68 104.5q-44 43.5 -105.5 68q-61.5 24.5 -136.5 24.5q-75 0 -136.5 -24.5q-61.5 -24.5 -106 -68.5q-44.5 -44 -69 -104.5q-24.5 -60.5 -24.5 -133.5zt0 0zM578 184v-21q0 -17 -9.5 -30q-9.5 -13 -45.5 -13h-90q-44 0 -81 13q-37 13 -63.5 36.5q-26.5 23.5 -41 57q-14.5 33.5 -14.5 75.5v135q0 42 14.5 76q14.5 34 41 57.5q26.5 23.5 63.5 36.5q37 13 81 13h141v-18q0 -18 -8.5 -31.5q-8.5 -13.5 -43.5 -13.5h-89q-59 0 -90 -30q-31 -30 -31 -90v-134q0 -54 31 -86.5q31 -32.5 90 -32.5z" />
<glyph unicode="&#160;" horiz-adv-x="300" />
<glyph unicode="&#173;" horiz-adv-x="321" d="M298 428v-64h-276l0 64z" />
<glyph unicode="&#1026;" horiz-adv-x="857" d="M254 684h-238v62h556v-18q0 -24 -8.5 -34q-8.5 -10 -39.5 -10h-192v-249q105 55 209 55q56 0 104 -16q48 -16 83.5 -47q35.5 -31 56 -77q20.5 -46 20.5 -106q0 -120 -64 -182q-64 -62 -183 -62h-62v19q0 18 9.5 31q9.5 13 39.5 13h10q85 0 128 38.5q43 38.5 43 134.5q0 93 -51.5 140.5q-51.5 47.5 -135.5 47.5q-51 0 -100 -11.5q-49 -11.5 -107 -40.5l0 -372h-33q-23 0 -34 10.5q-11 10.5 -11 35.5z" />
<glyph unicode="&#1027;" horiz-adv-x="558" d="M152 0h-34q-24 0 -34 11q-10 11 -10 37v698h464v-18q0 -19 -9.5 -31.5q-9.5 -12.5 -39.5 -12.5h-337zM405 946l-84 -107q-11 -14 -21 -19.5q-10 -5.5 -30 -5.5h-25l73 132z" />
<glyph unicode="&#1028;" horiz-adv-x="572" d="M531 42q0 -16 -10 -29q-10 -13 -46 -13h-216q-42 0 -78 14q-36 14 -61.5 38.5q-25.5 24.5 -40 59q-14.5 34.5 -14.5 76.5v374q0 85 57 134.5q57 49.5 161 49.5h238v-19q0 -18 -9.5 -30.5q-9.5 -12.5 -46.5 -12.5h-179q-143 0 -143 -136v-141h295v-20q0 -17 -8 -30q-8 -13 -37 -13h-250v-149q0 -26 7.5 -50q7.5 -24 22.5 -42q15 -18 37.5 -29q22.5 -11 52.5 -11l268 0z" />
<glyph unicode="&#1029;" horiz-adv-x="559" d="M40 0v23q0 21 10 30.5q10 9.5 39 9.5h177q83 0 126 31q43 31 43 92q0 43 -27.5 75.5q-27.5 32.5 -96.5 63.5l-133 58q-69 31 -99.5 78q-30.5 47 -30.5 109q0 79 55 127.5q55 48.5 172 48.5h213v-24q0 -24 -12.5 -31q-12.5 -7 -38.5 -7h-162q-29 0 -55.5 -5.5q-26.5 -5.5 -47 -18.5q-20.5 -13 -33 -35q-12.5 -22 -12.5 -55q0 -48 26 -77q26 -29 78 -53l126 -57q45 -21 75 -42q30 -21 48.5 -44q18.5 -23 26 -50q7.5 -27 7.5 -60q0 -56 -22 -92q-22 -36 -56.5 -57q-34.5 -21 -78.5 -29.5q-44 -8.5 -87 -8.5z" />
<glyph unicode="&#1030;" horiz-adv-x="243" d="M163 746v-746h-35q-23 0 -33.5 10.5q-10.5 10.5 -10.5 35.5l0 700z" />
<glyph unicode="&#1031;" horiz-adv-x="225" d="M153 746v-746h-35q-23 0 -33.5 10.5q-10.5 10.5 -10.5 35.5v700zM241 825h-84v90h84zM69 825h-85v90l85 0z" />
<glyph unicode="&#1032;" horiz-adv-x="399" d="M126 63q60 0 89.5 27q29.5 27 29.5 95v561h79v-561q0 -94 -47.5 -139.5q-47.5 -45.5 -150.5 -45.5h-113v23q0 23 11 31.5q11 8.5 38 8.5z" />
<glyph unicode="&#1033;" horiz-adv-x="1137" d="M84 63q27 0 44.5 6.5q17.5 6.5 27 20.5q9.5 14 13.5 37.5q4 23.5 4 57.5v561h480v-329h204q42 0 81 -10q39 -10 68 -31q29 -21 46.5 -53.5q17.5 -32.5 17.5 -77.5v-66q0 -49 -17.5 -83q-17.5 -34 -46.5 -55.5q-29 -21.5 -68 -31q-39 -9.5 -82 -9.5h-280v684h-324v-499q0 -47 -9 -81.5q-9 -34.5 -29.5 -57.5q-20.5 -23 -54.5 -34.5q-34 -11.5 -85 -11.5h-51v23q0 23 10.5 31.5q10.5 8.5 37.5 8.5zM653 354v-291h202q35 0 60.5 9.5q25.5 9.5 42.5 26q17 16.5 25.5 38.5q8.5 22 8.5 47v47q0 25 -7.5 47.5q-7.5 22.5 -24 39q-16.5 16.5 -42 26.5q-25.5 10 -62.5 10z" />
<glyph unicode="&#1034;" horiz-adv-x="1057" d="M152 427h356v319h77v-329h201q45 0 84 -11q39 -11 68 -32.5q29 -21.5 45.5 -54q16.5 -32.5 16.5 -74.5v-66q0 -48 -17.5 -82q-17.5 -34 -47 -55.5q-29.5 -21.5 -68 -31.5q-38.5 -10 -80.5 -10h-279v398q-12 -15 -31.5 -24q-19.5 -9 -45.5 -9h-279v-365h-34q-23 0 -33.5 10.5q-10.5 10.5 -10.5 35.5v700h78zM585 354v-291h201q34 0 60 9.5q26 9.5 42.5 26q16.5 16.5 25 38.5q8.5 22 8.5 47v47q0 25 -7.5 47.5q-7.5 22.5 -23.5 39q-16 16.5 -42 26.5q-26 10 -62 10z" />
<glyph unicode="&#1035;" horiz-adv-x="749" d="M259 684h-238v62h555v-18q0 -24 -8 -34q-8 -10 -39 -10h-192v-139h161q92 0 135 -39.5q43 -39.5 43 -120.5v-385h-33q-45 0 -45 47v337q0 53 -26.5 76q-26.5 23 -73.5 23h-161v-483h-34q-26 0 -35 13q-9 13 -9 34z" />
<glyph unicode="&#1036;" horiz-adv-x="608" d="M153 746v-746h-35q-43 0 -43 47v699zM188 385q31 19 53 41q22 22 38.5 48q16.5 26 30 58.5q13.5 32.5 27.5 73.5q23 68 71.5 104q48.5 36 124.5 36h44v-16q0 -22 -8 -34q-8 -12 -37 -12q-37 0 -71.5 -23.5q-34.5 -23.5 -56.5 -80.5q-20 -53 -46.5 -108.5q-26.5 -55.5 -72.5 -95.5l303 -376h-91zM374 946l-84 -107q-11 -14 -21 -19.5q-10 -5.5 -30 -5.5h-25l73 132z" />
<glyph unicode="&#1038;" horiz-adv-x="611" d="M81 0v24q0 23 11.5 33q11.5 10 40.5 10h240q51 0 68.5 20.5q17.5 20.5 17.5 55.5v107q-23 -3 -53 -6q-30 -3 -62 -6q-32 -3 -62 -4.5q-30 -1.5 -53 -1.5q-86 0 -130 45q-44 45 -44 127v342h78v-341q0 -109 100 -109q27 0 58.5 1q31.5 1 62.5 3.5q31 2.5 58.5 5.5q27.5 3 46.5 6l0 434h78v-604q0 -30 -9 -56q-9 -26 -29 -45q-20 -19 -51 -30q-31 -11 -75 -11zM217 928q3 -41 28.5 -59.5q25.5 -18.5 59.5 -18.5q32 0 57 19q25 19 29 59l57 0q-3 -56 -39.5 -92.5q-36.5 -36.5 -106.5 -36.5q-66 0 -102.5 36.5q-36.5 36.5 -39.5 92.5z" />
<glyph unicode="&#1039;" horiz-adv-x="662" d="M584 0h-217v-170h-33q-23 0 -34 10.5q-11 10.5 -11 36.5v123h-216v746h78v-683h355v683l78 0z" />
<glyph unicode="&#1106;" horiz-adv-x="621" d="M28 683h104v68h79v-68h201v-20q0 -18 -8 -30.5q-8 -12.5 -37 -12.5h-156v-70h162q93 0 136.5 -40.5q43.5 -40.5 43.5 -121.5v-459q0 -64 -31 -93.5q-31 -29.5 -98 -29.5h-63v18q0 19 9.5 32q9.5 13 40.5 13q39 0 51 13.5q12 13.5 12 48.5v456q0 53 -26.5 76q-26.5 23 -74.5 23h-162v-486h-35q-23 0 -33.5 11q-10.5 11 -10.5 37v572l-104 0z" />
<glyph unicode="&#1107;" horiz-adv-x="472" d="M150 0h-34q-24 0 -34.5 11q-10.5 11 -10.5 38v501h365v-19q0 -19 -9.5 -32q-9.5 -13 -39.5 -13h-237zM345 746l-84 -107q-11 -14 -21 -19.5q-10 -5.5 -30 -5.5h-25l73 132z" />
<glyph unicode="&#1108;" horiz-adv-x="489" d="M449 63v-21q0 -17 -9.5 -29.5q-9.5 -12.5 -45.5 -12.5h-132q-44 0 -81 12.5q-37 12.5 -63.5 36q-26.5 23.5 -41 57q-14.5 33.5 -14.5 75.5v185q0 42 14.5 76q14.5 34 41 58q26.5 24 63.5 37q37 13 81 13h183v-19q0 -18 -9 -31.5q-9 -13.5 -43 -13.5h-131q-59 0 -90 -30q-31 -30 -31 -90v-59h257v-20q0 -18 -8 -30.5q-8 -12.5 -37 -12.5h-212v-62q0 -53 31 -86q31 -33 90 -33z" />
<glyph unicode="&#1109;" horiz-adv-x="457" d="M389 550v-25q0 -21 -13.5 -30q-13.5 -9 -40.5 -9h-112q-52 0 -74 -22.5q-22 -22.5 -22 -54.5q0 -28 14.5 -49.5q14.5 -21.5 54.5 -33.5l92 -28q67 -20 97.5 -59q30.5 -39 30.5 -90q0 -72 -50 -110.5q-50 -38.5 -135 -38.5h-180v21q0 42 51 42h129q48 0 77 20.5q29 20.5 29 65.5q0 31 -15 51q-15 20 -51 32l-92 31q-65 22 -98 55.5q-33 33.5 -33 90.5q0 25 10 50q10 25 31.5 45q21.5 20 54.5 33q33 13 79 13z" />
<glyph unicode="&#1110;" horiz-adv-x="230" d="M153 550v-550h-33q-25 0 -35.5 11q-10.5 11 -10.5 37v502zM74 751h79v-111h-20q-24 0 -41.5 14q-17.5 14 -17.5 40z" />
<glyph unicode="&#1111;" horiz-adv-x="220" d="M230 625h-84v90h84zM58 625h-85v90h85zM148 550v-550h-34q-24 0 -34.5 11q-10.5 11 -10.5 37l0 502z" />
<glyph unicode="&#1112;" horiz-adv-x="301" d="M148 751h78v-111h-20q-24 0 -41 14q-17 14 -17 40zM148 550h78v-604q0 -81 -36 -118q-36 -37 -112 -37h-89v23q0 20 12.5 30.5q12.5 10.5 31.5 10.5h45q23 0 36.5 6q13.5 6 21 18q7.5 12 10 29q2.5 17 2.5 38z" />
<glyph unicode="&#1113;" horiz-adv-x="939" d="M156 550h392v-201h119q46 0 85.5 -8q39.5 -8 68.5 -27q29 -19 45 -50.5q16 -31.5 16 -77.5v-16q0 -48 -18 -81q-18 -33 -48 -52.5q-30 -19.5 -69 -28q-39 -8.5 -81 -8.5h-196v486h-235v-299q0 -48 -6 -83q-6 -35 -23 -58q-17 -23 -48.5 -34.5q-31.5 -11.5 -82.5 -11.5h-52v23q0 23 10.5 31.5q10.5 8.5 38.5 8.5h3q30 0 46.5 6q16.5 6 24 19q7.5 13 9 34q1.5 21 1.5 52zM548 286v-223h117q71 0 104.5 31q33.5 31 33.5 81q0 49 -31.5 80q-31.5 31 -105.5 31z" />
<glyph unicode="&#1114;" horiz-adv-x="882" d="M152 0h-34q-23 0 -33.5 10.5q-10.5 10.5 -10.5 36.5v503h78v-223h265v223h78v-201h119q46 0 85.5 -8q39.5 -8 68.5 -27q29 -19 45 -50.5q16 -31.5 16 -77.5v-16q0 -48 -18 -81q-18 -33 -48 -52.5q-30 -19.5 -69 -28q-39 -8.5 -81 -8.5h-196v286q-13 -11 -30 -17q-17 -6 -37 -6h-198zM495 286v-223h117q71 0 104.5 31q33.5 31 33.5 81q0 49 -31.5 80q-31.5 31 -105.5 31z" />
<glyph unicode="&#1115;" horiz-adv-x="598" d="M28 682h85v69h79v-69h220v-20q0 -18 -8 -30.5q-8 -12.5 -37 -12.5h-175v-69h163q92 0 135.5 -40.5q43.5 -40.5 43.5 -121.5v-388h-33q-23 0 -34 11q-11 11 -11 37v339q0 53 -27 76q-27 23 -74 23h-163v-486h-34q-23 0 -34 11q-11 11 -11 37v571l-85 0z" />
<glyph unicode="&#1116;" horiz-adv-x="548" d="M153 550v-550h-35q-23 0 -33 11q-10 11 -10 37v502zM186 283q54 23 86.5 61.5q32.5 38.5 52.5 87.5q26 67 63 92.5q37 25.5 91 25.5h45v-17q0 -22 -8 -34.5q-8 -12.5 -38 -12.5q-11 0 -22 -2.5q-11 -2.5 -22 -11.5q-11 -9 -22 -25.5q-11 -16.5 -21 -43.5q-15 -38 -38 -72q-23 -34 -64 -63l223 -268h-89zM383 746l-84 -107q-11 -14 -21 -19.5q-10 -5.5 -30 -5.5h-25l73 132z" />
<glyph unicode="&#1118;" horiz-adv-x="548" d="M91 -209v24q0 23 11.5 33.5q11.5 10.5 40.5 10.5h170q51 0 69 20.5q18 20.5 18 55.5v104q-38 -4 -80.5 -7q-42.5 -3 -89.5 -3q-85 0 -125.5 41.5q-40.5 41.5 -40.5 131.5v348h79v-347q0 -56 18.5 -83q18.5 -27 72.5 -27q41 0 86 3q45 3 80 8l0 446h79v-616q0 -30 -9.5 -56.5q-9.5 -26.5 -29.5 -45.5q-20 -19 -51.5 -30q-31.5 -11 -75.5 -11zM187 728q3 -41 28.5 -59.5q25.5 -18.5 59.5 -18.5q32 0 57 19q25 19 29 59l57 0q-3 -56 -39.5 -92.5q-36.5 -36.5 -106.5 -36.5q-66 0 -102.5 36.5q-36.5 36.5 -39.5 92.5z" />
<glyph unicode="&#1119;" horiz-adv-x="600" d="M528 0h-185v-170h-34q-23 0 -34 10.5q-11 10.5 -11 36.5v123h-191v550h79v-487h297v487l79 0z" />
<glyph unicode="&#1168;" horiz-adv-x="575" d="M541 918v-234h-386v-684h-34q-24 0 -34 11q-10 11 -10 37v698h386l0 172z" />
<glyph unicode="&#1169;" horiz-adv-x="476" d="M439 722v-236h-286v-486h-34q-24 0 -34.5 11q-10.5 11 -10.5 38v501h287l0 172z" />
<glyph unicode="&#8364;" horiz-adv-x="920" d="M554 483v-64h-215v-133h215v-64h-215v-27q0 -26 7.5 -50q7.5 -24 22.5 -42q15 -18 37.5 -29q22.5 -11 52.5 -11h268v-21q0 -8 -2 -15.5q-2 -7.5 -8 -13.5q-6 -6 -17.5 -9.5q-11.5 -3.5 -29.5 -3.5h-215q-42 0 -78 13.5q-36 13.5 -61.5 38q-25.5 24.5 -40 59q-14.5 34.5 -14.5 77.5v34h-136v64h136v133h-136v64h136v79q0 86 57 135q57 49 161 49h238v-19q0 -18 -10 -30.5q-10 -12.5 -46 -12.5h-179q-143 0 -143 -136l0 -65z" />
<glyph unicode="&#8710;" horiz-adv-x="920" d="M450 631q3 7 8 14.5q5 7.5 13 9.5q8 2 13.5 -7q5.5 -9 8.5 -15l289 -622q1 -2 4 -7.5q3 -5.5 6 -13q3 -7.5 4.5 -14q1.5 -6.5 -0.5 -9.5q-5 -8 -17 -7.5q-12 0.5 -18 0.5h-590q-5 0 -15.5 -1q-10.5 -1 -14.5 6q-4 8 2 19q6 11 7 14zM448 541l-244 -513l482 0z" />
<glyph unicode="&#8730;" horiz-adv-x="920" d="M97 152l-35 49l108 155l149 -324l291 736h231v-65l-187 1l-330 -816l-169 347z" />
<glyph unicode="&#8734;" horiz-adv-x="920" d="M291 488q37 0 64 -12.5q27 -12.5 46 -29.5q19 -17 30.5 -34q11.5 -17 16.5 -26q4 9 15 26q11 17 29.5 34q18.5 17 46.5 29.5q28 12.5 66 12.5q34 0 64 -13q30 -13 52.5 -35.5q22.5 -22.5 35.5 -53q13 -30.5 13 -65.5q0 -35 -13 -65q-13 -30 -35.5 -52.5q-22.5 -22.5 -52.5 -35.5q-30 -13 -64 -13q-37 0 -64.5 12.5q-27.5 12.5 -46.5 29.5q-19 17 -30.5 33.5q-11.5 16.5 -15.5 25.5q-4 -9 -14.5 -25.5q-10.5 -16.5 -29 -33.5q-18.5 -17 -46.5 -29.5q-28 -12.5 -67 -12.5q-34 0 -64 13q-30 13 -52.5 35.5q-22.5 22.5 -35.5 52.5q-13 30 -13 65q0 35 13 65.5q13 30.5 35.5 53q22.5 22.5 52.5 35.5q30 13 64 13zt0 0zM186 321q0 -22 8.5 -41.5q8.5 -19.5 23 -34.5q14.5 -15 33.5 -23.5q19 -8.5 40 -8.5q30 0 52 16q22 16 36.5 35.5q14.5 19.5 22 36.5q7.5 17 8.5 20q-2 6 -9.5 23.5q-7.5 17.5 -22 37q-14.5 19.5 -36 34.5q-21.5 15 -51.5 15q-21 0 -40 -9q-19 -9 -33.5 -24q-14.5 -15 -23 -35q-8.5 -20 -8.5 -42zt0 0zM711 321q0 22 -8.5 42q-8.5 20 -23 35q-14.5 15 -34 24q-19.5 9 -40.5 9q-31 0 -53 -16q-22 -16 -36 -36q-14 -20 -21.5 -37.5q-7.5 -17.5 -8.5 -20.5q2 -5 9.5 -22.5q7.5 -17.5 22 -36q14.5 -18.5 36 -33.5q21.5 -15 51.5 -15q21 0 40.5 8.5q19.5 8.5 34 23q14.5 14.5 23 34t8.5 41.5z" />
<glyph unicode="&#8776;" horiz-adv-x="920" d="M155 381q10 10 24.5 28q14.5 18 34.5 35q20 17 46 29.5q26 12.5 58 12.5q34 0 58.5 -6.5q24.5 -6.5 45 -16q20.5 -9.5 38.5 -20.5q18 -11 38.5 -20.5q20.5 -9.5 46 -16q25.5 -6.5 60.5 -6.5q25 0 49.5 7q24.5 7 45.5 18q21 11 38 23q17 12 29 23q1 1 2 1q3 0 6.5 -3q3.5 -3 3.5 -8q0 -10 -16.5 -26.5q-16.5 -16.5 -43 -32q-26.5 -15.5 -58.5 -27q-32 -11.5 -63 -11.5q-41 0 -69 9q-28 9 -53 21.5q-25 12.5 -50.5 25.5q-25.5 13 -60.5 21q-27 6 -48 6q-24 0 -43 -6.5q-19 -6.5 -36 -17q-17 -10.5 -34.5 -24q-17.5 -13.5 -37.5 -27.5q-5 -3 -7 -3q-6 0 -6 7q0 3 2 5zt0 0zM155 117q10 10 24.5 28q14.5 18 34.5 35q20 17 46 29.5q26 12.5 58 12.5q34 0 58.5 -6.5q24.5 -6.5 45 -16q20.5 -9.5 38.5 -20.5q18 -11 38.5 -20.5q20.5 -9.5 46 -16q25.5 -6.5 60.5 -6.5q25 0 49.5 7q24.5 7 45.5 18q21 11 38 23q17 12 29 23q1 1 2 1q3 0 6.5 -3q3.5 -3 3.5 -8q0 -10 -16.5 -26.5q-16.5 -16.5 -43 -32q-26.5 -15.5 -58.5 -27q-32 -11.5 -63 -11.5q-41 0 -69 9q-28 9 -53 21.5q-25 12.5 -50.5 25.5q-25.5 13 -60.5 21q-27 6 -48 6q-24 0 -43 -6.5q-19 -6.5 -36 -17q-17 -10.5 -34.5 -24q-17.5 -13.5 -37.5 -27.5q-5 -3 -7 -3q-6 0 -6 7q0 3 2 5z" />
<glyph unicode="&#8800;" horiz-adv-x="920" d="M772 260v-70h-313l-59 -163l-80 13l56 150h-189v70h215l41 122h-256v70h280l57 168l75 -16l-50 -152h223v-70h-247l-42 -122z" />
<glyph unicode="&#8804;" horiz-adv-x="920" d="M308 375l426 -176l-31 -64l-529 220q-5 2 -11.5 8q-6.5 6 -6.5 11q0 5 6.5 11q6.5 6 11.5 8l523 219l28 -64zM749 95v-70h-601l0 70z" />
<glyph unicode="&#8805;" horiz-adv-x="920" d="M193 135l-29 64l423 176l-416 173l28 64l523 -219q7 -2 13 -8q6 -6 6 -11q0 -5 -6.5 -10.5q-6.5 -5.5 -12.5 -8.5zM749 25h-601v70l601 0z" />
<glyph unicode="&#1040;" horiz-adv-x="644" d="M170 224l-71 -224h-82l251 746h79q11 0 23 -9.5q12 -9.5 16 -20.5l242 -716h-80l-86 264q-11 -17 -29 -28.5q-18 -11.5 -38 -11.5zM322 694l-131 -405l263 0z" />
<glyph unicode="&#1041;" horiz-adv-x="608" d="M522 746v-21q0 -17 -8 -29.5q-8 -12.5 -34 -12.5h-330v-223h199q46 0 85 -9q39 -9 67 -29.5q28 -20.5 44 -54q16 -33.5 16 -81.5v-108q0 -48 -17.5 -81.5q-17.5 -33.5 -47 -55q-29.5 -21.5 -68 -31.5q-38.5 -10 -80.5 -10h-275v746zM150 396v-333h195q36 0 62 10q26 10 43 26.5q17 16.5 25 39q8 22.5 8 47.5v85q0 26 -7.5 48.5q-7.5 22.5 -24 39.5q-16.5 17 -42.5 27q-26 10 -63 10z" />
<glyph unicode="&#1042;" horiz-adv-x="617" d="M358 746q49 0 85.5 -12.5q36.5 -12.5 60 -35q23.5 -22.5 35 -53.5q11.5 -31 11.5 -67v-46q0 -48 -19.5 -88q-19.5 -40 -58.5 -58q51 -17 75.5 -55q24.5 -38 24.5 -86v-66q0 -48 -17.5 -82q-17.5 -34 -47 -55.5q-29.5 -21.5 -68.5 -31.5q-39 -10 -81 -10h-285v746zM150 684v-267h209q34 0 56.5 10.5q22.5 10.5 35 27.5q12.5 17 17.5 37.5q5 20.5 5 40.5v40q0 46 -28.5 78.5q-28.5 32.5 -85.5 32.5zM150 354v-291h207q35 0 60.5 9.5q25.5 9.5 42.5 26q17 16.5 25.5 38.5q8.5 22 8.5 47v47q0 25 -7.5 47.5q-7.5 22.5 -24 39q-16.5 16.5 -42 26.5q-25.5 10 -62.5 10z" />
<glyph unicode="&#1043;" horiz-adv-x="519" d="M152 680v-680h-34q-24 0 -34 11q-10 11 -10 37v698h415v-22q0 -19 -9.5 -31.5q-9.5 -12.5 -39.5 -12.5z" />
<glyph unicode="&#1044;" horiz-adv-x="696" d="M612 0h-528v-170h-16q-33 0 -44.5 11.5q-11.5 11.5 -11.5 46.5v173h66l220 685h65q21 0 29 -8q8 -8 15 -25l211 -652h66v-231h-16q-33 0 -44.5 11.5q-11.5 11.5 -11.5 46.5zM156 61h384l-192 611z" />
<glyph unicode="&#1045;" horiz-adv-x="582" d="M74 0v746h452v-16q0 -22 -8 -34q-8 -12 -37 -12h-329v-256h341v-19q0 -18 -7.5 -30.5q-7.5 -12.5 -36.5 -12.5h-297v-303h386v-20q0 -17 -8 -30q-8 -13 -36 -13z" />
<glyph unicode="&#1046;" horiz-adv-x="929" d="M557 386l261 360h94l-261 -359l278 -387h-61q-13 0 -27 5.5q-14 5.5 -22 16.5zM511 746v-746h-34q-43 0 -43 47v699zM126 22q-8 -11 -22 -16.5q-14 -5.5 -27 -5.5h-61l278 387l-261 359h94l261 -360z" />
<glyph unicode="&#1047;" horiz-adv-x="557" d="M95 684q-36 0 -46 12.5q-10 12.5 -10 30.5v19h209q49 0 90.5 -5q41.5 -5 70.5 -21q29 -16 45.5 -46.5q16.5 -30.5 16.5 -81.5v-65q-3 -114 -75 -140q93 -23 93 -138v-82q0 -52 -9 -84.5q-9 -32.5 -31.5 -51q-22.5 -18.5 -61 -25q-38.5 -6.5 -96.5 -6.5h-202q-18 0 -29.5 3.5q-11.5 3.5 -17.5 9.5q-6 6 -8 13.5q-2 7.5 -2 15.5v21h231q37 0 65.5 3q28.5 3 47 14q18.5 11 28 33.5q9.5 22.5 9.5 60.5v83q-1 28 -11 47q-10 19 -28 30.5q-18 11.5 -43.5 16.5q-25.5 5 -58.5 6l-156 0q-17 0 -23.5 5.5q-6.5 5.5 -6.5 21.5v33h186q65 0 93.5 19.5q28.5 19.5 28.5 75.5v72q0 34 -11.5 54q-11.5 20 -31 30.5q-19.5 10.5 -45.5 13q-26 2.5 -55 2.5z" />
<glyph unicode="&#1048;" horiz-adv-x="672" d="M148 125l379 621h68v-746h-31q-43 0 -43 47v575l-380 -622h-33q-18 0 -26 8q-8 8 -8 28v710l74 0z" />
<glyph unicode="&#1049;" horiz-adv-x="672" d="M249 782q-20 0 -32 10.5q-12 10.5 -12 38.5v18h261v-67zM148 125l379 621h68v-746h-31q-43 0 -43 47v575l-380 -622h-33q-18 0 -26 8q-8 8 -8 28v710l74 0z" />
<glyph unicode="&#1050;" horiz-adv-x="614" d="M198 386l289 360h96l-289 -359l304 -387h-63q-13 0 -27 5.5q-14 5.5 -22 16.5zM152 746v-746h-35q-43 0 -43 47l0 699z" />
<glyph unicode="&#1051;" horiz-adv-x="623" d="M117 52q-11 -33 -21 -42.5q-10 -9.5 -29 -9.5h-50l245 746h67q20 0 28.5 -8q8.5 -8 15.5 -25l234 -713h-50q-19 0 -29 9.5q-10 9.5 -21 42.5l-195 615z" />
<glyph unicode="&#1052;" horiz-adv-x="879" d="M800 0h-34q-23 0 -33.5 10.5q-10.5 10.5 -10.5 34.5v572l-214 -396q-11 -19 -27.5 -33.5q-16.5 -14.5 -42.5 -14.5q-25 0 -42 15q-17 15 -27 32l-214 397v-617h-34q-22 0 -33 11q-11 11 -11 29v706h86l253 -475q12 -22 22 -22q10 0 22 22l254 475l86 0z" />
<glyph unicode="&#1053;" horiz-adv-x="663" d="M152 427h356v319h78v-746h-33q-24 0 -34.5 10.5q-10.5 10.5 -10.5 35.5v357q-11 -17 -30 -27.5q-19 -10.5 -47 -10.5h-279v-365h-34q-23 0 -33.5 10.5q-10.5 10.5 -10.5 35.5v700l78 0z" />
<glyph unicode="&#1054;" horiz-adv-x="688" d="M343 760q145 0 214.5 -82.5q69.5 -82.5 69.5 -233.5v-143q0 -150 -69.5 -232.5q-69.5 -82.5 -214.5 -82.5q-145 0 -214.5 82.5q-69.5 82.5 -69.5 233.5v142q0 151 69.5 233.5q69.5 82.5 214.5 82.5zt0 0zM549 445q1 52 -8.5 97.5q-9.5 45.5 -33.5 78.5q-24 33 -64 52q-40 19 -100 19q-59 0 -99.5 -19q-40.5 -19 -64.5 -52q-24 -33 -34 -78.5q-10 -45.5 -8 -98.5l0 -143q0 -131 51.5 -189q51.5 -58 154.5 -58q103 0 154.5 58q51.5 58 51.5 190z" />
<glyph unicode="&#1055;" horiz-adv-x="653" d="M74 746h502v-746h-33q-23 0 -34 10.5q-11 10.5 -11 35.5v638h-346v-684h-34q-23 0 -33.5 10.5q-10.5 10.5 -10.5 35.5z" />
<glyph unicode="&#1056;" horiz-adv-x="608" d="M152 287v-287h-33q-24 0 -34.5 10.5q-10.5 10.5 -10.5 35.5v700h268q49 0 88 -9.5q39 -9.5 66 -31q27 -21.5 41 -55.5q14 -34 14 -83v-100q0 -26 -5.5 -57.5q-5.5 -31.5 -26.5 -58.5q-21 -27 -62.5 -45.5q-41.5 -18.5 -114.5 -18.5zM152 682v-331h190q69 0 100 29q31 29 31 87v100q0 54 -29.5 84.5q-29.5 30.5 -101.5 30.5z" />
<glyph unicode="&#1057;" horiz-adv-x="563" d="M527 42q0 -8 -2 -15.5q-2 -7.5 -8 -13.5q-6 -6 -17.5 -9.5q-11.5 -3.5 -29.5 -3.5h-215q-42 0 -78 13.5q-36 13.5 -61.5 38q-25.5 24.5 -40 59q-14.5 34.5 -14.5 77.5v374q0 86 57 135q57 49 161 49h238v-19q0 -18 -10 -30.5q-10 -12.5 -46 -12.5h-179q-143 0 -143 -136v-353q0 -26 7.5 -50q7.5 -24 22.5 -42q15 -18 37.5 -29q22.5 -11 52.5 -11l268 0z" />
<glyph unicode="&#1058;" horiz-adv-x="588" d="M256 684h-238v62h555v-18q0 -24 -8 -34q-8 -10 -39 -10h-192v-684h-34q-23 0 -33.5 10.5q-10.5 10.5 -10.5 35.5z" />
<glyph unicode="&#1059;" horiz-adv-x="602" d="M273 146l-265 600h88l216 -502l203 502h77l-283 -699q-11 -27 -21 -37q-10 -10 -25 -10l-49 0z" />
<glyph unicode="&#1060;" horiz-adv-x="790" d="M432 0h-34q-23 0 -32.5 10.5q-9.5 10.5 -9.5 34.5v41q-60 1 -113.5 8q-53.5 7 -94.5 33.5q-41 26.5 -65 77.5q-24 51 -24 140v98q0 88 23.5 139q23.5 51 63.5 77.5q40 26.5 94 34.5q54 8 116 9l0 72h76v-72q61 -1 115 -9q54 -8 94.5 -34.5q40.5 -26.5 64 -78q23.5 -51.5 23.5 -138.5v-98q0 -89 -24 -140q-24 -51 -65 -77.5q-41 -26.5 -95 -33.5q-54 -7 -113 -8zM136 339q0 -63 16.5 -100.5q16.5 -37.5 46 -57.5q29.5 -20 70 -26q40.5 -6 87.5 -7l0 492q-47 -1 -87.5 -7q-40.5 -6 -70 -26q-29.5 -20 -46 -57.5q-16.5 -37.5 -16.5 -100.5zM652 449q0 63 -16.5 100q-16.5 37 -46 57q-29.5 20 -70 26.5q-40.5 6.5 -87.5 7.5l0 -492q47 1 87 7q40 6 69.5 26q29.5 20 46.5 57.5q17 37.5 17 100.5z" />
<glyph unicode="&#1061;" horiz-adv-x="629" d="M18 0l250 375l-246 371h86l204 -307l203 307h88l-245 -371l248 -375h-88l-206 309l-204 -309z" />
<glyph unicode="&#1062;" horiz-adv-x="674" d="M573 63h73v-233h-31q-22 0 -32 10.5q-10 10.5 -10 35.5v124h-296q-51 0 -89.5 8.5q-38.5 8.5 -64 30q-25.5 21.5 -38.5 58.5q-13 37 -13 94v555h78v-556q0 -72 30.5 -99.5q30.5 -27.5 96.5 -27.5h220v683l76 0z" />
<glyph unicode="&#1063;" horiz-adv-x="583" d="M439 320v426h75v-746h-32q-22 0 -32.5 10.5q-10.5 10.5 -10.5 35.5v213h-191q-60 0 -101.5 11q-41.5 11 -67 35.5q-25.5 24.5 -37 64q-11.5 39.5 -11.5 97.5v279h75v-280q0 -43 8 -71q8 -28 25 -44.5q17 -16.5 44.5 -23.5q27.5 -7 65.5 -7z" />
<glyph unicode="&#1064;" horiz-adv-x="885" d="M150 192q0 -72 30.5 -100.5q30.5 -28.5 96.5 -28.5h124v683h78v-683h251v683h78v-746h-531q-51 0 -89.5 8.5q-38.5 8.5 -64 30q-25.5 21.5 -38.5 58.5q-13 37 -13 94v555l78 0z" />
<glyph unicode="&#1065;" horiz-adv-x="907" d="M277 0q-51 0 -89.5 8.5q-38.5 8.5 -64 30q-25.5 21.5 -38.5 58.5q-13 37 -13 94v555h78v-554q0 -72 30.5 -100.5q30.5 -28.5 96.5 -28.5h124v683h78v-683h251v683h78v-683h73v-233h-31q-22 0 -32 10.5q-10 10.5 -10 35.5v124l-531 0z" />
<glyph unicode="&#1066;" horiz-adv-x="712" d="M259 746v-293h193q46 0 84.5 -9q38.5 -9 67 -29.5q28.5 -20.5 44.5 -53.5q16 -33 16 -81v-102q0 -48 -17.5 -81.5q-17.5 -33.5 -47 -55q-29.5 -21.5 -68 -31.5q-38.5 -10 -80.5 -10h-270v683h-114q-29 0 -36.5 13q-7.5 13 -7.5 30v20zM259 390v-327h189q35 0 61 9.5q26 9.5 43 26q17 16.5 25.5 38.5q8.5 22 8.5 47v80q0 26 -7.5 49q-7.5 23 -24 40q-16.5 17 -42.5 27q-26 10 -63 10z" />
<glyph unicode="&#1067;" horiz-adv-x="815" d="M660 751h78v-751h-34q-44 0 -44 47zM152 746v-293h184q46 0 84.5 -9q38.5 -9 67 -29.5q28.5 -20.5 44.5 -53.5q16 -33 16 -81v-102q0 -48 -17.5 -81.5q-17.5 -33.5 -47 -55q-29.5 -21.5 -68 -31.5q-38.5 -10 -80.5 -10h-261v746zM152 390v-327h180q35 0 61 9.5q26 9.5 43 26q17 16.5 25.5 38.5q8.5 22 8.5 47v80q0 26 -7.5 49q-7.5 23 -24 40q-16.5 17 -42.5 27q-26 10 -63 10z" />
<glyph unicode="&#1068;" horiz-adv-x="606" d="M152 746v-293h193q46 0 84.5 -9q38.5 -9 67 -29.5q28.5 -20.5 44.5 -53.5q16 -33 16 -81v-102q0 -48 -17.5 -81.5q-17.5 -33.5 -47 -55q-29.5 -21.5 -68 -31.5q-38.5 -10 -80.5 -10h-270v746zM152 390v-327h189q35 0 61 9.5q26 9.5 43 26q17 16.5 25.5 38.5q8.5 22 8.5 47v80q0 26 -7.5 49q-7.5 23 -24 40q-16.5 17 -42.5 27q-26 10 -63 10z" />
<glyph unicode="&#1069;" horiz-adv-x="565" d="M33 63h267q30 0 53 11q23 11 38 29q15 18 22.5 42q7.5 24 7.5 50v149h-282q-29 0 -36.5 13q-7.5 13 -7.5 30v20h326v141q0 136 -143 136h-180q-36 0 -45.5 12.5q-9.5 12.5 -9.5 30.5v19h238q104 0 161 -49.5q57 -49.5 57 -134.5v-374q0 -42 -14.5 -76.5q-14.5 -34.5 -40.5 -59q-26 -24.5 -61.5 -38.5q-35.5 -14 -77.5 -14h-216q-36 0 -46 13q-10 13 -10 29z" />
<glyph unicode="&#1070;" horiz-adv-x="861" d="M528 -14q-73 0 -124.5 21q-51.5 21 -84.5 61q-33 40 -48 99q-15 59 -15 135v63h-104v-365h-33q-21 0 -33 13.5q-12 13.5 -12 37.5v695h78v-319h104v15q0 76 15 135.5q15 59.5 48 100q33 40.5 84.5 61.5q51.5 21 124.5 21q73 0 124.5 -21q51.5 -21 84.5 -61.5q33 -40.5 48 -100q15 -59.5 15 -135.5v-140q0 -76 -15 -135q-15 -59 -48 -99q-33 -40 -84.5 -61q-51.5 -21 -124.5 -21zt0 0zM528 51q105 0 150 64.5q45 64.5 45 187.5v140q0 53 -11 99q-11 46 -34 79.5q-23 33.5 -60.5 53q-37.5 19.5 -89.5 19.5q-53 0 -90 -19.5q-37 -19.5 -60 -53q-23 -33.5 -34 -79.5q-11 -46 -11 -99v-140q0 -123 45 -187.5t150 -64.5z" />
<glyph unicode="&#1071;" horiz-adv-x="605" d="M326 322l-196 -292q-20 -30 -43 -30h-67l220 322q-41 1 -78 10q-37 9 -65 29.5q-28 20.5 -44 53q-16 32.5 -16 79.5v92q0 78 47 119q47 41 154 41h290v-746h-34q-23 0 -33 10.5q-10 10.5 -10 35.5v276zM451 685h-213q-64 0 -93.5 -29q-29.5 -29 -29.5 -86v-67q0 -118 123 -118l213 0z" />
<glyph unicode="&#1072;" horiz-adv-x="523" d="M454 0h-233q-81 0 -128.5 36q-47.5 36 -47.5 106v63q0 84 47.5 120q47.5 36 128.5 34q38 -1 73 -3.5q35 -2.5 81 -9.5l0 57q0 39 -23 61q-23 22 -71 22h-140q-36 0 -45.5 11.5q-9.5 11.5 -9.5 28.5v24h195q90 0 131.5 -37.5q41.5 -37.5 41.5 -109.5zM222 291q-52 0 -75.5 -19.5q-23.5 -19.5 -23.5 -70.5v-54q0 -25 9.5 -41.5q9.5 -16.5 24 -26q14.5 -9.5 32 -13q17.5 -3.5 33.5 -3.5h153v217q-45 6 -82.5 8.5t-70.5 2.5z" />
<glyph unicode="&#1073;" horiz-adv-x="532" d="M485 197q0 -109 -55 -160q-55 -51 -165 -51q-53 0 -93.5 13q-40.5 13 -68.5 41.5q-28 28.5 -42 73.5q-14 45 -14 110v196q0 70 6 121.5q6 51.5 28 87q22 35.5 65 57q43 21.5 117 33.5l210 32v-35q0 -20 -8.5 -29.5q-8.5 -9.5 -42.5 -14.5l-161 -25q-36 -6 -64 -15.5q-28 -9.5 -47.5 -26q-19.5 -16.5 -30 -43.5q-10.5 -27 -10.5 -67v-20q15 22 36 37q21 15 44.5 23.5q23.5 8.5 48.5 12q25 3.5 48 3.5q100 0 149.5 -55q49.5 -55 49.5 -149zM409 339q0 32 -8 60q-8 28 -25.5 49q-17.5 21 -44.5 33q-27 12 -66 12q-65 0 -104.5 -44q-39.5 -44 -39.5 -120v-127q0 -77 37 -116.5q37 -39.5 107 -39.5q69 0 106.5 39q37.5 39 37.5 117z" />
<glyph unicode="&#1074;" horiz-adv-x="525" d="M69 550h205q100 0 143.5 -31.5q43.5 -31.5 43.5 -103.5v-30q0 -39 -16.5 -60.5q-16.5 -21.5 -36.5 -35.5q33 -13 54 -36.5q21 -23.5 21 -70.5v-33q0 -48 -19 -77.5q-19 -29.5 -49.5 -45.5q-30.5 -16 -69 -21q-38.5 -5 -77.5 -5h-199zM144 258v-197h124q72 0 105.5 16.5q33.5 16.5 33.5 69.5v22q0 26 -7.5 43.5q-7.5 17.5 -24 27.5q-16.5 10 -42.5 14q-26 4 -64 4zM259 317q34 0 58.5 3.5q24.5 3.5 39.5 12q15 8.5 22 23.5q7 15 7 38v21q0 46 -31 60q-31 14 -97 14h-114l0 -172z" />
<glyph unicode="&#1075;" horiz-adv-x="443" d="M148 484v-484h-34q-24 0 -34.5 11q-10.5 11 -10.5 38v501h355v-21q0 -19 -9.5 -32q-9.5 -13 -39.5 -13z" />
<glyph unicode="&#1076;" horiz-adv-x="568" d="M57 -170q-20 0 -33 12q-13 12 -13 36v181h61l167 491h62q16 0 23.5 -6q7.5 -6 12.5 -20l159 -465h61v-229h-26q-20 0 -33 12q-13 12 -13 36v122h-402v-170zM147 59h274l-137 426z" />
<glyph unicode="&#1077;" horiz-adv-x="526" d="M460 63v-24q0 -18 -9 -28.5q-9 -10.5 -45 -10.5h-164q-42 0 -76.5 12q-34.5 12 -59 34.5q-24.5 22.5 -38 54.5q-13.5 32 -13.5 72v196q0 52 17 89.5q17 37.5 46 60.5q29 23 67 34q38 11 81 11q46 0 85.5 -11.5q39.5 -11.5 68.5 -33.5q29 -22 45 -54.5q16 -32.5 16 -74.5v-82q0 -32 -15.5 -48.5q-15.5 -16.5 -53.5 -16.5h-278v-70q0 -53 31.5 -81.5q31.5 -28.5 76.5 -28.5zM134 306h238q19 0 24.5 6q5.5 6 5.5 24v54q0 51 -35 81q-35 30 -101 30q-61 0 -96.5 -30q-35.5 -30 -35.5 -81z" />
<glyph unicode="&#1078;" horiz-adv-x="718" d="M321 550h76v-550h-28q-24 0 -36 10q-12 10 -12 36zM295 295l-182 -273q-15 -22 -39 -22h-66l201 295l-190 255h89zM610 550h89l-190 -255l201 -295h-66q-24 0 -39 22l-182 273z" />
<glyph unicode="&#1079;" horiz-adv-x="455" d="M89 0q-35 0 -45 12q-10 12 -10 29v20h201q23 0 40.5 2q17.5 2 29.5 8.5q12 6.5 18 20q6 13.5 6 37.5v64q-2 34 -24.5 47q-22.5 13 -63.5 15l-140 0q-17 0 -23.5 6q-6.5 6 -6.5 23v31h170q40 0 57 12q17 12 17 45v55q0 21 -7 33.5q-7 12.5 -19 19q-12 6.5 -28 8q-16 1.5 -34 1.5h-137q-17 0 -27.5 3.5q-10.5 3.5 -16 9.5q-5.5 6 -7 14q-1.5 8 -1.5 17v17h191q36 0 66 -4q30 -4 51.5 -16.5q21.5 -12.5 33.5 -36q12 -23.5 12 -63.5v-46q0 -73 -44 -98q30 -11 43.5 -37.5q13.5 -26.5 13.5 -62.5v-58q0 -40 -7 -65q-7 -25 -24 -39q-17 -14 -45.5 -19q-28.5 -5 -71.5 -5z" />
<glyph unicode="&#1080;" horiz-adv-x="566" d="M425 417l-306 -417h-14q-20 0 -28 8q-8 8 -8 28v514h71v-419l308 419h48v-550h-27q-23 0 -33.5 9.5q-10.5 9.5 -10.5 34.5z" />
<glyph unicode="&#1081;" horiz-adv-x="566" d="M212 587q-20 0 -32 10.5q-12 10.5 -12 37.5v18h239v-66zM425 417l-306 -417h-14q-20 0 -28 8q-8 8 -8 28v514h71v-419l308 419h48v-550h-27q-23 0 -33.5 9.5q-10.5 9.5 -10.5 34.5z" />
<glyph unicode="&#1082;" horiz-adv-x="508" d="M69 550h76v-550h-28q-25 0 -36.5 10q-11.5 10 -11.5 36zM396 550h92l-225 -256l237 -294h-74q-12 0 -20.5 5q-8.5 5 -18.5 15l-216 275z" />
<glyph unicode="&#1083;" horiz-adv-x="499" d="M105 35q-6 -20 -17 -27.5q-11 -7.5 -28 -7.5h-44l189 550h65q17 0 24 -6q7 -6 12 -20l180 -524h-44q-17 0 -28 7.5q-11 7.5 -17 27.5l-146 433z" />
<glyph unicode="&#1084;" horiz-adv-x="685" d="M582 0q-23 0 -33 15.5q-10 15.5 -10 32.5v348l-125 -217q-12 -21 -30.5 -35q-18.5 -14 -41.5 -14q-23 0 -41.5 14q-18.5 14 -30.5 35l-125 217v-396h-30q-23 0 -33 15.5q-10 15.5 -10 32.5v502h60l187 -331q6 -10 10.5 -16q4.5 -6 12.5 -6q8 0 12.5 6q4.5 6 10.5 16l187 331h60l0 -550z" />
<glyph unicode="&#1085;" horiz-adv-x="563" d="M146 266v-266h-33q-23 0 -33.5 9.5q-10.5 9.5 -10.5 34.5v506h77v-223h270v223h77v-550h-32q-24 0 -34.5 9.5q-10.5 9.5 -10.5 34.5v236q-11 -6 -24 -10q-13 -4 -27 -4z" />
<glyph unicode="&#1086;" horiz-adv-x="531" d="M265 564q54 0 95 -12q41 -12 68.5 -39q27.5 -27 42 -69.5q14.5 -42.5 14.5 -103.5v-128q0 -121 -55.5 -173.5q-55.5 -52.5 -164.5 -52.5q-106 0 -163 52q-57 52 -57 174v128q0 60 14.5 102.5q14.5 42.5 43 69.5q28.5 27 69 39.5q40.5 12.5 93.5 12.5zt0 0zM406 340q0 86 -31.5 123.5q-31.5 37.5 -109.5 37.5q-71 0 -106 -35.5q-35 -35.5 -35 -125.5v-128q0 -89 34 -125.5q34 -36.5 107 -36.5q36 0 62.5 8q26.5 8 44 27q17.5 19 26 50q8.5 31 8.5 77z" />
<glyph unicode="&#1087;" horiz-adv-x="553" d="M69 550h414v-550h-33q-21 0 -33.5 12.5q-12.5 12.5 -12.5 33.5v443h-259v-489h-30q-21 0 -33.5 12.5q-12.5 12.5 -12.5 33.5z" />
<glyph unicode="&#1088;" horiz-adv-x="523" d="M69 550h211q197 0 197 -182v-188q0 -94 -51 -137q-51 -43 -146 -43h-132v-209h-34q-24 0 -34.5 11q-10.5 11 -10.5 37zM148 63h132q118 0 118 117v188q0 58 -28.5 88q-28.5 30 -89.5 30l-132 0z" />
<glyph unicode="&#1089;" horiz-adv-x="467" d="M432 63v-21q0 -17 -9.5 -29.5q-9.5 -12.5 -45.5 -12.5h-132q-44 0 -81 12.5q-37 12.5 -63.5 36q-26.5 23.5 -41 57q-14.5 33.5 -14.5 75.5v185q0 42 14.5 76q14.5 34 41 58q26.5 24 63.5 37q37 13 81 13h183v-19q0 -18 -9 -31.5q-9 -13.5 -43 -13.5h-131q-59 0 -90 -30q-31 -30 -31 -90v-184q0 -53 31 -86q31 -33 90 -33z" />
<glyph unicode="&#1090;" horiz-adv-x="455" d="M187 489h-169v61h419v-17q0 -23 -8 -33.5q-8 -10.5 -39 -10.5h-127v-489h-29q-22 0 -34.5 12q-12.5 12 -12.5 37z" />
<glyph unicode="&#1091;" horiz-adv-x="554" d="M96 -209v24q0 23 11.5 33.5q11.5 10.5 40.5 10.5h170q51 0 69 20.5q18 20.5 18 55.5v75q-38 -4 -80.5 -6q-42.5 -2 -89.5 -4q-86 -2 -126 44q-40 46 -40 129v377h79v-376q0 -56 19 -84q19 -28 72 -27q41 1 86 4q45 3 80 6l0 477h79v-616q0 -30 -9.5 -56.5q-9.5 -26.5 -29.5 -45.5q-20 -19 -51.5 -30q-31.5 -11 -75.5 -11z" />
<glyph unicode="&#1092;" horiz-adv-x="701" d="M314 751h72v-188q56 -1 104.5 -9q48.5 -8 84.5 -33.5q36 -25.5 57 -74q21 -48.5 21 -130.5v-83q0 -83 -21.5 -131.5q-21.5 -48.5 -58 -74q-36.5 -25.5 -85 -33q-48.5 -7.5 -102.5 -8.5l0 -195h-22q-23 0 -36.5 12.5q-13.5 12.5 -13.5 39.5v143q-55 1 -103.5 8.5q-48.5 7.5 -85 33q-36.5 25.5 -57.5 74q-21 48.5 -21 131.5v83q0 82 20.5 130.5q20.5 48.5 56.5 74q36 25.5 85 33.5q49 8 105 9zM121 227q0 -58 14.5 -93q14.5 -35 40.5 -54q26 -19 61 -25.5q35 -6.5 77 -7.5l0 454q-42 -1 -77.5 -7.5q-35.5 -6.5 -61 -25.5q-25.5 -19 -40 -54q-14.5 -35 -14.5 -93zM579 321q0 58 -14.5 93q-14.5 35 -40.5 54q-26 19 -61 25.5q-35 6.5 -77 7.5l0 -454q42 1 77 7.5q35 6.5 61 25.5q26 19 40.5 54q14.5 35 14.5 93z" />
<glyph unicode="&#1093;" horiz-adv-x="527" d="M15 0l202 276l-195 274h83l155 -221l156 221h85l-196 -274l203 -276h-84l-161 223l-163 -223z" />
<glyph unicode="&#1094;" horiz-adv-x="582" d="M247 0q-51 0 -85.5 10q-34.5 10 -55.5 32.5q-21 22.5 -30 60q-9 37.5 -9 93.5v354h77v-352q0 -38 3.5 -64q3.5 -26 14 -41.5q10.5 -15.5 31 -22.5q20.5 -7 54.5 -7h164v487h77v-487h64v-233h-28q-21 0 -34.5 12q-13.5 12 -13.5 38v120l-229 0z" />
<glyph unicode="&#1095;" horiz-adv-x="501" d="M355 247v303h76v-550h-32q-22 0 -33 10q-11 10 -11 36v140h-141q-179 0 -179 162v202h76v-201q0 -55 27.5 -78.5q27.5 -23.5 75.5 -23.5z" />
<glyph unicode="&#1096;" horiz-adv-x="763" d="M257 0q-51 0 -87 10q-36 10 -58.5 32.5q-22.5 22.5 -32.5 60q-10 37.5 -10 93.5v354h76v-352q0 -38 5 -64q5 -26 17.5 -41.5q12.5 -15.5 34.5 -22.5q22 -7 56 -7h85v487h76v-487h198v487h76l0 -550z" />
<glyph unicode="&#1097;" horiz-adv-x="787" d="M257 0q-51 0 -87 10q-36 10 -58.5 32.5q-22.5 22.5 -32.5 60q-10 37.5 -10 93.5v354h76v-352q0 -38 5 -64q5 -26 17.5 -41.5q12.5 -15.5 34.5 -22.5q22 -7 56 -7h85v487h76v-487h198v487h76v-487h64v-233h-28q-21 0 -34.5 12q-13.5 12 -13.5 38l0 120z" />
<glyph unicode="&#1098;" horiz-adv-x="575" d="M223 550v-191h100q46 0 85.5 -6.5q39.5 -6.5 68 -24.5q28.5 -18 45 -49q16.5 -31 16.5 -79v-41q0 -48 -16.5 -79q-16.5 -31 -45 -49q-28.5 -18 -68 -24.5q-39.5 -6.5 -85.5 -6.5h-176v486h-95q-29 0 -37 12.5q-8 12.5 -8 30.5v21zM321 61q77 0 108.5 24.5q31.5 24.5 31.5 69.5v49q0 45 -31.5 69.5q-31.5 24.5 -108.5 24.5h-98l0 -237z" />
<glyph unicode="&#1099;" horiz-adv-x="668" d="M519 550h79v-550h-34q-23 0 -34 11q-11 11 -11 37zM233 61q77 0 108.5 24.5q31.5 24.5 31.5 69.5v49q0 45 -31.5 69.5q-31.5 24.5 -108.5 24.5h-88v-237zM145 550v-191h90q46 0 85.5 -6.5q39.5 -6.5 68 -24.5q28.5 -18 45 -49q16.5 -31 16.5 -79v-41q0 -48 -16.5 -79q-16.5 -31 -45 -49q-28.5 -18 -68 -24.5q-39.5 -6.5 -85.5 -6.5h-166l0 550z" />
<glyph unicode="&#1100;" horiz-adv-x="497" d="M243 61q77 0 108.5 24.5q31.5 24.5 31.5 69.5v49q0 45 -31.5 69.5q-31.5 24.5 -108.5 24.5h-98v-237zM145 550v-191h100q46 0 85.5 -6.5q39.5 -6.5 68 -24.5q28.5 -18 45 -49q16.5 -31 16.5 -79v-41q0 -48 -16.5 -79q-16.5 -31 -45 -49q-28.5 -18 -68 -24.5q-39.5 -6.5 -85.5 -6.5h-176l0 550z" />
<glyph unicode="&#1101;" horiz-adv-x="464" d="M32 63h187q59 0 90 33q31 33 31 86v62h-212q-29 0 -37 12.5q-8 12.5 -8 30.5v20h257v59q0 60 -31 90q-31 30 -90 30h-131q-17 0 -27.5 3.5q-10.5 3.5 -16 10q-5.5 6.5 -7 14.5q-1.5 8 -1.5 17v19h183q44 0 81 -13q37 -13 63.5 -37q26.5 -24 41 -58q14.5 -34 14.5 -76v-185q0 -42 -14.5 -75.5q-14.5 -33.5 -41 -57q-26.5 -23.5 -63.5 -36q-37 -12.5 -81 -12.5h-132q-35 0 -45 12.5q-10 12.5 -10 29.5z" />
<glyph unicode="&#1102;" horiz-adv-x="685" d="M640 210q0 -224 -208 -224q-208 0 -208 224v56h-80v-266h-31q-23 0 -33.5 9.5q-10.5 9.5 -10.5 34.5v506h75v-223h80v13q0 224 208 224q208 0 208 -224zM566 340q0 83 -34 122q-34 39 -100 39q-66 0 -100 -39q-34 -39 -34 -122v-130q0 -83 34 -122q34 -39 100 -39q66 0 100 39q34 39 34 122z" />
<glyph unicode="&#1103;" horiz-adv-x="518" d="M267 210l-123 -176q-14 -19 -25 -26.5q-11 -7.5 -32 -7.5h-57l154 213q-30 3 -58 13q-28 10 -49 28q-21 18 -33.5 45.5q-12.5 27.5 -12.5 65.5v31q0 75 50.5 114.5q50.5 39.5 154.5 39.5h212v-550h-30q-23 0 -34 10q-11 10 -11 36v164zM248 488q-75 0 -107.5 -21q-32.5 -21 -32.5 -75v-26q0 -54 34.5 -74q34.5 -20 106.5 -20h124l0 216z" />
<glyph unicode="&#1105;" horiz-adv-x="544" d="M479 63v-24q0 -18 -9 -28.5q-9 -10.5 -45 -10.5h-164q-42 0 -76.5 12q-34.5 12 -59 34.5q-24.5 22.5 -38 54.5q-13.5 32 -13.5 72v196q0 52 17 89.5q17 37.5 46 60.5q29 23 67 34q38 11 81 11q46 0 85.5 -11.5q39.5 -11.5 68.5 -33.5q29 -22 45 -54.5q16 -32.5 16 -74.5v-82q0 -32 -15.5 -48.5q-15.5 -16.5 -53.5 -16.5h-278v-70q0 -53 31.5 -81.5q31.5 -28.5 76.5 -28.5zM153 306h238q19 0 24.5 6q5.5 6 5.5 24v54q0 51 -35 81q-35 30 -101 30q-61 0 -96.5 -30q-35.5 -30 -35.5 -81zM243 709v-92h-36q-26 0 -38.5 10q-12.5 10 -12.5 38v44zM416 709v-92h-36q-25 0 -38 10q-13 10 -13 38l0 44z" />
<glyph unicode="&#1025;" horiz-adv-x="564" d="M223 915v-92h-36q-26 0 -38.5 10q-12.5 10 -12.5 38v44zM416 915v-92h-36q-25 0 -38 10q-13 10 -13 38v44zM55 0v746h452v-16q0 -22 -8 -34q-8 -12 -37 -12h-329v-256h341v-19q0 -18 -7.5 -30.5q-7.5 -12.5 -36.5 -12.5h-297v-303h386v-20q0 -17 -8 -30q-8 -13 -36 -13z" />
<glyph unicode="&#8470;" horiz-adv-x="974" d="M485 153v593h68v-701q0 -24 -10 -34.5q-10 -10.5 -33 -10.5h-14l-354 598v-553q0 -24 -10.5 -34.5q-10.5 -10.5 -33.5 -10.5h-24v746h58zM798 578q47 0 78 -12q31 -12 49 -37.5q18 -25.5 25 -65.5q7 -40 7 -97v-27q0 -56 -7 -96.5q-7 -40.5 -24.5 -66q-17.5 -25.5 -48.5 -37.5q-31 -12 -79 -12q-46 0 -76.5 11.5q-30.5 11.5 -49 37q-18.5 25.5 -26 66q-7.5 40.5 -7.5 97.5v27q0 57 7.5 97q7.5 40 26 65.5q18.5 25.5 49 37.5q30.5 12 76.5 12zt0 0zM890 368q0 32 -2.5 59.5q-2.5 27.5 -12 47.5q-9.5 20 -28 31.5q-18.5 11.5 -49.5 11.5q-52 0 -72 -36.5q-20 -36.5 -20 -113.5v-31q0 -77 19 -114.5q19 -37.5 73 -37.5q53 0 72.5 37q19.5 37 19.5 115zM682 0q-51 0 -51 42v22h343l0 -64z" />
<glyph unicode="&#8211;" horiz-adv-x="721" d="M66 327h578v-64l-578 0z" />
<glyph unicode="&#8212;" horiz-adv-x="759" d="M-10 327h779v-64l-779 0z" />
</font>
</defs>
</svg>
